<?xml version="1.0" encoding="utf-8"?>
<!-- Generator: Adobe Illustrator 18.1.1, SVG Export Plug-In . SVG Version: 6.00 Build 0)  -->
<svg version="1.1" id="Capa_1" xmlns="http://www.w3.org/2000/svg" xmlns:xlink="http://www.w3.org/1999/xlink" x="0px" y="0px"
	 viewBox="0 0 612 792" enable-background="new 0 0 612 792" xml:space="preserve">
<g>
	<path fill="#FFFFFF" d="M306,90C137,90,0,227,0,396s137,306,306,306s306-137,306-306S475,90,306,90z M306,591.3
		c-23.9,0-40.3-18.4-40.3-42.3c0-24.6,17.1-42.3,40.3-42.3c24.6,0,40.3,17.7,40.3,42.3C346.3,572.9,330.6,591.3,306,591.3z
		 M321.9,429.7c-6.1,20.8-25.3,21.1-31.7,0c-7.4-24.4-33.6-116.9-33.6-177c0-79.3,99.2-79.7,99.2,0
		C355.8,313.1,328.2,408.1,321.9,429.7z"/>
</g>
</svg>
