<?xml version="1.0" encoding="utf-8"?>
<!-- Generator: Adobe Illustrator 18.1.1, SVG Export Plug-In . SVG Version: 6.00 Build 0)  -->
<svg version="1.1" id="Capa_1" xmlns="http://www.w3.org/2000/svg" xmlns:xlink="http://www.w3.org/1999/xlink" x="0px" y="0px"
	 viewBox="-62 154.8 485.2 485.2" enable-background="new -62 154.8 485.2 485.2" xml:space="preserve">
<g>
	<path fill="#FFFFFF" d="M392.9,609.7V336.7H180.6v-182H-31.7v454.9H-62V640h485.2v-30.3H392.9z M-1.3,185.1h60.7v60.7H-1.3V185.1z
		 M-1.3,276.1h60.7v60.7H-1.3V276.1z M-1.3,367.1h60.7v60.6H-1.3V367.1z M-1.3,458h60.7v60.6H-1.3V458z M120,609.7H29V549h91
		L120,609.7L120,609.7z M150.3,518.7H89.6V458h60.7L150.3,518.7L150.3,518.7z M150.3,427.7H89.6v-60.6h60.7L150.3,427.7L150.3,427.7
		z M150.3,336.7H89.6v-60.7h60.7L150.3,336.7L150.3,336.7z M150.3,245.8H89.6v-60.7h60.7L150.3,245.8L150.3,245.8z M210.9,367.1
		h60.7v60.6h-60.7L210.9,367.1L210.9,367.1z M210.9,458h60.7v60.6h-60.7L210.9,458L210.9,458z M332.2,609.7h-91V549h91V609.7z
		 M362.6,518.7h-60.7V458h60.7V518.7z M362.6,427.7h-60.7v-60.6h60.7V427.7z"/>
</g>
</svg>
