<?xml version="1.0" encoding="utf-8"?>
<!-- Generator: Adobe Illustrator 18.1.1, SVG Export Plug-In . SVG Version: 6.00 Build 0)  -->
<svg version="1.1" id="Capa_1" xmlns="http://www.w3.org/2000/svg" xmlns:xlink="http://www.w3.org/1999/xlink" x="0px" y="0px"
	 viewBox="-68 159.2 474.8 474.8" enable-background="new -68 159.2 474.8 474.8" xml:space="preserve">
<g>
	<g>
		<path fill="#FFFFFF" d="M328.3,416.3c-1.1-0.6-2.3-0.9-3.4-0.9c-2.5,0-4.7,1-6.6,2.9L300,436.6c-1.7,1.7-2.6,3.8-2.6,6.3v72.5
			c0,12.6-4.5,23.3-13.4,32.3c-8.9,8.9-19.7,13.4-32.3,13.4H14.2c-12.6,0-23.3-4.5-32.3-13.4c-8.9-8.9-13.4-19.7-13.4-32.3V277.8
			c0-12.6,4.5-23.3,13.4-32.3c8.9-8.9,19.7-13.4,32.3-13.4h237.5c4.2,0,8.5,0.6,12.8,1.7c1.1,0.4,2,0.6,2.6,0.6
			c2.5,0,4.7-0.9,6.6-2.9l14-14c2.3-2.3,3.1-5,2.6-8.3c-0.6-3-2.3-5.2-5.1-6.6c-10.3-4.8-21.4-7.1-33.4-7.1H14.2
			c-22.7,0-42,8-58.1,24.1C-60,235.8-68,255.2-68,277.8v237.5c0,22.6,8,42,24.1,58.1c16.1,16.1,35.5,24.1,58.1,24.1h237.5
			c22.6,0,42-8,58.1-24.1C326,557.4,334,538,334,515.4v-90.8C334,420.6,332.1,417.8,328.3,416.3z"/>
		<path fill="#FFFFFF" d="M400,252.4L368.5,221c-4.6-4.6-10-6.9-16.3-6.9c-6.3,0-11.7,2.3-16.3,6.9L151.3,405.7l-75.1-75.1
			c-4.6-4.6-10-6.9-16.3-6.9c-6.3,0-11.7,2.3-16.3,6.9L12.2,362c-4.6,4.6-6.9,10-6.9,16.3c0,6.3,2.3,11.7,6.9,16.3L135,517.4
			c4.6,4.6,10,6.9,16.3,6.9s11.7-2.3,16.3-6.9L399.9,285c4.6-4.6,6.9-10,6.9-16.3S404.5,257,400,252.4z"/>
	</g>
</g>
</svg>
