<?xml version="1.0" encoding="utf-8"?>
<!-- Generator: Adobe Illustrator 18.1.1, SVG Export Plug-In . SVG Version: 6.00 Build 0)  -->
<svg version="1.1" id="Capa_1" xmlns="http://www.w3.org/2000/svg" xmlns:xlink="http://www.w3.org/1999/xlink" x="0px" y="0px"
	 viewBox="-49 141 512 512" enable-background="new -49 141 512 512" xml:space="preserve">
<g>
	<path fill="#FFFFFF" d="M199.2,366.5l-26.1-26.1l147.1-56.6l-56.6,147.1l-26.1-26.1c2.7-10.6,0.4-22.2-7.8-30.5
		S209.8,363.8,199.2,366.5z M184.4,419.6c-8.3-8.3-10.6-19.9-7.8-30.5l-26.1-26.1L93.9,510.1l147.1-56.6l-26.1-26.1
		C204.2,430.2,192.7,427.9,184.4,419.6z M463,397c0,141.4-114.6,256-256,256S-49,538.4-49,397S65.6,141,207,141S463,255.6,463,397z
		 M191,173c0,8.8,7.2,16,16,16s16-7.2,16-16s-7.2-16-16-16S191,164.2,191,173z M-1,397c0-8.8-7.2-16-16-16s-16,7.2-16,16
		s7.2,16,16,16S-1,405.8-1,397z M223,621c0-8.8-7.2-16-16-16s-16,7.2-16,16s7.2,16,16,16S223,629.8,223,621z M399,397
		c0-105.9-86.1-192-192-192S15,291.1,15,397s86.1,192,192,192S399,502.9,399,397z M447,397c0-8.8-7.2-16-16-16s-16,7.2-16,16
		s7.2,16,16,16S447,405.8,447,397z"/>
</g>
</svg>
