<?xml version="1.0" encoding="utf-8"?>
<!-- Generator: Adobe Illustrator 18.1.1, SVG Export Plug-In . SVG Version: 6.00 Build 0)  -->
<svg version="1.1" id="Capa_1" xmlns="http://www.w3.org/2000/svg" xmlns:xlink="http://www.w3.org/1999/xlink" x="0px" y="0px"
	 viewBox="0 0 612 792" enable-background="new 0 0 612 792" xml:space="preserve">
<g>
	<path fill="#FFFFFF" d="M60.1,114.7C26.9,114.7,0,141.6,0,174.8v407.4h226.5v38.3h-38.1v28.4c0,15.7,14.5,28.4,32.5,28.4h170.2
		c17.9,0,32.5-12.7,32.5-28.4s0-28.4,0-28.4h-38.1v-38.3H552c33.2,0,60.1-26.9,60.1-60.1V114.7H60.1z M546.3,478.5
		c0,15.3-12.4,27.6-27.6,27.6h-453V218.4c0-15.3,12.4-27.6,27.6-27.6h453V478.5z"/>
</g>
</svg>
