<?xml version="1.0" encoding="utf-8"?>
<!-- Generator: Adobe Illustrator 18.1.1, SVG Export Plug-In . SVG Version: 6.00 Build 0)  -->
<svg version="1.1" id="Capa_1" xmlns="http://www.w3.org/2000/svg" xmlns:xlink="http://www.w3.org/1999/xlink" x="0px" y="0px"
	 viewBox="0 0 612 792" enable-background="new 0 0 612 792" xml:space="preserve">
<g>
	<path fill="#655F5F" d="M216,701.2c6,3.2,12.3-3.7,8.6-9.4c-19.9-30.9-38.7-82.9-8.7-150c50-111.7,80.4-169.6,80.4-169.6
		s16.2,67.5,60,127.6c42.2,57.8,65.3,130.5,28.1,191c-3.5,5.7,2.7,12.4,8.6,9.3c46.1-23.6,97.8-70.9,103.6-165
		c2.2-28.8-1.1-69-17.2-119.9c-20.7-64.4-46.2-94.5-61-107.4c-4.4-3.9-11.3-0.4-10.9,5.4c4.3,69.5-21.8,87.1-36.7,47.4
		c-5.9-15.9-9.4-43.3-9.4-76.8c0-55.7-16.1-113-51.8-159.5c-9.3-12.1-20.1-23.4-32.5-33.1c-4.5-3.5-11,0-10.6,5.7
		c2.7,37.7,0.3,145.9-94.6,275.1C85.9,492,119.2,584.1,131.1,609C153.7,656.8,185.2,684.8,216,701.2z"/>
</g>
</svg>
