<?xml version="1.0" encoding="utf-8"?>
<!-- Generator: Adobe Illustrator 18.1.1, SVG Export Plug-In . SVG Version: 6.00 Build 0)  -->
<svg version="1.1" id="Layer_1" xmlns="http://www.w3.org/2000/svg" xmlns:xlink="http://www.w3.org/1999/xlink" x="0px" y="0px"
	 viewBox="0 0 81.2 57.6" enable-background="new 0 0 81.2 57.6" xml:space="preserve">
<g>
	<g>
		<path fill="#665F60" d="M61.1,30.6c-1-1-1-2.6,0-3.6L80.6,7.5c1-1,0.6-1.8-0.7-1.8h-6.4c-1.4,0-3.3,0.8-4.3,1.8L49.7,27
			c-1,1-1,2.6,0,3.6l19.5,19.5c1,1,2.9,1.8,4.3,1.8h6.4c1.4,0,1.7-0.8,0.7-1.8L61.1,30.6z"/>
	</g>
	<g>
		<path fill="#665F60" d="M35.5,54.5c0,1.7,1.4,3.2,3.2,3.2h3.8c1.7,0,3.2-1.4,3.2-3.2V3.2c0-1.7-1.4-3.2-3.2-3.2h-3.8
			c-1.7,0-3.2,1.4-3.2,3.2V54.5z"/>
	</g>
	<g>
		<path fill="#665F60" d="M20,30.6c1-1,1-2.6,0-3.6L0.6,7.5c-1-1-0.7-1.8,0.7-1.8h6.4c1.4,0,3.3,0.8,4.3,1.8L31.5,27
			c1,1,1,2.6,0,3.6L12,50.1c-1,1-2.9,1.8-4.3,1.8H1.3c-1.4,0-1.7-0.8-0.7-1.8L20,30.6z"/>
	</g>
</g>
</svg>
