<?xml version="1.0" encoding="utf-8"?>
<!-- Generator: Adobe Illustrator 18.1.1, SVG Export Plug-In . SVG Version: 6.00 Build 0)  -->
<svg version="1.1" id="Capa_1" xmlns="http://www.w3.org/2000/svg" xmlns:xlink="http://www.w3.org/1999/xlink" x="0px" y="0px"
	 viewBox="-61 153.8 487.2 487.2" enable-background="new -61 153.8 487.2 487.2" xml:space="preserve">
<g>
	<g>
		<path fill="#655F5F" d="M-5.7,357.4c15.7,0,29.8-9.4,35.9-23.9c25-59.6,83.8-101.6,152.4-101.6c37.8,0,72.4,13,100.2,34.4
			l-21.8,3.4c-7.4,1.2-13.2,7.1-14.2,14.5c-1,7.5,3,14.7,9.9,17.8l119.7,53.9c5.2,2.4,11.3,1.9,16.2-1.2c4.8-3.1,7.8-8.5,7.8-14.2
			l0.6-131.9c0-7.5-4.9-14.1-12-16.3c-7.2-2.2-14.9,0.6-19.1,6.8l-16.5,24.8c-44-43.3-104.3-70.1-170.8-70.1
			c-100.8,0-187.5,61.6-224.4,149.1c-5.1,12.1-3.8,26,3.4,37C-31.1,350.8-18.8,357.4-5.7,357.4z"/>
		<path fill="#655F5F" d="M403.6,455c-7.3-11-19.6-17.6-32.7-17.6c-15.7,0-29.8,9.4-35.9,23.9c-25,59.6-83.8,101.6-152.4,101.6
			c-37.8,0-72.4-13-100.2-34.4l21.8-3.4c7.4-1.2,13.2-7.1,14.2-14.5c1-7.5-3-14.7-9.9-17.8l-119.7-53.9c-5.2-2.4-11.3-1.9-16.2,1.2
			c-4.8,3.1-7.8,8.5-7.8,14.2l-0.6,131.9c0,7.5,4.9,14.1,12,16.3c7.2,2.2,14.9-0.6,19.1-6.8l16.5-24.8
			c44,43.3,104.3,70.1,170.8,70.1c100.8,0,187.5-61.6,224.4-149.1C412.2,479.8,410.9,465.9,403.6,455z"/>
	</g>
</g>
</svg>
