<?xml version="1.0" encoding="utf-8"?>
<!-- Generator: Adobe Illustrator 18.1.1, SVG Export Plug-In . SVG Version: 6.00 Build 0)  -->
<svg version="1.1" id="Capa_1" xmlns="http://www.w3.org/2000/svg" xmlns:xlink="http://www.w3.org/1999/xlink" x="0px" y="0px"
	 viewBox="0.4 90.4 611.2 611.2" enable-background="new 0.4 90.4 611.2 611.2" xml:space="preserve">
<g>
	<path fill="#655F5F" d="M611.6,396c0,169-137.4,305.6-305.6,305.6C137,701.6,0.4,564.2,0.4,396C0.4,227,137.8,90.4,306,90.4
		c61.4,0,122.1,18.6,172.2,53.4l46.9-46.9l38,144.7l-144.7-38l33.1-33.1c-42.8-27.5-93-42.8-144.7-42.8
		C158.9,127.6,38.4,248.1,38.4,396c0,147.9,120.5,268.4,268.4,268.4S575.2,543.9,575.2,396L611.6,396L611.6,396z M318.1,158.3h-18.6
		v38h18.6V158.3z M318.1,587.6h-18.6v38h18.6V587.6z M542.1,401.7v-18.6h-38v18.6H542.1z M112.8,401.7v-18.6h-38v18.6H112.8z"/>
</g>
<g>
	<path fill="#655F5F" d="M192.4,439.3c1.6,8.9,4.9,15.4,8.9,20.2c4.9,4.9,11.3,7.3,20.2,7.3c9.7,0,17.8-3.2,22.6-10.5
		c4.9-7.3,8.1-16.2,8.1-26.7c0-10.5-2.4-19.4-7.3-26.7c-4.9-7.3-12.9-10.5-22.6-10.5c-4.9,0-8.9,0.8-12.9,1.6
		c-6.5,2.4-11.3,6.5-14.6,12.9l-36.4-1.6l14.6-114h113.2v34.8h-84.1l-7.3,45.3c6.5-4,11.3-6.5,14.6-8.1c5.7-2.4,12.9-3.2,21.8-3.2
		c17,0,31.5,5.7,44.5,17c12.9,11.3,19.4,28.3,19.4,50.1c0,19.4-6.5,36.4-18.6,50.9c-12.1,14.6-30.7,22.6-55,22.6
		c-19.4,0-35.6-5.7-48.5-16.2c-12.9-10.5-19.4-25.1-21-44.5h40.4V439.3z"/>
	<path fill="#655F5F" d="M356.5,444.9c0.8,7.3,2.4,12.1,5.7,15.4c4.9,5.7,14.6,8.1,28.3,8.1c8.1,0,14.6-0.8,19.4-3.2
		s7.3-5.7,7.3-10.5c0-4.9-1.6-8.1-5.7-10.5s-17.8-6.5-42-12.1c-17.8-4-29.9-9.7-37.2-16.2c-7.3-6.5-10.5-15.4-10.5-27.5
		c0-14.6,5.7-26.7,17-37.2c11.3-10.5,26.7-15.4,47.7-15.4c19.4,0,34.8,4,47.7,11.3c12.9,7.3,19.4,21,21,39.6h-40.4
		c-0.8-4.9-2.4-9.7-4-12.1c-4.9-5.7-12.1-8.1-22.6-8.1c-8.9,0-15.4,1.6-18.6,4s-5.7,5.7-5.7,9.7c0,4.9,1.6,8.1,5.7,9.7
		c4,2.4,17.8,5.7,42,11.3c16.2,4,28.3,9.7,36.4,17c8.1,8.1,12.1,17.8,12.1,29.1c0,15.4-5.7,27.5-17,37.2
		c-11.3,9.7-29.1,14.6-53.4,14.6s-42-4.9-54.2-15.4c-12.1-10.5-17.8-23.4-17.8-39.6h38.8V444.9z"/>
</g>
<g display="none">
	<path display="inline" fill="#655F5F" d="M-102.9,709.6v-27.5c12.9-0.8,21.8-1.6,26.7-2.4c8.1-1.6,14.6-5.7,20.2-10.5
		c3.2-4,6.5-8.9,8.1-14.6c0.8-4,1.6-6.5,1.6-8.1h34v206.2h-41.2V710.4h-49.3V709.6z"/>
	<path display="inline" fill="#655F5F" d="M89.5,801.8c0.8,7.3,2.4,12.1,5.7,15.4c4.9,5.7,14.6,8.1,28.3,8.1
		c8.1,0,14.6-0.8,19.4-3.2c4.9-2.4,7.3-5.7,7.3-10.5c0-4.9-1.6-8.1-5.7-10.5c-4-2.4-17.8-6.5-42-12.1c-17.8-4-29.9-9.7-37.2-16.2
		c-7.3-6.5-10.5-15.4-10.5-27.5c0-14.6,5.7-26.7,17-37.2c11.3-10.5,26.7-15.4,47.7-15.4c19.4,0,34.8,4,47.7,11.3
		c12.9,7.3,19.4,21,21,39.6h-40.4c-0.8-4.9-2.4-9.7-4-12.1c-4.9-5.7-12.1-8.1-22.6-8.1c-8.9,0-15.4,1.6-18.6,4
		c-3.2,2.4-5.7,5.7-5.7,9.7c0,4.9,1.6,8.1,5.7,9.7c4,2.4,17.8,5.7,42,11.3c16.2,4,28.3,9.7,36.4,17c8.1,8.1,12.1,17.8,12.1,29.1
		c0,15.4-5.7,27.5-17,37.2c-11.3,9.7-29.1,14.6-53.4,14.6s-42-4.9-54.2-15.4c-12.1-10.5-17.8-23.4-17.8-39.6h38.8V801.8z"/>
</g>
</svg>
