<?xml version="1.0" encoding="utf-8"?>
<!-- Generator: Adobe Illustrator 18.1.1, SVG Export Plug-In . SVG Version: 6.00 Build 0)  -->
<svg version="1.1" id="Capa_1" xmlns="http://www.w3.org/2000/svg" xmlns:xlink="http://www.w3.org/1999/xlink" x="0px" y="0px"
	 viewBox="-36 128.1 537.9 537.9" enable-background="new -36 128.1 537.9 537.9" xml:space="preserve">
<g>
	<path fill="#59BEE8" d="M232.9,128.1C84.4,128.1-36,248.5-36,397.1S84.4,666,232.9,666s268.9-120.4,268.9-268.9
		S381.5,128.1,232.9,128.1z M401.7,366.6l-83.8,79l25.6,91.7c5.1,18.5-3.9,25.6-20.6,15.7l-90-54.3l-90.1,54.1
		c-16.5,9.9-26.2,2.9-21.5-15.9l24.7-99.7l-81.2-71.6c-14.5-12.8-10.5-23.1,8.7-23.1h98.6l46.9-109c7.7-17.7,19.8-17.7,27.3,0.1
		l45.8,108.9H392C411.4,342.7,415.7,353.4,401.7,366.6z"/>
</g>
</svg>
