<?xml version="1.0" encoding="utf-8"?>
<!-- Generator: Adobe Illustrator 18.1.1, SVG Export Plug-In . SVG Version: 6.00 Build 0)  -->
<svg version="1.1" id="Capa_1" xmlns="http://www.w3.org/2000/svg" xmlns:xlink="http://www.w3.org/1999/xlink" x="0px" y="0px"
	 viewBox="-289 381 32 32" enable-background="new -289 381 32 32" xml:space="preserve">
<g>
	<path fill="#FFFFFF" d="M-259.3,392.8C-259.3,392.7-259.4,392.7-259.3,392.8c0-0.1-0.1-0.2-0.1-0.2c-0.2-0.7-0.3-1.5-0.1-2.1l0,0
		c0.1-0.4,0.2-0.8,0.1-1.3l0,0v0c0-0.1,0-0.1,0-0.2l0,0c0-0.1,0-0.1,0-0.2l0,0c0,0,0-0.1,0-0.1l0-0.1l0-0.1l0-0.1l0-0.1
		c0,0,0-0.1-0.1-0.1l0,0c-0.1-0.2-0.2-0.4-0.3-0.5l0,0l0,0c-0.4-0.5-0.8-0.9-1.2-1.1c-0.4-0.2-0.9-0.4-1.3-0.4h0c0,0,0,0,0,0
		c0,0,0,0-0.1,0h0c-0.5,0-1.1-0.2-1.6-0.5l0,0c-0.1-0.1-0.2-0.1-0.3-0.2c-0.6-0.5-1.1-1.1-1.3-1.6l0,0c-0.1-0.4-0.4-0.8-0.7-1.1l0,0
		c0,0-0.1-0.1-0.1-0.1l0,0c0,0-0.1-0.1-0.1-0.1l0,0l-0.1-0.1l-0.1,0l-0.1-0.1l-0.1-0.1l-0.1,0c0,0-0.1,0-0.1-0.1l0,0
		c-0.2-0.1-0.4-0.2-0.6-0.2l0,0l0,0c-0.6-0.2-1.1-0.2-1.6-0.2c-0.5,0.1-0.9,0.2-1.3,0.5l0,0h0c0,0,0,0,0,0c0,0,0,0,0,0l0,0
		c-0.4,0.3-1,0.5-1.6,0.6v0c-0.1,0-0.2,0-0.2,0c-0.1,0-0.2,0-0.2,0v0c-0.6-0.1-1.2-0.3-1.6-0.6l0,0c0,0,0,0,0,0c0,0,0,0,0,0h0l0,0
		c-0.3-0.2-0.8-0.4-1.3-0.5c-0.5-0.1-1.1,0-1.6,0.2l0,0l0,0c-0.2,0.1-0.4,0.2-0.6,0.2l0,0c0,0-0.1,0-0.1,0.1l-0.1,0l-0.1,0.1
		l-0.1,0.1l-0.1,0l-0.1,0.1l0,0c0,0-0.1,0.1-0.1,0.1l0,0c0,0-0.1,0.1-0.1,0.1l0,0c-0.3,0.3-0.6,0.7-0.7,1.1l0,0
		c-0.2,0.6-0.6,1.2-1.3,1.6c-0.1,0.1-0.2,0.1-0.3,0.2l0,0c-0.5,0.3-1.1,0.5-1.6,0.5h0c0,0,0,0-0.1,0c0,0,0,0,0,0h0
		c-0.4,0-0.9,0.1-1.3,0.4c-0.4,0.2-0.9,0.6-1.2,1.1l0,0l0,0c-0.1,0.2-0.2,0.4-0.3,0.5l0,0c0,0,0,0.1-0.1,0.1l0,0.1l0,0.1l0,0.1
		l0,0.1c0,0,0,0.1,0,0.1l0,0c0,0.1,0,0.1,0,0.2l0,0c0,0.1,0,0.1,0,0.2v0h0c-0.1,0.5-0.1,0.9,0.1,1.3l0,0c0.2,0.6,0.2,1.3-0.1,2.1
		c0,0.1,0,0.1-0.1,0.2c0,0,0,0,0,0.1c-0.4,1.1-2.3,1.7-2.3,4.2c0,2.3,1.5,3,2,3.7c0.1,0.2,0.3,0.5,0.4,0.8c0,0.1,0.1,0.2,0.1,0.3
		l0,0c0.1,0.6,0.1,1.2-0.1,1.7l0,0c0,0,0,0,0,0c0,0,0,0,0,0l0,0c-0.1,0.4-0.2,0.9-0.1,1.4c0.1,0.5,0.3,1,0.7,1.5l0,0l0,0
		c0.1,0.2,0.3,0.3,0.4,0.5l0,0c0,0,0.1,0.1,0.1,0.1l0.1,0.1l0.1,0.1l0.1,0.1l0.1,0l0.1,0.1l0,0c0,0,0.1,0.1,0.1,0.1l0,0
		c0.1,0,0.1,0.1,0.2,0.1h0h0c0.4,0.2,0.9,0.3,1.3,0.3l0,0c0.6,0,1.3,0.2,1.9,0.7c0.6,0.5,1.1,1.1,1.3,1.7l0,0c0,0,0,0,0,0.1
		c0,0,0,0,0,0l0,0c0.1,0.4,0.4,0.8,0.7,1.1c0.4,0.3,0.9,0.6,1.4,0.8c0.2,0.1,0.4,0.1,0.6,0.1l0,0c0,0,0.1,0,0.1,0l0.1,0l0.1,0l0.1,0
		l0.1,0h0.1l0,0c0.1,0,0.1,0,0.2,0l0,0c0.1,0,0.1,0,0.2,0l0,0h0c0.5-0.1,0.9-0.2,1.2-0.5l0,0c0.5-0.4,1.2-0.6,2-0.6
		c0.8,0,1.5,0.2,2,0.6l0,0c0.3,0.2,0.7,0.4,1.2,0.5h0l0,0c0.1,0,0.1,0,0.2,0l0,0c0.1,0,0.1,0,0.2,0l0,0h0.1l0.1,0l0.1,0l0.1,0l0.1,0
		c0,0,0.1,0,0.1,0l0,0c0.2,0,0.4-0.1,0.6-0.1c0.6-0.2,1.1-0.5,1.4-0.8c0.4-0.3,0.6-0.7,0.8-1.1l0,0c0,0,0,0,0,0c0,0,0,0,0-0.1l0,0
		c0.2-0.6,0.6-1.2,1.3-1.7c0.6-0.5,1.3-0.7,1.9-0.7l0,0c0.4,0,0.8-0.1,1.3-0.3h0l0,0c0.1,0,0.1-0.1,0.2-0.1l0,0c0,0,0.1-0.1,0.1-0.1
		l0,0l0.1-0.1l0.1,0l0.1-0.1l0.1-0.1l0.1-0.1c0,0,0.1-0.1,0.1-0.1l0,0c0.1-0.1,0.3-0.3,0.4-0.5l0,0l0,0c0.3-0.5,0.6-1,0.7-1.5
		c0.1-0.5,0.1-1-0.1-1.4l0,0c0,0,0,0,0,0c0,0,0,0,0,0l0,0c-0.2-0.5-0.2-1.1-0.1-1.7l0,0c0-0.1,0.1-0.2,0.1-0.3
		c0.1-0.3,0.2-0.5,0.4-0.8c0.5-0.7,2-1.4,2-3.7C-257,394.5-259,393.8-259.3,392.8z M-261.6,400.4L-261.6,400.4
		c-0.1,0.4-0.3,0.9-0.5,1.3c-0.6,1.4-1.5,2.7-2.6,3.8c-1.1,1.1-2.4,2-3.8,2.6c-1.5,0.6-3,0.9-4.6,0.9c-1.6,0-3.1-0.3-4.6-0.9
		c-1.4-0.6-2.7-1.5-3.8-2.6c-0.7-0.7-1.2-1.4-1.7-2.2h3.4c0.1,0,0.2,0,0.3,0c0.2,0,0.5,0,0.7,0c0.2,0,0.4,0,0.6,0h0.1
		c0.2,0,0.3,0.1,0.5,0.1c0.2,0,0.3,0,0.5,0.1c0.2,0,0.4,0.2,0.6,0.4c0.1,0.1,0.2,0.2,0.3,0.3c0.1,0.1,0.2,0.2,0.3,0.2
		c0.3,0.2,0.7,0.5,1.1,0.7c0.5,0.2,1,0.3,1.5,0.3c0.2,0,0.5,0.1,0.7,0.1c0.2,0,0.3,0,0.4,0c0.4,0,0.8,0.1,1.2,0.1
		c0.3,0,0.5,0,0.8-0.1c0.8-0.2,1.3-0.9,1.3-1.7c0.4-0.2,0.8-0.5,1-1c0.2-0.4,0.3-0.8,0.2-1.2c0.8-0.5,1.2-1.5,1-2.3
		c0.3-0.2,0.6-0.6,0.7-1.1c0.1-0.7-0.1-1.4-0.5-1.8c-0.6-0.6-1.4-0.7-2.1-0.8c-0.1,0-0.2,0-0.3-0.1c-0.1,0-0.2,0-0.3-0.1
		c-0.9-0.2-1.6-0.4-1.6-1.2c0-0.5,0.2-1,0.3-1.5c0.2-0.6,0.4-1.2,0.4-1.9c-0.1-1.2-0.6-2.3-1.4-2.9c-0.3-0.3-0.7-0.4-1.2-0.4
		c-0.6,0-1.1,0.3-1.2,0.9c-0.1,0.4-0.1,0.8-0.1,1.2c0,0.1,0,0.2,0,0.3c0,0.5,0,1-0.2,1.4c-0.3,0.9-0.9,1.6-1.4,2.2l-0.3,0.3
		c-0.4,0.5-0.8,1-1.2,1.4c-0.2,0.2-0.5,0.2-0.8,0.3c-0.1,0-0.9,0-1.3,0c-0.2,0-0.4,0-0.6,0l-5.2,0.1c0.1-1.3,0.4-2.2,0.4-2.2
		c0.1-0.4,0.3-0.9,0.5-1.3c0.6-1.4,1.5-2.7,2.6-3.8c1.1-1.1,2.4-2,3.8-2.6c1.5-0.6,3-0.9,4.6-0.9c1.6,0,3.1,0.3,4.6,0.9
		c1.4,0.6,2.7,1.5,3.8,2.6c1.1,1.1,2,2.4,2.6,3.8c0.2,0.4,0.3,0.8,0.5,1.3c0,0,0.5,1.5,0.5,3.4
		C-261.1,398.5-261.4,399.9-261.6,400.4z"/>
</g>
</svg>
