<?xml version="1.0" encoding="utf-8"?>
<!-- Generator: Adobe Illustrator 18.1.1, SVG Export Plug-In . SVG Version: 6.00 Build 0)  -->
<svg version="1.1" id="Capa_1" xmlns="http://www.w3.org/2000/svg" xmlns:xlink="http://www.w3.org/1999/xlink" x="0px" y="0px"
	 viewBox="0 0 612 792" enable-background="new 0 0 612 792" xml:space="preserve">
<g>
	<g>
		<g>
			<path fill="#655F5F" d="M16.8,604.1c-22.4,22.4-22.4,58.7,0,81C28,696.4,42.6,702,57.3,702s29.3-5.6,40.5-16.8L286,497L205,416
				L16.8,604.1z"/>
			<polygon fill="#655F5F" points="487.1,255.4 569.1,213 612,130 572,90 489,133 446.6,214.9 346.9,314.7 387.3,355.2 			"/>
			<path fill="#655F5F" d="M505.1,472.9l-7.7-0.8c-14,0-27.2,2.9-39.6,7.5L222.5,244.3c4.6-12.4,7.5-25.6,7.5-39.6l-0.8-7.7
				C225.1,137.3,176,90,115.3,90c-17.7,0-34.2,4.3-49.1,11.5l76.2,76.2c4,4,6.8,8.7,8.6,13.8c5,13.5,2.3,29.3-8.6,40.3
				c-7.5,7.5-17.2,11.2-27,11.2c-4.5,0-9-1-13.3-2.6c-5-1.9-9.7-4.6-13.8-8.6l-76.2-76.1C5,170.5,0.6,187,0.6,204.7
				c0,60.7,47.3,109.8,106.9,113.9l7.7,0.8c14,0,27.2-2.9,39.6-7.4l235.2,235.3c-4.5,12.4-7.4,25.6-7.4,39.6l0.8,7.7
				c4,59.7,53.1,106.9,113.8,106.9c17.7,0,34.2-4.2,49.1-11.5l-76.2-76.2c-4-4-6.8-8.7-8.7-13.7c-5-13.5-2.3-29.4,8.7-40.3
				c7.4-7.5,17.2-11.2,27-11.2c4.5,0,8.9,1,13.3,2.6c5,1.9,9.8,4.5,13.7,8.6l76.2,76.2c7.2-15,11.5-31.5,11.5-49.1
				C612,526.1,564.7,476.9,505.1,472.9z"/>
		</g>
	</g>
</g>
</svg>
