<?xml version="1.0" encoding="utf-8"?>
<!-- Generator: Adobe Illustrator 19.1.0, SVG Export Plug-In . SVG Version: 6.00 Build 0)  -->
<svg version="1.1" id="Layer_1" xmlns="http://www.w3.org/2000/svg" xmlns:xlink="http://www.w3.org/1999/xlink" x="0px" y="0px"
	 viewBox="-49 141 512 512" style="enable-background:new -49 141 512 512;" xml:space="preserve">
<style type="text/css">
	.st0{fill:#FFFFFF;}
</style>
<g>
	<g>
		<path class="st0" d="M223,605V413c0-8.8-7.2-16-16-16s-16,7.2-16,16v192c0,8.8,7.2,16,16,16S223,613.8,223,605z M169.5,205h128
			c8.8,0,16-7.2,16-16s-7.2-16-16-16h-128c-8.8,0-16,7.2-16,16S160.7,205,169.5,205z M223,445V253c0-8.8-7.2-16-16-16s-16,7.2-16,16
			v192c0,8.8,7.2,16,16,16S223,453.8,223,445z M127.8,354.8l90.5-90.5c6.2-6.2,6.2-16.4,0-22.6s-16.4-6.2-22.6,0l-90.5,90.5
			c-6.2,6.2-6.2,16.4,0,22.6S121.6,361.1,127.8,354.8z M308.8,332.2l-90.5-90.5c-6.2-6.2-16.4-6.2-22.6,0s-6.2,16.4,0,22.6
			l90.5,90.5c6.2,6.2,16.4,6.2,22.6,0S315.1,338.4,308.8,332.2z M116.5,205h128c8.8,0,16-7.2,16-16s-7.2-16-16-16h-128
			c-8.8,0-16,7.2-16,16S107.7,205,116.5,205z M223,541V349c0-8.8-7.2-16-16-16s-16,7.2-16,16v192c0,8.8,7.2,16,16,16
			S223,549.8,223,541z"/>
	</g>
</g>
</svg>
