<?xml version="1.0" encoding="utf-8"?>
<!-- Generator: Adobe Illustrator 19.1.0, SVG Export Plug-In . SVG Version: 6.00 Build 0)  -->
<svg version="1.1" id="Layer_1" xmlns="http://www.w3.org/2000/svg" xmlns:xlink="http://www.w3.org/1999/xlink" x="0px" y="0px"
	 viewBox="-49 141 512 512" style="enable-background:new -49 141 512 512;" xml:space="preserve">
<style type="text/css">
	.st0{display:none;}
	.st1{display:inline;}
	.st2{fill:none;stroke:#A9CCDB;stroke-miterlimit:10;}
	.st3{fill:#FFFFFF;}
</style>
<g id="Grid_1_" class="st0">
	<g id="Layer_1_1_" class="st1">
		<g id="Grid">
			<g>
				<rect x="-49" y="141" class="st2" width="512" height="512"/>
				<line class="st2" x1="-49" y1="621" x2="463" y2="621"/>
				<line class="st2" x1="-49" y1="589" x2="463" y2="589"/>
				<line class="st2" x1="-49" y1="557" x2="463" y2="557"/>
				<line class="st2" x1="-49" y1="525" x2="463" y2="525"/>
				<line class="st2" x1="-49" y1="493" x2="463" y2="493"/>
				<line class="st2" x1="-49" y1="461" x2="463" y2="461"/>
				<line class="st2" x1="-49" y1="429" x2="463" y2="429"/>
				<line class="st2" x1="-49" y1="397" x2="463" y2="397"/>
				<line class="st2" x1="-49" y1="365" x2="463" y2="365"/>
				<line class="st2" x1="-49" y1="333" x2="463" y2="333"/>
				<line class="st2" x1="-49" y1="301" x2="463" y2="301"/>
				<line class="st2" x1="-49" y1="269" x2="463" y2="269"/>
				<line class="st2" x1="-49" y1="237" x2="463" y2="237"/>
				<line class="st2" x1="-49" y1="205" x2="463" y2="205"/>
				<line class="st2" x1="-49" y1="173" x2="463" y2="173"/>
				<line class="st2" x1="431" y1="141" x2="431" y2="653"/>
				<line class="st2" x1="399" y1="141" x2="399" y2="653"/>
				<line class="st2" x1="367" y1="141" x2="367" y2="653"/>
				<line class="st2" x1="335" y1="141" x2="335" y2="653"/>
				<line class="st2" x1="303" y1="141" x2="303" y2="653"/>
				<line class="st2" x1="271" y1="141" x2="271" y2="653"/>
				<line class="st2" x1="239" y1="141" x2="239" y2="653"/>
				<line class="st2" x1="207" y1="141" x2="207" y2="653"/>
				<line class="st2" x1="175" y1="141" x2="175" y2="653"/>
				<line class="st2" x1="143" y1="141" x2="143" y2="653"/>
				<line class="st2" x1="111" y1="141" x2="111" y2="653"/>
				<line class="st2" x1="79" y1="141" x2="79" y2="653"/>
				<line class="st2" x1="47" y1="141" x2="47" y2="653"/>
				<line class="st2" x1="15" y1="141" x2="15" y2="653"/>
				<line class="st2" x1="-17" y1="141" x2="-17" y2="653"/>
			</g>
		</g>
	</g>
</g>
<g>
	<g>
		<path class="st3" d="M351,205c-5.3,0-10.6,0.4-15.8,1.1c-29.9-40.7-77-65.1-128.2-65.1s-98.3,24.4-128.2,65.1
			c-5.2-0.8-10.5-1.1-15.8-1.1C1.2,205-49,255.2-49,317S1.2,429,63,429c13.7,0,27.1-2.5,39.7-7.3c29,25.2,65.8,39.3,104.3,39.3
			c38.5,0,75.3-14.1,104.3-39.3c12.6,4.8,26,7.3,39.7,7.3c61.8,0,112-50.2,112-112S412.8,205,351,205z M351,397
			c-17.1,0-32.9-5.5-45.9-14.7C281.6,410.6,246.6,429,207,429c-39.6,0-74.6-18.4-98.1-46.7C95.9,391.5,80.1,397,63,397
			c-44.2,0-80-35.8-80-80s35.8-80,80-80c10.8,0,21.1,2.2,30.4,6.1C114.7,201.7,157.3,173,207,173s92.3,28.7,113.5,70.1
			c9.4-3.9,19.7-6.1,30.5-6.1c44.2,0,80,35.8,80,80S395.2,397,351,397z M176,621c0,17.7,14.3,32,32,32s32-14.3,32-32s-32-64-32-64
			S176,603.3,176,621z M303,589c0,17.7,14.3,32,32,32s32-14.3,32-32s-32-64-32-64S303,571.3,303,589z M47,525c0,17.7,14.3,32,32,32
			s32-14.3,32-32s-32-64-32-64S47,507.3,47,525z"/>
	</g>
</g>
</svg>
