<?xml version="1.0" encoding="utf-8"?>
<!-- Generator: Adobe Illustrator 19.2.0, SVG Export Plug-In . SVG Version: 6.00 Build 0)  -->
<svg version="1.1" id="Layer_1" xmlns="http://www.w3.org/2000/svg" xmlns:xlink="http://www.w3.org/1999/xlink" x="0px" y="0px"
	 viewBox="0 0 18 16" style="enable-background:new 0 0 18 16;" xml:space="preserve">
<style type="text/css">
	.st0{fill:#636363;}
	.st1{fill:none;}
</style>
<path class="st0" d="M15.9,1c-0.2-0.6-0.8-1-1.4-1h-11C2.8,0,2.3,0.4,2.1,1L0,7v8c0,0.5,0.5,1,1,1h1c0.6,0,1-0.5,1-1v-1h12v1
	c0,0.5,0.5,1,1,1h1c0.5,0,1-0.5,1-1V7L15.9,1z M3.5,11C2.7,11,2,10.3,2,9.5S2.7,8,3.5,8S5,8.7,5,9.5S4.3,11,3.5,11z M14.5,11
	c-0.8,0-1.5-0.7-1.5-1.5S13.7,8,14.5,8S16,8.7,16,9.5S15.3,11,14.5,11z M2,6l1.5-4.5h11L16,6H2z"/>
<path class="st1" d="M-3-4h24v24H-3V-4z"/>
</svg>
