<?xml version="1.0" encoding="utf-8"?>
<!-- Generator: Adobe Illustrator 19.0.1, SVG Export Plug-In . SVG Version: 6.00 Build 0)  -->
<svg version="1.1" id="Layer_1" xmlns="http://www.w3.org/2000/svg" xmlns:xlink="http://www.w3.org/1999/xlink" x="0px" y="0px"
	 viewBox="-878 258 416 416" style="enable-background:new -878 258 416 416;" xml:space="preserve">
<style type="text/css">
	.st0{fill:#FFFFFF;}
</style>
<g>
	<g>
		<path class="st0" d="M-670,354c-61.8,0-112,50.2-112,112c0,61.7,50.2,112,112,112s112-50.3,112-112C-558,404.2-608.2,354-670,354z
			 M-670,322c8.8,0,16-7.1,16-16v-32c0-8.8-7.2-16-16-16c-8.9,0-16,7.2-16,16v32C-686,314.9-678.9,322-670,322z M-670,610
			c-8.9,0-16,7.2-16,16v32c0,8.9,7.1,16,16,16c8.8,0,16-7.1,16-16v-32C-654,617.2-661.2,610-670,610z M-545.6,364.2l22.6-22.6
			c6.2-6.2,6.2-16.4,0-22.6c-6.3-6.2-16.4-6.2-22.6,0l-22.6,22.6c-6.3,6.2-6.3,16.4,0,22.6C-562,370.4-551.8,370.4-545.6,364.2z
			 M-794.5,567.9l-22.6,22.6c-6.3,6.2-6.3,16.4,0,22.6c6.2,6.2,16.4,6.2,22.6,0l22.6-22.6c6.3-6.3,6.3-16.4,0-22.6
			C-778.1,561.6-788.2,561.6-794.5,567.9z M-814,466c0-8.8-7.2-16-16-16h-32c-8.9,0-16,7.2-16,16c0,8.9,7.1,16,16,16h32
			C-821.2,482-814,474.9-814,466z M-478,450h-32c-8.9,0-16,7.2-16,16c0,8.9,7.1,16,16,16h32c8.8,0,16-7.1,16-16
			C-462,457.2-469.2,450-478,450z M-794.5,364.2c6.2,6.2,16.4,6.2,22.6,0c6.2-6.2,6.2-16.4,0-22.6l-22.6-22.6
			c-6.2-6.2-16.4-6.2-22.6,0c-6.2,6.2-6.2,16.4,0,22.6L-794.5,364.2z M-545.5,567.8c-6.3-6.2-16.4-6.2-22.6,0
			c-6.2,6.2-6.3,16.4,0,22.6l22.6,22.6c6.2,6.2,16.4,6.2,22.6,0c6.2-6.2,6.2-16.4,0-22.6L-545.5,567.8z"/>
	</g>
</g>
</svg>
