<?xml version="1.0" encoding="utf-8"?>
<!-- Generator: Adobe Illustrator 19.0.1, SVG Export Plug-In . SVG Version: 6.00 Build 0)  -->
<svg version="1.1" id="Layer_1" xmlns="http://www.w3.org/2000/svg" xmlns:xlink="http://www.w3.org/1999/xlink" x="0px" y="0px"
	 viewBox="-926 210 512 512" style="enable-background:new -926 210 512 512;" xml:space="preserve">
<style type="text/css">
	.st0{fill:#FFFFFF;}
</style>
<g>
	<g>
		<path class="st0" d="M-600,653.7l-18-10.4c0.5-3.1,1-6.3,1-9.6s-0.4-6.5-1-9.6l18-10.4c8.4-4.9,11.3-15.7,6.5-24.1
			c-4.9-8.5-15.7-11.4-24.1-6.5l-18.2,10.5c-4.9-4.1-10.4-7.4-16.5-9.6v-20.9c0-9.8-7.9-17.7-17.7-17.7s-17.7,7.9-17.7,17.7V584
			c-6.1,2.2-11.6,5.5-16.5,9.6l-18.1-10.5c-8.5-4.9-19.3-2-24.2,6.5c-4.9,8.4-1.9,19.2,6.5,24.1l18,10.4c-0.6,3.1-1,6.3-1,9.6
			s0.4,6.5,1,9.6l-18,10.4c-8.5,4.9-11.4,15.8-6.5,24.2s15.7,11.3,24.1,6.4l18.2-10.4c4.9,4.1,10.4,7.4,16.5,9.6v20.9
			c0,9.7,7.9,17.6,17.7,17.6s17.7-7.9,17.7-17.6v-20.9c6.1-2.2,11.7-5.4,16.5-9.6l18.2,10.5c8.5,4.9,19.2,2,24.1-6.4
			C-588.6,669.4-591.5,658.6-600,653.7z M-670,651.4c-9.8,0-17.7-7.9-17.7-17.7s7.9-17.6,17.7-17.6s17.7,7.9,17.7,17.6
			S-660.2,651.4-670,651.4z M-451.8,606.2l-12.1-3.2c-0.3-3.8-1.2-7.5-2.9-11l8.8-8.8c4.1-4.1,4.1-10.8,0-14.9
			c-4.1-4.1-10.7-4.1-14.8,0l-8.8,8.8c-3.5-1.6-7.1-2.6-11-2.9l-3.2-12.1c-1.5-5.6-7.2-8.9-12.9-7.4c-5.6,1.5-8.9,7.3-7.4,12.9
			l3.2,11.9c-1.6,1.1-3.1,2.3-4.5,3.7c-1.4,1.4-2.5,2.9-3.6,4.5l-11.9-3.2c-5.6-1.5-11.4,1.9-12.9,7.4c-1.5,5.6,1.9,11.4,7.4,12.9
			l12,3.2c0.3,3.8,1.3,7.5,3,11l-8.8,8.8c-4.1,4.1-4.1,10.7,0,14.8c4.1,4.1,10.7,4.1,14.8,0l8.8-8.8c3.5,1.7,7.2,2.7,11,3l3.2,12
			c1.5,5.6,7.2,8.9,12.9,7.4c5.6-1.5,9-7.2,7.5-12.9l-3.2-11.9c1.5-1.1,3-2.2,4.5-3.6c1.4-1.4,2.5-2.9,3.6-4.5l11.9,3.2
			c5.6,1.5,11.4-1.9,12.9-7.4C-442.9,613.5-446.2,607.8-451.8,606.2z M-487.7,612.9c-4.1,4.1-10.8,4.1-14.9,0
			c-4.1-4.1-4.1-10.7,0-14.9c4.1-4.1,10.8-4.1,14.9,0C-483.6,602.2-483.6,608.9-487.7,612.9z M-807.1,552.5l-11.9,3.2
			c-1.1-1.5-2.2-3-3.6-4.4c-1.4-1.4-2.9-2.6-4.5-3.6l3.2-11.9c1.5-5.6-1.8-11.4-7.4-12.9s-11.4,1.8-12.9,7.4l-3.2,12.1
			c-3.8,0.3-7.5,1.2-10.9,2.9l-8.8-8.8c-4.1-4.1-10.8-4.1-14.8,0c-4.1,4.1-4.1,10.8,0,14.9l8.8,8.8c-1.6,3.5-2.6,7.2-2.9,11l-12,3.2
			c-5.6,1.5-9,7.2-7.5,12.9c1.5,5.6,7.3,8.9,12.9,7.4l11.9-3.2c1.1,1.6,2.2,3.1,3.7,4.5c1.4,1.4,2.9,2.6,4.4,3.6l-3.2,11.9
			c-1.5,5.6,1.8,11.4,7.4,12.9c5.6,1.5,11.3-1.8,12.8-7.4l3.2-12c3.8-0.3,7.5-1.3,11-2.9l8.8,8.8c4.1,4.1,10.7,4,14.8,0
			c4.1-4.1,4.1-10.7,0-14.8l-8.8-8.8c1.7-3.5,2.7-7.2,2.9-11l12.1-3.2c5.6-1.5,8.9-7.2,7.4-12.9C-795.7,554.4-801.4,551-807.1,552.5
			z M-837.4,581c-4.1,4.1-10.8,4.1-14.9,0c-4.1-4.1-4.1-10.8,0-14.8c4.1-4.1,10.8-4.1,14.9,0C-833.3,570.3-833.4,576.9-837.4,581z
			 M-414,386c0-61.8-50.2-112-112-112c-5.3,0-10.6,0.4-15.8,1.1c-29.9-40.7-77-65.1-128.2-65.1s-98.3,24.4-128.2,65.1
			c-5.2-0.8-10.5-1.1-15.8-1.1c-61.8,0-112,50.2-112,112s50.2,112,112,112c13.7,0,27.1-2.5,39.7-7.3c29,25.2,65.8,39.3,104.3,39.3
			s75.3-14.1,104.3-39.3c12.6,4.8,26,7.3,39.7,7.3C-464.2,498-414,447.8-414,386z"/>
	</g>
</g>
</svg>
