<?xml version="1.0" encoding="utf-8"?>
<!-- Generator: Adobe Illustrator 19.0.1, SVG Export Plug-In . SVG Version: 6.00 Build 0)  -->
<svg version="1.1" id="Layer_1" xmlns="http://www.w3.org/2000/svg" xmlns:xlink="http://www.w3.org/1999/xlink" x="0px" y="0px"
	 viewBox="-863.1 338 416.1 288" style="enable-background:new -863.1 338 416.1 288;" xml:space="preserve">
<style type="text/css">
	.st0{fill:#FFFFFF;}
</style>
<g>
	<g>
		<path class="st0" d="M-495,402c-26.5,0-48,21.5-48,48c0,5.6,1.2,11,2.9,16H-847c-8.8,0-16,7.2-16,16s7.2,16,16,16h352
			c26.5,0,48-21.5,48-48S-468.5,402-495,402z M-847,434h192c26.5,0,48-21.5,48-48s-21.5-48-48-48s-48,21.5-48,48
			c0,5.6,1.2,11,2.9,16H-847c-8.8,0-16,7.2-16,16S-855.8,434-847,434z M-591,530c-0.9,0-1.8,0.2-2.8,0.3c-0.6,0-1.1-0.3-1.8-0.3
			h-246.9c-11.4,0-20.6,7.2-20.6,16s9.2,16,20.6,16h206.4c-1.8,5-2.9,10.4-2.9,16c0,26.5,21.5,48,48,48s48-21.5,48-48
			S-564.5,530-591,530z"/>
	</g>
</g>
</svg>
