<?xml version="1.0" encoding="utf-8"?>
<!-- Generator: Adobe Illustrator 19.0.1, SVG Export Plug-In . SVG Version: 6.00 Build 0)  -->
<svg version="1.1" id="Layer_1" xmlns="http://www.w3.org/2000/svg" xmlns:xlink="http://www.w3.org/1999/xlink" x="0px" y="0px"
	 viewBox="-926 210 512 512" style="enable-background:new -926 210 512 512;" xml:space="preserve">
<style type="text/css">
	.st0{fill:#FFFFFF;}
</style>
<g>
	<g>
		<path class="st0" d="M-526,274c-5.3,0-10.6,0.4-15.8,1.1c-29.9-40.7-77-65.1-128.2-65.1s-98.3,24.4-128.2,65.1
			c-5.2-0.8-10.5-1.1-15.8-1.1c-61.8,0-112,50.2-112,112s50.2,112,112,112c13.7,0,27.1-2.5,39.7-7.3c29,25.2,65.8,39.3,104.3,39.3
			s75.3-14.1,104.3-39.3c12.6,4.8,26,7.3,39.7,7.3c61.8,0,112-50.2,112-112S-464.2,274-526,274z M-830,530c-17.7,0-32,14.3-32,32
			s14.3,32,32,32s32-14.3,32-32S-812.3,530-830,530z M-670,562c-17.7,0-32,14.3-32,32s14.3,32,32,32s32-14.3,32-32
			S-652.3,562-670,562z M-510,530c-17.7,0-32,14.3-32,32s14.3,32,32,32s32-14.3,32-32S-492.3,530-510,530z M-574,658
			c-17.7,0-32,14.3-32,32s14.3,32,32,32s32-14.3,32-32S-556.3,658-574,658z M-766,658c-17.7,0-32,14.3-32,32s14.3,32,32,32
			s32-14.3,32-32S-748.3,658-766,658z"/>
	</g>
</g>
</svg>
