<?xml version="1.0" encoding="utf-8"?>
<!-- Generator: Adobe Illustrator 18.1.0, SVG Export Plug-In . SVG Version: 6.00 Build 0)  -->
<!DOCTYPE svg PUBLIC "-//W3C//DTD SVG 1.1//EN" "http://www.w3.org/Graphics/SVG/1.1/DTD/svg11.dtd">
<svg version="1.1" id="Layer_1" xmlns="http://www.w3.org/2000/svg" xmlns:xlink="http://www.w3.org/1999/xlink" x="0px" y="0px"
	 viewBox="0 0 188.8 168" enable-background="new 0 0 188.8 168" xml:space="preserve">
<g>
	<path fill-rule="evenodd" clip-rule="evenodd" d="M147.8,167c22,0,40-18,40-40V40.6c0-20.2-15.2-37-34.7-39.6H35.1
		C15.7,3.6,1,20.4,1,40.6V127c0,22,17.4,40,39.3,40H147.8L147.8,167z"/>
	<path fill-rule="evenodd" clip-rule="evenodd" fill="#F3C727" stroke="#000000" stroke-width="2" stroke-miterlimit="10" d="
		M147.8,167c22,0,40-18,40-40V40.6c0-20.2-15.2-37-34.7-39.6H35.1C15.7,3.6,1,20.4,1,40.6V127c0,22,17.4,40,39.3,40H147.8L147.8,167
		z"/>
	<path fill="none" stroke="#000000" stroke-width="2.2122" stroke-miterlimit="2.6131" d="M112.5,21.7l-9.7,31.1l18.2,10.4v42.2
		l-18.5,10.3l9.1,41 M111.7,156.6c0,0,31.1,0,42.6,0c23.6-5.6,24.1-30.7,24.1-30.7 M178.4,125.9l9.5,0.1 M112.5,10.9
		c0,0,23.1,0,39,0c26.8,4.3,26.8,31.5,26.8,31.5 M178.3,42.5h9.4 M121.3,63.9l10-11.1l56.4,0.1 M121.4,84.4l56.7,0.1 M188,63.8
		l-9.9,0l0.1,41h9.9 M121.1,104.9l9.9,10.8h56.7 M1.1,125.7l8.7,0 M9.7,125.6c0,0-0.3,24.5,22.7,30.8c5.5,0.2,42.3,0.1,42.3,0.1
		 M74.7,156.5l9.1-41.6l-18-9.9l0.1-41.6l18.4-9.7L75.5,11 M75.5,11c0,0-9.5,0-35.9,0C13.3,11.2,9.7,40,10,42.8
		c-3.3,0.1-8.9,0.1-8.9,0.1 M1.2,52.7l55.3-0.1l9.6,11 M0.9,63.5h9l0.1,41.7H0.9 M1,115.3l55.5,0.2l9.4-10.6 M9.7,84.1l56.1,0"/>
</g>
</svg>
