<?xml version="1.0" encoding="utf-8"?>
<!-- Generator: Adobe Illustrator 18.0.0, SVG Export Plug-In . SVG Version: 6.00 Build 0)  -->
<!DOCTYPE svg PUBLIC "-//W3C//DTD SVG 1.1//EN" "http://www.w3.org/Graphics/SVG/1.1/DTD/svg11.dtd">
<svg version="1.1" id="Layer_1" xmlns="http://www.w3.org/2000/svg" xmlns:xlink="http://www.w3.org/1999/xlink" x="0px" y="0px"
	 viewBox="0 0 65 76.2" enable-background="new 0 0 65 76.2" xml:space="preserve">
<path id="border" fill="#3B6E8F" stroke="#FFFFFF" stroke-width="2" stroke-miterlimit="10" d="M64,32.5c0,14.3-9.6,26.4-22.7,30.2
	l-8.8,11.8l-8.8-11.8C10.6,58.9,1,46.8,1,32.5C1,15.1,15.1,1,32.5,1C49.9,1,64,15.1,64,32.5z"/>
<circle id="center" fill="#FFFFFF" cx="32.5" cy="32.5" r="29"/>
<g id="texaco">
	<path fill-rule="evenodd" clip-rule="evenodd" fill="#EB302E" d="M19.2,51.3c1.6,1,3.4,1.9,4.9,2.5c1.5,0.6,2.8,1,4.1,1.2
		c1.4,0.2,2.8,0.4,4.4,0.3c1.6,0,3.2-0.2,4.8-0.5c1.6-0.3,3-0.7,4.5-1.3c1.4-0.6,2.8-1.4,4.1-2.3l0,0l0.1-0.1l-10.9-7.9V32.4h4.5
		v-4.5H25.3v4.5h4.5v10.9L19.2,51.3L19.2,51.3z M10.8,24.9h16.4l5.1-15.9l0,0c-2.6,0.1-5.2,0.7-7.6,1.5c-2.4,0.9-4.5,2-6.3,3.4
		c-1.8,1.4-3.4,3-4.6,4.8c-1.3,1.8-2.2,3.7-2.9,5.8l0,0L10.8,24.9L10.8,24.9z M32.9,9.1l5.1,15.9h16.2l0,0c-0.9-2.1-2-4.2-3.2-5.9
		c-1.2-1.8-2.5-3.2-3.9-4.4c-1.4-1.2-2.8-2.2-4.3-3c-1.5-0.8-3-1.4-4.6-1.8c-1.6-0.4-3.3-0.7-5-0.7l0,0H32.9L32.9,9.1z M10.7,25.4
		c-0.3,1.1-0.6,2.3-0.7,3.1c-0.2,0.8-0.2,1.4-0.3,2c0,0.6-0.1,1.2-0.1,1.7c0,2.3,0.3,4.6,1,6.9c0.7,2.3,1.7,4.5,3.1,6.5
		c1.3,2,3,3.8,4.9,5.3l0,0l0.2,0.1l5.3-15.8L10.7,25.4L10.7,25.4z M41.1,35.2L46.5,51l0,0c1.6-1.5,3.1-3.1,4.3-4.7
		c1.2-1.6,2-3.1,2.7-4.7c0.7-1.5,1.1-3.1,1.4-4.7c0.5-2.3,0.6-4.7,0.3-7.1c-0.1-0.8-0.2-1.5-0.3-2.2c-0.2-0.8-0.3-1.5-0.6-2.2l0,0
		L41.1,35.2L41.1,35.2z"/>
</g>
</svg>
