<?xml version="1.0" encoding="utf-8"?>
<!-- Generator: Adobe Illustrator 18.0.0, SVG Export Plug-In . SVG Version: 6.00 Build 0)  -->
<!DOCTYPE svg PUBLIC "-//W3C//DTD SVG 1.1//EN" "http://www.w3.org/Graphics/SVG/1.1/DTD/svg11.dtd">
<svg version="1.1" id="Layer_1" xmlns="http://www.w3.org/2000/svg" xmlns:xlink="http://www.w3.org/1999/xlink" x="0px" y="0px"
	 viewBox="0 0 65 76.2" enable-background="new 0 0 65 76.2" xml:space="preserve">
<path id="border" fill="#3B6E8F" stroke="#FFFFFF" stroke-width="2" stroke-miterlimit="10" d="M64,32.5c0,14.3-9.6,26.4-22.7,30.2
	l-8.8,11.8l-8.8-11.8C10.6,58.9,1,46.8,1,32.5C1,15.1,15.1,1,32.5,1C49.9,1,64,15.1,64,32.5z"/>
<circle id="center" fill="#FFFFFF" cx="32.5" cy="32.5" r="29"/>
<g id="_x37_-eleven">
	<g>
		<g>
			<g>
				<g>
					<g>
						<path fill="#F26822" d="M18.5,13.9h24.8c-2.4,0.9-9.9,6-11.7,9.3h-13L18.5,13.9z"/>
						<path fill="#ED2024" d="M38.3,40.7c-0.4,3.4-0.4,7.5-0.4,11.8H27.2c0-4.3,0.2-8.4,0.5-11.8H38.3z"/>
						<polygon fill="#026647" points="17.7,32.9 21.7,32.9 21.7,34.5 19.9,34.5 19.9,35.8 21.7,35.8 21.7,37.1 19.9,37.1 19.9,38.4 
							21.7,38.4 21.7,39.9 17.7,39.9 						"/>
						<polygon fill="#026647" points="26.9,32.9 30.8,32.9 30.8,34.5 29.1,34.5 29.1,35.8 30.8,35.8 30.8,37.1 29.1,37.1 29.1,38.4 
							30.8,38.4 30.8,39.9 26.9,39.9 						"/>
						<polygon fill="#026647" points="37,32.9 40.9,32.9 40.9,34.5 39.2,34.5 39.2,35.8 40.9,35.8 40.9,37.1 39.2,37.1 39.2,38.4 
							40.9,38.4 40.9,39.9 37,39.9 						"/>
						<polygon fill="#026647" points="24.6,38.4 26.3,38.4 26.3,39.9 22.4,39.9 22.4,32.9 24.6,32.9 						"/>
						<polygon fill="#026647" points="31.2,32.9 32.3,39.9 35.1,39.9 36.5,32.9 34.8,32.9 34,37.7 33.1,32.9 						"/>
						<rect x="41.8" y="32.9" fill="#026647" width="2.1" height="7"/>
						<path fill="#026647" d="M43.9,35c0.1-0.8,1.2-0.6,1.2-0.1v5h2.1V34c0-1.3-1.8-1.8-3.3-0.7"/>
						<path fill="#ED2024" d="M39.3,32c0.2-2.7,3.9-7,7.4-8.2V13.4c-9.8,4.4-16.1,11-17.5,18.5L39.3,32z"/>
					</g>
				</g>
			</g>
		</g>
	</g>
</g>
</svg>
