<?xml version="1.0" encoding="utf-8"?>
<!-- Generator: Adobe Illustrator 18.0.0, SVG Export Plug-In . SVG Version: 6.00 Build 0)  -->
<!DOCTYPE svg PUBLIC "-//W3C//DTD SVG 1.1//EN" "http://www.w3.org/Graphics/SVG/1.1/DTD/svg11.dtd">
<svg version="1.1" id="Layer_1" xmlns="http://www.w3.org/2000/svg" xmlns:xlink="http://www.w3.org/1999/xlink" x="0px" y="0px"
	 viewBox="0 0 65 76.2" enable-background="new 0 0 65 76.2" xml:space="preserve">
<path id="border" fill="#3B6E8F" stroke="#FFFFFF" stroke-width="2" stroke-miterlimit="10" d="M64,32.5c0,14.3-9.6,26.4-22.7,30.2
	l-8.8,11.8l-8.8-11.8C10.6,58.9,1,46.8,1,32.5C1,15.1,15.1,1,32.5,1C49.9,1,64,15.1,64,32.5z"/>
<circle id="center" fill="#FFFFFF" cx="32.5" cy="32.5" r="29"/>
<g id="loaf_n_jug">
	<path fill="#FFFFFF" d="M55.6,30.9c-0.4-0.8-1.1-1.5-2-2.1L38,17.8c-0.8-0.5-1.6-0.9-2.5-1.2c-0.9-0.3-1.8-0.4-2.8-0.4
		c-1,0-1.9,0.1-2.8,0.4c-0.9,0.3-1.7,0.7-2.5,1.2L11.8,28.7c-0.9,0.6-1.5,1.3-2,2.1c-0.4,0.8-0.7,1.6-0.7,2.5c0,0.9,0.2,1.7,0.7,2.5
		c0.4,0.8,1.1,1.5,2,2.1l15.6,10.9c0.8,0.5,1.6,0.9,2.5,1.2c0.9,0.3,1.8,0.4,2.8,0.4c1,0,1.9-0.1,2.8-0.4c0.9-0.3,1.7-0.6,2.5-1.2
		L53.6,38c0.9-0.6,1.5-1.3,2-2.1c0.4-0.8,0.7-1.6,0.7-2.5C56.2,32.5,56,31.7,55.6,30.9L55.6,30.9z"/>
	<path fill="#C2C3C5" d="M56.1,30.3c-0.5-1-1.3-1.8-2.4-2.6L38.5,17.1c-0.9-0.6-1.8-1-2.8-1.3c-1-0.3-2.1-0.4-3.1-0.4
		c-1.1,0-2.1,0.1-3.1,0.4c-1,0.3-2,0.7-2.8,1.3L11.3,27.7c-1,0.8-1.8,1.6-2.4,2.6c-0.5,1-0.8,2-0.8,3.1c0,1.1,0.3,2.1,0.8,3.1
		c0.5,1,1.3,1.8,2.4,2.6l15.3,10.7c0.9,0.6,1.8,1,2.8,1.4c1,0.3,2.1,0.4,3.1,0.4c1.1,0,2.1-0.1,3.1-0.4c1-0.3,2-0.8,2.8-1.4
		l15.3-10.7c1-0.8,1.8-1.6,2.4-2.6c0.5-1,0.8-2,0.8-3.1C56.9,32.4,56.6,31.3,56.1,30.3L56.1,30.3z M52.8,28.9
		c0.8,0.6,1.5,1.3,1.9,2.1c0.4,0.8,0.6,1.6,0.6,2.4c0,0.8-0.2,1.6-0.6,2.4c-0.4,0.8-1.1,1.5-1.9,2.1L37.6,48.6
		c-0.7,0.5-1.5,0.9-2.4,1.2c-0.9,0.2-1.8,0.4-2.7,0.4c-0.9,0-1.8-0.1-2.7-0.4c-0.9-0.3-1.7-0.7-2.4-1.2L12,37.9
		c-0.8-0.6-1.5-1.3-1.9-2.1c-0.4-0.8-0.6-1.6-0.6-2.4c0-0.8,0.2-1.6,0.6-2.4c0.4-0.8,1.1-1.5,1.9-2.1l15.3-10.7
		c0.8-0.5,1.6-0.9,2.4-1.1c0.9-0.3,1.8-0.4,2.7-0.4c0.9,0,1.8,0.1,2.7,0.4c0.9,0.3,1.7,0.6,2.4,1.1L52.8,28.9L52.8,28.9z"/>
	<path fill="#E02A30" d="M43.5,24.9L36.4,20c-0.7-0.5-1.6-0.8-2.5-1c-0.9-0.2-1.9-0.2-2.8,0c-1,0.2-1.8,0.5-2.5,1L21,25.3
		c2.5,1.1,4.9,2,7,2.7c2.1,0.7,4.1,1,5.9,1.1c1.8,0.1,3.5-0.2,5.1-0.9C40.6,27.5,42.1,26.4,43.5,24.9L43.5,24.9z"/>
	<path fill="#1E9BBE" d="M53.1,32.4c-0.2-0.7-0.7-1.2-1.4-1.8l-6.8-4.8c-1.1,1.7-1.8,3.4-2.1,5.1c-0.3,1.8-0.3,3.5,0.1,5.2
		c0.4,1.7,1,3.3,1.9,4.8l7-4.9c0.7-0.5,1.2-1.1,1.4-1.8C53.4,33.7,53.4,33.1,53.1,32.4L53.1,32.4z"/>
	<path fill="#F1A958" d="M40.3,40c-1.2-0.4-2.3-0.6-3.5-0.5c-1.2,0.1-2.2,0.3-3.2,0.9c-1,0.5-1.8,1.4-2.6,2.5
		c-0.7,1.1-1.2,2.6-1.5,4.4c0.7,0.3,1.5,0.5,2.3,0.6l2.5-0.2c0.8-0.2,1.5-0.5,2.1-1l7.2-5.1C42.6,41,41.5,40.4,40.3,40L40.3,40z"/>
	<path fill="#3866A8" d="M19.6,33.2c-0.1-2.4,0.2-4.9,1-7.6l-7.3,5.1c-0.7,0.5-1.2,1.1-1.4,1.8c-0.2,0.7-0.2,1.3,0,2
		c0.2,0.6,0.7,1.2,1.4,1.8l13.5,9.4l0-0.1c-2.3-1.7-4-3.6-5.2-5.7C20.5,37.7,19.8,35.5,19.6,33.2L19.6,33.2z"/>
</g>
</svg>
