<?xml version="1.0" encoding="utf-8"?>
<!-- Generator: Adobe Illustrator 18.0.0, SVG Export Plug-In . SVG Version: 6.00 Build 0)  -->
<!DOCTYPE svg PUBLIC "-//W3C//DTD SVG 1.1//EN" "http://www.w3.org/Graphics/SVG/1.1/DTD/svg11.dtd">
<svg version="1.1" id="Layer_1" xmlns="http://www.w3.org/2000/svg" xmlns:xlink="http://www.w3.org/1999/xlink" x="0px" y="0px"
	 viewBox="0 0 65 76.2" enable-background="new 0 0 65 76.2" xml:space="preserve">
<path id="border" fill="#3B6E8F" stroke="#FFFFFF" stroke-width="2" stroke-miterlimit="10" d="M64,32.5c0,14.3-9.6,26.4-22.7,30.2
	l-8.8,11.8l-8.8-11.8C10.6,58.9,1,46.8,1,32.5C1,15.1,15.1,1,32.5,1C49.9,1,64,15.1,64,32.5z"/>
<circle id="center" fill="#FFFFFF" cx="32.5" cy="32.5" r="29"/>
<g id="conoco">
	<path fill-rule="evenodd" clip-rule="evenodd" fill="#E2231A" d="M50.6,25H14.4c-4.1,0-7.5,3.3-7.5,7.5c0,4.1,3.3,7.5,7.5,7.5h36.2
		c4.1,0,7.5-3.3,7.5-7.5C58.1,28.4,54.7,25,50.6,25L50.6,25z M50.6,38.2H14.4c-3.2,0-5.7-2.6-5.7-5.7c0-3.2,2.6-5.8,5.7-5.8h36.2
		c3.2,0,5.7,2.6,5.7,5.8C56.3,35.7,53.8,38.2,50.6,38.2L50.6,38.2z"/>
	<path fill-rule="evenodd" clip-rule="evenodd" fill="#E2231A" d="M43.4,35.6c-1.7,0-3.1-1.4-3.1-3.1c0-1.7,1.4-3.1,3.1-3.1h2.5v1.8
		h-2.5c-0.7,0-1.3,0.6-1.3,1.3c0,0.7,0.6,1.3,1.3,1.3h2.5v1.8H43.4L43.4,35.6z"/>
	<path fill-rule="evenodd" clip-rule="evenodd" fill="#E2231A" d="M31.7,32.5c0-1.7-1.4-3.1-3.1-3.1c-1.7,0-3.1,1.4-3.1,3.1v3.1h1.8
		v-3.1c0-0.7,0.6-1.3,1.3-1.3c0.7,0,1.3,0.6,1.3,1.3v3.1h1.8V32.5L31.7,32.5z"/>
	<path fill-rule="evenodd" clip-rule="evenodd" fill="#E2231A" d="M14.6,35.6c-1.7,0-3.1-1.4-3.1-3.1c0-1.7,1.4-3.1,3.1-3.1h2.5v1.8
		h-2.5c-0.7,0-1.3,0.6-1.3,1.3c0,0.7,0.6,1.3,1.3,1.3h2.5v1.8H14.6L14.6,35.6z"/>
	<path fill-rule="evenodd" clip-rule="evenodd" fill="#E2231A" d="M52.7,30.5c-0.6-0.7-1.4-1.1-2.7-1.1c-1.3,0-2.2,0.4-2.7,1.1
		c-0.7,0.7-0.7,1.6-0.7,2c0,0.4,0.1,1.3,0.7,2c0.6,0.7,1.4,1.1,2.7,1.1c1.3,0,2.2-0.4,2.7-1.1c0.7-0.7,0.7-1.7,0.7-2
		C53.5,32.2,53.4,31.3,52.7,30.5L52.7,30.5z M51.3,33.5c-0.3,0.2-0.6,0.4-1.3,0.4c-0.7,0-1.1-0.2-1.3-0.4c-0.2-0.2-0.4-0.5-0.4-1
		c0-0.4,0.2-0.7,0.4-0.9c0.2-0.2,0.6-0.4,1.3-0.4c0.7,0,1.1,0.2,1.3,0.4c0.2,0.2,0.4,0.5,0.4,0.9C51.7,33,51.6,33.3,51.3,33.5
		L51.3,33.5z"/>
	<path fill-rule="evenodd" clip-rule="evenodd" fill="#E2231A" d="M24,30.5c-0.6-0.7-1.4-1.1-2.7-1.1s-2.2,0.4-2.7,1.1
		c-0.7,0.7-0.7,1.6-0.7,2c0,0.4,0.1,1.3,0.7,2c0.6,0.7,1.4,1.1,2.7,1.1s2.2-0.4,2.7-1.1c0.7-0.7,0.7-1.7,0.7-2
		C24.8,32.2,24.7,31.3,24,30.5L24,30.5z M22.6,33.5c-0.2,0.2-0.6,0.4-1.3,0.4c-0.7,0-1.1-0.2-1.3-0.4c-0.2-0.2-0.4-0.5-0.4-1
		c0-0.4,0.2-0.7,0.4-0.9c0.2-0.2,0.6-0.4,1.3-0.4c0.7,0,1.1,0.2,1.3,0.4c0.3,0.2,0.4,0.5,0.4,0.9C23,33,22.9,33.3,22.6,33.5
		L22.6,33.5z"/>
	<path fill-rule="evenodd" clip-rule="evenodd" fill="#E2231A" d="M38.7,30.5c-0.6-0.7-1.4-1.1-2.7-1.1c-1.3,0-2.2,0.4-2.7,1.1
		c-0.7,0.7-0.7,1.6-0.7,2c0,0.4,0.1,1.3,0.7,2c0.6,0.7,1.4,1.1,2.7,1.1c1.3,0,2.2-0.4,2.7-1.1c0.7-0.7,0.7-1.7,0.7-2
		C39.5,32.2,39.4,31.3,38.7,30.5L38.7,30.5z M37.3,33.5c-0.2,0.2-0.6,0.4-1.3,0.4c-0.7,0-1.1-0.2-1.3-0.4c-0.2-0.2-0.4-0.5-0.4-1
		c0-0.4,0.2-0.7,0.4-0.9c0.2-0.2,0.6-0.4,1.3-0.4c0.7,0,1.1,0.2,1.3,0.4c0.3,0.2,0.4,0.5,0.4,0.9C37.7,33,37.5,33.3,37.3,33.5
		L37.3,33.5z"/>
</g>
</svg>
