<?xml version="1.0" encoding="utf-8"?>
<!-- Generator: Adobe Illustrator 18.0.0, SVG Export Plug-In . SVG Version: 6.00 Build 0)  -->
<!DOCTYPE svg PUBLIC "-//W3C//DTD SVG 1.1//EN" "http://www.w3.org/Graphics/SVG/1.1/DTD/svg11.dtd">
<svg version="1.1" id="Layer_1" xmlns="http://www.w3.org/2000/svg" xmlns:xlink="http://www.w3.org/1999/xlink" x="0px" y="0px"
	 viewBox="0 0 65 76.2" enable-background="new 0 0 65 76.2" xml:space="preserve">
<path id="border" fill="#3B6E8F" stroke="#FFFFFF" stroke-width="2" stroke-miterlimit="10" d="M64,32.5c0,14.3-9.6,26.4-22.7,30.2
	l-8.8,11.8l-8.8-11.8C10.6,58.9,1,46.8,1,32.5C1,15.1,15.1,1,32.5,1C49.9,1,64,15.1,64,32.5z"/>
<circle id="center" fill="#FFFFFF" cx="32.5" cy="32.5" r="29"/>
<g id="_x37_6">
	<path fill-rule="evenodd" clip-rule="evenodd" fill="#E2231A" d="M32.5,9.8c12.7,0,23.1,10.4,23.1,23.1C55.6,45.6,45.2,56,32.5,56
		C19.8,56,9.4,45.6,9.4,32.9C9.4,20.2,19.8,9.8,32.5,9.8L32.5,9.8z"/>
	<path fill-rule="evenodd" clip-rule="evenodd" fill="#FFFFFF" d="M37.7,45c5.5-0.2,10-4.8,10.9-10.4c0.6-4.1-1-7.3-5.4-7.4
		c1.4-2.7,3.1-5.2,4.9-7.8h-9.5c-0.9,1-1.7,2-2.6,3h-16l-4.7,8.3H23l-7.6,13.7h10.4c1.1-2.7,2-5.4,3.3-8
		C29.1,41.9,32.3,45.2,37.7,45L37.7,45z"/>
	<path fill-rule="evenodd" clip-rule="evenodd" fill="#001689" d="M30.7,35.4c-0.3,3.6,0.8,8.2,6.4,8.1c4.9-0.1,8.5-3.7,9.6-8.3
		c1.1-4.9-2.5-7.5-6.4-6.3c1-2.3,3.1-5.4,4.9-8h-5.8C36.2,24.3,31,31.9,30.7,35.4L30.7,35.4z M39.5,31.9c1.7,0,2,1.9,0.8,4.1
		c-0.7,1.3-1.6,2.5-2.7,2.4c-1.2-0.1-1.7-1.5-1.1-3.1C37.1,33.5,37.9,32,39.5,31.9L39.5,31.9z M18,42.8h6.6
		c2.4-6.3,5.9-12.6,9.8-18.8H21l-2.8,5h7.6L18,42.8L18,42.8z"/>
</g>
</svg>
