<?xml version="1.0" encoding="utf-8"?>
<!-- Generator: Adobe Illustrator 18.0.0, SVG Export Plug-In . SVG Version: 6.00 Build 0)  -->
<!DOCTYPE svg PUBLIC "-//W3C//DTD SVG 1.1//EN" "http://www.w3.org/Graphics/SVG/1.1/DTD/svg11.dtd">
<svg version="1.1" id="Layer_1" xmlns="http://www.w3.org/2000/svg" xmlns:xlink="http://www.w3.org/1999/xlink" x="0px" y="0px"
	 viewBox="0 0 65 76.2" enable-background="new 0 0 65 76.2" xml:space="preserve">
<path id="border" fill="#3B6E8F" stroke="#FFFFFF" stroke-width="2" stroke-miterlimit="10" d="M64,32.5c0,14.3-9.6,26.4-22.7,30.2
	l-8.8,11.8l-8.8-11.8C10.6,58.9,1,46.8,1,32.5C1,15.1,15.1,1,32.5,1C49.9,1,64,15.1,64,32.5z"/>
<circle id="center" fill="#FFFFFF" cx="32.5" cy="32.5" r="29"/>
<path id="generic" fill="#3B6E8F" d="M48,26.8c0.3,1.4,0.6,2.7,0.8,4.1c0.5,2.6,0.9,5.2,0.8,7.9c0,1.4-0.2,2.7-0.7,4
	c-1,2.3-2.9,3.1-5.1,2.8c-2.2-0.3-3.6-1.8-4.1-4.1c-0.3-1.5-0.3-3.1-0.3-4.7c0.1-2,0.2-4,0.3-5.9c0-0.8-0.2-1.1-1-1.2
	c-0.6,0-1.1,0.1-1.7,0.1c-0.2,0-0.2,0.1-0.2,0.3c0,0.8,0,1.6,0,2.4c0,4.8,0,9.5,0,14.3c0,0.1,0,0.3,0,0.4c0.6,0,1.3,0,1.9,0
	c0,0.8,0,1.6,0,2.3c-7.1,0-14.3,0-21.5,0c0-0.8,0-1.5,0-2.3c0.6,0,1.3,0,1.9,0c0-0.2,0-0.3,0-0.5c0-10.3,0-20.5,0-30.8
	c0-1,0.6-1.4,1.4-1.4c5,0,10,0,14.9,0c0.9,0,1.3,0.4,1.3,1.3c0,3.7,0,7.4,0,11.1c0,0.1,0,0.3,0,0.4c0.9-0.1,1.8-0.2,2.7,0
	C41,27.9,42,29,42,30.6c0,1.7-0.1,3.5-0.2,5.2c-0.1,1.8-0.2,3.5,0.2,5.2c0,0.1,0.1,0.3,0.1,0.4c0.5,1.8,1.9,2.1,3.4,1.8
	c0.6-0.1,0.9-0.6,1.2-1.1c0.5-0.9,0.6-1.8,0.7-2.8c0.1-2-0.1-4-0.4-6c-0.3-2-0.8-3.9-1.1-5.9c0-0.1-0.1-0.2-0.1-0.3
	c-0.2,0-0.3,0-0.6,0c0-0.4,0-0.7,0-1.1c-0.1-0.9-0.2-1.7-0.2-2.6c-0.1-0.5-0.3-0.9-0.6-1.3c-1-1.1-1.9-2.3-2.9-3.4
	c-0.3-0.4-0.6-0.8-0.8-1.2c-0.1-0.2-0.2-0.4-0.3-0.7c-0.1-0.3,0.1-0.6,0.4-0.5c0.3,0,0.5,0.1,0.7,0.2c2.3,0.9,4.3,2.3,6,4.1
	c0.6,0.7,0.9,1.5,1,2.4c0.1,0.8,0.1,1.6,0.1,2.4c0,0.2,0,0.3-0.1,0.5C48.5,26.4,48.4,26.7,48,26.8z M34,17.3c-4,0-8,0-12,0
	c0,3.3,0,6.6,0,9.9c4,0,8,0,12,0C34,23.9,34,20.6,34,17.3z"/>
</svg>
