<?xml version="1.0" encoding="utf-8"?>
<!-- Generator: Adobe Illustrator 18.0.0, SVG Export Plug-In . SVG Version: 6.00 Build 0)  -->
<!DOCTYPE svg PUBLIC "-//W3C//DTD SVG 1.1//EN" "http://www.w3.org/Graphics/SVG/1.1/DTD/svg11.dtd">
<svg version="1.1" id="Layer_1" xmlns="http://www.w3.org/2000/svg" xmlns:xlink="http://www.w3.org/1999/xlink" x="0px" y="0px"
	 viewBox="0 0 65 76.2" enable-background="new 0 0 65 76.2" xml:space="preserve">
<path id="border" fill="#3B6E8F" stroke="#FFFFFF" stroke-width="2" stroke-miterlimit="10" d="M64,32.5c0,14.3-9.6,26.4-22.7,30.2
	l-8.8,11.8l-8.8-11.8C10.6,58.9,1,46.8,1,32.5C1,15.1,15.1,1,32.5,1C49.9,1,64,15.1,64,32.5z"/>
<circle id="center" fill="#FFFFFF" cx="32.5" cy="32.5" r="29"/>
<g id="bp">
	<path fill-rule="evenodd" clip-rule="evenodd" fill="#00A651" d="M32.5,32.8L32.5,32.8L32.5,32.8L32.5,32.8L32.5,32.8L32.5,32.8
		L32.5,32.8L32.5,32.8L32.5,32.8L32.5,32.8L32.5,32.8L32.5,32.8L32.5,32.8L32.5,32.8L32.5,32.8L32.5,32.8L32.5,32.8L32.5,32.8
		L32.5,32.8L32.5,32.8L32.5,32.8L32.5,32.8L32.5,32.8L32.5,32.8L32.5,32.8L32.5,32.8L32.5,32.8L32.5,32.8L32.5,32.8L32.5,32.8
		L32.5,32.8L32.5,32.8L32.5,32.8L32.5,32.8L32.5,32.8L32.5,32.8L32.5,32.8L32.5,32.8C32.5,32.8,32.5,32.8,32.5,32.8
		C32.5,32.8,32.5,32.8,32.5,32.8L32.5,32.8C32.5,32.8,32.5,32.8,32.5,32.8C32.5,32.8,32.5,32.8,32.5,32.8L32.5,32.8L32.5,32.8
		L32.5,32.8L32.5,32.8L32.5,32.8L32.5,32.8L32.5,32.8L32.5,32.8C32.5,32.8,32.5,32.8,32.5,32.8L32.5,32.8L32.5,32.8z M24,18
		c0.1-2.3,0.6-4.4,1-5.9c1.3,0.8,3,2.2,4.6,3.8c0.9-2.1,2-3.9,3-5.2c0.9,1.2,2.1,3,3,5.2c1.6-1.7,3.3-3,4.6-3.8
		c0.5,1.5,0.9,3.6,1,5.9c2.1-1,4.1-1.7,5.6-2.1c-0.1,1.5-0.4,3.7-1,5.9c2.3-0.3,4.4-0.2,6,0c-0.6,1.4-1.6,3.3-3,5.2
		c2.2,0.5,4.2,1.3,5.6,2c-1.1,1.1-2.6,2.6-4.6,3.8c1.9,1.3,3.5,2.7,4.6,3.8c-1.4,0.7-3.4,1.5-5.6,2c1.4,1.8,2.4,3.7,3,5.2
		c-1.5,0.2-3.7,0.3-6,0c0.7,2.2,1,4.3,1.1,5.9c-1.5-0.3-3.5-1-5.6-2.1c-0.1,2.3-0.6,4.4-1,5.9c-1.3-0.8-3-2.2-4.6-3.8
		c-0.9,2.1-2,3.9-3,5.2c-0.9-1.2-2.1-3-3-5.2c-1.6,1.7-3.3,3-4.6,3.8c-0.5-1.5-0.9-3.6-1-5.9c-2.1,1-4.1,1.7-5.6,2.1
		c0.1-1.5,0.4-3.7,1-5.9c-2.3,0.3-4.4,0.2-6,0c0.6-1.4,1.6-3.3,3-5.2c-2.2-0.5-4.2-1.3-5.6-2c1.1-1.1,2.6-2.6,4.6-3.8
		c-1.9-1.3-3.5-2.7-4.6-3.8c1.4-0.7,3.4-1.5,5.6-2c-1.4-1.8-2.4-3.7-3-5.2c1.5-0.2,3.7-0.3,6,0c-0.7-2.2-1-4.3-1-5.9
		C19.9,16.3,21.9,17,24,18L24,18z M32.5,32.8L32.5,32.8L32.5,32.8L32.5,32.8z"/>
	<path fill-rule="evenodd" clip-rule="evenodd" fill="#A6CE39" d="M32.5,32.8L32.5,32.8L32.5,32.8L32.5,32.8L32.5,32.8L32.5,32.8
		L32.5,32.8L32.5,32.8L32.5,32.8L32.5,32.8L32.5,32.8L32.5,32.8L32.5,32.8L32.5,32.8L32.5,32.8L32.5,32.8L32.5,32.8L32.5,32.8
		L32.5,32.8L32.5,32.8L32.5,32.8L32.5,32.8L32.5,32.8L32.5,32.8L32.5,32.8L32.5,32.8L32.5,32.8L32.5,32.8L32.5,32.8L32.5,32.8
		L32.5,32.8L32.5,32.8L32.5,32.8L32.5,32.8L32.5,32.8L32.5,32.8L32.5,32.8L32.5,32.8z M19.9,35c-1.6-0.5-3.2-1.3-4.5-2.2
		c1.4-0.9,2.9-1.7,4.5-2.2c-1.3-1.1-2.5-2.3-3.5-3.6c1.6-0.4,3.3-0.6,5-0.5c-0.9-1.5-1.6-3.1-2-4.6c1.6,0.2,3.3,0.6,4.9,1.2
		c-0.3-1.7-0.4-3.4-0.3-5c1.4,0.7,2.9,1.7,4.2,2.8c0.3-1.7,0.8-3.3,1.4-4.8c1.1,1.2,2.1,2.5,3,4.1c0.8-1.5,1.9-2.9,3-4.1
		c0.6,1.5,1.1,3.1,1.4,4.8c1.3-1.1,2.7-2.1,4.2-2.8c0.1,1.6,0,3.3-0.3,5c1.6-0.6,3.3-1,4.9-1.2c-0.5,1.5-1.1,3.1-2,4.6
		c1.7,0,3.4,0.2,5,0.5c-1,1.3-2.1,2.6-3.5,3.6c1.6,0.5,3.2,1.3,4.5,2.2c-1.4,0.9-2.9,1.7-4.5,2.2c1.3,1.1,2.5,2.3,3.5,3.6
		c-1.6,0.4-3.3,0.6-5,0.5c0.9,1.5,1.6,3.1,2,4.6c-1.6-0.2-3.3-0.6-4.9-1.2c0.3,1.7,0.4,3.4,0.3,5c-1.4-0.7-2.9-1.7-4.2-2.8
		c-0.3,1.7-0.8,3.3-1.4,4.8c-1.1-1.2-2.1-2.5-3-4.1c-0.8,1.5-1.9,2.9-3,4.1c-0.6-1.5-1.1-3.1-1.4-4.8c-1.3,1.1-2.7,2.1-4.2,2.8
		c-0.1-1.6,0-3.3,0.3-5c-1.6,0.6-3.3,1-4.9,1.2c0.5-1.5,1.1-3.1,2-4.6c-1.7,0-3.4-0.2-5-0.5C17.4,37.4,18.6,36.1,19.9,35L19.9,35z"
		/>
	<path fill-rule="evenodd" clip-rule="evenodd" fill="#FFDA00" d="M32.5,32.8L32.5,32.8L32.5,32.8L32.5,32.8L32.5,32.8z M32.5,32.8
		L32.5,32.8L32.5,32.8L32.5,32.8L32.5,32.8L32.5,32.8L32.5,32.8L32.5,32.8L32.5,32.8L32.5,32.8L32.5,32.8L32.5,32.8L32.5,32.8z
		 M32.5,32.8L32.5,32.8L32.5,32.8L32.5,32.8C32.5,32.8,32.5,32.8,32.5,32.8C32.5,32.8,32.5,32.8,32.5,32.8
		C32.5,32.8,32.5,32.8,32.5,32.8L32.5,32.8L32.5,32.8L32.5,32.8C32.5,32.8,32.5,32.8,32.5,32.8C32.5,32.8,32.5,32.8,32.5,32.8
		C32.5,32.8,32.5,32.8,32.5,32.8L32.5,32.8L32.5,32.8L32.5,32.8L32.5,32.8L32.5,32.8L32.5,32.8L32.5,32.8L32.5,32.8z M32.5,32.8
		L32.5,32.8L32.5,32.8L32.5,32.8z M31,24.2c0.3-1.5,0.8-2.9,1.5-4.2c0.7,1.3,1.2,2.7,1.5,4.2c0.8-1.3,1.8-2.4,2.8-3.4
		c0.2,1.4,0.2,2.9,0,4.4c1.2-1,2.5-1.7,3.8-2.2c-0.3,1.4-0.8,2.8-1.5,4.2c1.4-0.5,2.9-0.7,4.4-0.8c-0.8,1.2-1.7,2.4-2.8,3.4
		c1.5,0,3,0.3,4.4,0.8c-1.1,0.9-2.4,1.7-3.8,2.2c1.4,0.5,2.7,1.3,3.8,2.2c-1.4,0.5-2.9,0.8-4.4,0.8c1.1,1,2.1,2.1,2.8,3.4
		c-1.5,0-2.9-0.3-4.4-0.8c0.7,1.3,1.2,2.7,1.5,4.2c-1.4-0.5-2.7-1.3-3.8-2.2c0.2,1.5,0.2,3,0,4.4c-1.1-1-2.1-2.1-2.8-3.4
		c-0.3,1.5-0.8,2.9-1.5,4.2c-0.7-1.3-1.2-2.7-1.5-4.2c-0.8,1.3-1.8,2.4-2.8,3.4c-0.2-1.4-0.2-2.9,0-4.4c-1.2,1-2.5,1.7-3.8,2.2
		c0.3-1.4,0.8-2.8,1.5-4.2c-1.4,0.5-2.9,0.7-4.4,0.8c0.8-1.2,1.7-2.4,2.8-3.4c-1.5,0-3-0.3-4.4-0.8c1.1-0.9,2.4-1.7,3.8-2.2
		c-1.4-0.5-2.7-1.3-3.8-2.2c1.4-0.5,2.9-0.8,4.4-0.8c-1.1-1-2.1-2.1-2.8-3.4c1.5,0,2.9,0.3,4.4,0.8c-0.7-1.3-1.2-2.7-1.5-4.2
		c1.4,0.5,2.7,1.3,3.8,2.2c-0.2-1.5-0.2-3,0-4.4C29.2,21.8,30.2,22.9,31,24.2L31,24.2z M32.5,32.8L32.5,32.8L32.5,32.8z"/>
	<path fill-rule="evenodd" clip-rule="evenodd" fill="#FFFFFF" d="M31,28.6c-0.3-1.5-0.2-3,0-4.4c0.7,1.2,1.3,2.6,1.5,4.1
		c0.3-1.5,0.8-2.9,1.5-4.1c0.3,1.4,0.3,2.9,0,4.4c0.8-1.4,1.7-2.5,2.8-3.3c-0.2,1.4-0.7,2.8-1.5,4.1c1.2-1,2.5-1.7,3.8-2.2
		c-0.7,1.2-1.6,2.4-2.8,3.4c1.5-0.5,2.9-0.8,4.3-0.7c-1.1,0.9-2.3,1.7-3.8,2.2c1.6,0,3,0.3,4.3,0.8c-1.3,0.5-2.8,0.8-4.3,0.8
		c1.5,0.5,2.7,1.3,3.8,2.2c-1.4,0-2.9-0.2-4.3-0.7c1.2,1,2.1,2.1,2.8,3.4c-1.3-0.5-2.6-1.2-3.8-2.2c0.8,1.3,1.3,2.7,1.5,4.1
		c-1.1-0.9-2.1-2-2.8-3.3c0.3,1.5,0.2,3,0,4.4c-0.7-1.2-1.3-2.6-1.5-4.1c-0.3,1.5-0.8,2.9-1.5,4.1c-0.3-1.4-0.3-2.9,0-4.4
		c-0.8,1.4-1.7,2.5-2.8,3.3c0.2-1.4,0.7-2.8,1.5-4.1c-1.2,1-2.5,1.7-3.8,2.2c0.7-1.2,1.6-2.4,2.8-3.4c-1.5,0.5-2.9,0.8-4.3,0.7
		c1.1-0.9,2.3-1.7,3.8-2.2c-1.6,0-3-0.3-4.3-0.8c1.3-0.5,2.8-0.8,4.3-0.8c-1.5-0.5-2.7-1.3-3.8-2.2c1.4,0,2.9,0.2,4.3,0.7
		c-1.2-1-2.1-2.1-2.8-3.4c1.3,0.5,2.6,1.2,3.8,2.2c-0.8-1.3-1.3-2.7-1.5-4.1C29.2,26.2,30.2,27.3,31,28.6L31,28.6z"/>
</g>
</svg>
