<?xml version="1.0" encoding="utf-8"?>
<!-- Generator: Adobe Illustrator 18.1.0, SVG Export Plug-In . SVG Version: 6.00 Build 0)  -->
<!DOCTYPE svg PUBLIC "-//W3C//DTD SVG 1.1//EN" "http://www.w3.org/Graphics/SVG/1.1/DTD/svg11.dtd">
<svg version="1.1" id="Layer_1" xmlns="http://www.w3.org/2000/svg" xmlns:xlink="http://www.w3.org/1999/xlink" x="0px" y="0px"
	 viewBox="0 0 216.8 202.1" enable-background="new 0 0 216.8 202.1" xml:space="preserve">
<g id="shell">
	<path fill-rule="evenodd" clip-rule="evenodd" fill="#ED1C24" d="M30.7,33.1c39.6-42.3,113.1-47,159.1,3.4
		c20.4,25.5,30.6,55.7,26,93l-34.9,26l-4.4,40.7l-55.2,0.4c-7.9,7.6-16.8,7.4-23.8,0.2l-56-0.1l-4.6-40.9L1.6,130.5
		C-4.8,90,8.2,59,30.7,33.1L30.7,33.1z M197.2,121l-33.9,24.9l-3.3,31.9l-41.3,0.3c-6.4,8.2-13.6,7.6-19.2,0.2l-41.8-0.1l-3.5-30.9
		l-34.5-26.3c-2.6-9.6-1.5-19.1,2.2-29.3L77,147.7c1.8,1,2.6,0,1.7-1.3l-53.8-66c0.1-8.1,5.2-15.9,12.6-23.6L86.2,140
		c1.7,2.3,3.3,1.7,2-1.1L44.5,47.6c5.9-9.1,13.6-13.9,22.2-16.7l29.9,104.9c1,2.3,2.8,2,2.2-0.7L76.9,25.9c3.9-3,8.7-5.1,14.7-6
		c2.9-0.4,6.5-0.3,11.1-0.2l5,115.8c-0.1,3.6,1.9,2.9,1.9,0.1l4-115.5c3.4-0.2,6.8-0.3,10.3,0.1c6,0.5,11.9,2.3,15.6,5.5
		l-20.6,109.4c0,1.4,1.2,1.5,1.8,0.3l29.6-104.8c12.1,5.5,19.3,11.5,21.6,16.7l-42.6,91.4c-1,1.9,0.8,3.2,1.8,1.7l47.9-84.4
		c6.6,6.5,11.9,13.6,13.5,22.5l-52.4,66c-2.5,3-1.1,3.8,1.1,1.1l53.3-53.9C198.3,99.7,199.9,108.9,197.2,121L197.2,121z"/>
	<path fill-rule="evenodd" clip-rule="evenodd" fill="#FFF200" d="M197.2,121l-33.9,24.9l-3.3,31.9l-41.3,0.3
		c-6.4,8.2-13.6,7.6-19.2,0.2l-41.8-0.1l-3.5-30.9l-34.5-26.3c-2.6-9.6-1.5-19.1,2.2-29.3L77,147.7c1.8,1,2.6,0,1.7-1.3l-53.8-66
		c0.1-8.1,5.2-15.9,12.6-23.6L86.2,140c1.7,2.3,3.3,1.7,2-1.1L44.5,47.6c5.9-9.1,13.6-13.9,22.2-16.7l29.9,104.9
		c1,2.3,2.8,2,2.2-0.7L76.9,25.9c3.9-3,8.7-5.1,14.7-6c2.9-0.4,6.5-0.3,11.1-0.2l5,115.8c-0.1,3.6,1.9,2.9,1.9,0.1l4-115.5
		c3.4-0.2,6.8-0.3,10.3,0.1c6,0.5,11.9,2.3,15.6,5.5l-20.6,109.4c0,1.4,1.2,1.5,1.8,0.3l29.6-104.8c12.1,5.5,19.3,11.5,21.6,16.7
		l-42.6,91.4c-1,1.9,0.8,3.2,1.8,1.7l47.9-84.4c6.6,6.5,11.9,13.6,13.5,22.5l-52.4,66c-2.5,3-1.1,3.8,1.1,1.1l53.3-53.9
		C198.3,99.7,199.9,108.9,197.2,121L197.2,121z"/>
</g>
</svg>
