<?xml version="1.0" encoding="iso-8859-1"?>
<!-- Generator: Adobe Illustrator 19.0.0, SVG Export Plug-In . SVG Version: 6.00 Build 0)  -->
<svg version="1.1" id="Capa_1" xmlns="http://www.w3.org/2000/svg" xmlns:xlink="http://www.w3.org/1999/xlink" x="0px" y="0px"
	 viewBox="0 0 480 480" style="enable-background:new 0 0 480 480;" xml:space="preserve">
<path d="M0,44h16v352H0V44z"/>
<path d="M64,396V44H48H32v352h16H64z"/>
<path d="M208,396V44h-16h-16v352h16H208z"/>
<path d="M344,396V44h-16h-16v352h16H344z"/>
<path d="M392,396V44h-16h-16v352h16H392z"/>
<path d="M80,44h16v352H80V44z"/>
<path d="M224,44h16v352h-16V44z"/>
<path d="M248,44h16v352h-16V44z"/>
<path d="M280,44h16v352h-16V44z"/>
<path d="M144,396h16V44h-16h-16h-16v352h16H144z"/>
<path d="M440,396h16V44h-16h-16h-16v352h16H440z"/>
<path d="M464,44h16v352h-16V44z"/>
<path d="M0,420h16v16H0V420z"/>
<path d="M32,420h32v16H32V420z"/>
<path d="M80,420h16v16H80V420z"/>
<path d="M112,420h48v16h-48V420z"/>
<path d="M176,420h32v16h-32V420z"/>
<path d="M224,420h16v16h-16V420z"/>
<path d="M248,420h48v16h-48V420z"/>
<path d="M312,420h32v16h-32V420z"/>
<path d="M360,420h32v16h-32V420z"/>
<path d="M408,420h72v16h-72V420z"/>
<g>
</g>
<g>
</g>
<g>
</g>
<g>
</g>
<g>
</g>
<g>
</g>
<g>
</g>
<g>
</g>
<g>
</g>
<g>
</g>
<g>
</g>
<g>
</g>
<g>
</g>
<g>
</g>
<g>
</g>
</svg>
