<?xml version="1.0" encoding="utf-8"?>
<!-- Generator: Adobe Illustrator 22.1.0, SVG Export Plug-In . SVG Version: 6.00 Build 0)  -->
<svg version="1.1" id="Capa_1" xmlns="http://www.w3.org/2000/svg" xmlns:xlink="http://www.w3.org/1999/xlink" x="0px" y="0px"
	 viewBox="0 0 402 402" style="enable-background:new 0 0 402 402;" xml:space="preserve">
<style type="text/css">
	.st0{fill:#FFFFFF;}
</style>
<g>
	<g>
		<path class="st0" d="M0,402h182.7V219.3H0V402z M36.5,255.8h109.6v109.4H36.5V255.8z"/>
		<rect x="73.1" y="292.4" class="st0" width="36.5" height="36.5"/>
		<rect x="292.4" y="365.4" class="st0" width="36.6" height="36.5"/>
		<rect x="365.4" y="365.4" class="st0" width="36.6" height="36.5"/>
		<polygon class="st0" points="365.4,255.8 328.9,255.8 328.9,219.3 219.3,219.3 219.3,402 255.8,402 255.8,292.4 292.4,292.4 
			292.4,328.9 402,328.9 402,219.3 402,219.3 365.4,219.3 		"/>
		<path class="st0" d="M0,182.7h182.7V0H0V182.7z M36.5,36.5h109.6v109.6H36.5V36.5z"/>
		<rect x="73.1" y="73.1" class="st0" width="36.5" height="36.5"/>
		<path class="st0" d="M219.3,0v182.7H402V0H219.3z M365.4,146.2H255.8V36.5h109.6V146.2z"/>
		<rect x="292.4" y="73.1" class="st0" width="36.6" height="36.5"/>
	</g>
</g>
</svg>
