<?xml version="1.0" encoding="utf-8"?>
<!-- Generator: Adobe Illustrator 19.1.0, SVG Export Plug-In . SVG Version: 6.00 Build 0)  -->
<svg version="1.1" id="Layer_1" xmlns="http://www.w3.org/2000/svg" xmlns:xlink="http://www.w3.org/1999/xlink" x="0px" y="0px"
	 viewBox="0 0 60 60" style="enable-background:new 0 0 60 60;" xml:space="preserve">
<style type="text/css">
	.st0{fill:#FFFFFF;}
</style>
<g>
	<path class="st0" d="M15.4,30.7c-0.1,0.1-0.4,0.2-0.6,0.3c-0.1,0.1-0.4,0.4-0.5,0.5c0,0.1-0.2,0.3-0.2,0.5c0,0.1-0.1,0.5-0.1,1.1
		c0,0.6,0,0.7,0,1.4c0,0.7,0.1,1,0,1.6c0,0.7,0,1,0,1.1c0,0.1,0,0.5-0.1,0.6c-0.1,0.2-0.1,0.3-0.3,0.5c-0.2,0.2-0.6,0.5-0.8,0.5
		C12.6,39,12.1,39,12,39c-0.2,0-0.6-0.1-0.8-0.2c-0.2-0.1-0.4-0.2-0.5-0.3c-0.1-0.1-0.4-0.4-0.4-0.5c-0.1-0.2-0.2-0.5-0.3-0.7
		c0-0.2-0.1-1.2,0-1.4c0-0.3,0-11.4,0-11.4s0-0.3,0.1-0.5c0-0.2,0-0.2,0.1-0.3c0-0.1,0.2-0.3,0.3-0.5c0.1-0.1,0.3-0.4,0.4-0.4
		c0.1-0.1,0.4-0.3,0.5-0.3c0.1,0,0.3-0.1,0.5-0.1c0.1,0,0.3,0,0.6,0c0.2,0,0.5,0.1,0.6,0.2c0.1,0,0.3,0.2,0.5,0.3
		c0.1,0.1,0.3,0.3,0.4,0.5c0.1,0.2,0.3,0.5,0.3,0.7c0,0.2,0.1,0.4,0.1,0.7c0,0.3,0,0.7,0,1.1c0,0.4,0,1.1,0,1.1s0.2-0.1,0.4-0.1
		c0.2,0,0.4-0.1,0.6-0.1c0.2,0,0.8-0.1,1.1-0.1c0.3,0,0.8,0,1,0.1c0.3,0,1,0.2,1.5,0.4c0.5,0.2,0.7,0.4,1,0.5
		c0.2,0.2,0.9,0.7,1.1,0.9c0.2,0.2,0.7,0.9,0.8,1c0.1,0.1,0.4,0.7,0.6,1.1c0.1,0.4,0.2,0.6,0.2,0.9c0,0.3,0.1,0.7,0.1,1.5
		c0,0.8,0,2.7,0,3.2c0,0.5,0,1.1-0.1,1.3c-0.1,0.2-0.2,0.5-0.3,0.7c-0.2,0.2-0.3,0.3-0.4,0.4c-0.1,0.1-0.5,0.3-0.6,0.3
		c-0.1,0-0.6,0.1-0.9,0.1c-0.3-0.1-0.6-0.1-0.9-0.3s-0.5-0.4-0.6-0.5c-0.1-0.1-0.3-0.4-0.3-0.6c0-0.1-0.1-0.5-0.1-1
		c0-0.6,0-1.8,0-2.6c0-0.8,0-1.6-0.2-2.2c-0.1-0.3-0.4-0.6-0.6-0.7c-0.2-0.1-0.4-0.3-0.8-0.3c-0.7-0.1-0.9-0.1-1.2,0"/>
	<path class="st0" d="M28.8,26.8c0,0-0.5,0.2-0.7,0.3c-0.3,0.1-1.2,0.7-1.6,1.1c-0.4,0.4-0.6,0.7-0.7,0.9c-0.1,0.2-0.4,0.6-0.5,0.9
		c-0.2,0.3-0.4,1-0.5,1.3c-0.1,0.3-0.2,0.9-0.2,1.2c0,0.3,0,1.3,0.1,1.6c0.1,0.3,0.4,1.3,0.5,1.5c0.1,0.2,0.6,0.9,0.7,1.1
		c0.1,0.2,0.6,0.7,0.8,0.8c0.2,0.2,0.8,0.7,1.1,0.8c0.2,0.1,0.9,0.4,1.1,0.5c0.3,0.1,0.8,0.2,1,0.2c0.3,0,1,0.1,1.2,0
		c0.2,0,1.1-0.1,1.4-0.2c0.4-0.1,1-0.4,1.3-0.5c0.3-0.1,1-0.7,1.3-0.9c0.3-0.3,0.8-0.9,1-1.2c0.2-0.3,0.6-1.1,0.7-1.5
		c0.1-0.4,0.3-1.1,0.3-2.1c0-1.1,0-2.6,0-3.9c0-1.3,0-2.6,0-3.2c0-0.6,0-0.7,0-1c0-0.3-0.1-0.7-0.2-0.9c-0.1-0.2-0.2-0.3-0.2-0.4
		c-0.1-0.1-0.2-0.3-0.3-0.4c-0.1-0.1-0.5-0.3-0.6-0.4c-0.2-0.1-0.6-0.1-0.7-0.1c-0.1,0-0.7,0.1-0.8,0.1c-0.1,0.1-0.4,0.2-0.5,0.3
		c-0.1,0.1-0.5,0.5-0.7,0.9c-0.1,0.3-0.2,0.3-0.2,1.1c0,0.9,0,1.9,0,2.8c0,0.8,0,3.5,0,3.5l0,1.5c0,0,0.1,1.7-1.6,2.2
		c-0.2,0.1-0.4,0.1-1.1,0c-0.5-0.1-0.9-0.5-1.1-0.8c-0.1-0.2-0.4-0.6-0.4-0.9c0-0.9,0-3.2,0-3.2"/>
	<path class="st0" d="M47.2,30.6c0.1,0,0.5,0,0.7,0c0.2,0,0.6-0.1,0.8-0.2c0.2-0.1,0.6-0.3,0.8-0.6c0.2-0.3,0.4-0.5,0.4-0.8
		c0.1-0.3,0.1-0.5,0-0.8c0-0.3-0.2-0.6-0.3-0.8c-0.1-0.2-0.4-0.4-0.6-0.6c-0.2-0.1-0.5-0.3-0.7-0.3c-0.3,0-1-0.1-1.3-0.1
		c-0.4,0-1.4,0-1.7,0.1c-0.3,0-1.1,0.2-1.4,0.3c-0.3,0.1-0.9,0.4-1.1,0.4c-0.2,0.1-1.1,0.7-1.5,1.1c-0.4,0.4-0.9,1-1,1.3
		c-0.2,0.3-0.5,1-0.6,1.2c-0.1,0.2-0.2,0.9-0.2,1.1c0,0.3-0.1,1,0,1.5c0.1,0.5,0.3,1.5,0.5,1.9c0.2,0.4,0.6,1,0.7,1.2
		c0.1,0.1,0.7,0.8,0.9,1c0.2,0.2,0.8,0.7,1.1,0.8c0.2,0.1,1.2,0.6,1.7,0.7c0.5,0.1,1.2,0.2,1.5,0.2c0.3,0,1.5,0,1.8,0
		c0.3,0,0.5,0,0.7-0.1c0.2,0,0.6-0.1,0.8-0.3c0.3-0.2,0.6-0.6,0.7-0.9c0.1-0.3,0.2-0.7,0.1-1.1c-0.1-0.4-0.2-0.6-0.4-0.9
		c-0.2-0.2-0.6-0.7-1.2-0.8c-0.6-0.1-1-0.1-1.8-0.1c-0.9,0-1.5,0-2-0.5c-0.7-0.6-0.8-0.9-0.8-1.3c-0.1-0.7-0.1-1.3,0.7-2
		c0.3-0.3,0.7-0.4,1.6-0.5C46.5,30.6,47.2,30.6,47.2,30.6z"/>
</g>
</svg>
