<svg xmlns="http://www.w3.org/2000/svg" width="182.61" height="183.55" viewBox="0 0 182.61 183.55">
  <defs>
    <style>
      .cls-1, .cls-2 {
        fill: #fff;
        fill-rule: evenodd;
      }

      .cls-1 {
        stroke: #231f20;
        stroke-miterlimit: 2.61;
        stroke-width: 0.5px;
      }
    </style>
  </defs>
  <title>Asset 1</title>
  <g id="Layer_2" data-name="Layer 2">
    <g id="Layer_1-2" data-name="Layer 1">
      <g>
        <path class="cls-1" d="M112.16,49.57a23.41,23.41,0,0,1,2.43,6.93A75.53,75.53,0,0,1,126.25,56h0a65.72,65.72,0,0,0-14.11-6.41Zm-11.7,42.17a3.93,3.93,0,0,1,3,1.34c2.29-.22,4.58-.4,6.84-.54.61-3.91,1.1-7.72,1.46-11.39a108.36,108.36,0,0,0-19-12.57c-2.49,5.74-4.93,12.34-7.2,19.4a11.06,11.06,0,0,1,4.59,6.72c2.27-.34,4.56-.65,6.85-.93a4,4,0,0,1,3.46-2Zm4,4.82a4,4,0,0,1-7.69.83q-3.2.4-6.37.9a10.93,10.93,0,0,1-10.5,9.89c-1.4,5.67-2.63,11.41-3.67,17q3.32-.19,6.71-.47a7.31,7.31,0,0,1,7-6.33,7.16,7.16,0,0,1,6.66,4.88c2.44-.32,4.89-.67,7.33-1.06.84-3.17,1.64-6.37,2.39-9.57a5.51,5.51,0,0,1,2.2-10.22c.41-2.11.8-4.21,1.15-6.28-1.75.11-3.5.24-5.25.4ZM26.58,114.18c2.27-1.89,6.25-4,11.46-6.13-3.47-9.36-4.77-19-3-28.29a64.88,64.88,0,0,0-8.46,32.14c0,.76,0,1.53,0,2.28Zm19.12-9a237.18,237.18,0,0,1,23.08-6.46,11.49,11.49,0,0,1-.11-1.57,10.94,10.94,0,0,1,10.85-11c2.23-6.81,4.61-13.19,7-18.78A101.92,101.92,0,0,0,65.46,82.1a5.48,5.48,0,0,1,.6,2.49A5.36,5.36,0,0,1,60.73,90a5.3,5.3,0,0,1-2.61-.69A111.35,111.35,0,0,0,45.7,105.19Zm67.66-12.82c1.79-.09,3.57-.15,5.33-.18A8.55,8.55,0,0,1,120,88.64c-1.73-1.74-3.52-3.43-5.36-5-.34,2.85-.76,5.78-1.24,8.77Zm22.06.46a89.61,89.61,0,0,1,10.46,1.7c2.19-10.19.66-19.47-6-26a41.12,41.12,0,0,0-24.74-8.62,90.64,90.64,0,0,1,0,17.66c2.92,2.47,5.74,5.09,8.43,7.83a8.37,8.37,0,0,1,11.79,7.4Zm16.77,3.51a44.34,44.34,0,0,1,4.2,1.71A65.64,65.64,0,0,0,153.33,88a49.85,49.85,0,0,1-1.14,8.37Zm5,6.38a54.32,54.32,0,0,0-6-2.48,71.93,71.93,0,0,1-3.52,9.47,70.7,70.7,0,0,0,9.73-5.62c-.05-.46-.11-.91-.18-1.37Zm-12.34-4.31a88.1,88.1,0,0,0-10.14-1.78,8.06,8.06,0,0,1-.6,1.17,94.55,94.55,0,0,1,6.77,10.62,65.23,65.23,0,0,0,4-10ZM119,95.82c-2.07,0-4.17.07-6.27.17-.41,2.27-.85,4.57-1.33,6.88a5.51,5.51,0,0,1-2.25,10.56H109c-.67,2.78-1.39,5.55-2.14,8.3a180.61,180.61,0,0,0,31-7.93,80.23,80.23,0,0,0-7.46-12.74,8.27,8.27,0,0,1-3.44.74,8.42,8.42,0,0,1-8-6Zm-49.07,6.5a231.82,231.82,0,0,0-26.67,8,79.14,79.14,0,0,0,7.65,15.18c5.62.23,11.93.25,18.63,0,1.14-6.27,2.54-12.71,4.13-19.08a11,11,0,0,1-3.74-4.12Zm-31.09,9.75c-5.76,2.39-10,4.64-12,6.45.1,1,.23,2,.37,3a20.93,20.93,0,0,0,6.8,2.25,83.73,83.73,0,0,1,4.81-11.69Zm57.81,16.56a7.18,7.18,0,0,1-6.72,5A7.06,7.06,0,0,1,83.81,130q-4.34.36-8.54.57c-1,6.28-1.76,12.34-2.14,17.94a111.86,111.86,0,0,0,14.71,8.77q2.58-1,5.12-2.12a248.93,248.93,0,0,0,9.41-27.28q-2.85.42-5.71.79Zm-60-4.41c3,.47,6.53.84,10.49,1.09a84.76,84.76,0,0,1-6.47-11.16,68.56,68.56,0,0,0-4,10.07Zm121.22-14.51a79,79,0,0,1-13,7,59,59,0,0,1,4.68,27.13,64.94,64.94,0,0,0,8.33-31.9q0-1.11,0-2.19Zm-24.4,11.18a197.4,197.4,0,0,1-28.14,6.49,270.25,270.25,0,0,1-9,26.13A95.67,95.67,0,0,0,111.12,144a9.2,9.2,0,0,1,8.69-12.3,9.33,9.33,0,0,1,4,.88,107.69,107.69,0,0,0,9.67-11.72ZM68.66,130.8c-4.95.14-9.66.14-14,0Q56.27,133,58,135a4.91,4.91,0,0,1,2.39-.62,4.62,4.62,0,0,1,4.73,4.5,4.34,4.34,0,0,1-.84,2.57c.88.81,1.79,1.6,2.71,2.37.37-4.14.93-8.51,1.64-13Zm-17.58-.11a115.33,115.33,0,0,1-15.69-1.64c-1.36,6.87-1,13.19,1.64,18.33q1.28,2,2.67,3.8a43,43,0,0,0,27,9.95,100.48,100.48,0,0,1,.13-14.75l-1.62-1.32c-.87-.72-1.73-1.46-2.57-2.21a5,5,0,0,1-2.19.5,4.61,4.61,0,0,1-4.72-4.5,4.31,4.31,0,0,1,.58-2.16c-1.82-1.93-3.55-3.94-5.2-6Zm-18.39-2.24a15.71,15.71,0,0,1-4.46-1.73,64.37,64.37,0,0,0,3,9.47,66.26,66.26,0,0,1,1.47-7.74Zm59.63,34c-3.17,6.57-6.3,11.57-9.12,14.21a66.8,66.8,0,0,0,9,.61,65.54,65.54,0,0,0,30.58-7.52c-9.38.91-20.26-2.4-30.46-7.3ZM79.93,176.16c2.83-1.76,6-6.36,9.28-12.83a65.79,65.79,0,0,1-15.75,3.1,27,27,0,0,0,2.6,8.88c1.28.32,2.57.6,3.87.85Zm32.25-101A88.58,88.58,0,0,0,111.92,60,57.36,57.36,0,0,0,95,63.64l-.06.12a115.49,115.49,0,0,1,17.21,11.37Zm-.71-18.19a24.27,24.27,0,0,0-3-8.41c-.66-.17-1.31-.32-2-.47-3.16,1.56-6.62,6.15-10.09,12.76a84.55,84.55,0,0,1,15-3.88ZM73,151c-.17,3.5-.19,6.8,0,9.83a59.81,59.81,0,0,0,11.59-2.47C80.4,156,76.49,153.5,73,151Zm-3.47,22.27a24.58,24.58,0,0,1-2.16-6.78A53.11,53.11,0,0,1,52,163.61a65.87,65.87,0,0,0,17.51,9.68ZM89.53,61c3.5-6.95,7-12,10.23-14.11a66.11,66.11,0,0,0-38.53,7.29h.06C70,54,79.76,56.54,89.53,61ZM41.89,69.87c-4.18,11.46-3.78,24.28,0,36.55A105.49,105.49,0,0,1,56.25,87.5a5.44,5.44,0,0,1-.84-2.91,5.36,5.36,0,0,1,5.32-5.4,5.27,5.27,0,0,1,3.12,1,105.9,105.9,0,0,1,22-14.86c-15.62-6.52-30.76-7.43-40,.26l0,0q-2.07,2.06-4,4.29Zm54,90.93c17.31,6.67,36,7.5,45.54-9.26h0c3.11-9.94,2.61-20.06-.42-29.75a110.16,110.16,0,0,1-12.6,15.88,9,9,0,0,1,.6,3.25,9.2,9.2,0,0,1-9.23,9.18,9.32,9.32,0,0,1-4.15-1A93.78,93.78,0,0,1,95.92,160.8Zm-3.61,22.5c39.48,0,71.48-31.77,71.48-71s-32-70.95-71.48-70.95S20.84,73.16,20.84,112.35s32,71,71.47,71Z"/>
        <path class="cls-2" d="M.67,46.37h0A4.44,4.44,0,0,1,6.77,45l18,11.26a4.44,4.44,0,0,1,1.41,6.1h0a4.45,4.45,0,0,1-6.1,1.41l-18-11.26a4.43,4.43,0,0,1-1.41-6.1Z"/>
        <path class="cls-2" d="M41.87,11.61h0a4.43,4.43,0,0,1,5.88,2.14l9,19.25a4.44,4.44,0,0,1-2.14,5.88h0a4.44,4.44,0,0,1-5.89-2.14l-9-19.25a4.43,4.43,0,0,1,2.14-5.88Z"/>
        <path class="cls-2" d="M91.88,0h0a4.44,4.44,0,0,1,4.43,4.43V25.66a4.44,4.44,0,0,1-4.43,4.43h0a4.44,4.44,0,0,1-4.43-4.43V4.43A4.44,4.44,0,0,1,91.88,0Z"/>
        <path class="cls-2" d="M141.79,11.65h0a4.43,4.43,0,0,1,2.14,5.88l-9,19.25a4.45,4.45,0,0,1-5.89,2.14h0A4.45,4.45,0,0,1,126.93,33l9-19.24a4.43,4.43,0,0,1,5.88-2.14Z"/>
        <path class="cls-2" d="M181.94,46.53h0a4.43,4.43,0,0,1-1.41,6.1l-18,11.25a4.44,4.44,0,0,1-6.1-1.4h0a4.45,4.45,0,0,1,1.41-6.1l18-11.25a4.44,4.44,0,0,1,6.1,1.41Z"/>
      </g>
    </g>
  </g>
</svg>
