<?xml version="1.0" standalone="no"?>
<!DOCTYPE svg PUBLIC "-//W3C//DTD SVG 1.1//EN" "http://www.w3.org/Graphics/SVG/1.1/DTD/svg11.dtd" >
<svg xmlns="http://www.w3.org/2000/svg">
<metadata></metadata>
<defs>
<font id="dot_matrixregular" horiz-adv-x="1024" >
<font-face units-per-em="2048" ascent="1638" descent="-410" />
<missing-glyph horiz-adv-x="1226" />
<glyph horiz-adv-x="0" />
<glyph unicode="&#xd;" horiz-adv-x="1226" />
<glyph unicode=" "  horiz-adv-x="1226" />
<glyph unicode="&#x09;" horiz-adv-x="1226" />
<glyph unicode="&#xa0;" horiz-adv-x="1226" />
<glyph unicode="!" horiz-adv-x="405" d="M0 100q0 41 30.5 70t73.5 29t74 -29t31 -70q0 -43 -31 -71.5t-74 -28.5t-73.5 28.5t-30.5 71.5zM0 510q0 41 30.5 70.5t73.5 29.5t74 -29.5t31 -70.5q0 -43 -31 -72.5t-74 -29.5t-73.5 29.5t-30.5 72.5zM0 715q0 41 29.5 71.5t72.5 30.5t73 -30.5t30 -71.5q0 -43 -30 -74 t-73 -31t-72.5 31t-29.5 74zM0 922q0 41 29.5 71.5t72.5 30.5t73 -30.5t30 -71.5q0 -43 -30 -74t-73 -31t-72.5 31t-29.5 74zM0 1126q0 41 30.5 71t73.5 30t74 -30t31 -71q0 -43 -31 -72.5t-74 -29.5t-73.5 29.5t-30.5 72.5zM0 1327q0 41 30.5 70.5t73.5 29.5t74 -29.5 t31 -70.5t-31 -70.5t-74 -29.5t-73.5 29.5t-30.5 70.5z" />
<glyph unicode="&#x22;" horiz-adv-x="817" d="M0 1128q0 41 30.5 72t75.5 31q43 0 74 -31t31 -72q0 -43 -30.5 -73.5t-74.5 -30.5q-45 0 -75.5 30.5t-30.5 73.5zM0 1329q0 41 30.5 69.5t75.5 28.5q43 0 74 -28.5t31 -69.5t-30.5 -69.5t-74.5 -28.5q-45 0 -75.5 28.5t-30.5 69.5zM406 1124q0 43 30.5 73t75.5 30 t75.5 -30t30.5 -73t-30.5 -72.5t-75.5 -29.5t-75.5 29.5t-30.5 72.5zM408 1327q0 41 30.5 70.5t75.5 29.5q43 0 73.5 -29.5t30.5 -70.5t-30.5 -70.5t-73.5 -29.5q-45 0 -75.5 29.5t-30.5 70.5z" />
<glyph unicode="#" horiz-adv-x="1228" d="M0 512q0 41 29.5 70.5t72.5 29.5t73 -29.5t30 -70.5t-30 -70.5t-73 -29.5t-72.5 29.5t-29.5 70.5zM0 920q0 41 30.5 70.5t73.5 29.5t74 -29.5t31 -70.5q0 -43 -31 -73t-74 -30t-73.5 30t-30.5 73zM201 307q0 39 30.5 67.5t73.5 28.5t74 -28.5t31 -67.5q0 -41 -31 -69.5 t-74 -28.5t-73.5 28.5t-30.5 69.5zM205 512q0 41 29.5 70.5t72.5 29.5t73 -29.5t30 -70.5t-30 -70.5t-73 -29.5t-72.5 29.5t-29.5 70.5zM209 715q0 41 29.5 69.5t72.5 28.5q41 0 71 -28.5t30 -69.5q0 -43 -30 -72t-71 -29q-43 0 -72.5 29t-29.5 72zM209 920q0 43 29.5 72.5 t72.5 29.5t73 -29.5t30 -72.5t-30 -73t-73 -30t-72.5 30t-29.5 73zM211 1128q0 41 29.5 70t70.5 29t71 -29t30 -70q0 -39 -30 -68.5t-71 -29.5t-70.5 29.5t-29.5 68.5zM410 510q0 41 29.5 69.5t72.5 28.5q41 0 70.5 -28.5t29.5 -69.5t-29.5 -69.5t-70.5 -28.5 q-43 0 -72.5 28.5t-29.5 69.5zM414 924q0 41 29.5 69.5t72.5 28.5t72.5 -28.5t29.5 -69.5q0 -43 -29.5 -72t-72.5 -29t-72.5 29t-29.5 72zM610 510q0 41 31 70.5t76 29.5t75.5 -29.5t30.5 -70.5q0 -43 -30.5 -72.5t-75.5 -29.5t-76 29.5t-31 72.5zM610 717q0 45 31 75.5 t76 30.5t75.5 -30.5t30.5 -75.5t-30.5 -76t-75.5 -31t-76 31t-31 76zM612 303q0 41 32 70.5t77 29.5q43 0 74.5 -29.5t31.5 -70.5t-31.5 -70.5t-74.5 -29.5q-45 0 -77 29.5t-32 70.5zM616 1124q0 41 30 70t73 29t72.5 -29t29.5 -70q0 -43 -29.5 -71.5t-72.5 -28.5t-73 28.5 t-30 71.5zM618 924q0 41 30 69.5t73 28.5q41 0 70.5 -28.5t29.5 -69.5q0 -43 -29.5 -72t-70.5 -29q-43 0 -73 29t-30 72zM821 920q0 41 31 71.5t74 30.5q41 0 71.5 -30.5t30.5 -71.5q0 -43 -30.5 -74t-71.5 -31q-43 0 -74 31t-31 74zM823 508q0 41 30 69.5t73 28.5 t72.5 -28.5t29.5 -69.5q0 -43 -29.5 -71.5t-72.5 -28.5t-73 28.5t-30 71.5z" />
<glyph unicode="$" d="M0 305q0 41 29.5 69.5t72.5 28.5q41 0 71 -28.5t30 -69.5q0 -43 -30 -71.5t-71 -28.5q-43 0 -72.5 28.5t-29.5 71.5zM0 922q0 41 29.5 69.5t72.5 28.5q41 0 71 -28.5t30 -69.5q0 -43 -30 -72t-71 -29q-43 0 -72.5 29t-29.5 72zM197 715q0 41 31.5 70.5t76.5 29.5 q43 0 75 -29.5t32 -70.5t-32 -71t-75 -30q-45 0 -76.5 30t-31.5 71zM201 102q0 41 31.5 71t76.5 30q43 0 75 -30t32 -71q0 -43 -32 -72.5t-75 -29.5q-45 0 -76.5 29.5t-31.5 72.5zM203 307q0 39 30.5 67.5t73.5 28.5q41 0 72 -28.5t31 -67.5t-31 -67.5t-72 -28.5 q-43 0 -73.5 28.5t-30.5 67.5zM203 1124q0 41 30.5 72t73.5 31q41 0 72 -31t31 -72q0 -43 -31 -73.5t-72 -30.5q-43 0 -73.5 30.5t-30.5 73.5zM408 1331q0 39 30.5 67.5t75.5 28.5q43 0 73.5 -28.5t30.5 -67.5q0 -41 -30.5 -69.5t-73.5 -28.5q-45 0 -75.5 28.5t-30.5 69.5z M410 305q0 37 29.5 64.5t72.5 27.5t72.5 -27.5t29.5 -64.5q0 -39 -29.5 -66.5t-72.5 -27.5t-72.5 27.5t-29.5 66.5zM410 1126q0 41 28.5 71t71.5 30q41 0 69.5 -30t28.5 -71q0 -43 -28.5 -72.5t-69.5 -29.5q-43 0 -71.5 29.5t-28.5 72.5zM412 717q0 41 30.5 70.5t75.5 29.5 q43 0 74 -29.5t31 -70.5q0 -43 -31 -73t-74 -30q-45 0 -75.5 30t-30.5 73zM618 512q0 41 30 71.5t73 30.5q41 0 70.5 -30.5t29.5 -71.5q0 -43 -29.5 -73.5t-70.5 -30.5q-43 0 -73 30.5t-30 73.5zM618 1128q0 43 30 74t73 31q41 0 70.5 -31t29.5 -74q0 -45 -29.5 -75.5 t-70.5 -30.5q-43 0 -73 30.5t-30 75.5z" />
<glyph unicode="%" horiz-adv-x="1228" d="M0 100q0 41 30.5 71t75.5 30t76 -30t31 -71t-30.5 -70.5t-76.5 -29.5q-45 0 -75.5 29.5t-30.5 70.5zM0 311q0 41 29.5 72t72.5 31t73 -31t30 -72q0 -43 -30 -73.5t-73 -30.5t-72.5 30.5t-29.5 73.5zM0 1120q0 43 30.5 73t73.5 30q41 0 72 -30t31 -73t-31 -72.5t-72 -29.5 q-43 0 -73.5 29.5t-30.5 72.5zM0 1329q0 41 30.5 69.5t73.5 28.5t74 -28.5t31 -69.5t-31 -69.5t-74 -28.5t-73.5 28.5t-30.5 69.5zM203 514q0 41 30.5 70.5t73.5 29.5q41 0 72 -29.5t31 -70.5q0 -43 -31 -72.5t-72 -29.5q-43 0 -73.5 29.5t-30.5 72.5zM209 1126 q0 43 29.5 74t70.5 31t71 -31t30 -74q0 -45 -30 -75.5t-71 -30.5t-70.5 30.5t-29.5 75.5zM213 1327q0 41 29.5 70.5t70.5 29.5t71 -29.5t30 -70.5t-30 -70.5t-71 -29.5t-70.5 29.5t-29.5 70.5zM410 715q0 41 30.5 70.5t73.5 29.5q41 0 71.5 -29.5t30.5 -70.5t-30.5 -71 t-71.5 -30q-43 0 -73.5 30t-30.5 71zM608 100q0 41 32 70t77 29q43 0 74.5 -29t31.5 -70q0 -43 -31.5 -71.5t-74.5 -28.5q-45 0 -77 28.5t-32 71.5zM610 301q0 43 31 72.5t76 29.5q43 0 73.5 -29.5t30.5 -72.5t-30.5 -72.5t-73.5 -29.5q-45 0 -76 29.5t-31 72.5zM616 922 q0 43 29 73.5t72 30.5q41 0 69.5 -30.5t28.5 -73.5q0 -45 -28.5 -76t-69.5 -31q-43 0 -72 31t-29 76zM815 1128q0 43 31 73t76 30t75.5 -30t30.5 -73t-30.5 -72.5t-75.5 -29.5t-76 29.5t-31 72.5zM819 1329q0 41 31 69.5t74 28.5t73.5 -28.5t30.5 -69.5t-30.5 -69.5 t-73.5 -28.5t-74 28.5t-31 69.5zM821 100q0 41 30 70t71 29t70.5 -29t29.5 -70q0 -43 -29.5 -71.5t-70.5 -28.5t-71 28.5t-30 71.5zM823 303q0 43 30 74t73 31q41 0 70.5 -31t29.5 -74t-29.5 -73.5t-70.5 -30.5q-43 0 -73 30.5t-30 73.5z" />
<glyph unicode="&#x26;" horiz-adv-x="1228" d="M0 307q0 43 30.5 74t75.5 31q43 0 74 -31t31 -74t-30.5 -73.5t-74.5 -30.5q-45 0 -75.5 30.5t-30.5 73.5zM0 512q0 41 29.5 70.5t72.5 29.5q41 0 71 -29.5t30 -70.5t-30 -70.5t-71 -29.5q-43 0 -72.5 29.5t-29.5 70.5zM0 918q0 41 30.5 70.5t73.5 29.5q41 0 72 -30 t31 -70q0 -41 -31 -71t-72 -30q-43 0 -73.5 30t-30.5 71zM0 1124q0 43 30.5 73t73.5 30q41 0 72 -30t31 -73q0 -41 -31 -71.5t-72 -30.5q-43 0 -73.5 30.5t-30.5 71.5zM203 715q0 43 29.5 72.5t72.5 29.5q41 0 71 -29.5t30 -72.5t-30 -73t-71 -30q-43 0 -72.5 30t-29.5 73z M203 1329q0 41 30.5 69.5t73.5 28.5t74 -28.5t31 -69.5q0 -43 -31 -71.5t-74 -28.5t-73.5 28.5t-30.5 71.5zM205 100q0 41 29.5 70t72.5 29q41 0 71 -29t30 -70q0 -43 -30 -71.5t-71 -28.5q-43 0 -72.5 28.5t-29.5 71.5zM406 922q0 41 30.5 71.5t75.5 30.5q43 0 73.5 -30.5 t30.5 -71.5q0 -43 -30.5 -74t-73.5 -31q-45 0 -75.5 31t-30.5 74zM408 508q0 39 30.5 67.5t75.5 28.5t76 -28.5t31 -67.5q0 -41 -31 -69.5t-76 -28.5t-75.5 28.5t-30.5 69.5zM412 102q0 41 30.5 71t73.5 30q41 0 71.5 -30t30.5 -71q0 -43 -30.5 -72.5t-71.5 -29.5 q-43 0 -73.5 29.5t-30.5 72.5zM412 1126q0 43 29.5 73t72.5 30t72.5 -30t29.5 -73t-29.5 -72.5t-72.5 -29.5t-72.5 29.5t-29.5 72.5zM621 307q0 41 29.5 72t72.5 31q41 0 70.5 -31t29.5 -72q0 -43 -29.5 -73.5t-70.5 -30.5q-43 0 -72.5 30.5t-29.5 73.5zM817 508 q0 39 31 67.5t76 28.5q43 0 73.5 -28.5t30.5 -67.5q0 -41 -30.5 -69.5t-73.5 -28.5q-45 0 -76 28.5t-31 69.5zM823 102q0 41 31 71t74 30q41 0 71.5 -30t30.5 -71q0 -43 -30.5 -72.5t-71.5 -29.5q-43 0 -74 29.5t-31 72.5z" />
<glyph unicode="'" horiz-adv-x="417" d="M0 1339q0 41 28.5 72t71.5 31q41 0 70 -31t29 -72q0 -43 -29 -73.5t-70 -30.5q-43 0 -71.5 30.5t-28.5 73.5zM0 1540q0 41 28.5 69.5t71.5 28.5q41 0 70 -28.5t29 -69.5t-29 -69.5t-70 -28.5q-43 0 -71.5 28.5t-28.5 69.5z" />
<glyph unicode="(" horiz-adv-x="817" d="M0 508q0 43 30.5 72.5t75.5 29.5q43 0 74 -29.5t31 -72.5t-30.5 -72.5t-74.5 -29.5q-45 0 -75.5 29.5t-30.5 72.5zM0 715q0 43 30.5 73.5t75.5 30.5q43 0 74 -30.5t31 -73.5t-30.5 -74t-74.5 -31q-45 0 -75.5 31t-30.5 74zM0 922q0 41 29.5 70.5t70.5 29.5t71 -29.5 t30 -70.5q0 -43 -30 -73t-71 -30t-70.5 30t-29.5 73zM201 307q0 41 31.5 71t76.5 30q43 0 75 -30t32 -71q0 -43 -32 -72.5t-75 -29.5q-45 0 -76.5 29.5t-31.5 72.5zM201 1126q0 41 30.5 72t73.5 31t74 -31t31 -72q0 -43 -31 -73.5t-74 -30.5t-73.5 30.5t-30.5 73.5z M410 1329q0 41 29.5 69.5t72.5 28.5q41 0 70.5 -28.5t29.5 -69.5q0 -43 -29.5 -71.5t-70.5 -28.5q-43 0 -72.5 28.5t-29.5 71.5zM416 102q0 43 29.5 73t72.5 30q41 0 70.5 -30t29.5 -73t-29.5 -72.5t-70.5 -29.5q-43 0 -72.5 29.5t-29.5 72.5z" />
<glyph unicode=")" horiz-adv-x="823" d="M0 102q0 43 29.5 73t72.5 30q41 0 71 -30t30 -73t-30 -72.5t-71 -29.5q-43 0 -72.5 29.5t-29.5 72.5zM0 1329q0 41 30.5 69.5t73.5 28.5q41 0 72 -28.5t31 -69.5q0 -43 -31 -71.5t-72 -28.5q-43 0 -73.5 28.5t-30.5 71.5zM203 307q0 43 30.5 73t75.5 30q43 0 74 -30 t31 -73t-31 -72.5t-74 -29.5q-45 0 -75.5 29.5t-30.5 72.5zM207 1128q0 41 29.5 71t72.5 30t73 -30t30 -71t-30 -70.5t-73 -29.5t-72.5 29.5t-29.5 70.5zM406 510q0 41 31.5 71.5t76.5 30.5q43 0 75 -30.5t32 -71.5q0 -43 -32 -73.5t-75 -30.5q-45 0 -76.5 30.5t-31.5 73.5z M406 715q0 43 31.5 72.5t76.5 29.5q43 0 75 -29.5t32 -72.5t-32 -73t-75 -30q-45 0 -76.5 30t-31.5 73zM410 924q0 43 30.5 73.5t75.5 30.5q43 0 74 -30.5t31 -73.5q0 -45 -31 -76t-74 -31q-45 0 -75.5 31t-30.5 76z" />
<glyph unicode="*" horiz-adv-x="1228" d="M0 309q0 41 29.5 71t70.5 30t71 -30t30 -71t-30 -70.5t-71 -29.5t-70.5 29.5t-29.5 70.5zM0 711q0 39 30.5 66.5t73.5 27.5t74 -27.5t31 -66.5q0 -41 -31 -69t-74 -28t-73.5 28t-30.5 69zM201 512q0 41 30.5 70.5t75.5 29.5t76 -29.5t31 -70.5q0 -43 -31 -72.5t-76 -29.5 t-75.5 29.5t-30.5 72.5zM209 713q0 41 29.5 69.5t72.5 28.5t73 -28.5t30 -69.5t-30 -70t-73 -29t-72.5 29t-29.5 70zM406 1124q0 41 31.5 70t76.5 29q43 0 75 -29t32 -70q0 -43 -32 -71.5t-75 -28.5q-45 0 -76.5 28.5t-31.5 71.5zM414 713q0 41 29.5 69.5t70.5 28.5 t70.5 -28.5t29.5 -69.5t-29.5 -70t-70.5 -29t-70.5 29t-29.5 70zM414 918q0 43 30.5 74.5t73.5 31.5q41 0 72 -31.5t31 -74.5q0 -45 -31 -77t-72 -32q-43 0 -73.5 32t-30.5 77zM608 508q0 41 32 69.5t77 28.5t76.5 -28.5t31.5 -69.5q0 -43 -31.5 -71.5t-76.5 -28.5t-77 28.5 t-32 71.5zM614 715q0 41 31 69.5t74 28.5t73.5 -28.5t30.5 -69.5q0 -43 -30.5 -72t-73.5 -29t-74 29t-31 72zM823 715q0 41 30 69.5t73 28.5t72.5 -28.5t29.5 -69.5t-29.5 -70t-72.5 -29t-73 29t-30 70zM825 305q0 43 30 73t71 30t70.5 -30t29.5 -73t-29.5 -72.5 t-70.5 -29.5t-71 29.5t-30 72.5z" />
<glyph unicode="+" horiz-adv-x="1228" d="M0 717q0 41 28.5 70.5t71.5 29.5q41 0 70 -29.5t29 -70.5t-29 -71t-70 -30q-43 0 -71.5 30t-28.5 71zM199 717q0 41 28.5 69.5t71.5 28.5q41 0 69.5 -28.5t28.5 -69.5q0 -43 -28.5 -72t-69.5 -29q-43 0 -71.5 29t-28.5 72zM401 1118q0 39 31 66.5t76 27.5t75.5 -27.5 t30.5 -66.5q0 -41 -30.5 -68.5t-75.5 -27.5t-76 27.5t-31 68.5zM403 717q0 43 31 73.5t76 30.5q43 0 73.5 -30.5t30.5 -73.5t-30.5 -74t-73.5 -31q-45 0 -76 31t-31 74zM403 922q0 41 31 70.5t76 29.5q43 0 73.5 -29.5t30.5 -70.5t-30.5 -71t-73.5 -30q-45 0 -76 30t-31 71z M412 307q0 43 29.5 73t72.5 30t72.5 -30t29.5 -73t-29.5 -72.5t-72.5 -29.5t-72.5 29.5t-29.5 72.5zM414 506q0 39 29.5 67.5t72.5 28.5q41 0 70.5 -28.5t29.5 -67.5t-29.5 -67.5t-70.5 -28.5q-43 0 -72.5 28.5t-29.5 67.5zM614 717q0 43 30 73.5t73 30.5t72.5 -30.5 t29.5 -73.5t-29.5 -74t-72.5 -31t-73 31t-30 74zM819 719q0 41 31 71.5t74 30.5t73.5 -30.5t30.5 -71.5q0 -43 -30.5 -74t-73.5 -31t-74 31t-31 74z" />
<glyph unicode="," horiz-adv-x="620" d="M0 100q0 41 30.5 70t75.5 29q43 0 74 -29t31 -70q0 -43 -30.5 -71.5t-74.5 -28.5q-45 0 -75.5 28.5t-30.5 71.5zM0 303q0 41 30.5 72t73.5 31q41 0 72 -31t31 -72q0 -43 -31 -73.5t-72 -30.5q-43 0 -73.5 30.5t-30.5 73.5zM0 -307q0 41 30.5 69.5t75.5 28.5 q43 0 74 -28.5t31 -69.5t-30.5 -70t-74.5 -29q-45 0 -75.5 29t-30.5 70zM199 -102q0 43 31.5 72.5t78.5 29.5q45 0 77 -29.5t32 -72.5t-32 -73t-77 -30q-47 0 -78.5 30t-31.5 73zM207 96q0 39 30.5 68t75.5 29q43 0 74 -29t31 -68q0 -41 -31 -68.5t-74 -27.5 q-45 0 -75.5 27.5t-30.5 68.5zM211 303q0 41 29.5 72t72.5 31t73 -31t30 -72q0 -43 -30 -73.5t-73 -30.5t-72.5 30.5t-29.5 73.5z" />
<glyph unicode="-" d="M0 713q0 41 30.5 69.5t73.5 28.5t74 -28.5t31 -69.5t-31 -70t-74 -29t-73.5 29t-30.5 70zM209 717q0 43 29.5 72.5t72.5 29.5t73 -29.5t30 -72.5t-30 -73t-73 -30t-72.5 30t-29.5 73zM414 717q0 41 29.5 71.5t72.5 30.5t72.5 -30.5t29.5 -71.5q0 -43 -29.5 -74t-72.5 -31 t-72.5 31t-29.5 74zM618 713q0 41 31 69.5t74 28.5t73.5 -28.5t30.5 -69.5q0 -43 -30.5 -72t-73.5 -29t-74 29t-31 72z" />
<glyph unicode="." horiz-adv-x="614" d="M0 98q0 41 30.5 70t73.5 29t74 -29t31 -70t-31 -69.5t-74 -28.5t-73.5 28.5t-30.5 69.5zM0 305q0 41 30.5 71t75.5 30q43 0 74 -30t31 -71q0 -43 -30.5 -72.5t-74.5 -29.5q-45 0 -75.5 29.5t-30.5 72.5zM209 98q0 41 29.5 70t72.5 29t73 -29t30 -70t-30 -69.5t-73 -28.5 t-72.5 28.5t-29.5 69.5zM211 303q0 43 29.5 73t72.5 30t73 -30t30 -73t-30 -72.5t-73 -29.5t-72.5 29.5t-29.5 72.5z" />
<glyph unicode="/" horiz-adv-x="1228" d="M0 98q0 41 30.5 70t75.5 29q43 0 74 -29t31 -70t-30.5 -69.5t-74.5 -28.5q-45 0 -75.5 28.5t-30.5 69.5zM0 301q0 43 30.5 74t75.5 31q43 0 74 -31t31 -74t-30.5 -73.5t-74.5 -30.5q-45 0 -75.5 30.5t-30.5 73.5zM201 508q0 41 30.5 71.5t75.5 30.5t76 -30.5t31 -71.5 q0 -43 -31 -74t-76 -31t-75.5 31t-30.5 74zM414 715q0 41 30.5 71.5t73.5 30.5q41 0 72 -30.5t31 -71.5q0 -43 -31 -74t-72 -31q-43 0 -73.5 31t-30.5 74zM621 920q0 41 29.5 70.5t72.5 29.5t72.5 -29.5t29.5 -70.5q0 -43 -29.5 -73t-72.5 -30t-72.5 30t-29.5 73zM817 1327 q0 41 31 70.5t76 29.5t75.5 -29.5t30.5 -70.5t-30.5 -70.5t-75.5 -29.5t-76 29.5t-31 70.5zM825 1124q0 41 30 72t73 31t72.5 -31t29.5 -72q0 -43 -29.5 -73.5t-72.5 -30.5t-73 30.5t-30 73.5z" />
<glyph unicode="0" horiz-adv-x="768" d="M0 305q0 43 29.5 73t70.5 30t71 -30t30 -73t-30 -72.5t-71 -29.5t-70.5 29.5t-29.5 72.5zM0 512q0 41 30.5 71.5t75.5 30.5q43 0 74 -30.5t31 -71.5q0 -43 -30.5 -73.5t-74.5 -30.5q-45 0 -75.5 30.5t-30.5 73.5zM0 717q0 41 30.5 70.5t75.5 29.5q43 0 74 -29.5t31 -70.5 q0 -43 -30.5 -73t-74.5 -30q-45 0 -75.5 30t-30.5 73zM0 922q0 41 30.5 71.5t75.5 30.5q43 0 74 -30.5t31 -71.5q0 -43 -30.5 -74t-74.5 -31q-45 0 -75.5 31t-30.5 74zM0 1124q0 41 30.5 70t75.5 29q43 0 74 -29t31 -70q0 -43 -30.5 -71.5t-74.5 -28.5q-45 0 -75.5 28.5 t-30.5 71.5zM201 102q0 41 30.5 71t75.5 30t76 -30t31 -71q0 -43 -31 -72.5t-76 -29.5t-75.5 29.5t-30.5 72.5zM201 1331q0 39 31.5 67.5t78.5 28.5q45 0 77 -28.5t32 -67.5q0 -41 -32 -69.5t-77 -28.5q-47 0 -78.5 28.5t-31.5 69.5zM406 305q0 43 31.5 73t76.5 30 q43 0 75 -30t32 -73t-32 -72.5t-75 -29.5q-45 0 -76.5 29.5t-31.5 72.5zM406 512q0 41 30.5 71.5t75.5 30.5t75.5 -30.5t30.5 -71.5q0 -43 -30.5 -73.5t-75.5 -30.5t-75.5 30.5t-30.5 73.5zM408 719q0 41 30.5 69.5t75.5 28.5q43 0 73.5 -28.5t30.5 -69.5q0 -43 -30.5 -72 t-73.5 -29q-45 0 -75.5 29t-30.5 72zM408 918q0 41 30.5 70.5t75.5 29.5q43 0 73.5 -30t30.5 -70q0 -41 -30.5 -71t-73.5 -30q-45 0 -75.5 30t-30.5 71zM410 1126q0 43 30.5 75t73.5 32t73.5 -32t30.5 -75q0 -45 -30.5 -75.5t-73.5 -30.5t-73.5 30.5t-30.5 75.5z" />
<glyph unicode="1" horiz-adv-x="768" d="M0 100q0 41 29.5 71t72.5 30t73 -30t30 -71t-30 -70.5t-73 -29.5t-72.5 29.5t-29.5 70.5zM0 1122q0 39 30.5 68t73.5 29t74 -29t31 -68q0 -41 -31 -69.5t-74 -28.5t-73.5 28.5t-30.5 69.5zM199 510q0 43 32.5 73.5t77.5 30.5t78 -30.5t33 -73.5t-33 -73.5t-78 -30.5 t-77.5 30.5t-32.5 73.5zM199 717q0 43 32.5 72.5t77.5 29.5t78 -29.5t33 -72.5t-33 -73t-78 -30t-77.5 30t-32.5 73zM201 98q0 41 31.5 70t78.5 29q45 0 77 -29t32 -70t-32 -69.5t-77 -28.5q-47 0 -78.5 28.5t-31.5 69.5zM201 301q0 43 31.5 74t78.5 31q45 0 77 -31t32 -74 t-32 -73.5t-77 -30.5q-47 0 -78.5 30.5t-31.5 73.5zM201 922q0 41 31.5 70.5t78.5 29.5q45 0 77 -29.5t32 -70.5q0 -43 -32 -73t-77 -30q-47 0 -78.5 30t-31.5 73zM201 1126q0 43 31.5 74t76.5 31t77 -31t32 -74t-32 -73.5t-77 -30.5t-76.5 30.5t-31.5 73.5zM207 1329 q0 41 30.5 69.5t75.5 28.5q43 0 74 -28.5t31 -69.5t-31 -69.5t-74 -28.5q-45 0 -75.5 28.5t-30.5 69.5zM418 98q0 41 30.5 70t73.5 29t74 -29t31 -70t-31 -69.5t-74 -28.5t-73.5 28.5t-30.5 69.5z" />
<glyph unicode="2" d="M0 100q0 41 30.5 71t75.5 30q43 0 74 -30t31 -71t-30.5 -70.5t-74.5 -29.5q-45 0 -75.5 29.5t-30.5 70.5zM0 301q0 41 30.5 70.5t73.5 29.5q41 0 72 -29.5t31 -70.5q0 -43 -31 -72.5t-72 -29.5q-43 0 -73.5 29.5t-30.5 72.5zM0 1126q0 41 29.5 71t72.5 30q41 0 71 -30 t30 -71q0 -43 -30 -72.5t-71 -29.5q-43 0 -72.5 29.5t-29.5 72.5zM197 510q0 43 31.5 73.5t76.5 30.5t77 -30.5t32 -73.5q0 -45 -32 -76t-77 -31t-76.5 31t-31.5 76zM203 1327q0 41 30.5 70.5t73.5 29.5t74 -29.5t31 -70.5t-31 -70.5t-74 -29.5t-73.5 29.5t-30.5 70.5z M211 100q0 41 29.5 71t72.5 30q41 0 71 -30t30 -71t-30 -70.5t-71 -29.5q-43 0 -72.5 29.5t-29.5 70.5zM412 1327q0 41 28.5 70.5t71.5 29.5q41 0 69.5 -29.5t28.5 -70.5t-28.5 -70.5t-69.5 -29.5q-43 0 -71.5 29.5t-28.5 70.5zM414 100q0 41 30.5 70t73.5 29q41 0 72 -29 t31 -70q0 -43 -31 -71.5t-72 -28.5q-43 0 -73.5 28.5t-30.5 71.5zM414 715q0 41 30.5 70.5t73.5 29.5q41 0 72 -29.5t31 -70.5t-31 -71t-72 -30q-43 0 -73.5 30t-30.5 71zM610 1126q0 41 32 71t77 30q43 0 74.5 -30t31.5 -71q0 -43 -31.5 -72.5t-74.5 -29.5q-45 0 -77 29.5 t-32 72.5zM621 100q0 41 30.5 70t73.5 29t73.5 -29t30.5 -70q0 -43 -30.5 -71.5t-73.5 -28.5t-73.5 28.5t-30.5 71.5zM621 920q0 43 29.5 73.5t72.5 30.5t72.5 -30.5t29.5 -73.5t-29.5 -74t-72.5 -31t-72.5 31t-29.5 74z" />
<glyph unicode="3" d="M0 303q0 41 29.5 72t72.5 31q41 0 71 -31t30 -72q0 -43 -30 -73.5t-71 -30.5q-43 0 -72.5 30.5t-29.5 73.5zM0 1122q0 41 30.5 71t75.5 30t76 -30t31 -71t-30.5 -70.5t-76.5 -29.5q-45 0 -75.5 29.5t-30.5 70.5zM199 1329q0 41 31.5 69.5t76.5 28.5t77 -28.5t32 -69.5 q0 -43 -32 -71.5t-77 -28.5t-76.5 28.5t-31.5 71.5zM203 100q0 41 29.5 70t72.5 29q41 0 71 -29t30 -70q0 -43 -30 -71.5t-71 -28.5q-43 0 -72.5 28.5t-29.5 71.5zM406 100q0 41 29.5 70t72.5 29t72.5 -29t29.5 -70q0 -43 -29.5 -71.5t-72.5 -28.5t-72.5 28.5t-29.5 71.5z M410 715q0 41 29.5 70.5t70.5 29.5t70.5 -29.5t29.5 -70.5q0 -43 -29.5 -73t-70.5 -30t-70.5 30t-29.5 73zM416 1327q0 41 29.5 70.5t72.5 29.5t73 -29.5t30 -70.5q0 -43 -30 -72.5t-73 -29.5t-72.5 29.5t-29.5 72.5zM610 301q0 43 32 72.5t79 29.5q45 0 76.5 -29.5 t31.5 -72.5t-31.5 -72.5t-76.5 -29.5q-47 0 -79 29.5t-32 72.5zM610 918q0 43 31 72.5t76 29.5t75.5 -29.5t30.5 -72.5t-30.5 -73t-75.5 -30t-76 30t-31 73zM612 510q0 43 32 73.5t77 30.5t76.5 -30.5t31.5 -73.5q0 -45 -31.5 -76t-76.5 -31t-77 31t-32 76zM621 1124 q0 41 29.5 72t72.5 31q41 0 70.5 -31t29.5 -72q0 -43 -29.5 -73.5t-70.5 -30.5q-43 0 -72.5 30.5t-29.5 73.5z" />
<glyph unicode="4" d="M0 717q0 41 30.5 69.5t73.5 28.5t74 -28.5t31 -69.5t-31 -70t-74 -29t-73.5 29t-30.5 70zM0 928q0 41 29.5 69.5t72.5 28.5t73 -28.5t30 -69.5q0 -43 -30 -72t-73 -29t-72.5 29t-29.5 72zM205 1126q0 41 30.5 71t73.5 30q41 0 72 -30t31 -71t-31 -70.5t-72 -29.5 q-43 0 -73.5 29.5t-30.5 70.5zM209 715q0 41 29.5 70.5t72.5 29.5q41 0 71 -29.5t30 -70.5q0 -43 -30 -73t-71 -30q-43 0 -72.5 30t-29.5 73zM412 717q0 41 30.5 71.5t73.5 30.5t74 -30.5t31 -71.5q0 -43 -31 -74t-74 -31t-73.5 31t-30.5 74zM412 1327q0 41 30.5 70.5 t73.5 29.5t74 -29.5t31 -70.5t-31 -70.5t-74 -29.5t-73.5 29.5t-30.5 70.5zM610 100q0 41 31 71t76 30t75.5 -30t30.5 -71t-30.5 -70.5t-75.5 -29.5t-76 29.5t-31 70.5zM610 922q0 43 32 73.5t77 30.5q43 0 74.5 -30.5t31.5 -73.5t-31.5 -74t-74.5 -31q-45 0 -77 31t-32 74z M610 1126q0 41 31 71t76 30t75.5 -30t30.5 -71t-30.5 -70.5t-75.5 -29.5t-76 29.5t-31 70.5zM612 303q0 43 31 73t76 30q43 0 73.5 -30t30.5 -73t-30.5 -72.5t-73.5 -29.5q-45 0 -76 29.5t-31 72.5zM612 510q0 43 31 73.5t76 30.5t75.5 -30.5t30.5 -73.5t-30.5 -73.5 t-75.5 -30.5t-76 30.5t-31 73.5zM621 717q0 43 29.5 72.5t72.5 29.5t72.5 -29.5t29.5 -72.5t-29.5 -73t-72.5 -30t-72.5 30t-29.5 73zM621 1327q0 41 29.5 70.5t72.5 29.5q41 0 70.5 -29.5t29.5 -70.5t-29.5 -70.5t-70.5 -29.5q-43 0 -72.5 29.5t-29.5 70.5z" />
<glyph unicode="5" d="M0 305q0 43 28.5 73t71.5 30q41 0 70 -30t29 -73t-29 -72.5t-70 -29.5q-43 0 -71.5 29.5t-28.5 72.5zM0 922q0 41 30.5 69.5t73.5 28.5t74 -28.5t31 -69.5q0 -43 -31 -72t-74 -29t-73.5 29t-30.5 72zM0 1122q0 43 30.5 73t73.5 30t74 -30t31 -73t-31 -72.5t-74 -29.5 t-73.5 29.5t-30.5 72.5zM0 1327q0 41 30.5 70.5t73.5 29.5t74 -29.5t31 -70.5q0 -43 -31 -72.5t-74 -29.5t-73.5 29.5t-30.5 72.5zM199 102q0 41 30.5 71t75.5 30t76 -30t31 -71q0 -43 -31 -72.5t-76 -29.5t-75.5 29.5t-30.5 72.5zM209 1327q0 41 30.5 70.5t73.5 29.5 t74 -29.5t31 -70.5q0 -43 -31 -72.5t-74 -29.5t-73.5 29.5t-30.5 72.5zM215 918q0 43 28.5 72.5t71.5 29.5q41 0 70 -29.5t29 -72.5t-29 -73t-70 -30q-43 0 -71.5 30t-28.5 73zM412 94q0 37 30.5 64.5t73.5 27.5t74 -27.5t31 -64.5q0 -39 -31 -66.5t-74 -27.5t-73.5 27.5 t-30.5 66.5zM412 918q0 41 30.5 70.5t75.5 29.5t76 -30t31 -70q0 -43 -31 -73t-76 -30t-75.5 30t-30.5 73zM418 1329q0 41 29.5 69.5t72.5 28.5q41 0 71 -28.5t30 -69.5q0 -43 -30 -71.5t-71 -28.5q-43 0 -72.5 28.5t-29.5 71.5zM608 297q0 43 33 73.5t80 30.5t80 -30.5 t33 -73.5t-33 -73.5t-80 -30.5t-80 30.5t-33 73.5zM608 510q0 43 32 74.5t79 31.5q45 0 76.5 -31.5t31.5 -74.5q0 -45 -31.5 -77t-76.5 -32q-47 0 -79 32t-32 77zM621 725q0 43 30.5 74.5t73.5 31.5q41 0 71.5 -31.5t30.5 -74.5q0 -45 -30.5 -77t-71.5 -32q-43 0 -73.5 32 t-30.5 77zM621 1329q0 41 29.5 69.5t72.5 28.5t72.5 -28.5t29.5 -69.5q0 -43 -29.5 -71.5t-72.5 -28.5t-72.5 28.5t-29.5 71.5z" />
<glyph unicode="6" d="M0 303q0 41 30.5 72t75.5 31q43 0 74 -31t31 -72q0 -43 -30.5 -73.5t-74.5 -30.5q-45 0 -75.5 30.5t-30.5 73.5zM0 510q0 43 30.5 73.5t75.5 30.5q43 0 74 -30.5t31 -73.5t-30.5 -73.5t-74.5 -30.5q-45 0 -75.5 30.5t-30.5 73.5zM0 717q0 43 30.5 72.5t75.5 29.5 q43 0 74 -29.5t31 -72.5t-30.5 -73t-74.5 -30q-45 0 -75.5 30t-30.5 73zM0 922q0 43 30.5 72.5t75.5 29.5q43 0 74 -29.5t31 -72.5t-30.5 -73t-74.5 -30q-45 0 -75.5 30t-30.5 73zM0 1122q0 41 30.5 70t75.5 29q43 0 74 -29t31 -70t-30.5 -69.5t-74.5 -28.5 q-45 0 -75.5 28.5t-30.5 69.5zM203 1329q0 41 29.5 69.5t72.5 28.5t73 -28.5t30 -69.5t-30 -69.5t-73 -28.5t-72.5 28.5t-29.5 69.5zM205 922q0 41 30.5 70.5t75.5 29.5q43 0 74 -29.5t31 -70.5q0 -43 -31 -73t-74 -30q-45 0 -75.5 30t-30.5 73zM211 100q0 41 29.5 70 t70.5 29t71 -29t30 -70q0 -43 -30 -71.5t-71 -28.5t-70.5 28.5t-29.5 71.5zM408 1329q0 41 29.5 69.5t72.5 28.5q41 0 70.5 -28.5t29.5 -69.5t-29.5 -69.5t-70.5 -28.5q-43 0 -72.5 28.5t-29.5 69.5zM412 100q0 41 30.5 70t73.5 29q41 0 71.5 -29t30.5 -70 q0 -43 -30.5 -71.5t-71.5 -28.5q-43 0 -73.5 28.5t-30.5 71.5zM416 922q0 41 28.5 70.5t67.5 29.5t67.5 -29.5t28.5 -70.5q0 -43 -28.5 -73t-67.5 -30t-67.5 30t-28.5 73zM606 506q0 41 32 70.5t77 29.5t76.5 -29.5t31.5 -70.5q0 -43 -31.5 -73t-76.5 -30t-77 30t-32 73z M606 711q0 43 32 73.5t77 30.5t76.5 -30.5t31.5 -73.5t-31.5 -74t-76.5 -31t-77 31t-32 74zM618 301q0 43 30 72.5t73 29.5t72.5 -29.5t29.5 -72.5t-29.5 -72.5t-72.5 -29.5t-73 29.5t-30 72.5z" />
<glyph unicode="7" d="M0 100q0 41 30.5 71t73.5 30q41 0 72 -30t31 -71t-31 -70.5t-72 -29.5q-43 0 -73.5 29.5t-30.5 70.5zM0 305q0 41 29.5 72t70.5 31t71 -31t30 -72q0 -43 -30 -73.5t-71 -30.5t-70.5 30.5t-29.5 73.5zM0 1329q0 41 30.5 69.5t73.5 28.5t74 -28.5t31 -69.5q0 -43 -31 -71.5 t-74 -28.5t-73.5 28.5t-30.5 71.5zM201 512q0 41 29.5 71.5t70.5 30.5t70.5 -30.5t29.5 -71.5q0 -43 -29.5 -73.5t-70.5 -30.5t-70.5 30.5t-29.5 73.5zM209 1329q0 41 29.5 69.5t72.5 28.5t73 -28.5t30 -69.5q0 -43 -30 -71.5t-73 -28.5t-72.5 28.5t-29.5 71.5zM401 717 q0 41 32 70.5t77 29.5t76.5 -29.5t31.5 -70.5q0 -43 -31.5 -73t-76.5 -30t-77 30t-32 73zM414 1329q0 41 29.5 69.5t72.5 28.5q41 0 70.5 -28.5t29.5 -69.5q0 -43 -29.5 -71.5t-70.5 -28.5q-43 0 -72.5 28.5t-29.5 71.5zM614 920q0 43 31 72.5t74 29.5t73.5 -29.5 t30.5 -72.5t-30.5 -73t-73.5 -30t-74 30t-31 73zM614 1122q0 41 31 70t76 29q43 0 73.5 -29t30.5 -70q0 -43 -30.5 -71.5t-73.5 -28.5q-45 0 -76 28.5t-31 71.5zM616 1329q0 41 31 69.5t74 28.5t73.5 -28.5t30.5 -69.5q0 -43 -30.5 -71.5t-73.5 -28.5t-74 28.5t-31 71.5z " />
<glyph unicode="8" d="M0 305q0 43 30.5 74t73.5 31q41 0 72 -31t31 -74q0 -45 -31 -75.5t-72 -30.5q-43 0 -73.5 30.5t-30.5 75.5zM0 512q0 41 29.5 70.5t72.5 29.5q41 0 71 -29.5t30 -70.5q0 -43 -30 -72.5t-71 -29.5q-43 0 -72.5 29.5t-29.5 72.5zM0 915q0 41 29.5 70t70.5 29t71 -29t30 -70 q0 -43 -30 -71.5t-71 -28.5t-70.5 28.5t-29.5 71.5zM0 1120q0 43 30.5 74t75.5 31t76 -31t31 -74q0 -45 -30.5 -75.5t-76.5 -30.5q-45 0 -75.5 30.5t-30.5 75.5zM199 1327q0 41 31.5 70.5t76.5 29.5t77 -29.5t32 -70.5t-32 -70.5t-77 -29.5t-76.5 29.5t-31.5 70.5zM201 715 q0 41 29.5 70.5t72.5 29.5t73 -29.5t30 -70.5t-30 -71t-73 -30t-72.5 30t-29.5 71zM207 100q0 41 30.5 70t73.5 29t74 -29t31 -70q0 -43 -31 -71.5t-74 -28.5t-73.5 28.5t-30.5 71.5zM406 719q0 43 29.5 73.5t72.5 30.5t72.5 -30.5t29.5 -73.5t-29.5 -74t-72.5 -31t-72.5 31 t-29.5 74zM416 100q0 41 29.5 71t72.5 30t73 -30t30 -71t-30 -70.5t-73 -29.5t-72.5 29.5t-29.5 70.5zM416 1327q0 41 29.5 70.5t72.5 29.5t73 -29.5t30 -70.5t-30 -70.5t-73 -29.5t-72.5 29.5t-29.5 70.5zM610 922q0 41 32 69.5t77 28.5t76.5 -28.5t31.5 -69.5t-31.5 -70 t-76.5 -29t-77 29t-32 70zM612 510q0 41 31 71.5t76 30.5q43 0 73.5 -30.5t30.5 -71.5q0 -43 -30.5 -73.5t-73.5 -30.5q-45 0 -76 30.5t-31 73.5zM621 303q0 43 29.5 73t72.5 30q41 0 70.5 -30t29.5 -73t-29.5 -72.5t-70.5 -29.5q-43 0 -72.5 29.5t-29.5 72.5zM623 1124 q0 43 29.5 74t72.5 31t72.5 -31t29.5 -74t-29.5 -73.5t-72.5 -30.5t-72.5 30.5t-29.5 73.5z" />
<glyph unicode="9" d="M0 715q0 43 29.5 72.5t72.5 29.5t73 -29.5t30 -72.5t-30 -73t-73 -30t-72.5 30t-29.5 73zM0 918q0 41 30.5 70.5t75.5 29.5t76 -30t31 -70q0 -41 -30.5 -71t-76.5 -30q-45 0 -75.5 30t-30.5 71zM0 1122q0 41 30.5 72t75.5 31t76 -31t31 -72q0 -43 -30.5 -73.5 t-76.5 -30.5q-45 0 -75.5 30.5t-30.5 73.5zM197 98q0 41 31.5 70t76.5 29t77 -29t32 -70t-32 -69.5t-77 -28.5t-76.5 28.5t-31.5 69.5zM205 512q0 41 29.5 70.5t70.5 29.5t71 -29.5t30 -70.5q0 -43 -30 -72.5t-71 -29.5t-70.5 29.5t-29.5 72.5zM205 1329q0 41 30.5 69.5 t75.5 28.5q43 0 74 -28.5t31 -69.5t-31 -69.5t-74 -28.5q-45 0 -75.5 28.5t-30.5 69.5zM406 514q0 43 29.5 73.5t72.5 30.5q41 0 70.5 -30.5t29.5 -73.5t-29.5 -73.5t-70.5 -30.5q-43 0 -72.5 30.5t-29.5 73.5zM414 96q0 39 28.5 68t71.5 29q41 0 69.5 -29t28.5 -68 t-28.5 -67.5t-69.5 -28.5q-43 0 -71.5 28.5t-28.5 67.5zM416 1329q0 41 30.5 69.5t73.5 28.5t74 -28.5t31 -69.5t-31 -69.5t-74 -28.5t-73.5 28.5t-30.5 69.5zM608 301q0 41 32 70.5t77 29.5q43 0 74.5 -29.5t31.5 -70.5q0 -43 -31.5 -72.5t-74.5 -29.5q-45 0 -77 29.5 t-32 72.5zM608 508q0 43 33 73.5t78 30.5t77.5 -30.5t32.5 -73.5q0 -45 -32.5 -76t-77.5 -31t-78 31t-33 76zM614 715q0 43 32 72.5t77 29.5q43 0 74.5 -29.5t31.5 -72.5t-31.5 -73t-74.5 -30q-45 0 -77 30t-32 73zM614 920q0 41 31 70.5t76 29.5q43 0 73.5 -29.5 t30.5 -70.5q0 -43 -30.5 -73t-73.5 -30q-45 0 -76 30t-31 73zM625 1126q0 43 29.5 74t70.5 31t70.5 -31t29.5 -74q0 -45 -29.5 -75.5t-70.5 -30.5t-70.5 30.5t-29.5 75.5z" />
<glyph unicode=":" horiz-adv-x="411" d="M0 98q0 41 30.5 70t75.5 29q43 0 74 -29t31 -70t-30.5 -69.5t-74.5 -28.5q-45 0 -75.5 28.5t-30.5 69.5zM0 717q0 39 30.5 67.5t73.5 28.5t74 -28.5t31 -67.5q0 -41 -31 -70t-74 -29t-73.5 29t-30.5 70z" />
<glyph unicode=";" horiz-adv-x="614" d="M0 -104q0 43 31.5 73.5t79.5 30.5q45 0 76.5 -30.5t31.5 -73.5q0 -41 -31.5 -72t-76.5 -31q-47 0 -79 31t-32 72zM201 100q0 41 32.5 70t79.5 29q45 0 78 -29t33 -70q0 -43 -33 -71.5t-78 -28.5q-47 0 -79.5 28.5t-32.5 71.5zM201 713q0 41 30.5 71.5t75.5 30.5 q43 0 74 -30.5t31 -71.5q0 -43 -31 -74t-74 -31q-45 0 -75.5 31t-30.5 74z" />
<glyph unicode="&#x3c;" horiz-adv-x="817" d="M0 510q0 41 29.5 70.5t70.5 29.5t71 -29.5t30 -70.5t-30 -70.5t-71 -29.5t-70.5 29.5t-29.5 70.5zM201 301q0 45 30.5 77t75.5 32q43 0 74 -32t31 -77t-31 -76.5t-74 -31.5q-45 0 -75.5 31.5t-30.5 76.5zM207 719q0 41 30.5 71.5t75.5 30.5q43 0 74 -30.5t31 -71.5 q0 -43 -31 -74t-74 -31q-45 0 -75.5 31t-30.5 74zM412 96q0 39 29.5 68t70.5 29t70.5 -29t29.5 -68t-29.5 -67.5t-70.5 -28.5t-70.5 28.5t-29.5 67.5zM418 922q0 41 29.5 70.5t70.5 29.5t70.5 -29.5t29.5 -70.5t-29.5 -71t-70.5 -30t-70.5 30t-29.5 71z" />
<glyph unicode="=" horiz-adv-x="817" d="M0 508q0 41 30.5 71.5t75.5 30.5q43 0 74 -30.5t31 -71.5q0 -43 -30.5 -74t-74.5 -31q-45 0 -75.5 31t-30.5 74zM0 922q0 41 31.5 70.5t77.5 29.5q45 0 76.5 -29.5t31.5 -70.5t-31.5 -71t-76.5 -30t-77 30t-32 71zM211 510q0 43 29.5 73.5t70.5 30.5t71 -30.5t30 -73.5 q0 -45 -30 -76t-71 -31t-70.5 31t-29.5 76zM217 920q0 39 29.5 67.5t70.5 28.5t71 -29t30 -67q0 -41 -30 -70t-71 -29t-70.5 29t-29.5 70zM412 508q0 43 31.5 74.5t76.5 31.5t77 -31.5t32 -74.5q0 -45 -32 -77t-77 -32t-76.5 32t-31.5 77zM418 915q0 41 29.5 71t72.5 30 t73 -30t30 -71t-30 -70.5t-73 -29.5t-72.5 29.5t-29.5 70.5z" />
<glyph unicode="&#x3e;" horiz-adv-x="817" d="M0 100q0 41 31.5 70t77.5 29q45 0 76.5 -29t31.5 -70q0 -43 -31.5 -71.5t-76.5 -28.5t-77 28.5t-32 71.5zM0 922q0 41 29.5 70.5t70.5 29.5t71 -29.5t30 -70.5t-30 -71t-71 -30t-70.5 30t-29.5 71zM201 719q0 41 29.5 71.5t70.5 30.5t70.5 -30.5t29.5 -71.5 q0 -43 -29.5 -74t-70.5 -31t-70.5 31t-29.5 74zM217 305q0 43 28.5 74t69.5 31q39 0 68 -31t29 -74q0 -45 -29 -75.5t-68 -30.5q-41 0 -69.5 30.5t-28.5 75.5zM412 510q0 41 30.5 70.5t75.5 29.5q43 0 74 -29.5t31 -70.5t-31 -70.5t-74 -29.5q-45 0 -75.5 29.5t-30.5 70.5z " />
<glyph unicode="?" d="M0 1122q0 43 31.5 74t77.5 31q45 0 76.5 -31t31.5 -74q0 -45 -31.5 -75.5t-76.5 -30.5t-77 30.5t-32 75.5zM193 502q0 41 33.5 69.5t82.5 28.5q47 0 81 -28.5t34 -69.5t-34 -70t-81 -29q-49 0 -82.5 29t-33.5 70zM197 1323q0 43 31.5 73.5t76.5 30.5t77 -30.5t32 -73.5 q0 -45 -32 -75.5t-77 -30.5t-76.5 30.5t-31.5 75.5zM203 709q0 41 30.5 71.5t75.5 30.5q43 0 74 -30.5t31 -71.5q0 -43 -31 -74t-74 -31q-45 0 -75.5 31t-30.5 74zM207 100q0 41 30.5 70t73.5 29q41 0 72 -29t31 -70q0 -43 -31 -71.5t-72 -28.5q-43 0 -73.5 28.5t-30.5 71.5 zM414 709q0 41 28.5 71.5t71.5 30.5q41 0 69.5 -30.5t28.5 -71.5q0 -43 -28.5 -74t-69.5 -31q-43 0 -71.5 31t-28.5 74zM414 1323q0 43 30.5 73.5t73.5 30.5t74 -30.5t31 -73.5q0 -45 -31 -75.5t-74 -30.5t-73.5 30.5t-30.5 75.5zM612 918q0 43 31 73.5t74 30.5 q41 0 71.5 -30.5t30.5 -73.5q0 -45 -30.5 -76t-71.5 -31q-43 0 -74 31t-31 76zM612 1124q0 43 31 73t74 30q41 0 71.5 -30t30.5 -73t-30.5 -72.5t-71.5 -29.5q-43 0 -74 29.5t-31 72.5z" />
<glyph unicode="@" horiz-adv-x="1634" d="M0 909q0 37 30.5 64.5t73.5 27.5q41 0 72 -27.5t31 -64.5q0 -39 -31 -66.5t-72 -27.5q-43 0 -73.5 27.5t-30.5 66.5zM0 1108q0 41 29.5 69.5t70.5 28.5t71 -28.5t30 -69.5t-30 -69.5t-71 -28.5t-70.5 28.5t-29.5 69.5zM2 295q0 41 30.5 68.5t71.5 27.5q43 0 73 -27.5 t30 -68.5q0 -39 -30 -66.5t-73 -27.5q-41 0 -71.5 27.5t-30.5 66.5zM2 498q0 39 30.5 66.5t71.5 27.5q43 0 73 -27.5t30 -66.5t-30 -68t-73 -29q-41 0 -71.5 29t-30.5 68zM6 700q0 39 30 67t73 28t72.5 -28t29.5 -67q0 -41 -29.5 -68.5t-72.5 -27.5t-73 27.5t-30 68.5z M201 1309q0 43 29.5 72.5t72.5 29.5t73 -29.5t30 -72.5t-30 -73t-73 -30t-72.5 30t-29.5 73zM223 92q0 39 30 65.5t73 26.5q41 0 70.5 -26.5t29.5 -65.5t-29.5 -65.5t-70.5 -26.5q-43 0 -73 26.5t-30 65.5zM406 1313q0 41 28.5 69.5t69.5 28.5t69.5 -28.5t28.5 -69.5 t-28.5 -70t-69.5 -29t-69.5 29t-28.5 70zM420 498q0 39 29.5 66.5t72.5 27.5q41 0 71 -27.5t30 -66.5t-30 -67t-71 -28q-43 0 -72.5 28t-29.5 67zM420 696q0 37 29.5 64.5t72.5 27.5q41 0 71 -27.5t30 -64.5q0 -39 -30 -66.5t-71 -27.5q-43 0 -72.5 27.5t-29.5 66.5zM426 96 q0 39 29.5 66.5t72.5 27.5q41 0 71 -27.5t30 -66.5q0 -41 -30 -68.5t-71 -27.5q-43 0 -72.5 27.5t-29.5 68.5zM430 924q0 39 28.5 67.5t69.5 28.5t70 -28.5t29 -67.5q0 -41 -29 -70t-70 -29t-69.5 29t-28.5 70zM602 1313q0 39 30 67.5t73 28.5t72.5 -28.5t29.5 -67.5 q0 -41 -29.5 -70t-72.5 -29t-73 29t-30 70zM627 924q0 39 29.5 67.5t72.5 28.5q41 0 70.5 -28.5t29.5 -67.5q0 -41 -29.5 -70t-70.5 -29q-43 0 -72.5 29t-29.5 70zM629 494q0 39 29.5 66.5t72.5 27.5q41 0 70.5 -28t29.5 -66q0 -41 -29.5 -69t-70.5 -28q-43 0 -72.5 28 t-29.5 69zM649 92q0 37 28 63.5t66 26.5q37 0 65 -26.5t28 -63.5q0 -39 -28 -65.5t-65 -26.5q-39 0 -66.5 26.5t-27.5 65.5zM805 1315q0 39 30.5 66.5t73.5 27.5q41 0 72 -27.5t31 -66.5q0 -41 -31 -68.5t-72 -27.5q-43 0 -73.5 27.5t-30.5 68.5zM829 924q0 39 29 67.5 t72 28.5q41 0 69.5 -28.5t28.5 -67.5t-28.5 -68t-69.5 -29q-43 0 -72 29t-29 68zM831 500q0 39 30 67.5t73 28.5t72.5 -28.5t29.5 -67.5q0 -41 -29.5 -70t-72.5 -29t-73 29t-30 70zM834 713q0 39 29.5 66.5t70.5 27.5t70.5 -27.5t29.5 -66.5t-29.5 -67t-70.5 -28t-70.5 28 t-29.5 67zM836 94q0 39 29.5 66.5t70.5 27.5t70.5 -27.5t29.5 -66.5t-29.5 -66.5t-70.5 -27.5t-70.5 27.5t-29.5 66.5zM1014 1325q0 39 29.5 66.5t70.5 27.5t70.5 -27.5t29.5 -66.5t-29.5 -66.5t-70.5 -27.5t-70.5 27.5t-29.5 66.5zM1038 94q0 39 31 66.5t76 27.5 t75.5 -27.5t30.5 -66.5t-30.5 -66.5t-75.5 -27.5t-76 27.5t-31 66.5zM1047 713zM1053 489q0 41 28.5 70t67.5 29t67.5 -29t28.5 -70t-28.5 -69.5t-67.5 -28.5t-67.5 28.5t-28.5 69.5zM1235 920q0 43 30.5 72.5t75.5 29.5q43 0 74 -29.5t31 -72.5t-31 -73t-74 -30 q-45 0 -75.5 30t-30.5 73zM1239 1143q0 37 29.5 64.5t70.5 27.5t71 -27.5t30 -64.5q0 -39 -30 -66.5t-71 -27.5t-70.5 27.5t-29.5 66.5zM1245 717q0 41 30 70.5t71 29.5t70.5 -29.5t29.5 -70.5q0 -43 -30 -73t-70 -30q-41 0 -71 30t-30 73z" />
<glyph unicode="A" d="M0 100q0 41 30.5 71t73.5 30t74 -30t31 -71t-31 -70.5t-74 -29.5t-73.5 29.5t-30.5 70.5zM0 305q0 41 30.5 71t73.5 30t74 -30t31 -71q0 -43 -31 -72.5t-74 -29.5t-73.5 29.5t-30.5 72.5zM0 506q0 41 30.5 69.5t75.5 28.5t76 -28.5t31 -69.5q0 -43 -30.5 -71.5 t-76.5 -28.5q-45 0 -75.5 28.5t-30.5 71.5zM0 709q0 43 30.5 73.5t75.5 30.5t76 -30.5t31 -73.5t-30.5 -74t-76.5 -31q-45 0 -75.5 31t-30.5 74zM0 918q0 43 29.5 73.5t72.5 30.5t73 -30.5t30 -73.5t-30 -74t-73 -31t-72.5 31t-29.5 74zM0 1122q0 41 29.5 71t72.5 30t73 -30 t30 -71t-30 -70.5t-73 -29.5t-72.5 29.5t-29.5 70.5zM201 1327q0 41 30.5 70.5t73.5 29.5t74 -29.5t31 -70.5t-31 -70.5t-74 -29.5t-73.5 29.5t-30.5 70.5zM221 711q0 41 29 69.5t67 28.5q39 0 68 -28.5t29 -69.5t-29 -70t-68 -29t-67.5 29t-28.5 70zM410 1327 q0 41 28.5 70.5t71.5 29.5q41 0 69.5 -29.5t28.5 -70.5q0 -43 -28.5 -72.5t-69.5 -29.5q-43 0 -71.5 29.5t-28.5 72.5zM414 717q0 43 29.5 73.5t72.5 30.5t72.5 -30.5t29.5 -73.5t-29.5 -74t-72.5 -31t-72.5 31t-29.5 74zM608 1122q0 43 32 73t77 30q43 0 74.5 -30t31.5 -73 t-31.5 -72.5t-74.5 -29.5q-45 0 -77 29.5t-32 72.5zM612 102q0 41 31 71t76 30t75.5 -30t30.5 -71q0 -43 -30.5 -72.5t-75.5 -29.5t-76 29.5t-31 72.5zM612 303q0 41 31 69.5t76 28.5t75.5 -28.5t30.5 -69.5q0 -43 -30.5 -71.5t-75.5 -28.5t-76 28.5t-31 71.5zM612 508 q0 45 31 75.5t76 30.5q43 0 73.5 -30.5t30.5 -75.5t-30.5 -76t-73.5 -31q-45 0 -76 31t-31 76zM614 922q0 41 31 69.5t74 28.5t73.5 -28.5t30.5 -69.5q0 -43 -30.5 -72t-73.5 -29t-74 29t-31 72zM618 719q0 41 30 71.5t73 30.5t72.5 -30.5t29.5 -71.5q0 -43 -29.5 -74 t-72.5 -31t-73 31t-30 74z" />
<glyph unicode="B" d="M0 100q0 41 30.5 70t73.5 29t74 -29t31 -70q0 -43 -31 -71.5t-74 -28.5t-73.5 28.5t-30.5 71.5zM0 305q0 43 30.5 73t75.5 30q43 0 74 -30t31 -73t-30.5 -72.5t-74.5 -29.5q-45 0 -75.5 29.5t-30.5 72.5zM0 506q0 41 30.5 69.5t75.5 28.5q43 0 74 -28.5t31 -69.5 t-30.5 -69.5t-74.5 -28.5q-45 0 -75.5 28.5t-30.5 69.5zM0 713q0 41 30.5 70.5t73.5 29.5q41 0 72 -29.5t31 -70.5q0 -43 -31 -73t-72 -30q-43 0 -73.5 30t-30.5 73zM0 915q0 43 30.5 73t75.5 30t76 -30t31 -73t-30.5 -72.5t-76.5 -29.5q-45 0 -75.5 29.5t-30.5 72.5z M0 1120q0 43 30.5 73t75.5 30t76 -30t31 -73t-30.5 -72.5t-76.5 -29.5q-45 0 -75.5 29.5t-30.5 72.5zM0 1325q0 43 30.5 72.5t73.5 29.5q41 0 72 -29.5t31 -72.5t-31 -72.5t-72 -29.5q-43 0 -73.5 29.5t-30.5 72.5zM207 713q0 41 29.5 70.5t72.5 29.5q41 0 71 -29.5 t30 -70.5q0 -43 -30 -73t-71 -30q-43 0 -72.5 30t-29.5 73zM207 1331q0 39 30.5 67.5t73.5 28.5q41 0 72 -28.5t31 -67.5t-31 -67.5t-72 -28.5q-43 0 -73.5 28.5t-30.5 67.5zM209 100q0 41 29.5 70t72.5 29q41 0 71 -29t30 -70q0 -43 -30 -71.5t-71 -28.5q-43 0 -72.5 28.5 t-29.5 71.5zM410 713q0 41 28.5 70.5t71.5 29.5q41 0 69.5 -29.5t28.5 -70.5t-28.5 -71t-69.5 -30q-43 0 -71.5 30t-28.5 71zM412 100q0 41 29.5 71t72.5 30t72.5 -30t29.5 -71t-29.5 -70.5t-72.5 -29.5t-72.5 29.5t-29.5 70.5zM414 1331q0 39 29.5 67.5t72.5 28.5 t72.5 -28.5t29.5 -67.5t-29.5 -67.5t-72.5 -28.5t-72.5 28.5t-29.5 67.5zM608 508q0 43 32 73.5t79 30.5q45 0 76.5 -30.5t31.5 -73.5t-31.5 -74t-76.5 -31q-47 0 -79 31t-32 74zM612 1124q0 41 29 70t70 29t69.5 -29t28.5 -70t-28.5 -69.5t-69.5 -28.5t-70 28.5t-29 69.5z M618 303q0 41 31 70.5t74 29.5t73.5 -29.5t30.5 -70.5q0 -43 -30.5 -72.5t-73.5 -29.5t-74 29.5t-31 72.5zM621 918q0 43 29.5 73.5t72.5 30.5q41 0 70.5 -30.5t29.5 -73.5q0 -45 -29.5 -76t-70.5 -31q-43 0 -72.5 31t-29.5 76z" />
<glyph unicode="C" d="M0 309q0 41 30.5 71t75.5 30t76 -30t31 -71q0 -43 -30.5 -72.5t-76.5 -29.5q-45 0 -75.5 29.5t-30.5 72.5zM0 512q0 41 30.5 70.5t75.5 29.5t76 -29.5t31 -70.5q0 -43 -30.5 -72.5t-76.5 -29.5q-45 0 -75.5 29.5t-30.5 72.5zM0 717q0 43 30.5 73.5t75.5 30.5t76 -30.5 t31 -73.5t-30.5 -74t-76.5 -31q-45 0 -75.5 31t-30.5 74zM0 922q0 41 30.5 70.5t75.5 29.5t76 -29.5t31 -70.5t-30.5 -71t-76.5 -30q-45 0 -75.5 30t-30.5 71zM0 1128q0 43 29.5 74t72.5 31t73 -31t30 -74q0 -45 -30 -75.5t-73 -30.5t-72.5 30.5t-29.5 75.5zM197 100 q0 41 31.5 70t76.5 29q43 0 75 -29t32 -70q0 -43 -32 -71.5t-75 -28.5q-45 0 -76.5 28.5t-31.5 71.5zM205 1331q0 39 29.5 67.5t72.5 28.5t73 -28.5t30 -67.5q0 -41 -30 -69.5t-73 -28.5t-72.5 28.5t-29.5 69.5zM410 1325q0 43 29.5 72.5t72.5 29.5q41 0 70.5 -29.5 t29.5 -72.5t-29.5 -72.5t-70.5 -29.5q-43 0 -72.5 29.5t-29.5 72.5zM412 100q0 41 30.5 70t75.5 29q43 0 74 -29t31 -70q0 -43 -31 -71.5t-74 -28.5q-45 0 -75.5 28.5t-30.5 71.5zM612 1124q0 41 31 70t74 29q41 0 71.5 -29t30.5 -70t-30.5 -69.5t-71.5 -28.5 q-43 0 -74 28.5t-31 69.5zM614 303q0 43 31 75t76 32q43 0 73.5 -32t30.5 -75q0 -45 -30.5 -76.5t-73.5 -31.5q-45 0 -76 31.5t-31 76.5z" />
<glyph unicode="D" d="M0 100q0 41 30.5 70t73.5 29t74 -29t31 -70q0 -43 -31 -71.5t-74 -28.5t-73.5 28.5t-30.5 71.5zM0 309q0 41 30.5 70t73.5 29t74 -29t31 -70q0 -43 -31 -71.5t-74 -28.5t-73.5 28.5t-30.5 71.5zM0 510q0 41 30.5 70.5t73.5 29.5t74 -29.5t31 -70.5q0 -43 -31 -72.5 t-74 -29.5t-73.5 29.5t-30.5 72.5zM0 713q0 43 30.5 72.5t75.5 29.5q43 0 74 -29.5t31 -72.5t-30.5 -73t-74.5 -30q-45 0 -75.5 30t-30.5 73zM0 918q0 41 30.5 70.5t75.5 29.5q43 0 74 -30t31 -70q0 -43 -30.5 -73t-74.5 -30q-45 0 -75.5 30t-30.5 73zM0 1120q0 41 30.5 71 t73.5 30q41 0 72 -30t31 -71q0 -43 -31 -72.5t-72 -29.5q-43 0 -73.5 29.5t-30.5 72.5zM0 1329q0 41 30.5 69.5t73.5 28.5t74 -28.5t31 -69.5q0 -43 -31 -71.5t-74 -28.5t-73.5 28.5t-30.5 71.5zM209 100q0 41 29.5 70t70.5 29t71 -29t30 -70q0 -43 -30 -71.5t-71 -28.5 t-70.5 28.5t-29.5 71.5zM209 1329q0 41 29.5 69.5t72.5 28.5q41 0 71 -28.5t30 -69.5q0 -43 -30 -71.5t-71 -28.5q-43 0 -72.5 28.5t-29.5 71.5zM410 100q0 41 30.5 70t73.5 29q41 0 71.5 -29t30.5 -70q0 -43 -30.5 -71.5t-71.5 -28.5q-43 0 -73.5 28.5t-30.5 71.5z M412 1327q0 41 30.5 70.5t75.5 29.5q43 0 74 -29.5t31 -70.5t-31 -70.5t-74 -29.5q-45 0 -75.5 29.5t-30.5 70.5zM610 307q0 43 31 74t76 31q43 0 73.5 -31t30.5 -74t-30.5 -73.5t-73.5 -30.5q-45 0 -76 30.5t-31 73.5zM610 514q0 43 31 72.5t76 29.5q43 0 73.5 -29.5 t30.5 -72.5t-30.5 -72.5t-73.5 -29.5q-45 0 -76 29.5t-31 72.5zM614 719q0 41 31 70.5t74 29.5q41 0 71.5 -29.5t30.5 -70.5q0 -43 -30.5 -73t-71.5 -30q-43 0 -74 30t-31 73zM614 922q0 43 31 72.5t76 29.5q43 0 73.5 -29.5t30.5 -72.5t-30.5 -73t-73.5 -30q-45 0 -76 30 t-31 73zM623 1126q0 41 29.5 71t72.5 30q41 0 70.5 -30t29.5 -71q0 -43 -29.5 -72.5t-70.5 -29.5q-43 0 -72.5 29.5t-29.5 72.5z" />
<glyph unicode="E" d="M0 104q0 41 29.5 72t72.5 31t73 -31t30 -72q0 -43 -30 -73.5t-73 -30.5t-72.5 30.5t-29.5 73.5zM0 309q0 41 29.5 71t72.5 30t73 -30t30 -71q0 -43 -30 -72.5t-73 -29.5t-72.5 29.5t-29.5 72.5zM0 516q0 43 29.5 74t72.5 31t73 -31t30 -74q0 -45 -30 -75.5t-73 -30.5 t-72.5 30.5t-29.5 75.5zM0 723q0 41 29.5 70.5t72.5 29.5t73 -29.5t30 -70.5q0 -43 -30 -72.5t-73 -29.5t-72.5 29.5t-29.5 72.5zM0 926q0 41 30.5 70.5t73.5 29.5t74 -29.5t31 -70.5q0 -43 -31 -73t-74 -30t-73.5 30t-30.5 73zM0 1126q0 41 30.5 71t73.5 30t74 -30t31 -71 t-31 -70.5t-74 -29.5t-73.5 29.5t-30.5 70.5zM0 1327q0 41 30.5 70.5t73.5 29.5q41 0 72 -29.5t31 -70.5t-31 -70.5t-72 -29.5q-43 0 -73.5 29.5t-30.5 70.5zM203 717q0 45 30.5 75.5t75.5 30.5t76 -30.5t31 -75.5t-31 -76t-76 -31t-75.5 31t-30.5 76zM205 100q0 41 30.5 71 t75.5 30q43 0 74 -30t31 -71t-31 -70.5t-74 -29.5q-45 0 -75.5 29.5t-30.5 70.5zM207 1327q0 41 30.5 70.5t73.5 29.5q41 0 72 -29.5t31 -70.5t-31 -70.5t-72 -29.5q-43 0 -73.5 29.5t-30.5 70.5zM414 1327q0 41 29.5 70.5t72.5 29.5q41 0 70.5 -29.5t29.5 -70.5 t-29.5 -70.5t-70.5 -29.5q-43 0 -72.5 29.5t-29.5 70.5zM416 100q0 41 28.5 71t71.5 30q41 0 69.5 -30t28.5 -71t-28.5 -70.5t-69.5 -29.5q-43 0 -71.5 29.5t-28.5 70.5zM416 715q0 41 29.5 71.5t72.5 30.5q41 0 70.5 -30.5t29.5 -71.5q0 -43 -29.5 -74t-70.5 -31 q-43 0 -72.5 31t-29.5 74zM614 102q0 41 31 71t76 30q43 0 73.5 -30t30.5 -71q0 -43 -30.5 -72.5t-73.5 -29.5q-45 0 -76 29.5t-31 72.5zM616 1327q0 41 31 70.5t74 29.5t73.5 -29.5t30.5 -70.5t-30.5 -70.5t-73.5 -29.5t-74 29.5t-31 70.5z" />
<glyph unicode="F" d="M0 102q0 41 30.5 71t75.5 30q43 0 74 -30t31 -71q0 -43 -30.5 -72.5t-74.5 -29.5q-45 0 -75.5 29.5t-30.5 72.5zM0 305q0 43 30.5 73t73.5 30q41 0 72 -30t31 -73t-31 -72.5t-72 -29.5q-43 0 -73.5 29.5t-30.5 72.5zM0 508q0 41 30.5 70.5t73.5 29.5q41 0 72 -29.5 t31 -70.5t-31 -70.5t-72 -29.5q-43 0 -73.5 29.5t-30.5 70.5zM0 721q0 41 30.5 70.5t73.5 29.5q41 0 72 -29.5t31 -70.5q0 -43 -31 -73t-72 -30q-43 0 -73.5 30t-30.5 73zM0 926q0 41 30.5 71.5t73.5 30.5q41 0 72 -30.5t31 -71.5q0 -43 -31 -74t-72 -31q-43 0 -73.5 31 t-30.5 74zM0 1126q0 41 30.5 70t73.5 29q41 0 72 -29t31 -70t-31 -69.5t-72 -28.5q-43 0 -73.5 28.5t-30.5 69.5zM0 1327q0 41 30.5 70.5t73.5 29.5t74 -29.5t31 -70.5t-31 -70.5t-74 -29.5t-73.5 29.5t-30.5 70.5zM207 717q0 39 29.5 67.5t72.5 28.5t73 -28.5t30 -67.5 q0 -41 -30 -70t-73 -29t-72.5 29t-29.5 70zM209 1327q0 41 29.5 70.5t72.5 29.5t73 -29.5t30 -70.5t-30 -70.5t-73 -29.5t-72.5 29.5t-29.5 70.5zM412 715q0 41 30.5 69.5t75.5 28.5q43 0 74 -28.5t31 -69.5q0 -43 -31 -72t-74 -29q-45 0 -75.5 29t-30.5 72zM414 1327 q0 41 29.5 70.5t70.5 29.5t70.5 -29.5t29.5 -70.5q0 -43 -29.5 -72.5t-70.5 -29.5t-70.5 29.5t-29.5 72.5zM614 1327q0 41 31 70.5t74 29.5q41 0 71.5 -29.5t30.5 -70.5q0 -43 -30.5 -72.5t-71.5 -29.5q-43 0 -74 29.5t-31 72.5z" />
<glyph unicode="G" d="M0 303q0 43 29.5 73t72.5 30t73 -30t30 -73t-30 -72.5t-73 -29.5t-72.5 29.5t-29.5 72.5zM0 510q0 43 30.5 73.5t73.5 30.5t74 -30.5t31 -73.5t-31 -73.5t-74 -30.5t-73.5 30.5t-30.5 73.5zM0 717q0 41 30.5 70.5t73.5 29.5t74 -29.5t31 -70.5q0 -43 -31 -73t-74 -30 t-73.5 30t-30.5 73zM0 922q0 43 30.5 73.5t75.5 30.5t76 -30.5t31 -73.5t-30.5 -74t-76.5 -31q-45 0 -75.5 31t-30.5 74zM0 1126q0 41 30.5 71t75.5 30t76 -30t31 -71t-30.5 -70.5t-76.5 -29.5q-45 0 -75.5 29.5t-30.5 70.5zM197 1327q0 41 30.5 70.5t75.5 29.5 q43 0 74 -29.5t31 -70.5q0 -43 -31 -72.5t-74 -29.5q-45 0 -75.5 29.5t-30.5 72.5zM205 100q0 41 30.5 71t75.5 30q43 0 74 -30t31 -71t-31 -70.5t-74 -29.5q-45 0 -75.5 29.5t-30.5 70.5zM406 713q0 41 29.5 70.5t72.5 29.5t72.5 -29.5t29.5 -70.5t-29.5 -71t-72.5 -30 t-72.5 30t-29.5 71zM414 1329q0 41 29.5 69.5t72.5 28.5q41 0 70.5 -28.5t29.5 -69.5t-29.5 -69.5t-70.5 -28.5q-43 0 -72.5 28.5t-29.5 69.5zM416 100q0 41 28.5 71t71.5 30q41 0 69.5 -30t28.5 -71t-28.5 -70.5t-69.5 -29.5q-43 0 -71.5 29.5t-28.5 70.5zM610 303 q0 41 31 70.5t74 29.5q41 0 71.5 -29.5t30.5 -70.5t-30.5 -70.5t-71.5 -29.5q-43 0 -74 29.5t-31 70.5zM610 506q0 43 31 72.5t76 29.5q43 0 73.5 -29.5t30.5 -72.5t-30.5 -73t-73.5 -30q-45 0 -76 30t-31 73zM610 711q0 43 31 72.5t76 29.5q43 0 73.5 -29.5t30.5 -72.5 t-30.5 -73t-73.5 -30q-45 0 -76 30t-31 73zM610 1130q0 43 31 74t76 31t75.5 -30.5t30.5 -74.5q0 -45 -30.5 -75.5t-75.5 -30.5t-76 30.5t-31 75.5zM614 100q0 41 31 71t74 30q41 0 71.5 -30t30.5 -71t-30.5 -70.5t-71.5 -29.5q-43 0 -74 29.5t-31 70.5z" />
<glyph unicode="H" d="M0 102q0 43 30.5 73t73.5 30t74 -30t31 -73t-31 -72.5t-74 -29.5t-73.5 29.5t-30.5 72.5zM0 309q0 43 30.5 74t73.5 31q41 0 72 -31t31 -74t-31 -73.5t-72 -30.5q-43 0 -73.5 30.5t-30.5 73.5zM0 512q0 41 30.5 70.5t73.5 29.5q41 0 72 -29.5t31 -70.5t-31 -70.5 t-72 -29.5q-43 0 -73.5 29.5t-30.5 70.5zM0 715q0 43 30.5 72.5t73.5 29.5q41 0 72 -29.5t31 -72.5t-31 -73t-72 -30q-43 0 -73.5 30t-30.5 73zM0 922q0 43 30.5 73.5t73.5 30.5q41 0 72 -30.5t31 -73.5t-31 -74t-72 -31q-43 0 -73.5 31t-30.5 74zM0 1128q0 41 30.5 71 t75.5 30q43 0 74 -30t31 -71q0 -43 -30.5 -72.5t-74.5 -29.5q-45 0 -75.5 29.5t-30.5 72.5zM0 1329q0 41 30.5 69.5t75.5 28.5q43 0 74 -28.5t31 -69.5q0 -43 -30.5 -71.5t-74.5 -28.5q-45 0 -75.5 28.5t-30.5 71.5zM213 715q0 39 28.5 67.5t71.5 28.5q41 0 70 -28.5 t29 -67.5q0 -41 -29 -70t-70 -29q-43 0 -71.5 29t-28.5 70zM412 715q0 39 30.5 67.5t75.5 28.5q43 0 74 -28.5t31 -67.5q0 -41 -31 -70t-74 -29q-45 0 -75.5 29t-30.5 70zM612 1329q0 41 30 69.5t73 28.5q41 0 70.5 -28.5t29.5 -69.5q0 -43 -29.5 -71.5t-70.5 -28.5 q-43 0 -73 28.5t-30 71.5zM614 309q0 41 30 71t73 30t72.5 -30t29.5 -71q0 -43 -29.5 -72.5t-72.5 -29.5t-73 29.5t-30 72.5zM614 512q0 41 31 70.5t74 29.5q41 0 71.5 -29.5t30.5 -70.5q0 -43 -30.5 -72.5t-71.5 -29.5q-43 0 -74 29.5t-31 72.5zM614 1126q0 41 31 72t76 31 q43 0 73.5 -31t30.5 -72q0 -43 -30.5 -73.5t-73.5 -30.5q-45 0 -76 30.5t-31 73.5zM616 104q0 41 30 72t73 31q41 0 70.5 -31t29.5 -72q0 -43 -29.5 -73.5t-70.5 -30.5q-43 0 -73 30.5t-30 73.5zM618 920q0 43 31 72.5t74 29.5q41 0 71.5 -29.5t30.5 -72.5t-30.5 -73 t-71.5 -30q-43 0 -74 30t-31 73zM623 713q0 41 28.5 69.5t71.5 28.5q41 0 69.5 -28.5t28.5 -69.5q0 -43 -28.5 -72t-69.5 -29q-43 0 -71.5 29t-28.5 72z" />
<glyph unicode="I" horiz-adv-x="817" d="M0 100q0 41 30.5 70t73.5 29t74 -29t31 -70q0 -43 -31 -71.5t-74 -28.5t-73.5 28.5t-30.5 71.5zM0 1329q0 41 30.5 69.5t75.5 28.5q43 0 74 -28.5t31 -69.5t-30.5 -69.5t-74.5 -28.5q-45 0 -75.5 28.5t-30.5 69.5zM201 307q0 41 30.5 72t75.5 31q43 0 74 -31t31 -72 q0 -43 -31 -73.5t-74 -30.5q-45 0 -75.5 30.5t-30.5 73.5zM203 514q0 41 30.5 71.5t73.5 30.5t74 -30.5t31 -71.5q0 -43 -31 -73.5t-74 -30.5t-73.5 30.5t-30.5 73.5zM203 717q0 41 31.5 70.5t76.5 29.5q43 0 75 -29.5t32 -70.5t-32 -71t-75 -30q-45 0 -76.5 30t-31.5 71z M203 918q0 41 31.5 69.5t76.5 28.5q43 0 75 -29t32 -69q0 -43 -32 -72t-75 -29q-45 0 -76.5 29t-31.5 72zM203 1122q0 45 30.5 76t73.5 31q41 0 72 -31t31 -76t-31 -75.5t-72 -30.5q-43 0 -73.5 30.5t-30.5 75.5zM209 100q0 41 29.5 70t70.5 29t71 -29t30 -70 q0 -43 -30 -71.5t-71 -28.5t-70.5 28.5t-29.5 71.5zM211 1329q0 41 29.5 69.5t72.5 28.5t73 -28.5t30 -69.5t-30 -69.5t-73 -28.5t-72.5 28.5t-29.5 69.5zM410 98q0 41 30.5 70t73.5 29q41 0 71.5 -29t30.5 -70t-30.5 -69.5t-71.5 -28.5q-43 0 -73.5 28.5t-30.5 69.5z M416 1329q0 41 29.5 69.5t72.5 28.5t73 -28.5t30 -69.5t-30 -69.5t-73 -28.5t-72.5 28.5t-29.5 69.5z" />
<glyph unicode="J" d="M-199 -102q0 43 29 72.5t70 29.5q43 0 71.5 -29.5t28.5 -72.5t-28.5 -73t-71.5 -30q-41 0 -70 30t-29 73zM0 -307q0 43 30.5 71.5t73.5 28.5t74 -28.5t31 -71.5q0 -41 -31 -70t-74 -29t-73.5 29t-30.5 70zM201 1329q0 41 30.5 69.5t75.5 28.5q43 0 74 -28.5t31 -69.5 t-31 -69.5t-74 -28.5q-45 0 -75.5 28.5t-30.5 69.5zM209 -307q0 43 29.5 71.5t72.5 28.5q41 0 71 -28.5t30 -71.5q0 -41 -30 -70t-71 -29q-43 0 -72.5 29t-29.5 70zM401 102q0 41 32 71t79 30q45 0 77 -30t32 -71q0 -43 -32 -72.5t-77 -29.5q-47 0 -79 29.5t-32 72.5z M401 307q0 41 33 72t78 31t78 -31t33 -72q0 -43 -33 -73.5t-78 -30.5t-78 30.5t-33 73.5zM401 510q0 41 33 69.5t78 28.5t78 -28.5t33 -69.5q0 -43 -33 -71.5t-78 -28.5t-78 28.5t-33 71.5zM401 715q0 43 33 73.5t80 30.5t80 -30.5t33 -73.5q0 -45 -33 -76t-80 -31t-80 31 t-33 76zM401 922q0 41 33 70.5t80 29.5t80 -29.5t33 -70.5q0 -43 -33 -73t-80 -30t-80 30t-33 73zM403 1124q0 43 33 73t80 30q45 0 78 -30t33 -73t-33 -72.5t-78 -29.5q-47 0 -80 29.5t-33 72.5zM412 1329q0 41 28.5 69.5t71.5 28.5q41 0 69.5 -28.5t28.5 -69.5 t-28.5 -69.5t-69.5 -28.5q-43 0 -71.5 28.5t-28.5 69.5zM416 -104q0 43 29.5 73.5t72.5 30.5t73 -30.5t30 -73.5q0 -41 -30 -72t-73 -31t-72.5 31t-29.5 72zM616 1327q0 43 30 71.5t73 28.5q41 0 70.5 -28.5t29.5 -71.5q0 -41 -29.5 -70.5t-70.5 -29.5q-43 0 -73 29.5 t-30 70.5z" />
<glyph unicode="K" d="M0 102q0 43 30.5 73t75.5 30q43 0 74 -30t31 -73t-30.5 -72.5t-74.5 -29.5q-45 0 -75.5 29.5t-30.5 72.5zM0 305q0 41 30.5 71t73.5 30t74 -30t31 -71t-31 -70.5t-74 -29.5t-73.5 29.5t-30.5 70.5zM0 508q0 43 30.5 72.5t73.5 29.5t74 -29.5t31 -72.5t-31 -72.5 t-74 -29.5t-73.5 29.5t-30.5 72.5zM0 717q0 43 30.5 73.5t73.5 30.5t74 -30.5t31 -73.5q0 -45 -31 -76t-74 -31t-73.5 31t-30.5 76zM0 922q0 41 30.5 70.5t73.5 29.5t74 -29.5t31 -70.5t-31 -71t-74 -30t-73.5 30t-30.5 71zM0 1126q0 43 30.5 74t73.5 31t74 -31t31 -74 t-31 -73.5t-74 -30.5t-73.5 30.5t-30.5 73.5zM0 1329q0 41 30.5 69.5t73.5 28.5t74 -28.5t31 -69.5t-31 -69.5t-74 -28.5t-73.5 28.5t-30.5 69.5zM211 717q0 45 29.5 75.5t72.5 30.5q41 0 71 -30.5t30 -75.5t-30 -76t-71 -31q-43 0 -72.5 31t-29.5 76zM403 922q0 41 31 70.5 t76 29.5q43 0 73.5 -29.5t30.5 -70.5q0 -43 -30.5 -73t-73.5 -30q-45 0 -76 30t-31 73zM414 508q0 41 30.5 71.5t73.5 30.5q41 0 72 -30.5t31 -71.5q0 -43 -31 -74t-72 -31q-43 0 -73.5 31t-30.5 74zM612 102q0 43 32 73t77 30q43 0 74.5 -30t31.5 -73t-31.5 -72.5 t-74.5 -29.5q-45 0 -77 29.5t-32 72.5zM614 1126q0 41 31 72t74 31t73.5 -31t30.5 -72q0 -43 -30.5 -73.5t-73.5 -30.5t-74 30.5t-31 73.5zM614 1329q0 41 31 69.5t74 28.5t73.5 -28.5t30.5 -69.5q0 -43 -30.5 -71.5t-73.5 -28.5t-74 28.5t-31 71.5zM621 305q0 41 30.5 69.5 t73.5 28.5q41 0 71.5 -28.5t30.5 -69.5q0 -43 -30.5 -71.5t-71.5 -28.5q-43 0 -73.5 28.5t-30.5 71.5z" />
<glyph unicode="L" d="M0 102q0 41 30.5 71t73.5 30q41 0 72 -30t31 -71q0 -43 -31 -72.5t-72 -29.5q-43 0 -73.5 29.5t-30.5 72.5zM0 307q0 41 30.5 72t75.5 31q43 0 74 -31t31 -72q0 -43 -30.5 -73.5t-74.5 -30.5q-45 0 -75.5 30.5t-30.5 73.5zM0 512q0 43 30.5 72.5t75.5 29.5q43 0 74 -29.5 t31 -72.5t-30.5 -72.5t-74.5 -29.5q-45 0 -75.5 29.5t-30.5 72.5zM0 719q0 41 30.5 71.5t75.5 30.5t76 -30.5t31 -71.5q0 -43 -30.5 -74t-76.5 -31q-45 0 -75.5 31t-30.5 74zM0 920q0 41 30.5 69.5t75.5 28.5t76 -28.5t31 -69.5t-30.5 -70t-76.5 -29q-45 0 -75.5 29 t-30.5 70zM0 1122q0 41 30.5 72t75.5 31q43 0 74 -31t31 -72q0 -43 -30.5 -73.5t-74.5 -30.5q-45 0 -75.5 30.5t-30.5 73.5zM0 1327q0 41 30.5 70.5t75.5 29.5q43 0 74 -29.5t31 -70.5q0 -43 -30.5 -72.5t-74.5 -29.5q-45 0 -75.5 29.5t-30.5 72.5zM207 100q0 41 30.5 70 t73.5 29q41 0 72 -29t31 -70q0 -43 -31 -71.5t-72 -28.5q-43 0 -73.5 28.5t-30.5 71.5zM414 100q0 41 29.5 70t72.5 29q41 0 70.5 -29t29.5 -70q0 -43 -29.5 -71.5t-70.5 -28.5q-43 0 -72.5 28.5t-29.5 71.5zM616 100q0 41 31 71t74 30t73.5 -30t30.5 -71t-30.5 -70.5 t-73.5 -29.5t-74 29.5t-31 70.5z" />
<glyph unicode="M" horiz-adv-x="1228" d="M0 100q0 41 30.5 71t73.5 30q41 0 72 -30t31 -71t-31 -70.5t-72 -29.5q-43 0 -73.5 29.5t-30.5 70.5zM0 303q0 43 30.5 73t73.5 30t74 -30t31 -73t-31 -72.5t-74 -29.5t-73.5 29.5t-30.5 72.5zM0 510q0 41 30.5 71.5t73.5 30.5t74 -30.5t31 -71.5q0 -43 -31 -73.5 t-74 -30.5t-73.5 30.5t-30.5 73.5zM0 715q0 43 30.5 72.5t73.5 29.5t74 -29.5t31 -72.5t-31 -73t-74 -30t-73.5 30t-30.5 73zM0 920q0 43 30.5 72.5t73.5 29.5t74 -29.5t31 -72.5t-31 -73t-74 -30t-73.5 30t-30.5 73zM0 1126q0 41 30.5 72t75.5 31q43 0 74 -31t31 -72 q0 -43 -30.5 -73.5t-74.5 -30.5q-45 0 -75.5 30.5t-30.5 73.5zM0 1329q0 41 30.5 69.5t75.5 28.5q43 0 74 -28.5t31 -69.5q0 -43 -30.5 -71.5t-74.5 -28.5q-45 0 -75.5 28.5t-30.5 71.5zM207 1124q0 41 29.5 72t72.5 31t73 -31t30 -72q0 -43 -30 -73.5t-73 -30.5t-72.5 30.5 t-29.5 73.5zM412 918q0 43 30.5 72.5t73.5 29.5q41 0 71.5 -29.5t30.5 -72.5t-30.5 -73t-71.5 -30q-43 0 -73.5 30t-30.5 73zM618 1120q0 43 30 73t73 30q41 0 70.5 -30t29.5 -73t-29.5 -72.5t-70.5 -29.5q-43 0 -73 29.5t-30 72.5zM815 715q0 43 31 72.5t74 29.5 t73.5 -29.5t30.5 -72.5t-30.5 -73t-73.5 -30t-74 30t-31 73zM815 920q0 43 32 72.5t77 29.5t76.5 -29.5t31.5 -72.5t-31.5 -73t-76.5 -30t-77 30t-32 73zM817 305q0 43 31 74t76 31q43 0 73.5 -31t30.5 -74q0 -45 -30.5 -75.5t-73.5 -30.5q-45 0 -76 30.5t-31 75.5zM817 512 q0 41 31 70.5t74 29.5q41 0 71.5 -29.5t30.5 -70.5q0 -43 -30.5 -72.5t-71.5 -29.5q-43 0 -74 29.5t-31 72.5zM821 100q0 41 31 70t74 29q41 0 71.5 -29t30.5 -70q0 -43 -30.5 -71.5t-71.5 -28.5q-43 0 -74 28.5t-31 71.5zM821 1325q0 43 31 72.5t76 29.5q43 0 73.5 -29.5 t30.5 -72.5t-30.5 -72.5t-73.5 -29.5q-45 0 -76 29.5t-31 72.5zM823 1116q0 39 31 66.5t74 27.5t73.5 -27.5t30.5 -66.5t-30.5 -66.5t-73.5 -27.5t-74 27.5t-31 66.5z" />
<glyph unicode="N" horiz-adv-x="1228" d="M0 102q0 41 30.5 71t73.5 30q41 0 72 -30t31 -71q0 -43 -31 -72.5t-72 -29.5q-43 0 -73.5 29.5t-30.5 72.5zM0 305q0 43 30.5 73t73.5 30t74 -30t31 -73t-31 -72.5t-74 -29.5t-73.5 29.5t-30.5 72.5zM0 510q0 43 30.5 72.5t73.5 29.5t74 -29.5t31 -72.5t-31 -72.5 t-74 -29.5t-73.5 29.5t-30.5 72.5zM0 715q0 43 30.5 73.5t75.5 30.5q43 0 74 -30.5t31 -73.5t-30.5 -74t-74.5 -31q-45 0 -75.5 31t-30.5 74zM0 922q0 41 30.5 70.5t75.5 29.5q43 0 74 -29.5t31 -70.5q0 -43 -30.5 -73t-74.5 -30q-45 0 -75.5 30t-30.5 73zM0 1126 q0 41 30.5 72t75.5 31t76 -31t31 -72q0 -43 -30.5 -73.5t-76.5 -30.5q-45 0 -75.5 30.5t-30.5 73.5zM0 1329q0 41 30.5 69.5t75.5 28.5t76 -28.5t31 -69.5q0 -43 -30.5 -71.5t-76.5 -28.5q-45 0 -75.5 28.5t-30.5 71.5zM213 920q0 43 28.5 73.5t71.5 30.5q41 0 70 -30.5 t29 -73.5t-29 -74t-70 -31q-43 0 -71.5 31t-28.5 74zM219 1122q0 39 28.5 68t67.5 29t68 -29t29 -68q0 -41 -29 -69.5t-68 -28.5t-67.5 28.5t-28.5 69.5zM410 719q0 43 30.5 73.5t73.5 30.5q41 0 71.5 -30.5t30.5 -73.5t-30.5 -74t-71.5 -31q-43 0 -73.5 31t-30.5 74z M614 512q0 43 30 72.5t73 29.5t72.5 -29.5t29.5 -72.5t-29.5 -72.5t-72.5 -29.5t-73 29.5t-30 72.5zM616 307q0 43 30 73t73 30q41 0 70.5 -30t29.5 -73t-29.5 -72.5t-70.5 -29.5q-43 0 -73 29.5t-30 72.5zM819 717q0 43 31 73.5t76 30.5t75.5 -30.5t30.5 -73.5t-30.5 -74 t-75.5 -31t-76 31t-31 74zM819 922q0 41 31 70.5t76 29.5q43 0 73.5 -29.5t30.5 -70.5t-30.5 -71t-73.5 -30q-45 0 -76 30t-31 71zM821 100q0 41 31 71t74 30t73.5 -30t30.5 -71t-30.5 -70.5t-73.5 -29.5t-74 29.5t-31 70.5zM821 305q0 41 31 72t74 31t73.5 -31t30.5 -72 q0 -43 -30.5 -73.5t-73.5 -30.5t-74 30.5t-31 73.5zM821 510q0 43 31 72.5t76 29.5q43 0 73.5 -29.5t30.5 -72.5t-30.5 -72.5t-73.5 -29.5q-45 0 -76 29.5t-31 72.5zM821 1124q0 43 31 73t74 30t73.5 -30t30.5 -73t-30.5 -72.5t-73.5 -29.5t-74 29.5t-31 72.5zM821 1327 q0 41 31 70.5t76 29.5q43 0 73.5 -29.5t30.5 -70.5t-30.5 -70.5t-73.5 -29.5q-45 0 -76 29.5t-31 70.5z" />
<glyph unicode="O" d="M0 305q0 41 30.5 72t73.5 31q41 0 72 -31t31 -72q0 -43 -31 -73.5t-72 -30.5q-43 0 -73.5 30.5t-30.5 73.5zM0 510q0 43 30.5 72.5t73.5 29.5t74 -29.5t31 -72.5t-31 -72.5t-74 -29.5t-73.5 29.5t-30.5 72.5zM0 715q0 43 30.5 72.5t73.5 29.5t74 -29.5t31 -72.5t-31 -73 t-74 -30t-73.5 30t-30.5 73zM0 922q0 41 30.5 71.5t73.5 30.5q41 0 72 -30.5t31 -71.5q0 -43 -31 -74t-72 -31q-43 0 -73.5 31t-30.5 74zM0 1122q0 39 30.5 68t73.5 29q41 0 72 -29t31 -68q0 -41 -31 -69.5t-72 -28.5q-43 0 -73.5 28.5t-30.5 69.5zM201 1327q0 41 30.5 70.5 t73.5 29.5t74 -29.5t31 -70.5q0 -43 -31 -72.5t-74 -29.5t-73.5 29.5t-30.5 72.5zM207 100q0 41 30.5 71t73.5 30q41 0 72 -30t31 -71t-31 -70.5t-72 -29.5q-43 0 -73.5 29.5t-30.5 70.5zM410 1327q0 41 30.5 70.5t73.5 29.5q41 0 71.5 -29.5t30.5 -70.5q0 -43 -30.5 -72.5 t-71.5 -29.5q-43 0 -73.5 29.5t-30.5 72.5zM414 100q0 41 29.5 70t72.5 29q41 0 70.5 -29t29.5 -70q0 -43 -29.5 -71.5t-70.5 -28.5q-43 0 -72.5 28.5t-29.5 71.5zM608 508q0 43 32 73.5t77 30.5q43 0 74.5 -30.5t31.5 -73.5t-31.5 -74t-74.5 -31q-45 0 -77 31t-32 74z M608 713q0 41 32 70.5t77 29.5t76.5 -29.5t31.5 -70.5t-31.5 -71t-76.5 -30t-77 30t-32 71zM612 918q0 41 31 71.5t76 30.5t75.5 -31t30.5 -71q0 -43 -30.5 -74t-75.5 -31t-76 31t-31 74zM612 1120q0 41 31 71t76 30t75.5 -30t30.5 -71t-30.5 -70.5t-75.5 -29.5t-76 29.5 t-31 70.5zM616 301q0 43 31 72.5t74 29.5q41 0 71.5 -29.5t30.5 -72.5t-30.5 -72.5t-71.5 -29.5q-43 0 -74 29.5t-31 72.5z" />
<glyph unicode="P" d="M0 100q0 41 30.5 70t75.5 29t76 -29t31 -70q0 -43 -30.5 -71.5t-76.5 -28.5q-45 0 -75.5 28.5t-30.5 71.5zM0 301q0 41 30.5 70.5t75.5 29.5t76 -29.5t31 -70.5q0 -43 -30.5 -72.5t-76.5 -29.5q-45 0 -75.5 29.5t-30.5 72.5zM0 506q0 43 30.5 73.5t75.5 30.5 q43 0 74 -30.5t31 -73.5t-30.5 -74t-74.5 -31q-45 0 -75.5 31t-30.5 74zM0 713q0 43 30.5 72.5t75.5 29.5q43 0 74 -29.5t31 -72.5t-30.5 -73t-74.5 -30q-45 0 -75.5 30t-30.5 73zM0 915q0 41 30.5 71t75.5 30t76 -30t31 -71t-30.5 -70.5t-76.5 -29.5q-45 0 -75.5 29.5 t-30.5 70.5zM0 1122q0 43 30.5 74t75.5 31t76 -31t31 -74q0 -45 -30.5 -75.5t-76.5 -30.5q-45 0 -75.5 30.5t-30.5 75.5zM0 1327q0 41 30.5 70.5t73.5 29.5q41 0 72 -29.5t31 -70.5t-31 -70.5t-72 -29.5q-43 0 -73.5 29.5t-30.5 70.5zM207 1329q0 41 29.5 69.5t72.5 28.5 t73 -28.5t30 -69.5q0 -43 -30 -71.5t-73 -28.5t-72.5 28.5t-29.5 71.5zM209 711q0 41 29.5 69.5t72.5 28.5t73 -28.5t30 -69.5t-30 -70t-73 -29t-72.5 29t-29.5 70zM412 1329q0 41 29.5 69.5t72.5 28.5t72.5 -28.5t29.5 -69.5q0 -43 -29.5 -71.5t-72.5 -28.5t-72.5 28.5 t-29.5 71.5zM414 715q0 41 28.5 70.5t71.5 29.5q41 0 69.5 -29.5t28.5 -70.5q0 -43 -28.5 -73t-69.5 -30q-43 0 -71.5 30t-28.5 73zM612 918q0 43 31 72.5t74 29.5q41 0 71.5 -29.5t30.5 -72.5t-30.5 -73t-71.5 -30q-43 0 -74 30t-31 73zM614 1128q0 43 30 75t73 32 t72.5 -32t29.5 -75q0 -45 -29.5 -76.5t-72.5 -31.5t-73 31.5t-30 76.5z" />
<glyph unicode="Q" d="M0 303q0 41 30.5 70.5t73.5 29.5t74 -29.5t31 -70.5q0 -43 -31 -72.5t-74 -29.5t-73.5 29.5t-30.5 72.5zM0 508q0 43 30.5 73.5t75.5 30.5q43 0 74 -30.5t31 -73.5t-30.5 -74t-74.5 -31q-45 0 -75.5 31t-30.5 74zM0 715q0 41 30.5 70.5t75.5 29.5q43 0 74 -29.5t31 -70.5 q0 -43 -30.5 -73t-74.5 -30q-45 0 -75.5 30t-30.5 73zM0 920q0 41 30.5 71.5t75.5 30.5t76 -30.5t31 -71.5q0 -43 -30.5 -74t-76.5 -31q-45 0 -75.5 31t-30.5 74zM0 1120q0 41 30.5 70t75.5 29t76 -29t31 -70t-30.5 -69.5t-76.5 -28.5q-45 0 -75.5 28.5t-30.5 69.5z M203 1329q0 41 30.5 69.5t75.5 28.5q43 0 74 -28.5t31 -69.5t-31 -69.5t-74 -28.5q-45 0 -75.5 28.5t-30.5 69.5zM209 100q0 41 29.5 71t72.5 30q41 0 71 -30t30 -71t-30 -70.5t-71 -29.5q-43 0 -72.5 29.5t-29.5 70.5zM412 100q0 41 30.5 71t75.5 30q43 0 74 -30t31 -71 t-31 -70.5t-74 -29.5q-45 0 -75.5 29.5t-30.5 70.5zM414 1327q0 41 28.5 70.5t67.5 29.5t67.5 -29.5t28.5 -70.5q0 -43 -28.5 -72.5t-67.5 -29.5t-67.5 29.5t-28.5 72.5zM608 913q0 43 32 73t79 30q45 0 76.5 -30t31.5 -73t-31.5 -72.5t-76.5 -29.5q-47 0 -79 29.5t-32 72.5 zM608 1120q0 43 32 74t77 31q43 0 74.5 -31t31.5 -74t-31.5 -73.5t-74.5 -30.5q-45 0 -77 30.5t-32 73.5zM610 504q0 43 32 73.5t77 30.5q43 0 74.5 -30.5t31.5 -73.5t-31.5 -74t-74.5 -31q-45 0 -77 31t-32 74zM610 711q0 41 32 70.5t77 29.5t76.5 -29.5t31.5 -70.5 q0 -43 -31.5 -73t-76.5 -30t-77 30t-32 73zM612 -102q0 43 31 72.5t76 29.5q43 0 73.5 -29.5t30.5 -72.5t-30.5 -73t-73.5 -30q-45 0 -76 30t-31 73zM623 301q0 41 29.5 69.5t72.5 28.5q41 0 70.5 -28.5t29.5 -69.5q0 -43 -29.5 -71.5t-70.5 -28.5q-43 0 -72.5 28.5 t-29.5 71.5z" />
<glyph unicode="R" d="M0 100q0 41 30.5 71t75.5 30t76 -30t31 -71t-30.5 -70.5t-76.5 -29.5q-45 0 -75.5 29.5t-30.5 70.5zM0 303q0 41 30.5 70.5t75.5 29.5t76 -29.5t31 -70.5q0 -43 -30.5 -72.5t-76.5 -29.5q-45 0 -75.5 29.5t-30.5 72.5zM0 506q0 43 31.5 72.5t77.5 29.5q45 0 76.5 -29.5 t31.5 -72.5t-31.5 -73t-76.5 -30t-77 30t-32 73zM0 711q0 41 31.5 70.5t77.5 29.5q45 0 76.5 -29.5t31.5 -70.5q0 -43 -31.5 -73t-76.5 -30t-77 30t-32 73zM0 915q0 43 30.5 74t75.5 31t76 -31t31 -74t-30.5 -73.5t-76.5 -30.5q-45 0 -75.5 30.5t-30.5 73.5zM0 1120 q0 41 30.5 71t75.5 30t76 -30t31 -71t-30.5 -70.5t-76.5 -29.5q-45 0 -75.5 29.5t-30.5 70.5zM0 1327q0 41 30.5 70.5t75.5 29.5q43 0 74 -29.5t31 -70.5t-30.5 -70.5t-74.5 -29.5q-45 0 -75.5 29.5t-30.5 70.5zM207 713q0 43 29.5 72.5t72.5 29.5q41 0 71 -29.5t30 -72.5 t-30 -73t-71 -30q-43 0 -72.5 30t-29.5 73zM211 1327q0 41 29.5 70.5t70.5 29.5t71 -29.5t30 -70.5t-30 -70.5t-71 -29.5t-70.5 29.5t-29.5 70.5zM410 715q0 41 29.5 71.5t72.5 30.5q41 0 70.5 -30.5t29.5 -71.5q0 -43 -29.5 -74t-70.5 -31q-43 0 -72.5 31t-29.5 74z M412 1329q0 41 30.5 69.5t73.5 28.5q41 0 71.5 -28.5t30.5 -69.5q0 -43 -30.5 -71.5t-71.5 -28.5q-43 0 -73.5 28.5t-30.5 71.5zM612 920q0 43 31 72.5t76 29.5t75.5 -29.5t30.5 -72.5t-30.5 -73t-75.5 -30t-76 30t-31 73zM614 102q0 43 31 73t74 30q41 0 71.5 -30t30.5 -73 t-30.5 -72.5t-71.5 -29.5q-43 0 -74 29.5t-31 72.5zM614 307q0 41 31 71t74 30q41 0 71.5 -30t30.5 -71q0 -43 -30.5 -72.5t-71.5 -29.5q-43 0 -74 29.5t-31 72.5zM618 512q0 41 30 71.5t73 30.5q41 0 70.5 -30.5t29.5 -71.5q0 -43 -29.5 -73.5t-70.5 -30.5q-43 0 -73 30.5 t-30 73.5zM618 1126q0 41 31 72t74 31q41 0 71.5 -31t30.5 -72q0 -43 -30.5 -73.5t-71.5 -30.5q-43 0 -74 30.5t-31 73.5z" />
<glyph unicode="S" d="M0 98q0 41 30.5 70t73.5 29q41 0 72 -29t31 -70t-31 -69.5t-72 -28.5q-43 0 -73.5 28.5t-30.5 69.5zM0 918q0 43 30.5 73.5t73.5 30.5q41 0 72 -30.5t31 -73.5t-31 -74t-72 -31q-43 0 -73.5 31t-30.5 74zM0 1122q0 41 30.5 70t73.5 29q41 0 72 -29t31 -70 q0 -43 -31 -71.5t-72 -28.5q-43 0 -73.5 28.5t-30.5 71.5zM205 715q0 41 30.5 70.5t73.5 29.5q41 0 72 -29.5t31 -70.5q0 -43 -31 -73t-72 -30q-43 0 -73.5 30t-30.5 73zM207 98q0 41 29.5 70t70.5 29t71 -29t30 -70t-30 -69.5t-71 -28.5t-70.5 28.5t-29.5 69.5zM207 1325 q0 41 30.5 71.5t73.5 30.5q41 0 72 -30.5t31 -71.5q0 -43 -31 -73.5t-72 -30.5q-43 0 -73.5 30.5t-30.5 73.5zM408 100q0 41 30.5 70t75.5 29q43 0 73.5 -29t30.5 -70q0 -43 -30.5 -71.5t-73.5 -28.5q-45 0 -75.5 28.5t-30.5 71.5zM412 713q0 43 29.5 72.5t70.5 29.5 t70.5 -29.5t29.5 -72.5t-29.5 -73t-70.5 -30t-70.5 30t-29.5 73zM414 1327q0 41 29.5 70.5t70.5 29.5t70.5 -29.5t29.5 -70.5t-29.5 -70.5t-70.5 -29.5t-70.5 29.5t-29.5 70.5zM612 510q0 41 31 70.5t74 29.5t73.5 -29.5t30.5 -70.5q0 -43 -30.5 -72.5t-73.5 -29.5t-74 29.5 t-31 72.5zM614 1327q0 41 32 70.5t77 29.5q43 0 74.5 -29.5t31.5 -70.5t-31.5 -70.5t-74.5 -29.5q-45 0 -77 29.5t-32 70.5zM618 303q0 43 30 74t73 31q41 0 70.5 -31t29.5 -74t-29.5 -73.5t-70.5 -30.5q-43 0 -73 30.5t-30 73.5z" />
<glyph unicode="T" horiz-adv-x="1228" d="M0 1329q0 41 30.5 69.5t73.5 28.5t74 -28.5t31 -69.5t-31 -69.5t-74 -28.5t-73.5 28.5t-30.5 69.5zM209 1329q0 41 29.5 69.5t72.5 28.5t73 -28.5t30 -69.5t-30 -69.5t-73 -28.5t-72.5 28.5t-29.5 69.5zM406 1120q0 41 31.5 71t76.5 30q43 0 75 -30t32 -71t-32 -70.5 t-75 -29.5q-45 0 -76.5 29.5t-31.5 70.5zM408 713q0 41 30.5 70.5t75.5 29.5q43 0 73.5 -29.5t30.5 -70.5q0 -43 -30.5 -73t-73.5 -30q-45 0 -75.5 30t-30.5 73zM408 918q0 41 30.5 71.5t75.5 30.5t76 -31t31 -71q0 -43 -31 -74t-76 -31t-75.5 31t-30.5 74zM410 303 q0 41 30.5 70.5t73.5 29.5q41 0 71.5 -29.5t30.5 -70.5q0 -43 -30.5 -72.5t-71.5 -29.5q-43 0 -73.5 29.5t-30.5 72.5zM410 508q0 41 30.5 71.5t73.5 30.5t73.5 -30.5t30.5 -71.5q0 -43 -30.5 -74t-73.5 -31t-73.5 31t-30.5 74zM412 100q0 41 29.5 71t72.5 30t72.5 -30 t29.5 -71t-29.5 -70.5t-72.5 -29.5t-72.5 29.5t-29.5 70.5zM414 1329q0 41 29.5 69.5t70.5 28.5t70.5 -28.5t29.5 -69.5q0 -43 -29.5 -71.5t-70.5 -28.5t-70.5 28.5t-29.5 71.5zM614 1329q0 41 31 69.5t74 28.5q41 0 71.5 -28.5t30.5 -69.5q0 -43 -30.5 -71.5t-71.5 -28.5 q-43 0 -74 28.5t-31 71.5zM821 1327q0 41 31 70.5t74 29.5q41 0 71.5 -29.5t30.5 -70.5t-30.5 -70.5t-71.5 -29.5q-43 0 -74 29.5t-31 70.5z" />
<glyph unicode="U" d="M0 305q0 43 30.5 74t75.5 31q43 0 74 -31t31 -74t-30.5 -73.5t-74.5 -30.5q-45 0 -75.5 30.5t-30.5 73.5zM0 512q0 41 30.5 70.5t75.5 29.5q43 0 74 -29.5t31 -70.5q0 -43 -30.5 -72.5t-74.5 -29.5q-45 0 -75.5 29.5t-30.5 72.5zM0 717q0 41 30.5 71.5t75.5 30.5 q43 0 74 -30.5t31 -71.5q0 -43 -30.5 -74t-74.5 -31q-45 0 -75.5 31t-30.5 74zM0 920q0 41 30.5 70.5t75.5 29.5q43 0 74 -29.5t31 -70.5t-30.5 -71t-74.5 -30q-45 0 -75.5 30t-30.5 71zM0 1124q0 43 30.5 74t75.5 31q43 0 74 -31t31 -74t-30.5 -73.5t-74.5 -30.5 q-45 0 -75.5 30.5t-30.5 73.5zM0 1329q0 41 30.5 69.5t75.5 28.5q43 0 74 -28.5t31 -69.5q0 -43 -30.5 -71.5t-74.5 -28.5q-45 0 -75.5 28.5t-30.5 71.5zM199 98q0 39 30.5 68t75.5 29t76 -29t31 -68q0 -41 -31 -69.5t-76 -28.5t-75.5 28.5t-30.5 69.5zM412 98q0 41 30.5 70 t75.5 29q43 0 74 -29t31 -70t-31 -69.5t-74 -28.5q-45 0 -75.5 28.5t-30.5 69.5zM608 918q0 41 32 69.5t77 28.5t76.5 -29t31.5 -69q0 -43 -31.5 -72t-76.5 -29t-77 29t-32 72zM608 1120q0 41 32 72t77 31t76.5 -31t31.5 -72q0 -43 -31.5 -73.5t-76.5 -30.5t-77 30.5 t-32 73.5zM610 1325q0 43 32 72.5t77 29.5q43 0 74.5 -29.5t31.5 -72.5t-31.5 -72.5t-74.5 -29.5q-45 0 -77 29.5t-32 72.5zM612 506q0 43 31 72.5t76 29.5t75.5 -29.5t30.5 -72.5t-30.5 -73t-75.5 -30t-76 30t-31 73zM612 713q0 43 31 73.5t76 30.5t75.5 -30.5t30.5 -73.5 t-30.5 -74t-75.5 -31t-76 31t-31 74zM623 301q0 41 29.5 71.5t72.5 30.5q41 0 70.5 -30.5t29.5 -71.5q0 -43 -29.5 -73.5t-70.5 -30.5q-43 0 -72.5 30.5t-29.5 73.5z" />
<glyph unicode="V" horiz-adv-x="1228" d="M0 717q0 41 30.5 69.5t75.5 28.5q43 0 74 -28.5t31 -69.5q0 -43 -30.5 -72t-74.5 -29q-45 0 -75.5 29t-30.5 72zM0 920q0 43 30.5 73.5t75.5 30.5q43 0 74 -30.5t31 -73.5t-30.5 -74t-74.5 -31q-45 0 -75.5 31t-30.5 74zM0 1126q0 43 30.5 73t73.5 30t74 -30t31 -73 t-31 -72.5t-74 -29.5t-73.5 29.5t-30.5 72.5zM0 1329q0 41 30.5 69.5t73.5 28.5t74 -28.5t31 -69.5q0 -43 -31 -71.5t-74 -28.5t-73.5 28.5t-30.5 71.5zM203 307q0 41 30.5 72t75.5 31q43 0 74 -31t31 -72q0 -43 -31 -73.5t-74 -30.5q-45 0 -75.5 30.5t-30.5 73.5zM209 512 q0 41 29.5 70.5t72.5 29.5t73 -29.5t30 -70.5q0 -43 -30 -72.5t-73 -29.5t-72.5 29.5t-29.5 72.5zM408 102q0 43 30.5 73t75.5 30t76 -30t31 -73t-31 -72.5t-76 -29.5t-75.5 29.5t-30.5 72.5zM608 506q0 43 31 72.5t76 29.5t75.5 -29.5t30.5 -72.5t-30.5 -73t-75.5 -30 t-76 30t-31 73zM618 301q0 41 30 71.5t73 30.5q41 0 70.5 -30.5t29.5 -71.5q0 -43 -29.5 -73.5t-70.5 -30.5q-43 0 -73 30.5t-30 73.5zM817 918q0 41 31 70.5t76 29.5t75.5 -30t30.5 -70q0 -43 -30.5 -73t-75.5 -30t-76 30t-31 73zM817 1120q0 43 31 73t76 30q43 0 73.5 -30 t30.5 -73t-30.5 -72.5t-73.5 -29.5q-45 0 -76 29.5t-31 72.5zM817 1325q0 43 31 72.5t76 29.5q43 0 73.5 -29.5t30.5 -72.5t-30.5 -72.5t-73.5 -29.5q-45 0 -76 29.5t-31 72.5zM819 711q0 43 31 73.5t76 30.5q43 0 73.5 -30.5t30.5 -73.5q0 -45 -30.5 -76t-73.5 -31 q-45 0 -76 31t-31 76z" />
<glyph unicode="W" horiz-adv-x="1228" d="M0 102q0 43 30.5 73t75.5 30q43 0 74 -30t31 -73t-30.5 -72.5t-74.5 -29.5q-45 0 -75.5 29.5t-30.5 72.5zM0 311q0 43 30.5 74t75.5 31q43 0 74 -31t31 -74q0 -45 -30.5 -75.5t-74.5 -30.5q-45 0 -75.5 30.5t-30.5 75.5zM0 514q0 39 30.5 67.5t75.5 28.5q43 0 74 -28.5 t31 -67.5q0 -41 -30.5 -69.5t-74.5 -28.5q-45 0 -75.5 28.5t-30.5 69.5zM0 713q0 43 30.5 72.5t75.5 29.5t76 -29.5t31 -72.5t-30.5 -73t-76.5 -30q-45 0 -75.5 30t-30.5 73zM0 920q0 43 30.5 73.5t75.5 30.5t76 -30.5t31 -73.5t-30.5 -74t-76.5 -31q-45 0 -75.5 31 t-30.5 74zM0 1128q0 41 31.5 72t77.5 31q43 0 74.5 -31t31.5 -72q0 -43 -31.5 -73.5t-74.5 -30.5q-45 0 -77 30.5t-32 73.5zM0 1329q0 41 31.5 69.5t77.5 28.5q43 0 74.5 -28.5t31.5 -69.5t-31.5 -69.5t-74.5 -28.5q-45 0 -77 28.5t-32 69.5zM213 311q0 45 28.5 76t71.5 31 q41 0 70 -31t29 -76t-29 -75.5t-70 -30.5q-43 0 -71.5 30.5t-28.5 75.5zM403 512q0 41 31 69.5t76 28.5q43 0 73.5 -28.5t30.5 -69.5t-30.5 -69.5t-73.5 -28.5q-45 0 -76 28.5t-31 69.5zM614 309q0 43 31 74t74 31q41 0 71.5 -31t30.5 -74t-30.5 -73.5t-71.5 -30.5 q-43 0 -74 30.5t-31 73.5zM815 920q0 41 32 70.5t77 29.5t76.5 -29.5t31.5 -70.5q0 -43 -31.5 -73t-76.5 -30t-77 30t-32 73zM815 1122q0 41 32 71t77 30q43 0 74.5 -30t31.5 -71q0 -43 -31.5 -72.5t-74.5 -29.5q-45 0 -77 29.5t-32 72.5zM817 508q0 41 31 69.5t74 28.5 t73.5 -28.5t30.5 -69.5t-30.5 -69.5t-73.5 -28.5t-74 28.5t-31 69.5zM817 713q0 43 32 73.5t77 30.5q43 0 74.5 -30.5t31.5 -73.5q0 -45 -31.5 -76t-74.5 -31q-45 0 -77 31t-32 76zM817 1325q0 43 31 72.5t76 29.5t75.5 -29.5t30.5 -72.5t-30.5 -72.5t-75.5 -29.5t-76 29.5 t-31 72.5zM821 102q0 43 31 73t74 30q41 0 71.5 -30t30.5 -73t-30.5 -72.5t-71.5 -29.5q-43 0 -74 29.5t-31 72.5zM821 303q0 41 31 69.5t74 28.5q41 0 71.5 -28.5t30.5 -69.5q0 -43 -30.5 -71.5t-71.5 -28.5q-43 0 -74 28.5t-31 71.5z" />
<glyph unicode="X" horiz-adv-x="1228" d="M0 100q0 41 30.5 70t73.5 29t74 -29t31 -70q0 -43 -31 -71.5t-74 -28.5t-73.5 28.5t-30.5 71.5zM0 301q0 43 30.5 72.5t73.5 29.5t74 -29.5t31 -72.5t-31 -72.5t-74 -29.5t-73.5 29.5t-30.5 72.5zM0 1128q0 41 30.5 72t73.5 31t74 -31t31 -72q0 -43 -31 -73.5t-74 -30.5 t-73.5 30.5t-30.5 73.5zM0 1329q0 41 30.5 69.5t73.5 28.5t74 -28.5t31 -69.5t-31 -69.5t-74 -28.5t-73.5 28.5t-30.5 69.5zM201 915q0 39 31.5 68t76.5 29q43 0 75 -29t32 -68t-32 -67.5t-75 -28.5q-45 0 -76.5 28.5t-31.5 67.5zM203 504q0 45 30.5 75.5t73.5 30.5 t74 -30.5t31 -75.5t-31 -76t-74 -31t-73.5 31t-30.5 76zM412 713q0 43 29.5 72.5t72.5 29.5t72.5 -29.5t29.5 -72.5t-29.5 -73t-72.5 -30t-72.5 30t-29.5 73zM614 512q0 43 31 72.5t74 29.5t73.5 -29.5t30.5 -72.5t-30.5 -72.5t-73.5 -29.5t-74 29.5t-31 72.5zM616 918 q0 43 30 72.5t73 29.5t72.5 -29.5t29.5 -72.5t-29.5 -73t-72.5 -30t-73 30t-30 73zM815 104q0 41 32 72t77 31t76.5 -31t31.5 -72q0 -43 -31.5 -73.5t-76.5 -30.5t-77 30.5t-32 73.5zM821 1122q0 43 31 73t76 30q43 0 73.5 -30t30.5 -73t-30.5 -72.5t-73.5 -29.5 q-45 0 -76 29.5t-31 72.5zM821 1327q0 41 31 70.5t76 29.5q43 0 73.5 -29.5t30.5 -70.5q0 -43 -30.5 -72.5t-73.5 -29.5q-45 0 -76 29.5t-31 72.5zM823 309q0 41 31 71t74 30t73.5 -30t30.5 -71q0 -43 -30.5 -72.5t-73.5 -29.5t-74 29.5t-31 72.5z" />
<glyph unicode="Y" horiz-adv-x="1228" d="M0 100q0 41 30.5 70t73.5 29t74 -29t31 -70q0 -43 -31 -71.5t-74 -28.5t-73.5 28.5t-30.5 71.5zM0 301q0 43 30.5 72.5t73.5 29.5t74 -29.5t31 -72.5t-31 -72.5t-74 -29.5t-73.5 29.5t-30.5 72.5zM0 1128q0 41 30.5 72t73.5 31t74 -31t31 -72q0 -43 -31 -73.5t-74 -30.5 t-73.5 30.5t-30.5 73.5zM0 1329q0 41 30.5 69.5t73.5 28.5t74 -28.5t31 -69.5t-31 -69.5t-74 -28.5t-73.5 28.5t-30.5 69.5zM201 915q0 39 31.5 68t76.5 29q43 0 75 -29t32 -68t-32 -67.5t-75 -28.5q-45 0 -76.5 28.5t-31.5 67.5zM203 504q0 45 30.5 75.5t73.5 30.5 t74 -30.5t31 -75.5t-31 -76t-74 -31t-73.5 31t-30.5 76zM412 713q0 43 29.5 72.5t72.5 29.5t72.5 -29.5t29.5 -72.5t-29.5 -73t-72.5 -30t-72.5 30t-29.5 73zM616 918q0 43 30 72.5t73 29.5t72.5 -29.5t29.5 -72.5t-29.5 -73t-72.5 -30t-73 30t-30 73zM821 1122q0 43 31 73 t76 30q43 0 73.5 -30t30.5 -73t-30.5 -72.5t-73.5 -29.5q-45 0 -76 29.5t-31 72.5zM821 1327q0 41 31 70.5t76 29.5q43 0 73.5 -29.5t30.5 -70.5q0 -43 -30.5 -72.5t-73.5 -29.5q-45 0 -76 29.5t-31 72.5z" />
<glyph unicode="Z" d="M0 100q0 41 29.5 70t72.5 29t73 -29t30 -70q0 -43 -30 -71.5t-73 -28.5t-72.5 28.5t-29.5 71.5zM0 301q0 41 28.5 70.5t71.5 29.5q41 0 70 -29.5t29 -70.5q0 -43 -29 -72.5t-70 -29.5q-43 0 -71.5 29.5t-28.5 72.5zM0 1327q0 41 30.5 70.5t73.5 29.5q41 0 72 -29.5 t31 -70.5t-31 -70.5t-72 -29.5q-43 0 -73.5 29.5t-30.5 70.5zM199 504q0 43 30.5 72.5t73.5 29.5t74 -29.5t31 -72.5t-31 -73t-74 -30t-73.5 30t-30.5 73zM205 100q0 41 30.5 71t73.5 30t74 -30t31 -71t-31 -70.5t-74 -29.5t-73.5 29.5t-30.5 70.5zM207 1327q0 41 30.5 70.5 t73.5 29.5t74 -29.5t31 -70.5t-31 -70.5t-74 -29.5t-73.5 29.5t-30.5 70.5zM408 713q0 45 30.5 75.5t75.5 30.5q43 0 73.5 -30.5t30.5 -75.5t-30.5 -76t-73.5 -31q-45 0 -75.5 31t-30.5 76zM414 100q0 41 29.5 71t72.5 30q41 0 70.5 -30t29.5 -71t-29.5 -70.5t-70.5 -29.5 q-43 0 -72.5 29.5t-29.5 70.5zM416 1329q0 41 29.5 69.5t72.5 28.5q41 0 70.5 -28.5t29.5 -69.5t-29.5 -69.5t-70.5 -28.5q-43 0 -72.5 28.5t-29.5 69.5zM614 918q0 41 31 70.5t76 29.5t75.5 -30t30.5 -70q0 -43 -30.5 -73t-75.5 -30t-76 30t-31 73zM614 1124q0 45 30 76 t73 31q41 0 70.5 -31t29.5 -76t-29.5 -75.5t-70.5 -30.5q-43 0 -73 30.5t-30 75.5zM616 100q0 41 31 71t74 30t73.5 -30t30.5 -71t-30.5 -70.5t-73.5 -29.5t-74 29.5t-31 70.5zM618 1329q0 41 30 69.5t73 28.5t72.5 -28.5t29.5 -69.5t-29.5 -69.5t-72.5 -28.5t-73 28.5 t-30 69.5z" />
<glyph unicode="[" horiz-adv-x="614" d="M0 100q0 41 30.5 70t75.5 29q43 0 74 -29t31 -70q0 -43 -30.5 -71.5t-74.5 -28.5q-45 0 -75.5 28.5t-30.5 71.5zM0 305q0 39 30.5 67.5t75.5 28.5q43 0 74 -28.5t31 -67.5t-30.5 -67.5t-74.5 -28.5q-45 0 -75.5 28.5t-30.5 67.5zM0 512q0 45 30.5 77t73.5 32t74 -32 t31 -77q0 -47 -31 -79t-74 -32t-73.5 32t-30.5 79zM0 717q0 39 30.5 67.5t73.5 28.5t74 -28.5t31 -67.5t-31 -67.5t-74 -28.5t-73.5 28.5t-30.5 67.5zM0 920q0 43 30.5 73.5t73.5 30.5t74 -30.5t31 -73.5q0 -45 -31 -76t-74 -31t-73.5 31t-30.5 76zM0 1124q0 41 30.5 71 t73.5 30t74 -30t31 -71t-31 -70.5t-74 -29.5t-73.5 29.5t-30.5 70.5zM0 1329q0 41 29.5 69.5t72.5 28.5t73 -28.5t30 -69.5q0 -43 -30 -71.5t-73 -28.5t-72.5 28.5t-29.5 71.5zM205 1329q0 41 29.5 69.5t72.5 28.5t73 -28.5t30 -69.5q0 -43 -30 -71.5t-73 -28.5t-72.5 28.5 t-29.5 71.5zM211 104q0 43 29.5 74t72.5 31t73 -31t30 -74t-30 -73.5t-73 -30.5t-72.5 30.5t-29.5 73.5z" />
<glyph unicode="\" horiz-adv-x="1228" d="M6 1139q0 -43 30 -73t73 -30t72.5 30t29.5 73t-29.5 73.5t-72.5 30.5t-73 -30.5t-30 -73.5zM6 1343q0 -43 32 -71.5t75 -28.5q45 0 75.5 28.5t30.5 71.5q0 41 -30.5 71t-75.5 30q-43 0 -75 -30t-32 -71zM211 934q0 -41 29.5 -70.5t72.5 -29.5t73 29.5t30 70.5 q0 43 -30 72.5t-73 29.5t-72.5 -29.5t-29.5 -72.5zM416 729q0 -43 30.5 -72.5t73.5 -29.5t73 29.5t30 72.5t-30 74t-73 31t-73.5 -31t-30.5 -74zM623 522q0 -43 31.5 -72.5t74.5 -29.5q45 0 76 29.5t31 72.5t-31 74t-76 31q-43 0 -74.5 -31t-31.5 -74zM825 115q0 -41 31 -70 t76 -29q43 0 73.5 29t30.5 70t-30.5 69.5t-73.5 28.5q-45 0 -76 -28.5t-31 -69.5zM825 317q0 -43 31 -73.5t76 -30.5q43 0 73.5 30.5t30.5 73.5t-30.5 74t-73.5 31q-45 0 -76 -31t-31 -74z" />
<glyph unicode="]" horiz-adv-x="614" d="M10 115q0 -43 31 -74t72 -31q43 0 72.5 31t29.5 74q0 45 -29.5 74.5t-72.5 29.5q-41 0 -72 -29.5t-31 -74.5zM16 1339q0 -41 31 -70.5t72 -29.5q43 0 72.5 29.5t29.5 70.5t-29.5 70t-72.5 29q-41 0 -72 -29t-31 -70zM215 111q0 -41 32 -71t75 -30t73.5 30t30.5 71 t-30.5 69.5t-73.5 28.5t-75 -28.5t-32 -69.5zM215 315q0 -39 32 -67.5t75 -28.5t73.5 28.5t30.5 67.5q0 41 -30.5 69t-73.5 28t-75 -28t-32 -69zM217 522q0 -45 31 -77.5t74 -32.5q45 0 74.5 32.5t29.5 77.5t-29.5 77t-74.5 32q-43 0 -74 -32t-31 -77zM217 727 q0 -39 31 -67.5t74 -28.5q45 0 74.5 28.5t29.5 67.5q0 41 -29.5 68.5t-74.5 27.5q-43 0 -74 -27.5t-31 -68.5zM217 930q0 -43 31 -75t74 -32q45 0 74.5 32t29.5 75t-29.5 73.5t-74.5 30.5q-43 0 -74 -30.5t-31 -73.5zM217 1135q0 -41 31 -71t74 -30q45 0 74.5 30t29.5 71 q0 43 -29.5 71.5t-74.5 28.5q-43 0 -74 -28.5t-31 -71.5zM221 1339q0 -41 31 -70.5t72 -29.5q43 0 72.5 29.5t29.5 70.5t-29.5 70t-72.5 29q-41 0 -72 -29t-31 -70z" />
<glyph unicode="^" horiz-adv-x="817" d="M0 1126q0 39 30.5 68t75.5 29t76 -29t31 -68q0 -41 -30.5 -69.5t-76.5 -28.5q-45 0 -75.5 28.5t-30.5 69.5zM205 1325q0 41 31.5 71.5t76.5 30.5q43 0 75 -30.5t32 -71.5q0 -43 -32 -73.5t-75 -30.5q-45 0 -76.5 30.5t-31.5 73.5zM416 1126q0 43 29.5 74t72.5 31t73 -31 t30 -74t-30 -73.5t-73 -30.5t-72.5 30.5t-29.5 73.5z" />
<glyph unicode="_" d="M0 -106q0 45 30.5 75.5t75.5 30.5q43 0 74 -30.5t31 -75.5t-30.5 -76t-74.5 -31q-45 0 -75.5 31t-30.5 76zM211 -106q0 45 29.5 75.5t72.5 30.5t73 -30.5t30 -75.5t-30 -76t-73 -31t-72.5 31t-29.5 76zM416 -106q0 45 29.5 75.5t72.5 30.5t73 -30.5t30 -75.5t-30 -76 t-73 -31t-72.5 31t-29.5 76zM621 -106q0 45 29.5 75.5t72.5 30.5t72.5 -30.5t29.5 -75.5t-29.5 -76t-72.5 -31t-72.5 31t-29.5 76z" />
<glyph unicode="a" d="M0 307q0 39 30.5 67.5t75.5 28.5t76 -28.5t31 -67.5t-30.5 -67.5t-76.5 -28.5q-45 0 -75.5 28.5t-30.5 67.5zM203 506q0 41 30.5 69.5t73.5 28.5t74 -28.5t31 -69.5t-31 -69.5t-74 -28.5t-73.5 28.5t-30.5 69.5zM203 920q0 41 30.5 70.5t73.5 29.5t74 -29.5t31 -70.5 t-31 -71t-74 -30t-73.5 30t-30.5 71zM205 100q0 41 29.5 71t72.5 30q41 0 71 -30t30 -71t-30 -70.5t-71 -29.5q-43 0 -72.5 29.5t-29.5 70.5zM408 100q0 41 30.5 71t73.5 30q41 0 71.5 -30t30.5 -71t-30.5 -70.5t-71.5 -29.5q-43 0 -73.5 29.5t-30.5 70.5zM412 510 q0 39 29.5 66.5t70.5 27.5t70.5 -27.5t29.5 -66.5q0 -41 -29.5 -68.5t-70.5 -27.5t-70.5 27.5t-29.5 68.5zM412 920q0 41 30.5 70.5t75.5 29.5t76 -29.5t31 -70.5t-31 -71t-76 -30t-75.5 30t-30.5 71zM614 100q0 41 31 70t74 29q41 0 71.5 -29t30.5 -70q0 -43 -30.5 -71.5 t-71.5 -28.5q-43 0 -74 28.5t-31 71.5zM614 301q0 43 31 72.5t74 29.5t73.5 -29.5t30.5 -72.5t-30.5 -72.5t-73.5 -29.5t-74 29.5t-31 72.5zM614 510q0 43 31 73.5t76 30.5q43 0 73.5 -30.5t30.5 -73.5q0 -45 -30.5 -76t-73.5 -31q-45 0 -76 31t-31 76zM621 717 q0 43 29.5 72.5t72.5 29.5t72.5 -29.5t29.5 -72.5t-29.5 -73t-72.5 -30t-72.5 30t-29.5 73z" />
<glyph unicode="b" d="M0 100q0 41 30.5 71t75.5 30q43 0 74 -30t31 -71t-30.5 -70.5t-74.5 -29.5q-45 0 -75.5 29.5t-30.5 70.5zM0 305q0 41 30.5 72t75.5 31q43 0 74 -31t31 -72q0 -43 -30.5 -73.5t-74.5 -30.5q-45 0 -75.5 30.5t-30.5 73.5zM0 512q0 41 30.5 71.5t75.5 30.5q43 0 74 -30.5 t31 -71.5q0 -43 -30.5 -73.5t-74.5 -30.5q-45 0 -75.5 30.5t-30.5 73.5zM0 715q0 41 30.5 70.5t75.5 29.5q43 0 74 -29.5t31 -70.5t-30.5 -71t-74.5 -30q-45 0 -75.5 30t-30.5 71zM0 918q0 41 30.5 70.5t75.5 29.5q43 0 74 -30t31 -70q0 -43 -30.5 -73t-74.5 -30 q-45 0 -75.5 30t-30.5 73zM0 1122q0 43 30.5 74t75.5 31q43 0 74 -31t31 -74t-30.5 -73.5t-74.5 -30.5q-45 0 -75.5 30.5t-30.5 73.5zM0 1327q0 41 30.5 70.5t75.5 29.5q43 0 74 -29.5t31 -70.5t-30.5 -70.5t-74.5 -29.5q-45 0 -75.5 29.5t-30.5 70.5zM207 920 q0 41 29.5 70.5t72.5 29.5t73 -29.5t30 -70.5t-30 -71t-73 -30t-72.5 30t-29.5 71zM211 102q0 43 29.5 73t72.5 30q41 0 71 -30t30 -73t-30 -72.5t-71 -29.5q-43 0 -72.5 29.5t-29.5 72.5zM412 915q0 43 29.5 74t70.5 31t70.5 -31t29.5 -74t-29.5 -73.5t-70.5 -30.5 t-70.5 30.5t-29.5 73.5zM414 102q0 43 30.5 73t73.5 30t74 -30t31 -73t-31 -72.5t-74 -29.5t-73.5 29.5t-30.5 72.5zM610 506q0 39 32 67.5t79 28.5q45 0 76.5 -28.5t31.5 -67.5q0 -41 -31.5 -69.5t-76.5 -28.5q-47 0 -79 28.5t-32 69.5zM610 709q0 45 31 75.5t76 30.5 t75.5 -30.5t30.5 -75.5t-30.5 -76t-75.5 -31t-76 31t-31 76zM616 303q0 43 31 74t76 31t75.5 -31t30.5 -74q0 -45 -30.5 -75.5t-75.5 -30.5t-76 30.5t-31 75.5z" />
<glyph unicode="c" d="M0 303q0 41 30.5 72t75.5 31t76 -31t31 -72q0 -43 -30.5 -73.5t-76.5 -30.5q-45 0 -75.5 30.5t-30.5 73.5zM0 508q0 43 30.5 72.5t75.5 29.5t76 -29.5t31 -72.5t-30.5 -72.5t-76.5 -29.5q-45 0 -75.5 29.5t-30.5 72.5zM0 717q0 43 29.5 73.5t72.5 30.5q41 0 71 -30.5 t30 -73.5q0 -45 -30 -76t-71 -31q-43 0 -72.5 31t-29.5 76zM203 96q0 39 30.5 68t75.5 29q43 0 74 -29t31 -68t-31 -67.5t-74 -28.5q-45 0 -75.5 28.5t-30.5 67.5zM203 922q0 41 30.5 69.5t73.5 28.5q41 0 72 -28.5t31 -69.5q0 -43 -31 -72t-72 -29q-43 0 -73.5 29t-30.5 72 zM410 918q0 41 30.5 71.5t73.5 30.5q41 0 71.5 -31t30.5 -71q0 -43 -30.5 -74t-71.5 -31q-43 0 -73.5 31t-30.5 74zM414 100q0 41 29.5 70t72.5 29q41 0 70.5 -29t29.5 -70q0 -43 -29.5 -71.5t-70.5 -28.5q-43 0 -72.5 28.5t-29.5 71.5zM614 715q0 41 31 70.5t74 29.5 q41 0 71.5 -29.5t30.5 -70.5t-30.5 -71t-71.5 -30q-43 0 -74 30t-31 71zM616 303q0 43 30 74t73 31q41 0 70.5 -31t29.5 -74t-29.5 -73.5t-70.5 -30.5q-43 0 -73 30.5t-30 73.5z" />
<glyph unicode="d" d="M-14 303q0 -45 30.5 -75.5t75.5 -30.5t76 30.5t31 75.5q0 43 -31 74t-76 31t-75.5 -31t-30.5 -74zM-14 506q0 -41 31.5 -69.5t78.5 -28.5q45 0 77 28.5t32 69.5q0 39 -32 67.5t-77 28.5q-47 0 -78.5 -28.5t-31.5 -67.5zM-8 709q0 -45 30.5 -76t75.5 -31t76 31t31 76 t-31 75.5t-76 30.5t-75.5 -30.5t-30.5 -75.5zM193 102q0 -43 30.5 -72.5t73.5 -29.5t73.5 29.5t30.5 72.5t-30.5 73t-73.5 30t-73.5 -30t-30.5 -73zM203 915q0 -43 29.5 -73.5t70.5 -30.5t70.5 30.5t29.5 73.5t-29.5 74t-70.5 31t-70.5 -31t-29.5 -74zM401 102 q0 -43 30 -72.5t73 -29.5q41 0 70.5 29.5t29.5 72.5t-29.5 73t-70.5 30q-43 0 -73 -30t-30 -73zM403 920q0 -41 30 -71t73 -30t72.5 30t29.5 71t-29.5 70.5t-72.5 29.5t-73 -29.5t-30 -70.5zM604 100q0 -41 31 -70.5t76 -29.5q43 0 73.5 29.5t30.5 70.5t-30.5 71t-73.5 30 q-45 0 -76 -30t-31 -71zM604 305q0 -43 31 -73.5t76 -30.5q43 0 73.5 30.5t30.5 73.5q0 41 -30.5 72t-73.5 31q-45 0 -76 -31t-31 -72zM604 512q0 -43 31 -73.5t76 -30.5q43 0 73.5 30.5t30.5 73.5q0 41 -30.5 71.5t-73.5 30.5q-45 0 -76 -30.5t-31 -71.5zM604 715 q0 -41 31 -71t76 -30q43 0 73.5 30t30.5 71t-30.5 70.5t-73.5 29.5q-45 0 -76 -29.5t-31 -70.5zM604 918q0 -43 31 -73t76 -30q43 0 73.5 30t30.5 73q0 41 -30.5 70.5t-73.5 29.5q-45 0 -76 -30t-31 -70zM604 1122q0 -43 31 -73.5t76 -30.5q43 0 73.5 30.5t30.5 73.5 t-30.5 74t-73.5 31q-45 0 -76 -31t-31 -74zM604 1327q0 -41 31 -70.5t76 -29.5q43 0 73.5 29.5t30.5 70.5t-30.5 70.5t-73.5 29.5q-45 0 -76 -29.5t-31 -70.5z" />
<glyph unicode="e" d="M0 303q0 41 30.5 69.5t73.5 28.5t74 -28.5t31 -69.5q0 -43 -31 -71.5t-74 -28.5t-73.5 28.5t-30.5 71.5zM0 506q0 41 30.5 70.5t73.5 29.5q41 0 72 -29.5t31 -70.5t-31 -70.5t-72 -29.5q-43 0 -73.5 29.5t-30.5 70.5zM0 713q0 43 30.5 73.5t73.5 30.5q41 0 72 -30.5 t31 -73.5q0 -45 -31 -76t-72 -31q-43 0 -73.5 31t-30.5 76zM203 915q0 41 30.5 71t73.5 30t74 -30t31 -71t-31 -70.5t-74 -29.5t-73.5 29.5t-30.5 70.5zM207 96q0 39 30.5 68t73.5 29t74 -29t31 -68t-31 -67.5t-74 -28.5t-73.5 28.5t-30.5 67.5zM207 508q0 41 29.5 70.5 t72.5 29.5q41 0 71 -29.5t30 -70.5q0 -43 -30 -72.5t-71 -29.5q-43 0 -72.5 29.5t-29.5 72.5zM410 508q0 41 30.5 70.5t73.5 29.5q41 0 71.5 -29.5t30.5 -70.5t-30.5 -70.5t-71.5 -29.5q-43 0 -73.5 29.5t-30.5 70.5zM412 920q0 43 29.5 73.5t72.5 30.5q41 0 70.5 -30.5 t29.5 -73.5t-29.5 -74t-70.5 -31q-43 0 -72.5 31t-29.5 74zM416 100q0 41 29.5 70t72.5 29t73 -29t30 -70q0 -43 -30 -71.5t-73 -28.5t-72.5 28.5t-29.5 71.5zM616 508q0 41 31 70.5t74 29.5t73.5 -29.5t30.5 -70.5t-30.5 -70.5t-73.5 -29.5t-74 29.5t-31 70.5zM616 715 q0 45 31 75.5t74 30.5t73.5 -30.5t30.5 -75.5t-30.5 -76t-73.5 -31t-74 31t-31 76z" />
<glyph unicode="f" horiz-adv-x="817" d="M0 715q0 41 30.5 69.5t73.5 28.5q41 0 72 -28.5t31 -69.5q0 -43 -31 -72t-72 -29q-43 0 -73.5 29t-30.5 72zM201 100q0 41 30.5 71t75.5 30t76 -30t31 -71t-31 -70.5t-76 -29.5t-75.5 29.5t-30.5 70.5zM201 305q0 43 31.5 74t78.5 31q45 0 77 -31t32 -74t-32 -73.5 t-77 -30.5q-47 0 -78.5 30.5t-31.5 73.5zM203 510q0 41 31.5 70.5t76.5 29.5t77 -29.5t32 -70.5t-32 -70.5t-77 -29.5t-76.5 29.5t-31.5 70.5zM203 717q0 43 30.5 73.5t75.5 30.5q43 0 74 -30.5t31 -73.5q0 -45 -31 -76t-74 -31q-45 0 -75.5 31t-30.5 76zM205 924 q0 41 30.5 70.5t73.5 29.5t74 -29.5t31 -70.5q0 -43 -31 -73t-74 -30t-73.5 30t-30.5 73zM205 1126q0 43 29.5 73t70.5 30t71 -30t30 -73t-30 -72.5t-71 -29.5t-70.5 29.5t-29.5 72.5zM406 713q0 41 30.5 70.5t73.5 29.5t72.5 -29.5t29.5 -70.5q0 -43 -29.5 -72t-72.5 -29 t-73.5 29t-30.5 72zM406 1329q0 41 30.5 69.5t73.5 28.5t73.5 -28.5t30.5 -69.5q0 -43 -30.5 -71.5t-73.5 -28.5t-73.5 28.5t-30.5 71.5z" />
<glyph unicode="g" d="M0 301q0 41 29.5 71.5t70.5 30.5t71 -30.5t30 -71.5q0 -43 -30 -73.5t-71 -30.5t-70.5 30.5t-29.5 73.5zM0 -307q0 41 30.5 69.5t73.5 28.5t74 -28.5t31 -69.5t-31 -70t-74 -29t-73.5 29t-30.5 70zM0 508q0 43 30.5 73.5t75.5 30.5q43 0 74 -30.5t31 -73.5t-30.5 -74 t-74.5 -31q-45 0 -75.5 31t-30.5 74zM0 713q0 41 30.5 69.5t75.5 28.5q43 0 74 -28.5t31 -69.5q0 -43 -30.5 -72t-74.5 -29q-45 0 -75.5 29t-30.5 72zM199 909q0 43 31.5 73t76.5 30q43 0 75 -30t32 -73t-32 -72.5t-75 -29.5q-45 0 -76.5 29.5t-31.5 72.5zM201 98 q0 41 30.5 70t73.5 29t74 -29t31 -70t-31 -69.5t-74 -28.5t-73.5 28.5t-30.5 69.5zM209 -307q0 41 30.5 69.5t73.5 28.5q41 0 72 -28.5t31 -69.5t-31 -70t-72 -29q-43 0 -73.5 29t-30.5 70zM410 100q0 41 29.5 71t72.5 30t72.5 -30t29.5 -71t-29.5 -70.5t-72.5 -29.5 t-72.5 29.5t-29.5 70.5zM414 918q0 39 29.5 66.5t70.5 27.5t70.5 -28t29.5 -66q0 -41 -29.5 -69t-70.5 -28t-70.5 28t-29.5 69zM416 -307q0 41 29.5 69.5t70.5 28.5t70.5 -28.5t29.5 -69.5t-29.5 -70t-70.5 -29t-70.5 29t-29.5 70zM612 303q0 41 32 70.5t77 29.5 q43 0 74.5 -29.5t31.5 -70.5q0 -43 -31.5 -72.5t-74.5 -29.5q-45 0 -77 29.5t-32 72.5zM614 100q0 41 31 71t76 30t75.5 -30t30.5 -71t-30.5 -70.5t-75.5 -29.5t-76 29.5t-31 70.5zM614 922q0 41 32 69.5t77 28.5q43 0 74.5 -28.5t31.5 -69.5q0 -43 -31.5 -72t-74.5 -29 q-45 0 -77 29t-32 72zM616 -104q0 43 31 73.5t76 30.5q43 0 73.5 -30.5t30.5 -73.5t-30.5 -74t-73.5 -31q-45 0 -76 31t-31 74zM616 506q0 43 31 72.5t76 29.5q43 0 73.5 -29.5t30.5 -72.5t-30.5 -73t-73.5 -30q-45 0 -76 30t-31 73zM616 715q0 43 30 73.5t73 30.5 q41 0 70.5 -30.5t29.5 -73.5q0 -45 -29.5 -76t-70.5 -31q-43 0 -73 31t-30 76z" />
<glyph unicode="h" d="M0 100q0 41 30.5 71t73.5 30q41 0 72 -30t31 -71t-31 -70.5t-72 -29.5q-43 0 -73.5 29.5t-30.5 70.5zM0 303q0 41 30.5 70.5t73.5 29.5t74 -29.5t31 -70.5q0 -43 -31 -72.5t-74 -29.5t-73.5 29.5t-30.5 72.5zM0 508q0 43 30.5 73.5t73.5 30.5t74 -30.5t31 -73.5t-31 -74 t-74 -31t-73.5 31t-30.5 74zM0 717q0 41 30.5 71.5t73.5 30.5q41 0 72 -30.5t31 -71.5q0 -43 -31 -74t-72 -31q-43 0 -73.5 31t-30.5 74zM0 922q0 43 30.5 72.5t73.5 29.5q41 0 72 -29.5t31 -72.5t-31 -73t-72 -30q-43 0 -73.5 30t-30.5 73zM0 1126q0 43 30.5 73t73.5 30 t74 -30t31 -73t-31 -72.5t-74 -29.5t-73.5 29.5t-30.5 72.5zM0 1329q0 41 30.5 69.5t73.5 28.5t74 -28.5t31 -69.5q0 -43 -31 -71.5t-74 -28.5t-73.5 28.5t-30.5 71.5zM207 920q0 43 29.5 72.5t70.5 29.5t71 -29.5t30 -72.5t-30 -73t-71 -30t-70.5 30t-29.5 73zM408 922 q0 41 29.5 70.5t72.5 29.5t72.5 -29.5t29.5 -70.5q0 -43 -29.5 -73t-72.5 -30t-72.5 30t-29.5 73zM610 303q0 41 31 72t76 31q43 0 73.5 -31t30.5 -72q0 -43 -30.5 -73.5t-73.5 -30.5q-45 0 -76 30.5t-31 73.5zM610 506q0 41 32 70.5t77 29.5q43 0 74.5 -29.5t31.5 -70.5 t-31.5 -70.5t-74.5 -29.5q-45 0 -77 29.5t-32 70.5zM612 713q0 45 31 75.5t76 30.5t75.5 -30.5t30.5 -75.5t-30.5 -76t-75.5 -31t-76 31t-31 76zM616 100q0 41 30 70t73 29t72.5 -29t29.5 -70q0 -43 -29.5 -71.5t-72.5 -28.5t-73 28.5t-30 71.5z" />
<glyph unicode="i" horiz-adv-x="817" d="M0 100q0 41 30.5 71t75.5 30q43 0 74 -30t31 -71t-30.5 -70.5t-74.5 -29.5q-45 0 -75.5 29.5t-30.5 70.5zM0 922q0 39 30.5 67.5t75.5 28.5t76 -28.5t31 -67.5t-30.5 -68t-76.5 -29q-45 0 -75.5 29t-30.5 68zM201 305q0 41 31.5 71t76.5 30q43 0 75 -30t32 -71 q0 -43 -32 -72.5t-75 -29.5q-45 0 -76.5 29.5t-31.5 72.5zM201 510q0 43 31.5 73.5t76.5 30.5q43 0 75 -30.5t32 -73.5t-32 -73.5t-75 -30.5q-45 0 -76.5 30.5t-31.5 73.5zM201 717q0 43 30.5 72.5t75.5 29.5q43 0 74 -29.5t31 -72.5t-31 -73t-74 -30q-45 0 -75.5 30 t-30.5 73zM201 1327q0 41 30.5 70.5t75.5 29.5t76 -29.5t31 -70.5t-31 -70.5t-76 -29.5t-75.5 29.5t-30.5 70.5zM211 100q0 41 29.5 71t70.5 30t71 -30t30 -71t-30 -70.5t-71 -29.5t-70.5 29.5t-29.5 70.5zM213 920q0 41 28.5 69.5t71.5 28.5q41 0 70 -28.5t29 -69.5 q0 -43 -29 -72t-70 -29q-43 0 -71.5 29t-28.5 72zM412 100q0 41 29.5 71t72.5 30t72.5 -30t29.5 -71t-29.5 -70.5t-72.5 -29.5t-72.5 29.5t-29.5 70.5z" />
<glyph unicode="j" horiz-adv-x="817" d="M-209 -106q0 45 31 75.5t74 30.5t73.5 -30.5t30.5 -75.5q0 -43 -30.5 -74t-73.5 -31t-74 31t-31 74zM0 -309q0 41 29.5 69.5t72.5 28.5t73 -28.5t30 -69.5q0 -39 -30 -68t-73 -29t-72.5 29t-29.5 68zM205 -305q0 43 29.5 72.5t70.5 29.5t71 -29.5t30 -72.5q0 -41 -30 -71 t-71 -30t-70.5 30t-29.5 71zM205 922q0 39 30.5 67.5t73.5 28.5t74 -28.5t31 -67.5t-31 -68t-74 -29t-73.5 29t-30.5 68zM406 -102q0 43 30.5 72.5t75.5 29.5t75.5 -29.5t30.5 -72.5q0 -41 -30.5 -71t-75.5 -30t-75.5 30t-30.5 71zM406 104q0 41 30.5 72t75.5 31 q43 0 73.5 -31t30.5 -72q0 -43 -30.5 -73.5t-73.5 -30.5q-45 0 -75.5 30.5t-30.5 73.5zM406 309q0 43 31.5 73t76.5 30q43 0 75 -30t32 -73t-32 -72.5t-75 -29.5q-45 0 -76.5 29.5t-31.5 72.5zM408 512q0 41 30.5 70.5t75.5 29.5t76 -29.5t31 -70.5t-31 -70.5t-76 -29.5 t-75.5 29.5t-30.5 70.5zM408 717q0 41 30.5 71.5t73.5 30.5t73.5 -30.5t30.5 -71.5q0 -43 -30.5 -74t-73.5 -31t-73.5 31t-30.5 74zM412 1329q0 41 29.5 69.5t70.5 28.5t70.5 -28.5t29.5 -69.5q0 -43 -29.5 -71.5t-70.5 -28.5t-70.5 28.5t-29.5 71.5zM414 920 q0 41 29.5 69.5t72.5 28.5q41 0 70.5 -28.5t29.5 -69.5q0 -43 -29.5 -72t-70.5 -29q-43 0 -72.5 29t-29.5 72z" />
<glyph unicode="k" d="M0 100q0 41 30.5 71t73.5 30t74 -30t31 -71t-31 -70.5t-74 -29.5t-73.5 29.5t-30.5 70.5zM0 305q0 41 30.5 71t73.5 30q41 0 72 -30t31 -71q0 -43 -31 -72.5t-72 -29.5q-43 0 -73.5 29.5t-30.5 72.5zM0 512q0 41 29.5 70.5t72.5 29.5t73 -29.5t30 -70.5q0 -43 -30 -72.5 t-73 -29.5t-72.5 29.5t-29.5 72.5zM0 719q0 43 30.5 73.5t75.5 30.5q43 0 74 -30.5t31 -73.5q0 -45 -30.5 -76t-74.5 -31q-45 0 -75.5 31t-30.5 76zM0 924q0 41 30.5 70.5t75.5 29.5q43 0 74 -29.5t31 -70.5t-30.5 -71t-74.5 -30q-45 0 -75.5 30t-30.5 71zM0 1126 q0 41 30.5 71t73.5 30t74 -30t31 -71q0 -43 -31 -72.5t-74 -29.5t-73.5 29.5t-30.5 72.5zM0 1327q0 41 30.5 70.5t73.5 29.5t74 -29.5t31 -70.5t-31 -70.5t-74 -29.5t-73.5 29.5t-30.5 70.5zM205 512q0 41 29.5 70.5t72.5 29.5t73 -29.5t30 -70.5q0 -43 -30 -72.5t-73 -29.5 t-72.5 29.5t-29.5 72.5zM410 305q0 41 29.5 71t70.5 30t70.5 -30t29.5 -71q0 -43 -29.5 -72.5t-70.5 -29.5t-70.5 29.5t-29.5 72.5zM410 715q0 41 30.5 70.5t75.5 29.5t76 -29.5t31 -70.5q0 -43 -31 -73t-76 -30t-75.5 30t-30.5 73zM610 102q0 41 31 71t76 30t75.5 -30 t30.5 -71q0 -43 -30.5 -72.5t-75.5 -29.5t-76 29.5t-31 72.5zM623 918q0 41 29.5 70.5t70.5 29.5t70.5 -30t29.5 -70q0 -43 -29.5 -73t-70.5 -30t-70.5 30t-29.5 73z" />
<glyph unicode="l" horiz-adv-x="817" d="M0 98q0 41 30.5 70t73.5 29q41 0 72 -29t31 -70t-31 -69.5t-72 -28.5q-43 0 -73.5 28.5t-30.5 69.5zM0 1331q0 39 30.5 67.5t73.5 28.5t74 -28.5t31 -67.5q0 -41 -31 -69.5t-74 -28.5t-73.5 28.5t-30.5 69.5zM203 510q0 41 31.5 71.5t76.5 30.5q43 0 75 -30.5t32 -71.5 q0 -43 -32 -73.5t-75 -30.5q-45 0 -76.5 30.5t-31.5 73.5zM203 715q0 41 30.5 70.5t73.5 29.5t74 -29.5t31 -70.5q0 -43 -31 -73t-74 -30t-73.5 30t-30.5 73zM205 920q0 41 30.5 71.5t73.5 30.5q41 0 72 -30.5t31 -71.5q0 -43 -31 -74t-72 -31q-43 0 -73.5 31t-30.5 74z M205 1122q0 41 30.5 71t73.5 30q41 0 72 -30t31 -71t-31 -70.5t-72 -29.5q-43 0 -73.5 29.5t-30.5 70.5zM207 100q0 41 29.5 71t72.5 30t73 -30t30 -71t-30 -70.5t-73 -29.5t-72.5 29.5t-29.5 70.5zM207 303q0 43 30.5 73t75.5 30q43 0 74 -30t31 -73t-31 -72.5t-74 -29.5 q-45 0 -75.5 29.5t-30.5 72.5zM209 1331q0 39 30.5 67.5t73.5 28.5q41 0 72 -28.5t31 -67.5q0 -41 -31 -69.5t-72 -28.5q-43 0 -73.5 28.5t-30.5 69.5zM412 100q0 41 30.5 71t73.5 30t74 -30t31 -71t-31 -70.5t-74 -29.5t-73.5 29.5t-30.5 70.5z" />
<glyph unicode="m" horiz-adv-x="1228" d="M0 100q0 41 29.5 71t72.5 30t73 -30t30 -71t-30 -70.5t-73 -29.5t-72.5 29.5t-29.5 70.5zM0 303q0 41 29.5 70.5t72.5 29.5t73 -29.5t30 -70.5q0 -43 -30 -72.5t-73 -29.5t-72.5 29.5t-29.5 72.5zM0 506q0 41 30.5 70.5t75.5 29.5t76 -29.5t31 -70.5q0 -43 -30.5 -73 t-76.5 -30q-45 0 -75.5 30t-30.5 73zM0 711q0 43 30.5 73.5t75.5 30.5t76 -30.5t31 -73.5t-30.5 -74t-76.5 -31q-45 0 -75.5 31t-30.5 74zM0 918q0 41 30.5 70.5t73.5 29.5q41 0 72 -30t31 -70q0 -43 -31 -73t-72 -30q-43 0 -73.5 30t-30.5 73zM207 922q0 39 30.5 67.5 t73.5 28.5q41 0 72 -28.5t31 -67.5q0 -41 -31 -70t-72 -29q-43 0 -73.5 29t-30.5 70zM408 104q0 41 30.5 72t75.5 31q43 0 73.5 -31t30.5 -72q0 -43 -30.5 -73.5t-73.5 -30.5q-45 0 -75.5 30.5t-30.5 73.5zM408 309q0 41 30.5 71t75.5 30q43 0 73.5 -30t30.5 -71 q0 -43 -30.5 -72.5t-73.5 -29.5q-45 0 -75.5 29.5t-30.5 72.5zM408 512q0 43 30.5 72.5t75.5 29.5q43 0 73.5 -29.5t30.5 -72.5t-30.5 -72.5t-73.5 -29.5q-45 0 -75.5 29.5t-30.5 72.5zM414 719q0 43 29.5 73.5t72.5 30.5t72.5 -30.5t29.5 -73.5t-29.5 -74t-72.5 -31 t-72.5 31t-29.5 74zM616 918q0 41 30 70.5t73 29.5q41 0 70.5 -30t29.5 -70q0 -41 -29.5 -71t-70.5 -30q-43 0 -73 30t-30 71zM815 100q0 41 32 71t77 30q43 0 74.5 -30t31.5 -71t-31.5 -70.5t-74.5 -29.5q-45 0 -77 29.5t-32 70.5zM817 305q0 41 31 72t76 31t75.5 -31 t30.5 -72q0 -43 -30.5 -73.5t-75.5 -30.5t-76 30.5t-31 73.5zM817 508q0 41 31 70.5t76 29.5t75.5 -29.5t30.5 -70.5t-30.5 -70.5t-75.5 -29.5t-76 29.5t-31 70.5zM819 713q0 43 31 73.5t76 30.5q43 0 73.5 -30.5t30.5 -73.5t-30.5 -74t-73.5 -31q-45 0 -76 31t-31 74z" />
<glyph unicode="n" d="M0 98q0 41 30.5 70t75.5 29q43 0 74 -29t31 -70t-30.5 -69.5t-74.5 -28.5q-45 0 -75.5 28.5t-30.5 69.5zM0 301q0 41 30.5 71.5t75.5 30.5q43 0 74 -30.5t31 -71.5q0 -43 -30.5 -73.5t-74.5 -30.5q-45 0 -75.5 30.5t-30.5 73.5zM0 508q0 41 30.5 71.5t73.5 30.5 q41 0 72 -30.5t31 -71.5q0 -43 -31 -74t-72 -31q-43 0 -73.5 31t-30.5 74zM0 711q0 41 30.5 70.5t73.5 29.5q41 0 72 -29.5t31 -70.5t-31 -71t-72 -30q-43 0 -73.5 30t-30.5 71zM0 915q0 43 30.5 74t73.5 31q41 0 72 -31t31 -74t-31 -73.5t-72 -30.5q-43 0 -73.5 30.5 t-30.5 73.5zM209 920q0 41 29.5 70.5t70.5 29.5t71 -29.5t30 -70.5q0 -43 -30 -73t-71 -30t-70.5 30t-29.5 73zM410 918q0 41 30.5 69.5t73.5 28.5q41 0 71.5 -29t30.5 -69q0 -43 -30.5 -72t-71.5 -29q-43 0 -73.5 29t-30.5 72zM610 305q0 43 31 73t76 30q43 0 73.5 -30 t30.5 -73t-30.5 -72.5t-73.5 -29.5q-45 0 -76 29.5t-31 72.5zM610 512q0 41 32 71.5t77 30.5q43 0 74.5 -30.5t31.5 -71.5q0 -43 -31.5 -73.5t-74.5 -30.5q-45 0 -77 30.5t-32 73.5zM616 102q0 41 30 71t73 30t72.5 -30t29.5 -71q0 -43 -29.5 -72.5t-72.5 -29.5t-73 29.5 t-30 72.5zM616 715q0 41 31 70.5t74 29.5t73.5 -29.5t30.5 -70.5t-30.5 -71t-73.5 -30t-74 30t-31 71z" />
<glyph unicode="o" d="M0 307q0 41 30.5 71t73.5 30t74 -30t31 -71q0 -43 -31 -72.5t-74 -29.5t-73.5 29.5t-30.5 72.5zM0 512q0 41 30.5 71.5t73.5 30.5t74 -30.5t31 -71.5q0 -43 -31 -73.5t-74 -30.5t-73.5 30.5t-30.5 73.5zM0 711q0 39 30.5 67.5t73.5 28.5t74 -28.5t31 -67.5t-31 -68 t-74 -29t-73.5 29t-30.5 68zM203 920q0 41 30.5 70.5t73.5 29.5q41 0 72 -29.5t31 -70.5q0 -43 -31 -73t-72 -30q-43 0 -73.5 30t-30.5 73zM209 102q0 43 29.5 73t72.5 30q41 0 71 -30t30 -73t-30 -72.5t-71 -29.5q-43 0 -72.5 29.5t-29.5 72.5zM410 924q0 39 30.5 67.5 t73.5 28.5t73.5 -28.5t30.5 -67.5q0 -41 -30.5 -70t-73.5 -29t-73.5 29t-30.5 70zM412 100q0 41 30.5 71t73.5 30q41 0 71.5 -30t30.5 -71t-30.5 -70.5t-71.5 -29.5q-43 0 -73.5 29.5t-30.5 70.5zM612 506q0 43 31 72.5t76 29.5q43 0 73.5 -29.5t30.5 -72.5t-30.5 -73 t-73.5 -30q-45 0 -76 30t-31 73zM612 713q0 41 31 71.5t76 30.5q43 0 73.5 -30.5t30.5 -71.5q0 -43 -30.5 -74t-73.5 -31q-45 0 -76 31t-31 74zM618 303q0 41 30 70.5t73 29.5t72.5 -29.5t29.5 -70.5q0 -43 -29.5 -72.5t-72.5 -29.5t-73 29.5t-30 72.5z" />
<glyph unicode="p" d="M0 102q0 43 30.5 73t75.5 30t76 -30t31 -73t-30.5 -72.5t-76.5 -29.5q-45 0 -75.5 29.5t-30.5 72.5zM0 -104q0 43 30.5 73.5t73.5 30.5t74 -30.5t31 -73.5t-31 -74t-74 -31t-73.5 31t-30.5 74zM0 305q0 41 30.5 69.5t75.5 28.5t76 -28.5t31 -69.5q0 -43 -30.5 -71.5 t-76.5 -28.5q-45 0 -75.5 28.5t-30.5 71.5zM0 -307q0 41 30.5 69.5t73.5 28.5t74 -28.5t31 -69.5t-31 -70t-74 -29t-73.5 29t-30.5 70zM0 506q0 41 30.5 70.5t73.5 29.5q41 0 72 -29.5t31 -70.5q0 -43 -31 -73t-72 -30q-43 0 -73.5 30t-30.5 73zM0 711q0 43 30.5 73.5 t73.5 30.5q41 0 72 -30.5t31 -73.5t-31 -74t-72 -31q-43 0 -73.5 31t-30.5 74zM0 918q0 43 30.5 72.5t75.5 29.5q43 0 74 -29.5t31 -72.5t-30.5 -73t-74.5 -30q-45 0 -75.5 30t-30.5 73zM211 920q0 41 29.5 70.5t70.5 29.5t71 -29.5t30 -70.5t-30 -71t-71 -30t-70.5 30 t-29.5 71zM215 100q0 41 27.5 71t68.5 30q39 0 67 -30t28 -71t-28 -70.5t-67 -29.5q-41 0 -68.5 29.5t-27.5 70.5zM406 100q0 41 31.5 71t76.5 30t77 -30t32 -71t-32 -70.5t-77 -29.5t-76.5 29.5t-31.5 70.5zM412 920q0 41 30.5 70.5t73.5 29.5t74 -29.5t31 -70.5t-31 -71 t-74 -30t-73.5 30t-30.5 71zM612 305q0 41 31 71t76 30q43 0 73.5 -30t30.5 -71q0 -43 -30.5 -72.5t-73.5 -29.5q-45 0 -76 29.5t-31 72.5zM612 510q0 41 31 71.5t74 30.5t73.5 -30.5t30.5 -71.5q0 -43 -30.5 -73.5t-73.5 -30.5t-74 30.5t-31 73.5zM623 719q0 43 28.5 73.5 t71.5 30.5q41 0 69.5 -30.5t28.5 -73.5q0 -45 -28.5 -76t-69.5 -31q-43 0 -71.5 31t-28.5 76z" />
<glyph unicode="q" d="M0 305q0 -43 30.5 -72.5t75.5 -29.5q43 0 74 29.5t31 72.5q0 41 -30.5 71t-74.5 30q-45 0 -75.5 -30t-30.5 -71zM2 510q0 -43 30.5 -73.5t73.5 -30.5t74 30.5t31 73.5q0 41 -30.5 71.5t-74.5 30.5q-43 0 -73.5 -30.5t-30.5 -71.5zM2 719q0 -45 28.5 -76t71.5 -31 q41 0 70 31t29 76q0 43 -29 73.5t-70 30.5q-43 0 -71.5 -30.5t-28.5 -73.5zM201 100q0 -41 31.5 -70.5t76.5 -29.5t77 29.5t32 70.5t-32 71t-77 30t-76.5 -30t-31.5 -71zM203 920q0 -41 30.5 -71t73.5 -30t74 30t31 71t-31 70.5t-74 29.5t-73.5 -29.5t-30.5 -70.5zM412 920 q0 -41 29.5 -71t70.5 -30t70.5 30t29.5 71t-29.5 70.5t-70.5 29.5t-70.5 -29.5t-29.5 -70.5zM418 100q0 -41 27.5 -70.5t68.5 -29.5q39 0 66.5 29.5t27.5 70.5t-27.5 71t-66.5 30q-41 0 -68.5 -30t-27.5 -71zM610 102q0 -43 31 -72.5t76 -29.5t75.5 29.5t30.5 72.5t-30.5 73 t-75.5 30t-76 -30t-31 -73zM610 305q0 -43 31 -71.5t76 -28.5t75.5 28.5t30.5 71.5q0 41 -30.5 69.5t-75.5 28.5t-76 -28.5t-31 -69.5zM612 918q0 -43 31 -73t76 -30q43 0 73.5 30t30.5 73t-30.5 72.5t-73.5 29.5q-45 0 -76 -29.5t-31 -72.5zM614 -104q0 -43 31 -74t74 -31 t73.5 31t30.5 74t-30.5 73.5t-73.5 30.5t-74 -30.5t-31 -73.5zM614 -307q0 -41 31 -70t74 -29t73.5 29t30.5 70t-30.5 69.5t-73.5 28.5t-74 -28.5t-31 -69.5zM616 506q0 -43 31 -73t74 -30q41 0 71.5 30t30.5 73q0 41 -30.5 70.5t-71.5 29.5q-43 0 -74 -29.5t-31 -70.5z M616 711q0 -43 31 -74t74 -31q41 0 71.5 31t30.5 74t-30.5 73.5t-71.5 30.5q-43 0 -74 -30.5t-31 -73.5z" />
<glyph unicode="r" d="M0 102q0 43 29.5 73t72.5 30t73 -30t30 -73t-30 -72.5t-73 -29.5t-72.5 29.5t-29.5 72.5zM0 305q0 41 29.5 71t72.5 30t73 -30t30 -71t-30 -70.5t-73 -29.5t-72.5 29.5t-29.5 70.5zM0 506q0 41 30.5 69.5t75.5 28.5t76 -28.5t31 -69.5q0 -43 -30.5 -71.5t-76.5 -28.5 q-45 0 -75.5 28.5t-30.5 71.5zM0 709q0 43 30.5 73.5t75.5 30.5t76 -30.5t31 -73.5t-30.5 -74t-76.5 -31q-45 0 -75.5 31t-30.5 74zM0 918q0 41 30.5 71.5t73.5 30.5t74 -31t31 -71q0 -43 -31 -74t-74 -31t-73.5 31t-30.5 74zM213 715q0 43 28.5 73.5t69.5 30.5t70 -30.5 t29 -73.5t-29 -74t-70 -31t-69.5 31t-28.5 74zM410 920q0 41 30.5 69.5t73.5 28.5t73.5 -28.5t30.5 -69.5q0 -43 -30.5 -72t-73.5 -29t-73.5 29t-30.5 72zM616 922q0 39 29 67.5t72 28.5q41 0 69.5 -28.5t28.5 -67.5q0 -41 -28.5 -70t-69.5 -29q-43 0 -72 29t-29 70z" />
<glyph unicode="s" d="M0 102q0 41 30.5 71t73.5 30q41 0 72 -30t31 -71q0 -43 -31 -72.5t-72 -29.5q-43 0 -73.5 29.5t-30.5 72.5zM0 713q0 41 28.5 70.5t69.5 29.5t70 -29.5t29 -70.5q0 -43 -29 -73t-70 -30t-69.5 30t-28.5 73zM188 913q0 43 31 73t76 30t75.5 -30t30.5 -73t-30.5 -72.5 t-75.5 -29.5t-76 29.5t-31 72.5zM203 510q0 41 29.5 70.5t72.5 29.5q41 0 71 -29.5t30 -70.5q0 -43 -30 -72.5t-71 -29.5q-43 0 -72.5 29.5t-29.5 72.5zM207 102q0 41 30.5 71t73.5 30t74 -30t31 -71q0 -43 -31 -72.5t-74 -29.5t-73.5 29.5t-30.5 72.5zM401 915q0 41 31 71 t76 30q43 0 73.5 -30t30.5 -71t-30.5 -70.5t-73.5 -29.5q-45 0 -76 29.5t-31 70.5zM406 510q0 41 30.5 70.5t73.5 29.5q41 0 71.5 -29.5t30.5 -70.5q0 -43 -30.5 -72.5t-71.5 -29.5q-43 0 -73.5 29.5t-30.5 72.5zM416 98q0 41 29.5 70t72.5 29t73 -29t30 -70t-30 -69.5 t-73 -28.5t-72.5 28.5t-29.5 69.5zM610 915q0 41 32 71t77 30t76.5 -30t31.5 -71t-31.5 -70.5t-76.5 -29.5t-77 29.5t-32 70.5zM621 303q0 43 30.5 74t73.5 31q41 0 71.5 -31t30.5 -74q0 -45 -30.5 -75.5t-71.5 -30.5q-43 0 -73.5 30.5t-30.5 75.5z" />
<glyph unicode="t" horiz-adv-x="817" d="M0 715q0 41 29.5 70.5t72.5 29.5q41 0 71 -29.5t30 -70.5q0 -43 -30 -73t-71 -30q-43 0 -72.5 30t-29.5 73zM203 303q0 43 30.5 73t73.5 30q41 0 72 -30t31 -73t-31 -72.5t-72 -29.5q-43 0 -73.5 29.5t-30.5 72.5zM203 508q0 41 30.5 70.5t75.5 29.5t76 -29.5t31 -70.5 q0 -43 -31 -72.5t-76 -29.5t-75.5 29.5t-30.5 72.5zM203 717q0 41 30.5 71.5t75.5 30.5t76 -30.5t31 -71.5q0 -43 -31 -74t-76 -31t-75.5 31t-30.5 74zM203 922q0 41 30.5 70.5t75.5 29.5t76 -29.5t31 -70.5q0 -43 -31 -73t-76 -30t-75.5 30t-30.5 73zM203 1124 q0 43 30.5 73t75.5 30q43 0 74 -30t31 -73t-31 -72.5t-74 -29.5q-45 0 -75.5 29.5t-30.5 72.5zM203 1327q0 41 30.5 70.5t75.5 29.5q43 0 74 -29.5t31 -70.5t-31 -70.5t-74 -29.5q-45 0 -75.5 29.5t-30.5 70.5zM410 100q0 41 30.5 71t73.5 30q41 0 71.5 -30t30.5 -71 t-30.5 -70.5t-71.5 -29.5q-43 0 -73.5 29.5t-30.5 70.5zM416 709q0 41 29.5 70.5t72.5 29.5t73 -29.5t30 -70.5t-30 -71t-73 -30t-72.5 30t-29.5 71z" />
<glyph unicode="u" d="M0 305q0 41 30.5 71t73.5 30q41 0 72 -30t31 -71t-31 -70.5t-72 -29.5q-43 0 -73.5 29.5t-30.5 70.5zM0 510q0 43 30.5 73.5t73.5 30.5q41 0 72 -30.5t31 -73.5t-31 -73.5t-72 -30.5q-43 0 -73.5 30.5t-30.5 73.5zM0 715q0 41 30.5 70.5t73.5 29.5q41 0 72 -29.5 t31 -70.5t-31 -71t-72 -30q-43 0 -73.5 30t-30.5 71zM0 915q0 41 29.5 70t72.5 29t73 -29t30 -70q0 -43 -30 -71.5t-73 -28.5t-72.5 28.5t-29.5 71.5zM207 102q0 43 29.5 73t72.5 30t73 -30t30 -73t-30 -72.5t-73 -29.5t-72.5 29.5t-29.5 72.5zM412 100q0 41 28.5 71 t71.5 30q41 0 69.5 -30t28.5 -71t-28.5 -70.5t-69.5 -29.5q-43 0 -71.5 29.5t-28.5 70.5zM610 506q0 41 31 70.5t76 29.5t75.5 -29.5t30.5 -70.5t-30.5 -70.5t-75.5 -29.5t-76 29.5t-31 70.5zM610 711q0 41 31 71.5t76 30.5t75.5 -30.5t30.5 -71.5q0 -43 -30.5 -74 t-75.5 -31t-76 31t-31 74zM610 915q0 43 31 73t76 30t75.5 -30t30.5 -73t-30.5 -72.5t-75.5 -29.5t-76 29.5t-31 72.5zM616 102q0 41 29 71t72 30q41 0 69.5 -30t28.5 -71q0 -43 -28.5 -72.5t-69.5 -29.5q-43 0 -72 29.5t-29 72.5zM616 305q0 41 31 71t74 30q41 0 71.5 -30 t30.5 -71q0 -43 -30.5 -72.5t-71.5 -29.5q-43 0 -74 29.5t-31 72.5z" />
<glyph unicode="v" horiz-adv-x="1234" d="M0 512q0 41 30.5 71.5t73.5 30.5q41 0 72 -30.5t31 -71.5q0 -43 -31 -73.5t-72 -30.5q-43 0 -73.5 30.5t-30.5 73.5zM0 715q0 41 30.5 70.5t73.5 29.5t74 -29.5t31 -70.5t-31 -71t-74 -30t-73.5 30t-30.5 71zM0 915q0 41 30.5 70t73.5 29t74 -29t31 -70q0 -43 -31 -71.5 t-74 -28.5t-73.5 28.5t-30.5 71.5zM207 307q0 41 30.5 71t73.5 30q41 0 72 -30t31 -71t-31 -70.5t-72 -29.5q-43 0 -73.5 29.5t-30.5 70.5zM414 104q0 41 29.5 72t72.5 31q41 0 70.5 -31t29.5 -72q0 -43 -29.5 -73.5t-70.5 -30.5q-43 0 -72.5 30.5t-29.5 73.5zM612 301 q0 45 32 76t77 31q43 0 74.5 -31t31.5 -76t-31.5 -75.5t-74.5 -30.5q-45 0 -77 30.5t-32 75.5zM821 713q0 41 31 70.5t74 29.5t73.5 -29.5t30.5 -70.5q0 -43 -30.5 -73t-73.5 -30t-74 30t-31 73zM821 913q0 41 30 71t73 30t72.5 -30t29.5 -71t-29.5 -70.5t-72.5 -29.5 t-73 29.5t-30 70.5zM827 510q0 41 30 70.5t73 29.5q41 0 70.5 -29.5t29.5 -70.5q0 -43 -29.5 -72.5t-70.5 -29.5q-43 0 -73 29.5t-30 72.5z" />
<glyph unicode="w" horiz-adv-x="1228" d="M0 100q0 41 29.5 71t70.5 30t71 -30t30 -71t-30 -70.5t-71 -29.5t-70.5 29.5t-29.5 70.5zM0 305q0 41 29.5 72t70.5 31t71 -31t30 -72q0 -43 -30 -73.5t-71 -30.5t-70.5 30.5t-29.5 73.5zM0 512q0 43 30.5 73.5t75.5 30.5q43 0 74 -30.5t31 -73.5t-30.5 -73.5 t-74.5 -30.5q-45 0 -75.5 30.5t-30.5 73.5zM0 717q0 41 30.5 69.5t75.5 28.5q43 0 74 -28.5t31 -69.5q0 -43 -30.5 -72t-74.5 -29q-45 0 -75.5 29t-30.5 72zM0 913q0 39 30.5 68t73.5 29q41 0 72 -29t31 -68q0 -41 -31 -69.5t-72 -28.5q-43 0 -73.5 28.5t-30.5 69.5z M207 305q0 43 29.5 74t72.5 31q41 0 71 -31t30 -74t-30 -73.5t-71 -30.5q-43 0 -72.5 30.5t-29.5 73.5zM410 512q0 41 30.5 70.5t73.5 29.5q41 0 71.5 -29.5t30.5 -70.5q0 -43 -30.5 -72.5t-71.5 -29.5q-43 0 -73.5 29.5t-30.5 72.5zM608 307q0 43 31 74t76 31t75.5 -31 t30.5 -74t-30.5 -73.5t-75.5 -30.5t-76 30.5t-31 73.5zM815 920q0 41 32 69.5t77 28.5q43 0 74.5 -28.5t31.5 -69.5q0 -43 -31.5 -72t-74.5 -29q-45 0 -77 29t-32 72zM817 512q0 43 31 72.5t76 29.5q43 0 73.5 -29.5t30.5 -72.5t-30.5 -72.5t-73.5 -29.5q-45 0 -76 29.5 t-31 72.5zM817 717q0 43 31 72.5t76 29.5t75.5 -29.5t30.5 -72.5t-30.5 -73t-75.5 -30t-76 30t-31 73zM821 102q0 41 30 71t73 30t72.5 -30t29.5 -71q0 -43 -29.5 -72.5t-72.5 -29.5t-73 29.5t-30 72.5zM823 307q0 43 30 73t73 30t72.5 -30t29.5 -73t-29.5 -72.5 t-72.5 -29.5t-73 29.5t-30 72.5z" />
<glyph unicode="x" horiz-adv-x="1228" d="M0 102q0 39 30.5 66t73.5 27q41 0 72 -27t31 -66t-31 -65.5t-72 -26.5q-43 0 -73.5 26.5t-30.5 65.5zM0 918q0 39 30.5 67.5t73.5 28.5q41 0 72 -29t31 -67q0 -41 -31 -70t-72 -29q-43 0 -73.5 29t-30.5 70zM207 301q0 43 30.5 74t73.5 31q41 0 72 -31t31 -74 q0 -45 -31 -75.5t-72 -30.5q-43 0 -73.5 30.5t-30.5 75.5zM209 717q0 41 30.5 70.5t73.5 29.5q41 0 72 -29.5t31 -70.5t-31 -71t-72 -30q-43 0 -73.5 30t-30.5 71zM414 510q0 41 30.5 71.5t73.5 30.5q41 0 72 -30.5t31 -71.5q0 -43 -31 -73.5t-72 -30.5q-43 0 -73.5 30.5 t-30.5 73.5zM612 309q0 41 31 71t76 30q43 0 73.5 -30t30.5 -71t-30.5 -70.5t-73.5 -29.5q-45 0 -76 29.5t-31 70.5zM621 717q0 41 29.5 71.5t72.5 30.5t72.5 -30.5t29.5 -71.5q0 -43 -29.5 -74t-72.5 -31t-72.5 31t-29.5 74zM823 104q0 43 31 74t74 31q41 0 71.5 -31 t30.5 -74t-30.5 -73.5t-71.5 -30.5q-43 0 -74 30.5t-31 73.5zM825 920q0 41 30 69.5t71 28.5t70.5 -28.5t29.5 -69.5q0 -43 -29.5 -72t-70.5 -29t-71 29t-30 72z" />
<glyph unicode="y" d="M0 307q0 41 30.5 72t75.5 31q43 0 74 -31t31 -72q0 -43 -30.5 -73.5t-74.5 -30.5q-45 0 -75.5 30.5t-30.5 73.5zM0 -307q0 41 30.5 69.5t73.5 28.5q41 0 72 -28.5t31 -69.5t-31 -70t-72 -29q-43 0 -73.5 29t-30.5 70zM0 512q0 41 30.5 70.5t75.5 29.5q43 0 74 -29.5 t31 -70.5q0 -43 -30.5 -72.5t-74.5 -29.5q-45 0 -75.5 29.5t-30.5 72.5zM0 715q0 43 30.5 72.5t73.5 29.5q41 0 72 -29.5t31 -72.5t-31 -73t-72 -30q-43 0 -73.5 30t-30.5 73zM0 918q0 41 30.5 69.5t73.5 28.5q41 0 72 -29t31 -69q0 -43 -31 -72t-72 -29q-43 0 -73.5 29 t-30.5 72zM203 98q0 41 30.5 70t75.5 29q43 0 74 -29t31 -70t-31 -69.5t-74 -28.5q-45 0 -75.5 28.5t-30.5 69.5zM207 -307q0 41 30.5 69.5t73.5 28.5t74 -28.5t31 -69.5t-31 -70t-74 -29t-73.5 29t-30.5 70zM414 98q0 41 29.5 70t72.5 29q41 0 70.5 -29t29.5 -70 t-29.5 -69.5t-70.5 -28.5q-43 0 -72.5 28.5t-29.5 69.5zM416 -307q0 41 29.5 69.5t72.5 28.5q41 0 70.5 -28.5t29.5 -69.5t-29.5 -70t-70.5 -29q-43 0 -72.5 29t-29.5 70zM610 915q0 43 31 74t76 31t75.5 -31t30.5 -74q0 -45 -30.5 -75.5t-75.5 -30.5t-76 30.5t-31 75.5z M612 100q0 41 31 71t76 30t75.5 -30t30.5 -71t-30.5 -70.5t-75.5 -29.5t-76 29.5t-31 70.5zM612 303q0 41 31 70.5t76 29.5t75.5 -29.5t30.5 -70.5q0 -43 -30.5 -72.5t-75.5 -29.5t-76 29.5t-31 72.5zM616 508q0 41 31 71.5t74 30.5t73.5 -30.5t30.5 -71.5q0 -43 -30.5 -74 t-73.5 -31t-74 31t-31 74zM616 711q0 41 31 69.5t74 28.5q41 0 71.5 -28.5t30.5 -69.5q0 -43 -30.5 -72t-71.5 -29q-43 0 -74 29t-31 72zM618 -104q0 43 31 73.5t74 30.5q41 0 71.5 -30.5t30.5 -73.5t-30.5 -74t-71.5 -31q-43 0 -74 31t-31 74z" />
<glyph unicode="z" horiz-adv-x="817" d="M0 96q0 39 30.5 68t73.5 29q41 0 72 -29t31 -68t-31 -67.5t-72 -28.5q-43 0 -73.5 28.5t-30.5 67.5zM0 299q0 45 29.5 76t70.5 31t71 -31t30 -76t-30 -75.5t-71 -30.5t-70.5 30.5t-29.5 75.5zM0 918q0 41 30.5 70.5t73.5 29.5t74 -30t31 -70q0 -41 -31 -71t-74 -30 t-73.5 30t-30.5 71zM201 506q0 41 30.5 70.5t75.5 29.5q43 0 74 -29.5t31 -70.5t-31 -70.5t-74 -29.5q-45 0 -75.5 29.5t-30.5 70.5zM207 98q0 39 29.5 68t72.5 29q41 0 71 -29t30 -68q0 -41 -30 -69.5t-71 -28.5q-43 0 -72.5 28.5t-29.5 69.5zM209 918q0 41 29.5 69.5 t72.5 28.5q41 0 71 -29t30 -69q0 -43 -30 -72t-71 -29q-43 0 -72.5 29t-29.5 72zM410 98q0 39 30.5 68t73.5 29q41 0 71.5 -29t30.5 -68q0 -41 -30.5 -69.5t-71.5 -28.5q-43 0 -73.5 28.5t-30.5 69.5zM412 709q0 41 30.5 70.5t73.5 29.5q41 0 71.5 -29.5t30.5 -70.5 q0 -43 -30.5 -73t-71.5 -30q-43 0 -73.5 30t-30.5 73zM412 913q0 41 30.5 72t73.5 31q41 0 71.5 -31t30.5 -72q0 -43 -30.5 -73.5t-71.5 -30.5q-43 0 -73.5 30.5t-30.5 73.5z" />
<glyph unicode="{" horiz-adv-x="817" d="M0 719q0 41 30.5 69.5t73.5 28.5t74 -28.5t31 -69.5q0 -43 -31 -72t-74 -29t-73.5 29t-30.5 72zM203 926q0 41 30.5 70.5t75.5 29.5q43 0 74 -29.5t31 -70.5q0 -43 -31 -73t-74 -30q-45 0 -75.5 30t-30.5 73zM203 1128q0 41 29.5 71t72.5 30t73 -30t30 -71 q0 -43 -30 -72.5t-73 -29.5t-72.5 29.5t-29.5 72.5zM205 307q0 41 30.5 71t73.5 30t74 -30t31 -71q0 -43 -31 -72.5t-74 -29.5t-73.5 29.5t-30.5 72.5zM207 514q0 43 30.5 73.5t73.5 30.5q41 0 72 -30.5t31 -73.5q0 -45 -31 -75.5t-72 -30.5q-43 0 -73.5 30.5t-30.5 75.5z M408 1329q0 41 30.5 69.5t75.5 28.5q43 0 73.5 -28.5t30.5 -69.5q0 -43 -30.5 -71.5t-73.5 -28.5q-45 0 -75.5 28.5t-30.5 71.5zM412 104q0 41 30.5 72t73.5 31t74 -31t31 -72q0 -43 -31 -73.5t-74 -30.5t-73.5 30.5t-30.5 73.5z" />
<glyph unicode="|" horiz-adv-x="405" d="M0 102q0 41 30.5 71t73.5 30t74 -30t31 -71q0 -43 -31 -72.5t-74 -29.5t-73.5 29.5t-30.5 72.5zM0 305q0 41 30.5 71t73.5 30t74 -30t31 -71q0 -43 -31 -72.5t-74 -29.5t-73.5 29.5t-30.5 72.5zM0 510q0 41 30.5 71.5t73.5 30.5t74 -30.5t31 -71.5q0 -43 -31 -73.5 t-74 -30.5t-73.5 30.5t-30.5 73.5zM0 715q0 41 30.5 70.5t73.5 29.5q41 0 72 -29.5t31 -70.5q0 -43 -31 -73t-72 -30q-43 0 -73.5 30t-30.5 73zM0 920q0 43 30.5 73.5t73.5 30.5q41 0 72 -30.5t31 -73.5t-31 -74t-72 -31q-43 0 -73.5 31t-30.5 74zM0 1126q0 41 30.5 71 t75.5 30q43 0 74 -30t31 -71q0 -43 -30.5 -72.5t-74.5 -29.5q-45 0 -75.5 29.5t-30.5 72.5zM0 1327q0 41 30.5 70.5t75.5 29.5q43 0 74 -29.5t31 -70.5t-30.5 -70.5t-74.5 -29.5q-45 0 -75.5 29.5t-30.5 70.5z" />
<glyph unicode="}" horiz-adv-x="817" d="M0 100q0 41 30.5 71t73.5 30t74 -30t31 -71t-31 -70.5t-74 -29.5t-73.5 29.5t-30.5 70.5zM0 1329q0 41 30.5 69.5t73.5 28.5t74 -28.5t31 -69.5q0 -43 -31 -71.5t-74 -28.5t-73.5 28.5t-30.5 71.5zM203 307q0 41 30.5 71t75.5 30q43 0 74 -30t31 -71t-31 -70.5t-74 -29.5 q-45 0 -75.5 29.5t-30.5 70.5zM203 512q0 43 30.5 73.5t73.5 30.5t74 -30.5t31 -73.5t-31 -73.5t-74 -30.5t-73.5 30.5t-30.5 73.5zM205 920q0 43 30.5 73.5t73.5 30.5t74 -30.5t31 -73.5q0 -45 -31 -76t-74 -31t-73.5 31t-30.5 76zM209 1126q0 43 29.5 73t72.5 30t73 -30 t30 -73t-30 -72.5t-73 -29.5t-72.5 29.5t-29.5 72.5zM412 717q0 41 30.5 71.5t73.5 30.5q41 0 71.5 -30.5t30.5 -71.5q0 -43 -30.5 -74t-71.5 -31q-43 0 -73.5 31t-30.5 74z" />
<glyph unicode="~" d="M0 1126q0 39 30.5 67t75.5 28q43 0 74 -28t31 -67t-30.5 -66.5t-74.5 -27.5q-45 0 -75.5 27.5t-30.5 66.5zM211 1325q0 41 29.5 71.5t72.5 30.5t73 -30.5t30 -71.5q0 -43 -30 -73.5t-73 -30.5t-72.5 30.5t-29.5 73.5zM406 1126q0 41 30.5 71t75.5 30q43 0 73.5 -30 t30.5 -71t-30.5 -70.5t-73.5 -29.5q-45 0 -75.5 29.5t-30.5 70.5zM616 1327q0 41 31 70.5t76 29.5q43 0 73.5 -29.5t30.5 -70.5t-30.5 -70.5t-73.5 -29.5q-45 0 -76 29.5t-31 70.5z" />
<glyph unicode="&#xa3;" horiz-adv-x="1228" d="M0 715q0 39 30.5 67.5t73.5 28.5q41 0 72 -28.5t31 -67.5q0 -41 -31 -70t-72 -29q-43 0 -73.5 29t-30.5 70zM201 98q0 41 30.5 70t73.5 29q41 0 72 -29t31 -70t-31 -69.5t-72 -28.5q-43 0 -73.5 28.5t-30.5 69.5zM203 303q0 43 30.5 74t75.5 31t76 -31t31 -74 q0 -45 -31 -75.5t-76 -30.5t-75.5 30.5t-30.5 75.5zM207 510q0 41 30.5 70.5t73.5 29.5t74 -29.5t31 -70.5q0 -43 -31 -72.5t-74 -29.5t-73.5 29.5t-30.5 72.5zM207 715q0 43 30.5 73.5t73.5 30.5q41 0 72 -30.5t31 -73.5t-31 -74t-72 -31q-43 0 -73.5 31t-30.5 74zM207 922 q0 43 30.5 72.5t73.5 29.5q41 0 72 -29.5t31 -72.5t-31 -73t-72 -30q-43 0 -73.5 30t-30.5 73zM207 1126q0 41 29.5 71t70.5 30t71 -30t30 -71q0 -43 -30 -72.5t-71 -29.5t-70.5 29.5t-29.5 72.5zM408 98q0 41 30.5 70t75.5 29q43 0 73.5 -29t30.5 -70t-30.5 -69.5 t-73.5 -28.5q-45 0 -75.5 28.5t-30.5 69.5zM408 1327q0 41 29.5 70.5t72.5 29.5t72.5 -29.5t29.5 -70.5t-29.5 -70.5t-72.5 -29.5t-72.5 29.5t-29.5 70.5zM414 715q0 41 28.5 69.5t71.5 28.5q41 0 69.5 -28.5t28.5 -69.5t-28.5 -70t-69.5 -29q-43 0 -71.5 29t-28.5 70z M612 1325q0 43 30 72.5t71 29.5t70.5 -29.5t29.5 -72.5t-29.5 -72.5t-70.5 -29.5t-71 29.5t-30 72.5zM618 100q0 41 30 71t73 30q41 0 70.5 -30t29.5 -71t-29.5 -70.5t-70.5 -29.5q-43 0 -73 29.5t-30 70.5zM813 1124q0 41 30.5 70t76.5 29q43 0 73.5 -29t30.5 -70 q0 -43 -30.5 -71.5t-73.5 -28.5q-45 0 -76 28.5t-31 71.5zM821 100q0 41 30 71t73 30q41 0 70.5 -30t29.5 -71t-29.5 -70.5t-70.5 -29.5q-43 0 -73 29.5t-30 70.5z" />
<glyph unicode="&#xa9;" horiz-adv-x="1634" d="M0 303q0 41 31.5 70.5t77.5 29.5q43 0 74.5 -29.5t31.5 -70.5q0 -43 -31.5 -72.5t-74.5 -29.5q-45 0 -77 29.5t-32 72.5zM0 510q0 45 31.5 75.5t77.5 30.5q43 0 74.5 -30.5t31.5 -75.5t-31.5 -76t-74.5 -31q-45 0 -77 31t-32 76zM0 717q0 41 30.5 70.5t73.5 29.5 t74 -29.5t31 -70.5t-31 -71t-74 -30t-73.5 30t-30.5 71zM0 920q0 41 30.5 70.5t73.5 29.5t74 -29.5t31 -70.5q0 -43 -31 -73t-74 -30t-73.5 30t-30.5 73zM205 100q0 41 30.5 71t73.5 30t74 -30t31 -71t-31 -70.5t-74 -29.5t-73.5 29.5t-30.5 70.5zM205 1130q0 45 29.5 76 t72.5 31t73 -30.5t30 -76.5q0 -45 -30 -75.5t-73 -30.5t-72.5 30.5t-29.5 75.5zM401 512q0 41 32 70.5t77 29.5t76.5 -29.5t31.5 -70.5t-31.5 -70.5t-76.5 -29.5t-77 29.5t-32 70.5zM401 717q0 43 31 73.5t74 30.5t73.5 -30.5t30.5 -73.5t-30.5 -74t-73.5 -31t-74 31t-31 74 zM403 1329q0 41 31 69.5t76 28.5q43 0 73.5 -28.5t30.5 -69.5q0 -43 -30.5 -71.5t-73.5 -28.5q-45 0 -76 28.5t-31 71.5zM414 -102q0 43 29.5 72.5t72.5 29.5q41 0 70.5 -29.5t29.5 -72.5t-29.5 -73t-70.5 -30q-43 0 -72.5 30t-29.5 73zM610 918q0 39 31 66.5t76 27.5 t75.5 -28t30.5 -66q0 -41 -30.5 -69t-75.5 -28t-76 28t-31 69zM614 1329q0 41 31 69.5t74 28.5q41 0 71.5 -28.5t30.5 -69.5q0 -43 -30.5 -71.5t-71.5 -28.5q-43 0 -74 28.5t-31 71.5zM616 -102q0 43 30 72.5t73 29.5t72.5 -29.5t29.5 -72.5t-29.5 -73t-72.5 -30t-73 30 t-30 73zM618 309q0 43 30 73t73 30t72.5 -30t29.5 -73t-29.5 -72.5t-72.5 -29.5t-73 29.5t-30 72.5zM821 -104q0 43 30 73.5t73 30.5t72.5 -30.5t29.5 -73.5q0 -41 -29.5 -72t-72.5 -31t-73 31t-30 72zM821 1327q0 41 31 70.5t74 29.5q41 0 71.5 -29.5t30.5 -70.5 t-30.5 -70.5t-71.5 -29.5q-43 0 -74 29.5t-31 70.5zM1026 98q0 39 30.5 68t73.5 29t74 -29t31 -68q0 -41 -30.5 -69.5t-74.5 -28.5q-43 0 -73.5 28.5t-30.5 69.5zM1028 1122q0 43 29.5 74t70.5 31t71 -31t30 -74t-30 -73.5t-71 -30.5t-70.5 30.5t-29.5 73.5zM1225 506 q0 41 32.5 70.5t77.5 29.5t78 -29.5t33 -70.5t-33 -70.5t-78 -29.5t-77.5 29.5t-32.5 70.5zM1227 713q0 43 31.5 73.5t76.5 30.5t77 -30.5t32 -73.5q0 -45 -32 -76t-77 -31t-76.5 31t-31.5 76zM1229 918q0 41 31.5 70.5t76.5 29.5q43 0 75 -30t32 -70q0 -41 -32 -71t-75 -30 q-45 0 -76.5 30t-31.5 71zM1235 301q0 43 30.5 74t75.5 31q43 0 74 -31t31 -74q0 -45 -31 -75.5t-74 -30.5q-45 0 -75.5 30.5t-30.5 75.5z" />
<glyph unicode="&#xab;" horiz-adv-x="1228" d="M0 719q0 41 28.5 71.5t71.5 30.5q41 0 70 -30.5t29 -71.5q0 -43 -29 -74t-70 -31q-43 0 -71.5 31t-28.5 74zM197 510q0 43 31.5 73.5t76.5 30.5q43 0 75 -30.5t32 -73.5t-32 -73.5t-75 -30.5q-45 0 -76.5 30.5t-31.5 73.5zM199 918q0 39 30.5 67.5t75.5 28.5t76 -29 t31 -67q0 -39 -31 -68t-76 -29t-75.5 29t-30.5 68zM614 713q0 41 30 71.5t71 30.5t70.5 -30.5t29.5 -71.5q0 -43 -29.5 -74t-70.5 -31t-71 31t-30 74zM815 510q0 41 31 69.5t76 28.5q43 0 73.5 -28.5t30.5 -69.5q0 -43 -30.5 -71.5t-73.5 -28.5q-45 0 -76 28.5t-31 71.5z M815 915q0 43 31 74t76 31t75.5 -31t30.5 -74q0 -45 -30.5 -75.5t-75.5 -30.5t-76 30.5t-31 75.5z" />
<glyph unicode="&#xad;" d="M0 713q0 41 30.5 69.5t73.5 28.5t74 -28.5t31 -69.5t-31 -70t-74 -29t-73.5 29t-30.5 70zM209 717q0 43 29.5 72.5t72.5 29.5t73 -29.5t30 -72.5t-30 -73t-73 -30t-72.5 30t-29.5 73zM414 717q0 41 29.5 71.5t72.5 30.5t72.5 -30.5t29.5 -71.5q0 -43 -29.5 -74t-72.5 -31 t-72.5 31t-29.5 74zM618 713q0 41 31 69.5t74 28.5t73.5 -28.5t30.5 -69.5q0 -43 -30.5 -72t-73.5 -29t-74 29t-31 72z" />
<glyph unicode="&#xbb;" horiz-adv-x="1228" d="M0 506q0 39 28.5 67.5t69.5 28.5t70 -28.5t29 -67.5q0 -41 -29 -69.5t-70 -28.5t-69.5 28.5t-28.5 69.5zM0 922q0 39 30.5 66.5t73.5 27.5q41 0 72 -27.5t31 -66.5q0 -41 -31 -69t-72 -28q-43 0 -73.5 28t-30.5 69zM207 709q0 45 30.5 76.5t73.5 31.5q41 0 72 -31.5 t31 -76.5q0 -47 -31 -79t-72 -32q-43 0 -73.5 32t-30.5 79zM608 508q0 39 32 66.5t77 27.5t76.5 -27.5t31.5 -66.5q0 -41 -31.5 -68.5t-76.5 -27.5t-77 27.5t-32 68.5zM618 915q0 41 30 71t73 30t72.5 -30t29.5 -71t-29.5 -70.5t-72.5 -29.5t-73 29.5t-30 70.5zM823 715 q0 41 30 70.5t71 29.5t70.5 -29.5t29.5 -70.5q0 -43 -29.5 -73t-70.5 -30t-71 30t-30 73z" />
<glyph unicode="&#xc5;" horiz-adv-x="1228" d="M0 100q0 41 30.5 71t75.5 30t76 -30t31 -71t-30.5 -70.5t-76.5 -29.5q-45 0 -75.5 29.5t-30.5 70.5zM0 301q0 41 30.5 70.5t75.5 29.5t76 -29.5t31 -70.5t-30.5 -70.5t-76.5 -29.5q-45 0 -75.5 29.5t-30.5 70.5zM0 506q0 41 30.5 71.5t73.5 30.5t74 -30.5t31 -71.5 q0 -43 -31 -74t-74 -31t-73.5 31t-30.5 74zM0 709q0 41 30.5 70.5t73.5 29.5t74 -29.5t31 -70.5t-31 -71t-74 -30t-73.5 30t-30.5 71zM0 911q0 43 30.5 73t75.5 30t76 -30t31 -73t-30.5 -72.5t-76.5 -29.5q-45 0 -75.5 29.5t-30.5 72.5zM211 711q0 41 28.5 70.5t71.5 29.5 q41 0 70 -29.5t29 -70.5t-29 -71t-70 -30q-43 0 -71.5 30t-28.5 71zM213 1118q0 43 28.5 74t71.5 31q41 0 70 -31t29 -74t-29 -73.5t-70 -30.5q-43 0 -71.5 30.5t-28.5 73.5zM403 1530q0 43 32 72.5t79 29.5q45 0 77 -29.5t32 -72.5t-32 -73t-77 -30q-47 0 -79 30t-32 73z M410 711q0 41 29.5 70.5t72.5 29.5t72.5 -29.5t29.5 -70.5t-29.5 -71t-72.5 -30t-72.5 30t-29.5 71zM412 1122q0 41 30.5 71t73.5 30t74 -30t31 -71q0 -43 -31 -72.5t-74 -29.5t-73.5 29.5t-30.5 72.5zM614 711q0 41 29 70.5t72 29.5q41 0 69.5 -29.5t28.5 -70.5t-28.5 -71 t-69.5 -30q-43 0 -72 30t-29 71zM621 1120q0 41 30.5 71t73.5 30t73.5 -30t30.5 -71t-30.5 -70.5t-73.5 -29.5t-73.5 29.5t-30.5 70.5zM815 508q0 41 33 70.5t78 29.5t77.5 -29.5t32.5 -70.5q0 -43 -32.5 -72.5t-77.5 -29.5t-78 29.5t-33 72.5zM815 711q0 41 32 70.5 t77 29.5t76.5 -29.5t31.5 -70.5q0 -43 -31.5 -73t-76.5 -30t-77 30t-32 73zM819 915q0 43 31 74t76 31t75.5 -31t30.5 -74t-30.5 -73.5t-75.5 -30.5t-76 30.5t-31 73.5zM821 100q0 41 29 70t72 29q41 0 69.5 -29t28.5 -70q0 -43 -28.5 -71.5t-69.5 -28.5q-43 0 -72 28.5 t-29 71.5zM821 303q0 41 32 72t77 31q43 0 74.5 -31t31.5 -72q0 -43 -31.5 -73.5t-74.5 -30.5q-45 0 -77 30.5t-32 73.5z" />
<glyph unicode="&#xc6;" horiz-adv-x="1431" d="M0 100q0 41 30.5 71t73.5 30t74 -30t31 -71t-31 -70.5t-74 -29.5t-73.5 29.5t-30.5 70.5zM0 301q0 41 30.5 70.5t73.5 29.5t74 -29.5t31 -70.5t-31 -70.5t-74 -29.5t-73.5 29.5t-30.5 70.5zM0 504q0 43 29.5 72.5t72.5 29.5t73 -29.5t30 -72.5t-30 -73t-73 -30t-72.5 30 t-29.5 73zM0 711q0 43 29.5 73.5t72.5 30.5t73 -30.5t30 -73.5t-30 -74t-73 -31t-72.5 31t-29.5 74zM0 920q0 41 30.5 71.5t75.5 30.5t76 -30.5t31 -71.5q0 -43 -30.5 -74t-76.5 -31q-45 0 -75.5 31t-30.5 74zM0 1122q0 41 30.5 70t75.5 29t76 -29t31 -70q0 -43 -30.5 -71.5 t-76.5 -28.5q-45 0 -75.5 28.5t-30.5 71.5zM201 1329q0 41 30.5 69.5t75.5 28.5t76 -28.5t31 -69.5t-31 -69.5t-76 -28.5t-75.5 28.5t-30.5 69.5zM209 713q0 39 29.5 67.5t70.5 28.5t71 -28.5t30 -67.5q0 -41 -30 -70t-71 -29t-70.5 29t-29.5 70zM410 713q0 39 29.5 67.5 t72.5 28.5q41 0 70.5 -28.5t29.5 -67.5t-29.5 -68t-70.5 -29q-43 0 -72.5 29t-29.5 68zM414 1329q0 41 30.5 69.5t73.5 28.5q41 0 72 -28.5t31 -69.5t-31 -69.5t-72 -28.5q-43 0 -73.5 28.5t-30.5 69.5zM610 102q0 43 30 73t73 30t72.5 -30t29.5 -73t-29.5 -72.5 t-72.5 -29.5t-73 29.5t-30 72.5zM610 301q0 39 32 67.5t77 28.5t76.5 -28.5t31.5 -67.5t-31.5 -67.5t-76.5 -28.5t-77 28.5t-32 67.5zM610 504q0 45 32 75.5t77 30.5t76.5 -30.5t31.5 -75.5t-31.5 -76t-76.5 -31t-77 31t-32 76zM610 711q0 41 31 70.5t76 29.5t75.5 -29.5 t30.5 -70.5t-30.5 -71t-75.5 -30t-76 30t-31 71zM610 913q0 41 31 71t76 30t75.5 -30t30.5 -71q0 -43 -30.5 -72.5t-75.5 -29.5t-76 29.5t-31 72.5zM610 1114q0 41 32 70.5t77 29.5t76.5 -29.5t31.5 -70.5t-31.5 -70.5t-76.5 -29.5t-77 29.5t-32 70.5zM621 1325 q0 41 29.5 71.5t70.5 30.5t70.5 -30.5t29.5 -71.5q0 -43 -29.5 -73.5t-70.5 -30.5t-70.5 30.5t-29.5 73.5zM815 100q0 41 31 70t74 29t73.5 -29t30.5 -70q0 -43 -30.5 -71.5t-73.5 -28.5t-74 28.5t-31 71.5zM821 1325q0 41 31 71.5t76 30.5q43 0 73.5 -30.5t30.5 -71.5 q0 -43 -30.5 -73.5t-73.5 -30.5q-45 0 -76 30.5t-31 73.5zM823 713q0 39 31 67.5t74 28.5q41 0 71.5 -28.5t30.5 -67.5t-30.5 -68t-71.5 -29q-43 0 -74 29t-31 68zM1024 100q0 41 29.5 70t72.5 29q41 0 71 -29t30 -70q0 -43 -30 -71.5t-71 -28.5q-43 0 -72.5 28.5 t-29.5 71.5zM1032 1325q0 43 31 72.5t74 29.5q41 0 71.5 -29.5t30.5 -72.5t-30.5 -72.5t-71.5 -29.5q-43 0 -74 29.5t-31 72.5z" />
<glyph unicode="&#xd8;" d="M0 303q0 41 29.5 70.5t72.5 29.5q41 0 71 -29.5t30 -70.5t-30 -70.5t-71 -29.5q-43 0 -72.5 29.5t-29.5 70.5zM0 506q0 43 30.5 72.5t75.5 29.5q43 0 74 -29.5t31 -72.5t-30.5 -73t-74.5 -30q-45 0 -75.5 30t-30.5 73zM0 711q0 41 30.5 70.5t75.5 29.5q43 0 74 -29.5 t31 -70.5q0 -43 -30.5 -73t-74.5 -30q-45 0 -75.5 30t-30.5 73zM0 915q0 41 31.5 72t77.5 31q45 0 76.5 -31t31.5 -72q0 -43 -31.5 -73.5t-76.5 -30.5t-77 30.5t-32 73.5zM0 1122q0 41 31.5 72t77.5 31q45 0 76.5 -31t31.5 -72q0 -43 -31.5 -73.5t-76.5 -30.5t-77 30.5 t-32 73.5zM203 102q0 41 29.5 71t72.5 30t73 -30t30 -71q0 -43 -30 -72.5t-73 -29.5t-72.5 29.5t-29.5 72.5zM209 717q0 45 30.5 75.5t73.5 30.5t74 -30.5t31 -75.5t-31 -76t-74 -31t-73.5 31t-30.5 76zM209 1325q0 43 30.5 72.5t73.5 29.5q41 0 72 -29.5t31 -72.5 t-31 -72.5t-72 -29.5q-43 0 -73.5 29.5t-30.5 72.5zM408 94q0 39 28.5 66.5t71.5 27.5q41 0 69.5 -27.5t28.5 -66.5t-28.5 -66.5t-69.5 -27.5q-43 0 -71.5 27.5t-28.5 66.5zM416 918q0 37 29.5 64.5t72.5 27.5t73 -28t30 -64q0 -39 -30 -67t-73 -28t-72.5 28t-29.5 67z M416 1329q0 41 29.5 69.5t72.5 28.5t73 -28.5t30 -69.5t-30 -69.5t-73 -28.5t-72.5 28.5t-29.5 69.5zM608 301q0 41 33 71.5t78 30.5t77.5 -30.5t32.5 -71.5q0 -43 -32.5 -73.5t-77.5 -30.5t-78 30.5t-33 73.5zM608 508q0 43 32 73.5t79 30.5q45 0 76.5 -30.5t31.5 -73.5 t-31.5 -74t-76.5 -31q-47 0 -79 31t-32 74zM616 715q0 43 31 72.5t76 29.5q43 0 73.5 -29.5t30.5 -72.5t-30.5 -73t-73.5 -30q-45 0 -76 30t-31 73zM616 918q0 41 30 70.5t73 29.5t72.5 -30t29.5 -70q0 -41 -29.5 -71t-72.5 -30t-73 30t-30 71zM621 1124q0 45 29.5 76 t70.5 31t70.5 -31t29.5 -76t-29.5 -75.5t-70.5 -30.5t-70.5 30.5t-29.5 75.5z" />
<glyph unicode="&#xe5;" d="M0 307q0 43 29.5 73t72.5 30t73 -30t30 -73t-30 -72.5t-73 -29.5t-72.5 29.5t-29.5 72.5zM197 104q0 41 31.5 72t76.5 31q43 0 75 -31t32 -72q0 -43 -32 -73.5t-75 -30.5q-45 0 -76.5 30.5t-31.5 73.5zM201 918q0 41 30.5 70.5t75.5 29.5t76 -30t31 -70q0 -41 -31 -71 t-76 -30t-75.5 30t-30.5 71zM205 510q0 41 29.5 70.5t70.5 29.5t71 -29.5t30 -70.5t-30 -70.5t-71 -29.5t-70.5 29.5t-29.5 70.5zM406 510q0 41 30.5 70.5t73.5 29.5t73.5 -29.5t30.5 -70.5t-30.5 -70.5t-73.5 -29.5t-73.5 29.5t-30.5 70.5zM410 1331q0 39 30.5 67.5 t75.5 28.5q43 0 74 -28.5t31 -67.5q0 -41 -31 -69.5t-74 -28.5q-45 0 -75.5 28.5t-30.5 69.5zM412 100q0 41 29.5 71t72.5 30t72.5 -30t29.5 -71t-29.5 -70.5t-72.5 -29.5t-72.5 29.5t-29.5 70.5zM414 920q0 41 29.5 70.5t72.5 29.5q41 0 70.5 -29.5t29.5 -70.5 q0 -43 -29.5 -73t-70.5 -30q-43 0 -72.5 30t-29.5 73zM612 717q0 41 31 71.5t74 30.5t73.5 -30.5t30.5 -71.5q0 -43 -30.5 -74t-73.5 -31t-74 31t-31 74zM614 98q0 41 31 70t74 29t73.5 -29t30.5 -70t-30.5 -69.5t-73.5 -28.5t-74 28.5t-31 69.5zM614 512q0 41 31 70.5 t74 29.5q41 0 71.5 -29.5t30.5 -70.5q0 -43 -30.5 -72.5t-71.5 -29.5q-43 0 -74 29.5t-31 72.5zM616 301q0 41 30 70.5t73 29.5t72.5 -29.5t29.5 -70.5t-29.5 -70.5t-72.5 -29.5t-73 29.5t-30 70.5z" />
<glyph unicode="&#xe6;" horiz-adv-x="1634" d="M0 305q0 41 30.5 71t73.5 30t74 -30t31 -71t-31 -70.5t-74 -29.5t-73.5 29.5t-30.5 70.5zM197 512q0 41 31.5 69.5t76.5 28.5q43 0 75 -28.5t32 -69.5q0 -43 -32 -71.5t-75 -28.5q-45 0 -76.5 28.5t-31.5 71.5zM203 920q0 41 30.5 70.5t73.5 29.5t74 -29.5t31 -70.5 q0 -43 -31 -73t-74 -30t-73.5 30t-30.5 73zM209 102q0 43 29.5 73t72.5 30q41 0 71 -30t30 -73t-30 -72.5t-71 -29.5q-43 0 -72.5 29.5t-29.5 72.5zM412 100q0 41 30.5 70t73.5 29q41 0 71.5 -29t30.5 -70q0 -43 -30.5 -71.5t-71.5 -28.5q-43 0 -73.5 28.5t-30.5 71.5z M412 514q0 41 29.5 70.5t72.5 29.5q41 0 70.5 -29.5t29.5 -70.5q0 -43 -29.5 -72.5t-70.5 -29.5q-43 0 -72.5 29.5t-29.5 72.5zM412 920q0 41 28.5 70.5t71.5 29.5q41 0 69.5 -29.5t28.5 -70.5q0 -43 -28.5 -73t-69.5 -30q-43 0 -71.5 30t-28.5 73zM606 715q0 43 31 72.5 t76 29.5q43 0 73.5 -29.5t30.5 -72.5t-30.5 -73t-73.5 -30q-45 0 -76 30t-31 73zM612 301q0 41 30 70.5t71 29.5t70.5 -29.5t29.5 -70.5t-29.5 -70.5t-70.5 -29.5t-71 29.5t-30 70.5zM614 512q0 43 31 72.5t74 29.5q41 0 71.5 -29.5t30.5 -72.5t-30.5 -72.5t-71.5 -29.5 q-43 0 -74 29.5t-31 72.5zM618 100q0 41 30 70t73 29t72.5 -29t29.5 -70q0 -43 -29.5 -71.5t-72.5 -28.5t-73 28.5t-30 71.5zM817 920q0 41 31 70.5t74 29.5q41 0 71.5 -29.5t30.5 -70.5q0 -43 -30.5 -73t-71.5 -30q-43 0 -74 30t-31 73zM821 510q0 41 30 69.5t73 28.5 q41 0 70.5 -28.5t29.5 -69.5q0 -43 -29.5 -71.5t-70.5 -28.5q-43 0 -73 28.5t-30 71.5zM823 100q0 41 30 71t73 30t72.5 -30t29.5 -71t-29.5 -70.5t-72.5 -29.5t-73 29.5t-30 70.5zM1024 510q0 41 30.5 69.5t73.5 28.5t74 -28.5t31 -69.5q0 -43 -31 -71.5t-74 -28.5 t-73.5 28.5t-30.5 71.5zM1024 920q0 41 29.5 70.5t70.5 29.5t71 -29.5t30 -70.5t-30 -71t-71 -30t-70.5 30t-29.5 71zM1028 100q0 41 29.5 71t70.5 30t71 -30t30 -71t-30 -70.5t-71 -29.5t-70.5 29.5t-29.5 70.5zM1225 713q0 45 31.5 75.5t76.5 30.5q43 0 75 -30.5t32 -75.5 t-32 -76t-75 -31q-45 0 -76.5 31t-31.5 76zM1233 508q0 41 30.5 69.5t73.5 28.5q41 0 72 -28.5t31 -69.5t-31 -69.5t-72 -28.5q-43 0 -73.5 28.5t-30.5 69.5z" />
<glyph unicode="&#xf2;" d="M0 305q0 43 30.5 74t75.5 31q43 0 74 -31t31 -74q0 -45 -30.5 -75.5t-74.5 -30.5q-45 0 -75.5 30.5t-30.5 75.5zM0 512q0 41 30.5 70.5t75.5 29.5q43 0 74 -29.5t31 -70.5q0 -43 -30.5 -72.5t-74.5 -29.5q-45 0 -75.5 29.5t-30.5 72.5zM201 96q0 39 30.5 68t75.5 29 t76 -29t31 -68t-31 -67.5t-76 -28.5t-75.5 28.5t-30.5 67.5zM203 715q0 41 30.5 69.5t73.5 28.5q41 0 72 -28.5t31 -69.5q0 -43 -31 -72t-72 -29q-43 0 -73.5 29t-30.5 72zM203 1329q0 41 30.5 69.5t73.5 28.5t74 -28.5t31 -69.5q0 -43 -31 -71.5t-74 -28.5t-73.5 28.5 t-30.5 71.5zM410 715q0 41 28.5 69.5t71.5 28.5q41 0 69.5 -28.5t28.5 -69.5q0 -43 -28.5 -72t-69.5 -29q-43 0 -71.5 29t-28.5 72zM412 1128q0 41 30.5 71t73.5 30t74 -30t31 -71q0 -43 -31 -72.5t-74 -29.5t-73.5 29.5t-30.5 72.5zM414 96q0 39 30.5 68t73.5 29 q41 0 72 -29t31 -68t-31 -67.5t-72 -28.5q-43 0 -73.5 28.5t-30.5 67.5zM608 508q0 45 33 75.5t80 30.5t80 -30.5t33 -75.5t-33 -76t-80 -31t-80 31t-33 76zM616 301q0 41 32 70.5t77 29.5t77 -29.5t32 -70.5t-32 -70.5t-77 -29.5t-77 29.5t-32 70.5z" />
<glyph unicode="&#xf3;" d="M0 303q0 43 29.5 74t72.5 31q41 0 71 -31t30 -74t-30 -73.5t-71 -30.5q-43 0 -72.5 30.5t-29.5 73.5zM0 508q0 41 30.5 70.5t75.5 29.5q43 0 74 -29.5t31 -70.5t-30.5 -70.5t-74.5 -29.5q-45 0 -75.5 29.5t-30.5 70.5zM203 100q0 41 30.5 70t73.5 29q41 0 72 -29t31 -70 q0 -43 -31 -71.5t-72 -28.5q-43 0 -73.5 28.5t-30.5 71.5zM203 1126q0 43 29.5 74t72.5 31q41 0 71 -31t30 -74t-30 -73.5t-71 -30.5q-43 0 -72.5 30.5t-29.5 73.5zM211 717q0 41 29.5 70.5t72.5 29.5q41 0 71 -29.5t30 -70.5q0 -43 -30 -73t-71 -30q-43 0 -72.5 30 t-29.5 73zM406 1329q0 41 32.5 69.5t77.5 28.5t78 -28.5t33 -69.5t-33 -69.5t-78 -28.5t-77.5 28.5t-32.5 69.5zM410 100q0 41 30.5 71t73.5 30q41 0 71.5 -30t30.5 -71t-30.5 -70.5t-71.5 -29.5q-43 0 -73.5 29.5t-30.5 70.5zM414 715q0 41 30.5 69.5t73.5 28.5 q41 0 72 -28.5t31 -69.5q0 -43 -31 -72t-72 -29q-43 0 -73.5 29t-30.5 72zM616 305q0 43 31 74t76 31t75.5 -31t30.5 -74t-30.5 -73.5t-75.5 -30.5t-76 30.5t-31 73.5zM625 512q0 43 29.5 72.5t72.5 29.5t72.5 -29.5t29.5 -72.5t-29.5 -72.5t-72.5 -29.5t-72.5 29.5 t-29.5 72.5z" />
<glyph unicode="&#xf8;" horiz-adv-x="1228" d="M0 305q0 43 30.5 74t73.5 31q41 0 72 -31t31 -74t-31 -73.5t-72 -30.5q-43 0 -73.5 30.5t-30.5 73.5zM0 512q0 41 30.5 70.5t75.5 29.5t76 -29.5t31 -70.5q0 -43 -30.5 -72.5t-76.5 -29.5q-45 0 -75.5 29.5t-30.5 72.5zM0 713q0 41 30.5 70.5t75.5 29.5t76 -29.5 t31 -70.5t-30.5 -71t-76.5 -30q-45 0 -75.5 30t-30.5 71zM195 918q0 39 31.5 67.5t78.5 28.5q45 0 77 -29t32 -67q0 -41 -32 -70t-77 -29q-47 0 -78.5 29t-31.5 70zM207 100q0 41 30.5 71t73.5 30q41 0 72 -30t31 -71t-31 -70.5t-72 -29.5q-43 0 -73.5 29.5t-30.5 70.5z M211 305q0 43 28.5 74t67.5 31t67.5 -31t28.5 -74q0 -45 -28.5 -75.5t-67.5 -30.5t-67.5 30.5t-28.5 75.5zM403 514q0 43 31 73.5t76 30.5t75.5 -30.5t30.5 -73.5t-30.5 -73.5t-75.5 -30.5t-76 30.5t-31 73.5zM414 100q0 41 29.5 71t72.5 30q41 0 70.5 -30t29.5 -71 t-29.5 -70.5t-70.5 -29.5q-43 0 -72.5 29.5t-29.5 70.5zM414 920q0 41 29.5 70.5t72.5 29.5q41 0 70.5 -29.5t29.5 -70.5t-29.5 -71t-70.5 -30q-43 0 -72.5 30t-29.5 71zM614 715q0 41 30 70.5t73 29.5q41 0 70.5 -29.5t29.5 -70.5q0 -43 -29.5 -73t-70.5 -30q-43 0 -73 30 t-30 73zM614 915q0 41 31 71t74 30t73.5 -30t30.5 -71t-30.5 -70.5t-73.5 -29.5t-74 29.5t-31 70.5zM616 100q0 41 30 71t73 30q41 0 70.5 -30t29.5 -71t-29.5 -70.5t-70.5 -29.5q-43 0 -73 29.5t-30 70.5zM817 510q0 41 32 71.5t77 30.5t76.5 -30.5t31.5 -71.5 q0 -43 -31.5 -73.5t-76.5 -30.5t-77 30.5t-32 73.5zM819 713q0 41 30 69.5t71 28.5t70.5 -28.5t29.5 -69.5t-29.5 -70t-70.5 -29t-71 29t-30 70zM823 301q0 43 31 74t76 31q43 0 73.5 -31t30.5 -74t-30.5 -73.5t-73.5 -30.5q-45 0 -76 30.5t-31 73.5z" />
<glyph unicode="&#x2000;" horiz-adv-x="819" />
<glyph unicode="&#x2001;" horiz-adv-x="1638" />
<glyph unicode="&#x2002;" horiz-adv-x="819" />
<glyph unicode="&#x2003;" horiz-adv-x="1638" />
<glyph unicode="&#x2004;" horiz-adv-x="546" />
<glyph unicode="&#x2005;" horiz-adv-x="409" />
<glyph unicode="&#x2006;" horiz-adv-x="273" />
<glyph unicode="&#x2007;" horiz-adv-x="273" />
<glyph unicode="&#x2008;" horiz-adv-x="204" />
<glyph unicode="&#x2009;" horiz-adv-x="327" />
<glyph unicode="&#x200a;" horiz-adv-x="91" />
<glyph unicode="&#x2010;" d="M0 713q0 41 30.5 69.5t73.5 28.5t74 -28.5t31 -69.5t-31 -70t-74 -29t-73.5 29t-30.5 70zM209 717q0 43 29.5 72.5t72.5 29.5t73 -29.5t30 -72.5t-30 -73t-73 -30t-72.5 30t-29.5 73zM414 717q0 41 29.5 71.5t72.5 30.5t72.5 -30.5t29.5 -71.5q0 -43 -29.5 -74t-72.5 -31 t-72.5 31t-29.5 74zM618 713q0 41 31 69.5t74 28.5t73.5 -28.5t30.5 -69.5q0 -43 -30.5 -72t-73.5 -29t-74 29t-31 72z" />
<glyph unicode="&#x2011;" d="M0 713q0 41 30.5 69.5t73.5 28.5t74 -28.5t31 -69.5t-31 -70t-74 -29t-73.5 29t-30.5 70zM209 717q0 43 29.5 72.5t72.5 29.5t73 -29.5t30 -72.5t-30 -73t-73 -30t-72.5 30t-29.5 73zM414 717q0 41 29.5 71.5t72.5 30.5t72.5 -30.5t29.5 -71.5q0 -43 -29.5 -74t-72.5 -31 t-72.5 31t-29.5 74zM618 713q0 41 31 69.5t74 28.5t73.5 -28.5t30.5 -69.5q0 -43 -30.5 -72t-73.5 -29t-74 29t-31 72z" />
<glyph unicode="&#x2012;" d="M0 713q0 41 30.5 69.5t73.5 28.5t74 -28.5t31 -69.5t-31 -70t-74 -29t-73.5 29t-30.5 70zM209 717q0 43 29.5 72.5t72.5 29.5t73 -29.5t30 -72.5t-30 -73t-73 -30t-72.5 30t-29.5 73zM414 717q0 41 29.5 71.5t72.5 30.5t72.5 -30.5t29.5 -71.5q0 -43 -29.5 -74t-72.5 -31 t-72.5 31t-29.5 74zM618 713q0 41 31 69.5t74 28.5t73.5 -28.5t30.5 -69.5q0 -43 -30.5 -72t-73.5 -29t-74 29t-31 72z" />
<glyph unicode="&#x2013;" horiz-adv-x="1221" d="M0 713q0 41 38 69.5t91 28.5t91.5 -28.5t38.5 -69.5t-38.5 -70t-91.5 -29t-91 29t-38 70zM259 717q0 43 36.5 72.5t89.5 29.5t90.5 -29.5t37.5 -72.5t-37.5 -73t-90.5 -30t-89.5 30t-36.5 73zM513 717q0 41 36.5 71.5t89.5 30.5t89.5 -30.5t36.5 -71.5q0 -43 -36.5 -74 t-89.5 -31t-89.5 31t-36.5 74zM765 713q0 41 38.5 69.5t91.5 28.5t91 -28.5t38 -69.5q0 -43 -38 -72t-91 -29t-91.5 29t-38.5 72z" />
<glyph unicode="&#x2014;" horiz-adv-x="2245" d="M0 713q0 41 75.5 69.5t182.5 28.5q106 0 183 -28.5t77 -69.5t-77 -70t-183 -29q-107 0 -182.5 29t-75.5 70zM518 717q0 43 73 72.5t179 29.5q107 0 181 -29.5t74 -72.5t-74 -73t-181 -30q-106 0 -179 30t-73 73zM1025 717q0 41 73 71.5t180 30.5q106 0 179 -30.5 t73 -71.5q0 -43 -73 -74t-179 -31q-107 0 -180 31t-73 74zM1530 713q0 41 77 69.5t183 28.5q107 0 182.5 -28.5t75.5 -69.5q0 -43 -75.5 -72t-182.5 -29q-106 0 -183 29t-77 72z" />
<glyph unicode="&#x202f;" horiz-adv-x="327" />
<glyph unicode="&#x205f;" horiz-adv-x="409" />
<glyph unicode="&#x25fc;" horiz-adv-x="1013" d="M0 0v1014h1014v-1014h-1014z" />
</font>
</defs>
</svg>
