<svg height="512pt" viewBox="0 0 512 512" width="512pt" xmlns="http://www.w3.org/2000/svg"><path d="m184.175781 417.710938h143.058594v59.210937h-143.058594zm0 0" fill="#5a5a5a"/><path d="m485.15625 426.003906h-458.902344c-14.5 0-26.253906-11.753906-26.253906-26.253906v-373.496094c0-14.5 11.753906-26.253906 26.253906-26.253906h458.902344c14.5 0 26.253906 11.753906 26.253906 26.253906v373.496094c0 14.5-11.753906 26.253906-26.253906 26.253906zm0 0" fill="#ffd86e"/><path d="m511.414062 26.257812v373.492188c0 14.5-11.753906 26.253906-26.253906 26.253906h-32.070312c14.5 0 26.253906-11.753906 26.253906-26.253906v-373.492188c0-14.5-11.753906-26.25390575-26.253906-26.25390575h32.070312c14.5 0 26.253906 11.75390575 26.253906 26.25390575zm0 0" fill="#ffb509"/><path d="m511.410156 362.753906h-511.410156v36.996094c0 14.5 11.753906 26.253906 26.253906 26.253906h458.902344c14.5 0 26.253906-11.753906 26.253906-26.253906zm0 0" fill="#838383"/><path d="m511.414062 362.75v37c0 14.5-11.753906 26.253906-26.253906 26.253906h-32.070312c14.5 0 26.253906-11.753906 26.253906-26.253906v-37zm0 0" fill="#5a5a5a"/><path d="m511.996094 89.5625h-511.425782v-63.308594c0-14.5 11.753907-26.253906 26.25-26.253906h458.921876c14.5 0 26.253906 11.753906 26.253906 26.253906zm0 0" fill="#acacac"/><path d="m512 26.25v63.316406h-32.65625v-63.316406c0-14.492188-11.753906-26.24609375-26.257812-26.24609375h32.660156c14.5 0 26.253906 11.75390575 26.253906 26.24609375zm0 0" fill="#9c9c9c"/><path d="m373.59375 511.425781h-235.777344c-2.839844 0-5.144531-2.304687-5.144531-5.144531v-16.675781c0-11.308594 9.167969-20.476563 20.476563-20.476563h205.113281c11.308593 0 20.476562 9.167969 20.476562 20.476563v16.675781c0 2.839844-2.304687 5.144531-5.144531 5.144531zm0 0" fill="#838383"/><path d="m378.738281 489.601562v16.683594c0 2.839844-2.304687 5.144532-5.148437 5.144532h-18.164063v-21.828126c0-11.300781-9.167969-20.472656-20.46875-20.472656h23.3125c11.304688 0 20.46875 9.167969 20.46875 20.472656zm0 0" fill="#5a5a5a"/><g fill="#838383"><path d="m58.476562 186.492188c-1.917968 0-3.839843-.730469-5.304687-2.195313l-24.199219-24.203125c-2.929687-2.925781-2.929687-7.675781 0-10.605469l24.199219-24.199219c2.929687-2.929687 7.679687-2.929687 10.609375 0 2.929688 2.929688 2.929688 7.675782 0 10.605469l-18.898438 18.898438 18.898438 18.898437c2.929688 2.929688 2.929688 7.675782 0 10.605469-1.464844 1.464844-3.386719 2.195313-5.304688 2.195313zm0 0"/><path d="m116.335938 186.492188c-1.917969 0-3.839844-.730469-5.304688-2.195313-2.929688-2.929687-2.929688-7.679687 0-10.605469l18.898438-18.898437-18.898438-18.898438c-2.929688-2.929687-2.929688-7.679687 0-10.605469 2.929688-2.929687 7.679688-2.929687 10.609375 0l24.199219 24.199219c2.929687 2.929688 2.929687 7.679688 0 10.605469l-24.199219 24.203125c-1.464844 1.464844-3.386719 2.195313-5.304687 2.195313zm0 0"/><path d="m78.722656 186.496094c-.914062 0-1.839844-.167969-2.742187-.523438-3.855469-1.511718-5.753907-5.867187-4.238281-9.722656l19.015624-48.402344c1.515626-3.851562 5.871094-5.753906 9.722657-4.238281 3.855469 1.515625 5.753906 5.871094 4.238281 9.726563l-19.015625 48.398437c-1.160156 2.957031-3.988281 4.761719-6.980469 4.761719zm0 0"/><path d="m90.644531 231.78125h-52c-4.140625 0-7.5-3.359375-7.5-7.5 0-4.144531 3.359375-7.5 7.5-7.5h52c4.144531 0 7.5 3.355469 7.5 7.5 0 4.140625-3.355469 7.5-7.5 7.5zm0 0"/><path d="m210.417969 231.78125h-91.425781c-4.140626 0-7.5-3.359375-7.5-7.5 0-4.144531 3.359374-7.5 7.5-7.5h91.425781c4.144531 0 7.5 3.355469 7.5 7.5 0 4.140625-3.355469 7.5-7.5 7.5zm0 0"/><path d="m60.796875 264.335938h-22.152344c-4.140625 0-7.5-3.355469-7.5-7.5 0-4.140626 3.359375-7.5 7.5-7.5h22.152344c4.144531 0 7.5 3.359374 7.5 7.5 0 4.144531-3.359375 7.5-7.5 7.5zm0 0"/><path d="m195.667969 264.335938h-13.492188c-4.140625 0-7.5-3.355469-7.5-7.5 0-4.140626 3.359375-7.5 7.5-7.5h13.492188c4.140625 0 7.5 3.359374 7.5 7.5 0 4.144531-3.359375 7.5-7.5 7.5zm0 0"/><path d="m154.140625 264.335938h-66.257813c-4.144531 0-7.5-3.355469-7.5-7.5 0-4.140626 3.355469-7.5 7.5-7.5h66.257813c4.144531 0 7.5 3.359374 7.5 7.5 0 4.144531-3.359375 7.5-7.5 7.5zm0 0"/><path d="m245.414062 264.335938h-25.269531c-4.140625 0-7.5-3.355469-7.5-7.5 0-4.140626 3.359375-7.5 7.5-7.5h25.269531c4.140626 0 7.5 3.359374 7.5 7.5 0 4.144531-3.359374 7.5-7.5 7.5zm0 0"/><path d="m197.039062 160.761719h-26.652343c-4.144531 0-7.5-3.355469-7.5-7.5 0-4.140625 3.355469-7.5 7.5-7.5h26.652343c4.144532 0 7.5 3.359375 7.5 7.5 0 4.144531-3.355468 7.5-7.5 7.5zm0 0"/><path d="m389.503906 160.761719h-162.617187c-4.140625 0-7.5-3.355469-7.5-7.5 0-4.140625 3.359375-7.5 7.5-7.5h162.617187c4.140625 0 7.5 3.359375 7.5 7.5 0 4.144531-3.359375 7.5-7.5 7.5zm0 0"/><path d="m364.800781 194.726562h-65.867187c-4.144532 0-7.5-3.355468-7.5-7.5 0-4.140624 3.355468-7.5 7.5-7.5h65.867187c4.144531 0 7.5 3.359376 7.5 7.5 0 4.144532-3.355469 7.5-7.5 7.5zm0 0"/><path d="m274.230469 194.726562h-22.644531c-4.140626 0-7.5-3.355468-7.5-7.5 0-4.140624 3.359374-7.5 7.5-7.5h22.644531c4.144531 0 7.5 3.359376 7.5 7.5 0 4.144532-3.355469 7.5-7.5 7.5zm0 0"/><path d="m225.859375 194.726562h-55.476563c-4.140624 0-7.5-3.355468-7.5-7.5 0-4.140624 3.359376-7.5 7.5-7.5h55.476563c4.140625 0 7.5 3.359376 7.5 7.5 0 4.144532-3.359375 7.5-7.5 7.5zm0 0"/><path d="m154.238281 296.621094h-52c-4.144531 0-7.5-3.359375-7.5-7.5 0-4.144532 3.355469-7.5 7.5-7.5h52c4.144531 0 7.5 3.355468 7.5 7.5 0 4.140625-3.355469 7.5-7.5 7.5zm0 0"/><path d="m78.597656 296.621094h-39.953125c-4.140625 0-7.5-3.359375-7.5-7.5 0-4.144532 3.359375-7.5 7.5-7.5h39.953125c4.140625 0 7.5 3.355468 7.5 7.5 0 4.140625-3.359375 7.5-7.5 7.5zm0 0"/><path d="m248.5 296.621094h-67.925781c-4.144531 0-7.5-3.359375-7.5-7.5 0-4.144532 3.355469-7.5 7.5-7.5h67.925781c4.144531 0 7.5 3.355468 7.5 7.5 0 4.140625-3.355469 7.5-7.5 7.5zm0 0"/></g><path d="m296.664062 263.390625h167.152344v56.605469h-167.152344zm0 0" fill="#64dcfc"/><path d="m296.664062 350.871094h167.152344v52.492187h-167.152344zm0 0" fill="#64dcfc"/><path d="m444.050781 263.390625h19.765625v56.605469h-19.765625zm0 0" fill="#00d1fc"/><path d="m444.050781 350.871094h19.765625v52.492187h-19.765625zm0 0" fill="#00d1fc"/><path d="m477.65625 275.6875h-194.832031c-4.121094 0-7.460938-3.339844-7.460938-7.460938v-37.515624c0-4.121094 3.339844-7.460938 7.460938-7.460938h194.832031c4.121094 0 7.460938 3.339844 7.460938 7.460938v37.515624c0 4.121094-3.339844 7.460938-7.460938 7.460938zm0 0" fill="#0396fd"/><path d="m477.65625 359.808594h-194.832031c-4.121094 0-7.460938-3.339844-7.460938-7.460938v-37.515625c0-4.121093 3.339844-7.460937 7.460938-7.460937h194.832031c4.121094 0 7.460938 3.339844 7.460938 7.460937v37.515625c0 4.121094-3.339844 7.460938-7.460938 7.460938zm0 0" fill="#0396fd"/><path d="m477.65625 443.929688h-194.832031c-4.121094 0-7.460938-3.339844-7.460938-7.460938v-37.515625c0-4.121094 3.339844-7.460937 7.460938-7.460937h194.832031c4.121094 0 7.460938 3.339843 7.460938 7.460937v37.515625c0 4.121094-3.339844 7.460938-7.460938 7.460938zm0 0" fill="#0396fd"/><path d="m485.117188 230.710938v37.515624c0 4.117188-3.335938 7.460938-7.460938 7.460938h-17.3125c4.128906 0 7.460938-3.34375 7.460938-7.460938v-37.515624c0-4.117188-3.332032-7.460938-7.460938-7.460938h17.3125c4.125 0 7.460938 3.34375 7.460938 7.460938zm0 0" fill="#0077f0"/><path d="m485.117188 314.828125v37.515625c0 4.128906-3.335938 7.464844-7.460938 7.464844h-17.3125c4.128906 0 7.460938-3.335938 7.460938-7.464844v-37.515625c0-4.117187-3.332032-7.460937-7.460938-7.460937h17.3125c4.125 0 7.460938 3.34375 7.460938 7.460937zm0 0" fill="#0077f0"/><path d="m485.117188 398.957031v37.515625c0 4.117188-3.335938 7.460938-7.460938 7.460938h-17.3125c4.128906 0 7.460938-3.34375 7.460938-7.460938v-37.515625c0-4.125-3.332032-7.460937-7.460938-7.460937h17.3125c4.125 0 7.460938 3.335937 7.460938 7.460937zm0 0" fill="#0077f0"/><path d="m340.363281 256.96875h-37.144531c-4.140625 0-7.5-3.355469-7.5-7.5 0-4.140625 3.359375-7.5 7.5-7.5h37.148438c4.140624 0 7.5 3.359375 7.5 7.5 0 4.144531-3.359376 7.5-7.503907 7.5zm0 0" fill="#e7e7e7"/><path d="m457.261719 256.96875h-52.441407c-4.140624 0-7.5-3.355469-7.5-7.5 0-4.140625 3.359376-7.5 7.5-7.5h52.4375c4.144532 0 7.5 3.359375 7.5 7.5 0 4.144531-3.355468 7.5-7.496093 7.5zm0 0" fill="#e7e7e7"/><path d="m378.601562 256.96875h-12.019531c-4.140625 0-7.5-3.355469-7.5-7.5 0-4.140625 3.359375-7.5 7.5-7.5h12.019531c4.144532 0 7.5 3.359375 7.5 7.5 0 4.144531-3.359374 7.5-7.5 7.5zm0 0" fill="#e7e7e7"/><path d="m340.363281 341.089844h-37.144531c-4.140625 0-7.5-3.355469-7.5-7.5 0-4.140625 3.359375-7.5 7.5-7.5h37.148438c4.140624 0 7.5 3.359375 7.5 7.5 0 4.144531-3.359376 7.5-7.503907 7.5zm0 0" fill="#e7e7e7"/><path d="m457.261719 341.089844h-52.441407c-4.140624 0-7.5-3.355469-7.5-7.5 0-4.140625 3.359376-7.5 7.5-7.5h52.4375c4.144532 0 7.5 3.359375 7.5 7.5 0 4.144531-3.355468 7.5-7.496093 7.5zm0 0" fill="#e7e7e7"/><path d="m378.601562 341.089844h-12.019531c-4.140625 0-7.5-3.355469-7.5-7.5 0-4.140625 3.359375-7.5 7.5-7.5h12.019531c4.144532 0 7.5 3.359375 7.5 7.5 0 4.144531-3.359374 7.5-7.5 7.5zm0 0" fill="#e7e7e7"/><path d="m340.363281 425.210938h-37.144531c-4.140625 0-7.5-3.359376-7.5-7.5 0-4.140626 3.359375-7.5 7.5-7.5h37.148438c4.140624 0 7.5 3.359374 7.5 7.5 0 4.140624-3.359376 7.5-7.503907 7.5zm0 0" fill="#e7e7e7"/><path d="m457.261719 425.210938h-52.441407c-4.140624 0-7.5-3.359376-7.5-7.5 0-4.140626 3.359376-7.5 7.5-7.5h52.4375c4.144532 0 7.5 3.359374 7.5 7.5 0 4.140624-3.355468 7.5-7.496093 7.5zm0 0" fill="#e7e7e7"/><path d="m378.601562 425.210938h-12.019531c-4.140625 0-7.5-3.359376-7.5-7.5 0-4.140626 3.359375-7.5 7.5-7.5h12.019531c4.144532 0 7.5 3.359374 7.5 7.5 0 4.140624-3.359374 7.5-7.5 7.5zm0 0" fill="#e7e7e7"/><path d="m64.144531 44.5625c0 8.25-6.6875 14.933594-14.933593 14.933594-8.25 0-14.9375-6.683594-14.9375-14.933594 0-8.246094 6.6875-14.933594 14.9375-14.933594 8.246093 0 14.933593 6.6875 14.933593 14.933594zm0 0" fill="#ff5770"/><path d="m121.816406 44.5625c0 8.25-6.683594 14.933594-14.933594 14.933594-8.246093 0-14.933593-6.683594-14.933593-14.933594 0-8.246094 6.6875-14.933594 14.933593-14.933594 8.25 0 14.933594 6.6875 14.933594 14.933594zm0 0" fill="#ffd86e"/><path d="m179.492188 44.5625c0 8.25-6.6875 14.933594-14.933594 14.933594-8.25 0-14.933594-6.683594-14.933594-14.933594 0-8.246094 6.683594-14.933594 14.933594-14.933594 8.246094 0 14.933594 6.6875 14.933594 14.933594zm0 0" fill="#80e0dc"/><path d="m64.136719 44.566406c0 8.246094-6.679688 14.925782-14.921875 14.925782-3.996094 0-7.628906-1.566407-10.304688-4.128907 8.078125-.175781 14.585938-6.78125 14.585938-14.914062 0-4.257813-1.78125-8.089844-4.632813-10.804688.113281-.011719.238281-.011719.351563-.011719 8.242187 0 14.921875 6.679688 14.921875 14.933594zm0 0" fill="#ff435f"/><path d="m121.8125 44.566406c0 8.246094-6.679688 14.925782-14.933594 14.925782-3.992187 0-7.613281-1.566407-10.300781-4.128907 8.089844-.175781 14.59375-6.78125 14.59375-14.914062 0-4.257813-1.78125-8.089844-4.628906-10.804688.109375-.011719.222656-.011719.339843-.011719 8.253907 0 14.929688 6.679688 14.929688 14.933594zm0 0" fill="#ffb509"/><path d="m179.492188 44.566406c0 8.246094-6.691407 14.925782-14.933594 14.925782-3.996094 0-7.617188-1.566407-10.304688-4.128907 8.089844-.175781 14.585938-6.78125 14.585938-14.914062 0-4.257813-1.78125-8.089844-4.632813-10.804688.113281-.011719.238281-.011719.351563-.011719 8.242187 0 14.933594 6.679688 14.933594 14.933594zm0 0" fill="#00a8b0"/></svg>