<?xml version="1.0" encoding="UTF-8"?>
<svg xmlns="http://www.w3.org/2000/svg" xmlns:xlink="http://www.w3.org/1999/xlink">


    <g fill-rule="nonzero" fill="#3D70B2">
      <path d="M11.007 17.378a.563.563 0 0 1-.19-1.109 7.103 7.103 0 0 0 3.864-2.002c2.706-2.722 2.823-7.095.289-9.957a.563.563 0 0 1 .842-.745c2.927 3.304 2.792 8.35-.333 11.495a8.228 8.228 0 0 1-4.472 2.318zM6.914.57a.562.562 0 1 1 .179 1.11 6.963 6.963 0 0 0-3.886 2.011C.54 6.411.425 10.78 2.922 13.636a.562.562 0 1 1-.847.74c-2.884-3.298-2.75-8.333.328-11.473A8.088 8.088 0 0 1 6.913.57z"/>
      <path d="M5.273 16.875c.836 0 2.347-.186 3.635-1.345 1.482-1.335 2.212-3.54 2.174-6.552v-.17-.213l1.646-.356c.195-.04.204-.2.203-.4 0-.2-.012-.359-.207-.398l-1.625-.334c.074-3.188.458-5.075 2.332-5.101.212-.003.239-.174.254-.393.015-.22.012-.414-.197-.447a4.19 4.19 0 0 0-.631-.041c-.835 0-2.348.186-3.635 1.345-1.14 1.027-1.831 2.577-2.074 4.61l-1.744.369c-.195.04-.206.199-.206.399s.01.359.206.399l1.653.348c-.002.145-.01.281-.009.43v.164c-.003 4.214-.162 6.775-2.35 6.805-.212.003-.294.175-.309.393-.014.22.043.414.252.448.03.005.266.04.632.04zm-.095-7.526c-.883-.181-1.105-.752-1.105-1.501 0-.75.222-1.32 1.098-1.5l.983-.207C6.507 4.23 7.275 2.71 8.47 1.633 9.772.461 11.324 0 12.857 0a5.2 5.2 0 0 1 .808.055c.527.084.927.441 1.08.93.075.244.08.425.062.707-.02.285-.05.463-.168.7a1.327 1.327 0 0 1-1.192.739c-.715.01-1.07.725-1.19 3.066l.687.141c.884.177 1.11.75 1.112 1.495 0 .27-.013.43-.102.664a1.335 1.335 0 0 1-.989.842l-.76.164c-.05 3.043-.886 5.37-2.544 6.863C8.358 17.54 6.807 18 5.273 18a5.28 5.28 0 0 1-.809-.055c-.897-.143-1.247-.87-1.197-1.635.052-.761.514-1.428 1.416-1.44.902-.013 1.222-1.128 1.24-5.364l-.745-.157z"/>
    </g>
    
</svg>
