<?xml version="1.0" encoding="utf-8"?>
<!-- Generator: Adobe Illustrator 23.0.1, SVG Export Plug-In . SVG Version: 6.00 Build 0)  -->
<svg version="1.1" id="Capa_1" xmlns="http://www.w3.org/2000/svg" xmlns:xlink="http://www.w3.org/1999/xlink" x="0px" y="0px"
	 viewBox="0 0 34.6 34.6" style="enable-background:new 0 0 34.6 34.6;" xml:space="preserve">
<style type="text/css">
	.st0{fill:#FFFFFF;}
</style>
<g>
	<path class="st0" d="M24,20.4c0.8,0,1.6,0,2.3,0c0,4.7,0,9.5,0,14.2c-7.5,0-15.1,0-22.6,0c0-4.7,0-9.5,0-14.2c0.8,0,1.5,0,2.3,0
		c0,4,0,7.9,0,11.9c6,0,12,0,17.9,0C24,28.4,24,24.4,24,20.4z M17.4,4.5c2.6,3.8,5.1,7.5,7.7,11.3c0.8-0.6,1.6-1.1,2.4-1.6
		c-2.6-3.8-5.1-7.5-7.7-11.3C19,3.4,18.2,3.9,17.4,4.5z M24.6,16.2c-3.9-2.3-7.9-4.6-11.8-6.9c-0.5,0.8-1,1.7-1.5,2.5
		c3.9,2.3,7.8,4.6,11.8,6.9C23.6,17.9,24.1,17,24.6,16.2z M28.6,0c-1,0.2-1.9,0.3-2.9,0.5C26.5,5,27.3,9.5,28,14
		c1-0.2,1.9-0.3,2.9-0.5C30.1,9,29.4,4.5,28.6,0z M22.9,19.5c-4.4-1.2-8.8-2.4-13.2-3.6c-0.3,0.9-0.5,1.9-0.8,2.8
		c4.4,1.2,8.8,2.4,13.2,3.6C22.4,21.4,22.6,20.5,22.9,19.5z M21.7,27.1c-4.6,0-9.1,0-13.7,0c0,1,0,1.9,0,2.9c4.6,0,9.1,0,13.7,0
		C21.7,29,21.7,28.1,21.7,27.1z M22,23.3c-4.5-0.4-9.1-0.8-13.6-1.3c-0.1,1-0.2,1.9-0.3,2.9c4.5,0.4,9.1,0.8,13.6,1.3
		C21.8,25.3,21.9,24.3,22,23.3z"/>
</g>
</svg>
