<?xml version="1.0" encoding="utf-8"?>
<!-- Generator: Adobe Illustrator 23.0.1, SVG Export Plug-In . SVG Version: 6.00 Build 0)  -->
<svg version="1.1" id="Capa_1" xmlns="http://www.w3.org/2000/svg" xmlns:xlink="http://www.w3.org/1999/xlink" x="0px" y="0px"
	 viewBox="0 0 486.4 486.4" style="enable-background:new 0 0 486.4 486.4;" xml:space="preserve">
<style type="text/css">
	.st0{fill:#FFFFFF;}
</style>
<g>
	<g>
		<g>
			<g>
				<path class="st0" d="M0.2,0v93.3c216.5,0,392.7,176.4,392.7,393.1h93.5C486.4,218.3,268.2,0,0.2,0z"/>
				<path class="st0" d="M0.1,165.2v93.2c60.7,0,117.8,23.7,160.8,66.8c42.9,42.9,66.6,100.2,66.6,161.2h93.7
					C321.1,309.3,177,165.2,0.1,165.2z"/>
				<path class="st0" d="M64.8,356.6C29,356.6,0,385.7,0,421.2c0,35.7,29,64.5,64.8,64.5c35.8,0,64.8-28.8,64.8-64.5
					C129.6,385.8,100.6,356.6,64.8,356.6z"/>
			</g>
		</g>
	</g>
</g>
</svg>
