<svg height="512pt" viewBox="0 -88 512 512" width="512pt" xmlns="http://www.w3.org/2000/svg"><path d="m492.308594 224.179688h-6.140625v-211.375c0-7.058594-5.746094-12.804688-12.816407-12.804688-23.582031 0-411.695312 0-434.703124 0-7.070313 0-12.816407 5.746094-12.816407 12.804688v211.375h-6.140625c-10.855468 0-19.691406 8.835937-19.691406 19.691406v35.03125c0 10.855468 8.835938 19.695312 19.691406 19.695312h8.121094c3.613281 21.335938 22.234375 37.644532 44.59375 37.644532s40.972656-16.308594 44.585938-37.644532h33.214843c3.613281 21.335938 22.238281 37.644532 44.59375 37.644532 22.359375 0 40.972657-16.308594 44.585938-37.644532h33.226562c3.613281 21.335938 22.226563 37.644532 44.585938 37.644532 22.355469 0 40.96875-16.308594 44.582031-37.644532h33.226562c3.613282 21.335938 22.226563 37.644532 44.585938 37.644532s40.980469-16.308594 44.59375-37.644532h8.121094c10.855468 0 19.691406-8.839844 19.691406-19.695312v-35.03125c0-10.855469-8.835938-19.691406-19.691406-19.691406zm-42.960938-209.03125h21.671875v209.03125h-21.671875zm-41.265625 0h26.117188v209.03125h-26.117188zm-41.265625 0h26.117188v209.03125c-8.660156 0-15.664063 0-26.117188 0zm-41.261718 0h26.117187v209.03125h-26.117187zm-41.265626 0h26.117188v209.03125h-26.117188zm-41.261718 0h26.113281v209.03125h-26.113281zm-82.527344 0h26.113281v154.003906c0 4.179687 3.390625 7.574218 7.574219 7.574218 4.179688 0 7.574219-3.394531 7.574219-7.574218v-154.003906h26.117187v209.03125h-26.117187v-24.730469c0-4.183594-3.394531-7.574219-7.574219-7.574219-4.183594 0-7.574219 3.390625-7.574219 7.574219v24.730469h-26.113281zm-41.265625 0h26.117187v209.03125h-26.117187zm-41.265625 0h26.117188v209.03125c-2.285157 0-21.324219 0-26.117188 0zm-36.988281 0h21.839843v209.03125h-21.839843zm60.53125 283.449218c-3.363281 12.925782-15.136719 22.496094-29.105469 22.496094-16.582031 0-30.082031-13.488281-30.082031-30.070312 0-16.582032 13.5-30.085938 30.082031-30.085938 19.851562 0 34.042969 18.925781 29.105469 37.660156zm122.394531 0c-3.363281 12.925782-15.136719 22.496094-29.105469 22.496094-19.660156 0-34.101562-18.710938-29.113281-37.644531 3.375-12.9375 15.148438-22.511719 29.113281-22.511719 19.707031 0 34.085938 18.761719 29.105469 37.660156zm93.292969 22.496094c-13.96875 0-25.742188-9.570312-29.105469-22.496094-4.914062-18.644531 9.136719-37.660156 29.105469-37.660156 16.585937 0 30.070312 13.507812 30.070312 30.085938 0 16.570312-13.484375 30.070312-30.070312 30.070312zm122.394531 0c-13.96875 0-25.742188-9.570312-29.105469-22.496094-4.976562-18.882812 9.378907-37.660156 29.105469-37.660156 13.964844 0 25.742188 9.574219 29.113281 22.511719 4.96875 18.851562-9.386719 37.644531-29.113281 37.644531zm57.257812-42.191406c0 2.503906-2.039062 4.546875-4.542968 4.546875h-8.121094c-3.613281-21.339844-22.234375-37.660157-44.59375-37.660157s-40.972656 16.320313-44.585938 37.660157h-33.226562c-3.613281-21.339844-22.226562-37.660157-44.582031-37.660157-22.359375 0-40.972657 16.320313-44.585938 37.660157h-33.226562c-3.613281-21.339844-22.226563-37.660157-44.585938-37.660157-22.355469 0-40.980469 16.320313-44.59375 37.660157h-33.214843c-3.613282-21.339844-22.226563-37.660157-44.585938-37.660157s-40.980469 16.320313-44.59375 37.660157h-8.121094c-2.503906 0-4.542968-2.042969-4.542968-4.546875v-35.03125c0-2.503906 2.039062-4.542969 4.542968-4.542969h472.617188c2.503906 0 4.542968 2.039063 4.542968 4.542969zm0 0"/><path d="m51.097656 288.054688c-.796875 1.839843-.816406 4.046874 0 5.9375 1.445313 10.472656 10.453125 18.550781 21.308594 18.550781 15.042969 0 25.441406-15.148438 20.136719-29.09375-7.851563-20.820313-38.410157-17.382813-41.445313 4.605469zm21.308594 9.339843c-3.511719 0-6.371094-2.859375-6.371094-6.371093 0-3.515626 2.859375-6.375 6.371094-6.375 3.515625 0 6.375 2.859374 6.375 6.375 0 3.511718-2.859375 6.371093-6.375 6.371093zm0 0"/><path d="m194.800781 269.5c-15.042969 0-25.4375 15.152344-20.136719 29.097656 8.371094 22.1875 41.660157 16.386719 41.660157-7.574218 0-11.789063-9.597657-21.523438-21.523438-21.523438zm0 27.894531c-3.511719 0-6.371093-2.859375-6.371093-6.371093 0-3.515626 2.859374-6.375 6.371093-6.375 3.515625 0 6.375 2.859374 6.375 6.375 0 3.511718-2.859375 6.371093-6.375 6.371093zm0 0"/><path d="m297.0625 283.449219c-1.847656 4.847656-1.847656 10.289062 0 15.148437 8.367188 22.1875 41.65625 16.382813 41.65625-7.574218 0-2.667969-.484375-5.210938-1.382812-7.574219-7.003907-18.570313-33.285157-18.535157-40.273438 0zm20.136719 13.945312c-3.515625 0-6.375-2.859375-6.375-6.371093 0-3.515626 2.859375-6.375 6.375-6.375 3.511719 0 6.371093 2.859374 6.371093 6.375 0 3.511718-2.859374 6.371093-6.371093 6.371093zm0 0"/><path d="m419.457031 283.449219c-5.304687 13.945312 5.09375 29.09375 20.136719 29.09375 15.078125 0 25.425781-15.183594 20.136719-29.09375-7.003907-18.570313-33.285157-18.535157-40.273438 0zm20.136719 13.945312c-3.515625 0-6.375-2.859375-6.375-6.371093 0-3.515626 2.859375-6.375 6.375-6.375 3.511719 0 6.371094 2.859374 6.371094 6.375 0 3.511718-2.859375 6.371093-6.371094 6.371093zm0 0"/></svg>