<?xml version="1.0" encoding="utf-8"?>
<!-- Generator: Adobe Illustrator 23.0.1, SVG Export Plug-In . SVG Version: 6.00 Build 0)  -->
<svg version="1.1" id="Layer_1" xmlns="http://www.w3.org/2000/svg" xmlns:xlink="http://www.w3.org/1999/xlink" x="0px" y="0px"
	 viewBox="0 0 135.7 135.7" style="enable-background:new 0 0 135.7 135.7;" xml:space="preserve">
<style type="text/css">
	.st0{display:none;}
	.st1{display:inline;}
	.st2{fill:#FFFFFF;}
	.st3{fill:#4C81C2;}
</style>
<title>Asset 1</title>
<g class="st0">
	<g id="Layer_1-2" class="st1">
		<path class="st2" d="M67.8,0C30.4,0,0,30.4,0,67.9s30.4,67.9,67.9,67.9s67.9-30.4,67.9-67.9c0,0,0,0,0,0
			C135.7,30.4,105.3,0,67.8,0C67.9,0,67.9,0,67.8,0z M96.5,59h13v2.7h-14L96.5,59z M92.1,61.7H78.3V59h12.9L92.1,61.7z M90.3,56.6
			H73.1V54h16.3L90.3,56.6z M46.9,71.6V69h20.2c0.9,0.8,1.7,1.7,2.4,2.7L46.9,71.6z M54.8,76.6h-7.9v-2.7h7.9c0,0,0,2.8,0,2.8
			L54.8,76.6z M69.3,64c-0.6,1-1.3,1.9-2.2,2.7H46.9V64H69.3z M46.9,61.7V59h7.8v2.7L46.9,61.7z M62.5,61.7V59h8.3
			c0,0.9-0.1,1.8-0.4,2.7L62.5,61.7z M69.9,54c0.4,0.8,0.7,1.7,0.8,2.7H41.6V54H69.9z M41.6,48.9h20c2.3,0.2,4.5,1.1,6.2,2.7H41.6
			V48.9z M39.2,86.8H21v-2.7c0,0,18.2,0,18.2,0S39.2,86.8,39.2,86.8z M39.2,81.7H21V79h18.2C39.2,79,39.2,81.7,39.2,81.7z M33.9,64
			v2.7h-7.8V64H33.9z M26.1,61.7V59h7.8v2.7H26.1z M26.1,71.7V69h7.8v2.7H26.1z M33.9,74.1v2.7h-7.8v-2.7L33.9,74.1z M39.2,56.7H21
			V54h18.2L39.2,56.7z M39.2,51.6H21v-2.7h18.2L39.2,51.6z M61.2,86.8H41.6v-2.7H68C66.2,85.8,63.7,86.8,61.2,86.8L61.2,86.8z
			 M69.8,81.7H41.6V79h29.2C70.7,80,70.3,80.9,69.8,81.7L69.8,81.7z M62.7,76.8v-2.7h7.9c0.3,0.9,0.5,1.8,0.5,2.7L62.7,76.8z
			 M73.1,48.9h14.5l1,2.7H73.2C73.2,51.6,73.1,48.9,73.1,48.9z M86,86.8H73.1v-2.7H86V86.8z M86,81.7H73.1V79H86V81.7z M86,76.7
			h-7.7v-2.6H86V76.7z M78.3,71.7v-2.7H86v2.7H78.3z M94.1,86.7h-0.4L92.9,84h2.2L94.1,86.7z M95.9,81.7H92L91,79h5.8L95.9,81.7z
			 M97.6,76.8h-7.4c0,0-1-2.6-1-2.7h9.3C98.6,74.1,97.6,76.8,97.6,76.8L97.6,76.8z M99.4,71.7h-11l-1-2.7h12.8
			C100.3,69,99.4,71.7,99.4,71.7L99.4,71.7z M101.2,66.7H86.7l-0.7-2c0,0,0,2,0,2.1h-7.7V64H93l0.9,2.5l0.8-2.5h14.8v2.7h-7.7v-2
			L101.2,66.7z M101.9,71.7v-2.7h7.7v2.7H101.9z M109.6,74.1v2.7h-7.7v-2.7L109.6,74.1z M114.8,86.8h-12.9v-2.7h12.8L114.8,86.8z
			 M114.8,81.7h-12.9V79h12.8L114.8,81.7z M114.8,56.7H97.3c0,0,0.9-2.7,0.9-2.7h16.4L114.8,56.7z M114.8,51.7H99.1l1-2.7h14.6
			L114.8,51.7z"/>
	</g>
</g>
<rect class="st0" width="135.7" height="135.7"/>
<path class="st2" d="M0,0v135.7h135.7V0H0z M96.5,59l13.1,0v2.7h-14L96.5,59z M92.2,61.7H78.3V59h12.9L92.2,61.7z M87.6,48.9l1,2.7
	H73.1l0-2.7H87.6z M73.1,54h16.3l0.9,2.7H73.1V54z M46.9,71.7V69h20.2c0.9,0.8,1.8,1.7,2.4,2.7C69.5,71.7,46.9,71.7,46.9,71.7z
	 M54.8,74.1v2.7c0,0-8,0-8,0s0-2.7,0-2.7H54.8z M69.3,64c-0.5,0.9-1.4,2-2.2,2.7H46.9c0,0,0-2.7,0-2.7H69.3z M46.9,61.7V59h7.8v2.7
	H46.9z M62.5,61.7V59h8.3c0,0.9-0.1,1.9-0.4,2.7H62.5z M70.7,56.7h-29V54h28.3C70.2,54.9,70.7,55.6,70.7,56.7z M41.6,48.9h20
	c2.4,0.2,4.5,1.1,6.2,2.7H41.6V48.9z M39.2,86.8c0,0-18.2,0-18.2,0c0,0,0-2.7,0-2.7c0,0,18.2,0,18.2,0
	C39.2,84.1,39.2,86.8,39.2,86.8z M39.2,81.7H21V79h18.2C39.2,79,39.2,81.7,39.2,81.7z M33.9,64v2.7h-7.8V64H33.9z M26.1,61.7V59h7.8
	v2.7H26.1z M26.1,71.7V69h7.8v2.7C33.9,71.7,26.1,71.7,26.1,71.7z M33.9,74.1v2.7h-7.8v-2.7H33.9z M39.2,56.7H21V54h18.2V56.7z
	 M39.2,51.6H21v-2.7h18.2V51.6z M61.2,86.8l-19.6,0v-2.7c0,0,26.3,0,26.4,0C66.2,85.8,63.8,86.7,61.2,86.8z M69.8,81.7H41.6V79h29.2
	C70.6,79.9,70.4,81,69.8,81.7z M62.7,76.8v-2.7h7.9c0.4,0.8,0.4,1.8,0.5,2.7H62.7z M86,86.8H73.1v-2.7H86V86.8z M86,81.7H73.1V79H86
	V81.7z M86,76.8h-7.7v-2.7H86V76.8z M86,71.7c0,0-7.7,0-7.7,0V69H86C86,69,86,71.7,86,71.7z M95.9,81.7H92L91,79h5.8L95.9,81.7z
	 M97.6,76.8c0,0-7.4,0-7.4,0s-1-2.7-1-2.7h9.3C98.6,74.1,97.6,76.8,97.6,76.8z M99.4,71.7l-10.9,0c0,0-1-2.7-1-2.7h12.8
	C100.3,69,99.5,71.7,99.4,71.7z M86.7,66.7l-0.7-2c0,0,0,2,0,2h-7.7V64H93l0.9,2.5l0.9-2.5h14.8v2.7h-7.7c0,0,0-2,0-2l-0.7,2
	L86.7,66.7z M101.9,71.7V69h7.7v2.7H101.9z M109.6,74.1v2.7h-7.7v-2.7H109.6z M114.7,86.8h-12.8v-2.7h12.8V86.8z M114.7,81.7h-12.8
	V79h12.8V81.7z M114.7,56.7H97.3c0,0,0.9-2.6,0.9-2.7h16.4V56.7z M114.7,51.6H99.1l1-2.7h14.6V51.6z"/>
<g>
	<g>
		<path class="st3" d="M30.1,50.3L30.1,50.3z"/>
	</g>
	<g>
		<path class="st3" d="M30.1,55.3L30.1,55.3z"/>
	</g>
	<g>
		<path class="st3" d="M30,60.4L30,60.4z"/>
	</g>
	<g>
		<path class="st3" d="M50.8,60.4L50.8,60.4z"/>
	</g>
	<g>
		<path class="st3" d="M30,65.3L30,65.3z"/>
	</g>
	<g>
		<path class="st3" d="M105.7,70.4L105.7,70.4z"/>
	</g>
	<g>
		<path class="st3" d="M105.7,75.4L105.7,75.4z"/>
	</g>
	<g>
		<path class="st3" d="M82.1,75.4L82.1,75.4z"/>
	</g>
	<g>
		<path class="st3" d="M30,75.4L30,75.4z"/>
	</g>
	<g>
		<path class="st3" d="M108.3,80.4L108.3,80.4z"/>
	</g>
	<g>
		<path class="st3" d="M79.6,80.4L79.6,80.4z"/>
	</g>
	<polygon class="st3" points="94.1,86.8 93.8,86.8 92.8,84.1 95.1,84.1 	"/>
	<g>
		<path class="st3" d="M108.3,85.4L108.3,85.4z"/>
	</g>
	<g>
		<path class="st3" d="M79.6,85.4L79.6,85.4z"/>
	</g>
</g>
</svg>
