<svg xmlns="http://www.w3.org/2000/svg" viewBox="0 0 135.71 135.71"><defs><style>.cls-1{fill:#fff;}</style></defs><title>Asset 1</title><g id="Layer_2" data-name="Layer 2"><g id="Layer_1-2" data-name="Layer 1"><path class="cls-1" d="M67.85,0a67.86,67.86,0,1,0,67.86,67.85A67.85,67.85,0,0,0,67.85,0ZM96.51,59h13v2.68h-14Zm-4.37,2.69H78.26V59H91.19Zm-1.79-5.06H73.13V54H89.41Zm-43.47,15V69H67.08a13.58,13.58,0,0,1,2.41,2.68Zm7.94,5H46.88s0-2.68,0-2.68h7.94S54.83,76.77,54.82,76.77ZM69.35,64a10.44,10.44,0,0,1-2.23,2.68H46.88V64ZM46.88,61.73V59H54.7v2.69Zm15.66,0V59h8.34a8.75,8.75,0,0,1-.38,2.69ZM69.9,54a7.09,7.09,0,0,1,.75,2.68H41.6V54ZM41.59,48.93h20a10.38,10.38,0,0,1,6.23,2.7H41.59ZM39.22,86.77s-18.23,0-18.23,0,0-2.68,0-2.68,18.22,0,18.23,0S39.21,86.77,39.22,86.77Zm0-5.06H21V79H39.22S39.22,81.72,39.22,81.71ZM33.91,64v2.67H26.07V64Zm-7.84-2.27V59.05h7.84v2.68Zm0,10s0-2.68,0-2.68h7.83v2.68Zm7.83,2.37v2.68H26.08V74.09Zm5.32-17.42H21V54H39.23Zm0-5.05H21V48.93H39.23Zm22,35.16H41.59V84.09H68A10,10,0,0,1,61.2,86.78Zm8.55-5.06H41.6V79H70.77A5.72,5.72,0,0,1,69.75,81.72Zm-7.07-4.94V74.09H70.6a7.74,7.74,0,0,1,.5,2.69ZM73.13,48.93H87.61l1,2.7s-15.43,0-15.43,0S73.12,48.93,73.13,48.93ZM86,86.78H73.13V84.09H86Zm0-5.06H73.13V79H86Zm0-5H78.26V74.09H86Zm-7.71-5V69.05H86s0,2.67,0,2.67Zm15.84,15h-.36l-.91-2.68h2.22Zm1.78-5H92L91,79h5.77Zm1.73-4.94s-7.38,0-7.38,0-1-2.63-1-2.68h9.29S97.61,76.77,97.61,76.78Zm1.79-5.06H88.47s-1-2.68-1-2.68h12.83S99.44,71.72,99.4,71.72Zm1.77-5H86.68l-.71-2s0,2,0,2.05H78.26V64H93l.91,2.49L94.75,64h14.81v2.68h-7.67s0-2,0-2Zm.72,5V69.05h7.67v2.67Zm7.67,2.37v2.68h-7.67V74.09Zm5.16,12.69H101.89V84.09h12.83Zm0-5.06H101.89V79h12.83Zm0-25H97.33s.94-2.65.94-2.68h16.45Zm0-5.05H99.12l1-2.69h14.64Z"/></g></g></svg>