<?xml version="1.0" encoding="iso-8859-1"?>
<!-- Generator: Adobe Illustrator 19.0.0, SVG Export Plug-In . SVG Version: 6.00 Build 0)  -->
<svg version="1.1" id="Capa_1" xmlns="http://www.w3.org/2000/svg" xmlns:xlink="http://www.w3.org/1999/xlink" x="0px" y="0px"
	 viewBox="0 0 488 488" style="enable-background:new 0 0 488 488;" xml:space="preserve">
<g>
	<g>
		<path d="M440.36,344.408c-4.832-12.4-16.528-20.408-29.832-20.408H344v-12.688L395.312,260h29.824c3.576,13.768,16,24,30.864,24
			c17.648,0,32-14.352,32-32s-14.352-32-32-32c-14.864,0-27.288,10.232-30.864,24H392c-2.12,0-4.16,0.84-5.656,2.344L344,288.688
			v-25.376l93.656-93.656C439.16,168.16,440,166.128,440,164V66.864c13.76-3.576,24-15.992,24-30.864c0-17.648-14.352-32-32-32
			s-32,14.352-32,32c0,14.872,10.24,27.288,24,30.864v93.824l-8,8l-24-24V108h-16v40c0,2.128,0.84,4.16,2.344,5.656L404.688,180
			L360,224.688l-16-16V180h-16v32c0,2.128,0.84,4.16,2.344,5.656L348.688,236l-18.344,18.344C328.84,255.84,328,257.872,328,260v64
			h-32V191.312l45.656-45.656C343.16,144.16,344,142.128,344,140V90.864c13.76-3.576,24-15.992,24-30.864c0-17.648-14.352-32-32-32
			s-32,14.352-32,32c0,14.872,10.24,27.288,24,30.864v45.824l-45.656,45.656C280.84,183.84,280,185.872,280,188v136h-32V66.864
			c13.76-3.576,24-15.992,24-30.864c0-17.648-14.352-32-32-32s-32,14.352-32,32c0,14.872,10.24,27.288,24,30.864v165.824l-24-24V148
			h-16v64c0,2.128,0.84,4.16,2.344,5.656L232,255.312V324h-32v-40c0-2.128-0.84-4.16-2.344-5.656L123.312,204l42.344-42.344
			C167.16,160.16,168,158.128,168,156V98.864c13.76-3.576,24-15.992,24-30.864c0-17.648-14.352-32-32-32s-32,14.352-32,32
			c0,14.872,10.24,27.288,24,30.864v53.824l-40,40l-16-16v-29.824c13.76-3.576,24-15.992,24-30.864c0-17.648-14.352-32-32-32
			s-32,14.352-32,32c0,14.872,10.24,27.288,24,30.864V180c0,2.128,0.84,4.16,2.344,5.656L184,287.312V324h-32v-24
			c0-2.128-0.84-4.16-2.344-5.656L40,184.688V66.864C53.76,63.288,64,50.872,64,36C64,18.352,49.648,4,32,4S0,18.352,0,36
			c0,14.872,10.24,27.288,24,30.864V188c0,2.128,0.84,4.16,2.344,5.656L68.688,236H64c-2.12,0-4.16,0.84-5.656,2.344l-10.192,10.192
			C43.392,245.72,37.92,244,32,244c-17.648,0-32,14.352-32,32s14.352,32,32,32s32-14.352,32-32c0-5.92-1.72-11.392-4.536-16.152
			L67.312,252h17.376L136,303.312V324H69.472c-13.304,0-25,8.008-29.824,20.408l-37.336,96c-3.832,9.84-2.552,20.936,3.416,29.656
			C11.696,478.792,21.568,484,32.144,484h415.72c10.568,0,20.448-5.208,26.416-13.936c5.968-8.72,7.24-19.816,3.416-29.656
			L440.36,344.408z M456,236c8.824,0,16,7.176,16,16c0,8.824-7.176,16-16,16c-8.824,0-16-7.176-16-16
			C440,243.176,447.176,236,456,236z M416,36c0-8.824,7.176-16,16-16c8.824,0,16,7.176,16,16s-7.176,16-16,16
			C423.176,52,416,44.824,416,36z M320,60c0-8.824,7.176-16,16-16c8.824,0,16,7.176,16,16s-7.176,16-16,16
			C327.176,76,320,68.824,320,60z M144,68c0-8.824,7.176-16,16-16c8.824,0,16,7.176,16,16s-7.176,16-16,16
			C151.176,84,144,76.824,144,68z M72,116c0-8.824,7.176-16,16-16s16,7.176,16,16s-7.176,16-16,16S72,124.824,72,116z M16,36
			c0-8.824,7.176-16,16-16s16,7.176,16,16s-7.176,16-16,16S16,44.824,16,36z M32,292c-8.824,0-16-7.176-16-16
			c0-8.824,7.176-16,16-16s16,7.176,16,16C48,284.824,40.824,292,32,292z M296,340h32v16h-32V340z M280,340v16h-32v-16H280z M224,36
			c0-8.824,7.176-16,16-16c8.824,0,16,7.176,16,16s-7.176,16-16,16C231.176,52,224,44.824,224,36z M200,340h32v16h-32V340z M152,340
			h32v16h-32V340z M152,404v-32h32v32h16v-32h32v32h16v-32h32v32h16v-32h32v32h16v-32h34.232l18.664,56h-313.8l18.664-56H136v32H152
			z M461.072,461.032c-3.032,4.432-7.848,6.968-13.216,6.968H32.144c-5.36,0-10.176-2.536-13.208-6.968
			c-3.032-4.432-3.656-9.832-1.712-14.832l37.336-96c2.416-6.192,8.264-10.2,14.912-10.2H136v16H96c-3.448,0-6.496,2.2-7.592,5.472
			l-24,72c-0.816,2.44-0.4,5.128,1.104,7.208c1.504,2.08,3.92,3.32,6.488,3.32h336c2.568,0,4.984-1.232,6.488-3.32
			c1.504-2.088,1.912-4.776,1.104-7.208l-24-72C390.496,358.2,387.448,356,384,356h-40v-16h66.528c6.648,0,12.496,4.008,14.912,10.2
			l37.336,96C464.72,451.2,464.104,456.6,461.072,461.032z"/>
	</g>
</g>
<g>
	<g>
		<rect x="192" y="100" width="16" height="32"/>
	</g>
</g>
<g>
	<g>
		<rect x="376" y="76" width="16" height="16"/>
	</g>
</g>
<g>
</g>
<g>
</g>
<g>
</g>
<g>
</g>
<g>
</g>
<g>
</g>
<g>
</g>
<g>
</g>
<g>
</g>
<g>
</g>
<g>
</g>
<g>
</g>
<g>
</g>
<g>
</g>
<g>
</g>
</svg>
