<?xml version="1.0" encoding="iso-8859-1"?>
<!-- Generator: Adobe Illustrator 19.0.0, SVG Export Plug-In . SVG Version: 6.00 Build 0)  -->
<svg version="1.1" id="Capa_1" xmlns="http://www.w3.org/2000/svg" xmlns:xlink="http://www.w3.org/1999/xlink" x="0px" y="0px"
	 viewBox="0 0 512.002 512.002" style="enable-background:new 0 0 512.002 512.002;" xml:space="preserve">
<g>
	<g>
		<path d="M86.135,272.001H49.067c-5.523,0-10,4.477-10,10s4.477,10,10,10h27.067v51.466c0,4.706-3.828,8.534-8.533,8.534
			c-4.706,0-8.534-3.828-8.534-8.534c0-5.523-4.477-10-10-10s-10,4.477-10,10c0,15.733,12.8,28.534,28.534,28.534
			s28.534-12.8,28.534-28.534v-61.466C96.135,276.478,91.658,272.001,86.135,272.001z"/>
	</g>
</g>
<g>
	<g>
		<path d="M244.18,272.441c-5.281-1.62-10.874,1.349-12.493,6.628l-14.974,48.825l-14.973-48.825
			c-1.619-5.28-7.211-8.246-12.493-6.628c-5.28,1.619-8.248,7.212-6.628,12.493l24.534,80c1.288,4.2,5.167,7.068,9.561,7.068
			c4.393,0,8.272-2.868,9.561-7.068l24.534-80C252.428,279.653,249.46,274.06,244.18,272.441z"/>
	</g>
</g>
<g>
	<g>
		<path d="M141.029,272.001c-15.734,0-28.534,12.8-28.534,28.533v61.467c0,5.523,4.477,10,10,10s10-4.477,10-10v-20.733h17.067
			v20.733c0.001,5.523,4.478,10,10.001,10s10-4.477,10-10v-61.467C169.563,284.801,156.763,272.001,141.029,272.001z
			 M149.564,321.268h-17.068v-20.733c0-4.705,3.828-8.533,8.534-8.533s8.534,3.828,8.534,8.533V321.268z"/>
	</g>
</g>
<g>
	<g>
		<path d="M292.399,272.001c-15.733,0-28.533,12.8-28.533,28.533v61.467c0,5.523,4.478,10,10,10c5.522,0,10-4.477,10-10v-20.733
			h17.067v20.733c0,5.523,4.478,10,10,10c5.522,0,10-4.477,10-10v-61.467C320.933,284.801,308.132,272.001,292.399,272.001z
			 M300.933,321.268h-17.067v-20.733c0-4.705,3.828-8.533,8.534-8.533c4.705,0,8.533,3.828,8.533,8.533V321.268z"/>
	</g>
</g>
<g>
	<g>
		<path d="M372.002,0H122.001c-16.542,0-30,13.458-30,30v202.002H30c-16.542,0-30,13.458-30,30v120c0,16.542,13.458,30,30,30h62.002
			v70c0,16.542,13.458,30,30,30h30c5.523,0,10-4.477,10-10s-4.477-10-10-10h-30c-5.514,0-10-4.486-10-10v-70H330
			c16.542,0,29.999-13.458,29.999-30v-120c0-16.542-13.457-30-29.999-30h-30c-5.522,0-10,4.477-10,10s4.478,10,10,10h30
			c5.514,0,9.999,4.486,9.999,10v120c0,5.514-4.485,10-9.999,10H30c-5.514,0-10-4.486-10-10v-120c0-5.514,4.486-10,10-10h201.036
			c5.523,0,10-4.477,10-10s-4.477-10-10-10H112.001V30c0-5.514,4.486-10,10-10h250c11.028,0,20,8.972,20,20v50
			c0,16.542,13.458,30,30,30h50c11.028,0,20,8.972,20,20v342.002c0,5.514-4.486,10-10,10H220.967c-5.523,0-10,4.477-10,10
			s4.477,10,10,10h261.035c16.542,0,30-13.458,30-30V140C512.001,62.804,449.198,0,372.002,0z M472.001,100h-50
			c-5.514,0-10-4.486-10-10V40c0-4.926-0.9-9.643-2.536-14.004c36.084,11.887,64.653,40.457,76.54,76.54
			C481.644,100.9,476.926,100,472.001,100z"/>
	</g>
</g>
<g>
	<g>
		<path d="M192.236,492.001h-0.269c-5.523,0-10,4.477-10,10s4.477,10,10,10h0.269c5.523,0,10-4.477,10-10
			S197.759,492.001,192.236,492.001z"/>
	</g>
</g>
<g>
	<g>
		<path d="M221.584,100h-61.67c-5.523,0-10,4.477-10,10s4.477,10,10,10h61.67c5.523,0,10-4.477,10-10S227.107,100,221.584,100z"/>
	</g>
</g>
<g>
	<g>
		<path d="M283.254,140h-123.34c-5.523,0-10,4.477-10,10s4.477,10,10,10h123.34c5.523,0,10-4.478,10-10
			C293.254,144.477,288.776,140,283.254,140z"/>
	</g>
</g>
<g>
	<g>
		<path d="M221.584,180h-61.67c-5.523,0-10,4.477-10,10s4.477,10,10,10h61.67c5.523,0,10-4.477,10-10S227.107,180,221.584,180z"/>
	</g>
</g>
<g>
	<g>
		<path d="M260.035,232.001h-0.27c-5.523,0-10,4.477-10,10c0,5.523,4.477,10,10,10h0.27c5.522,0,10-4.477,10-10
			C270.035,236.478,265.557,232.001,260.035,232.001z"/>
	</g>
</g>
<g>
</g>
<g>
</g>
<g>
</g>
<g>
</g>
<g>
</g>
<g>
</g>
<g>
</g>
<g>
</g>
<g>
</g>
<g>
</g>
<g>
</g>
<g>
</g>
<g>
</g>
<g>
</g>
<g>
</g>
</svg>
