<?xml version="1.0" encoding="iso-8859-1"?>
<!-- Generator: Adobe Illustrator 19.0.0, SVG Export Plug-In . SVG Version: 6.00 Build 0)  -->
<svg version="1.1" id="Capa_1" xmlns="http://www.w3.org/2000/svg" xmlns:xlink="http://www.w3.org/1999/xlink" x="0px" y="0px"
	 viewBox="0 0 511.999 511.999" style="enable-background:new 0 0 511.999 511.999;" xml:space="preserve">
<g>
	<g>
		<path d="M390.162,114.172h-0.01c-5.523,0-9.995,4.477-9.995,10c0,5.523,4.482,10,10.005,10c5.523,0,10-4.477,10-10
			C400.162,118.649,395.685,114.172,390.162,114.172z"/>
	</g>
</g>
<g>
	<g>
		<path d="M502,171.501h-22.647C444.355,78.935,355.503,17.237,256,17.237c-99.504,0-188.355,61.699-223.352,154.265H10
			c-5.523,0-10,4.477-10,10v148.995c0,5.523,4.477,10,10,10h22.647C67.645,433.063,156.497,494.762,256,494.762
			s188.355-61.699,223.352-154.265h22.647c5.522,0,10-4.477,10-10V181.501C512,175.978,507.522,171.501,502,171.501z M256,37.237
			c88.611,0,168.013,53.4,201.842,134.265h-83.218c-27.359-38.387-71.302-61.141-118.624-61.141s-91.263,22.754-118.624,61.141
			h-38.21C130.133,114.151,190.198,77.823,256,77.823c34.111,0,67.28,9.712,95.924,28.085c4.65,2.982,10.834,1.631,13.816-3.018
			c2.983-4.649,1.631-10.834-3.017-13.816C330.851,68.629,293.947,57.823,256,57.823c-76.763,0-146.503,44.436-179.239,113.679
			H54.157C87.987,90.638,167.389,37.237,256,37.237z M348.986,171.501H163.015c23.638-26.046,57.192-41.141,92.986-41.141
			C291.793,130.361,325.347,145.455,348.986,171.501z M256,474.761c-88.611,0-168.013-53.4-201.842-134.265h22.596
			c32.735,69.318,102.239,113.679,179.247,113.679c5.523,0,10-4.477,10-10s-4.477-10-10-10c-66.017,0-125.906-36.267-156.851-93.679
			h38.227c27.36,38.387,71.302,61.141,118.624,61.141c47.321,0,91.263-22.754,118.624-61.141h83.219
			C424.013,421.36,344.611,474.761,256,474.761z M163.015,340.496h185.971c-23.638,26.046-57.192,41.141-92.986,41.141
			C220.206,381.637,186.653,366.542,163.015,340.496z M491.999,320.496h-19.646c-0.003,0-0.005,0-0.008,0H369.356
			c-0.003,0-0.005,0-0.008,0H142.652c-0.002,0-0.005,0-0.007,0H39.654c-0.003,0-0.005,0-0.008,0H20V191.501h19.646
			c0.003,0,0.005,0.001,0.008,0.001h102.99c0.003,0,0.005-0.001,0.008-0.001h226.696c0.003,0,0.005,0.001,0.008,0.001h102.989
			c0.003,0,0.005-0.001,0.008-0.001h19.646V320.496z"/>
	</g>
</g>
<g>
	<g>
		<path d="M122.915,279.196h-23.35v-56.123c0-3.379-3.994-4.813-7.988-4.813s-7.988,1.434-7.988,4.813v65.136
			c0,3.277,3.483,4.916,6.965,4.916h32.363c3.073,0,4.609-3.482,4.609-6.964C127.525,282.678,125.988,279.196,122.915,279.196z"/>
	</g>
</g>
<g>
	<g>
		<path d="M157.122,218.259c-14.134,0-25.092,6.555-25.092,24.17v27.14c0,17.615,10.958,24.169,25.092,24.169
			c14.133,0,25.194-6.555,25.194-24.169v-27.14C182.315,224.813,171.255,218.259,157.122,218.259z M166.339,269.569
			c0,7.066-3.482,10.241-9.217,10.241c-5.736,0-9.115-3.175-9.115-10.241v-27.14c0-7.066,3.379-10.241,9.115-10.241
			c5.735,0,9.217,3.175,9.217,10.241V269.569z"/>
	</g>
</g>
<g>
	<g>
		<path d="M236.901,218.259c-3.994,0-7.988,1.434-7.988,4.813v34.821l-16.591-31.646c-3.892-7.477-6.042-7.988-11.778-7.988
			c-3.994,0-7.988,1.536-7.988,4.916v65.034c0,3.277,3.994,4.916,7.988,4.916c3.994,0,7.988-1.639,7.988-4.916v-34.821
			l19.459,35.436c1.946,3.584,5.223,4.301,8.91,4.301c3.994,0,7.988-1.639,7.988-4.916v-65.136
			C244.889,219.692,240.895,218.259,236.901,218.259z"/>
	</g>
</g>
<g>
	<g>
		<path d="M281.04,218.259h-18.127c-4.199,0-6.965,2.253-6.965,4.813v65.238c0,2.56,2.765,4.813,6.965,4.813h18.127
			c14.134,0,25.195-6.554,25.195-24.17v-26.525C306.235,224.813,295.174,218.259,281.04,218.259z M290.258,268.955
			c0,6.964-3.482,10.242-9.218,10.242h-9.115v-47.008h9.115c5.736,0,9.218,3.277,9.218,10.241V268.955z"/>
	</g>
</g>
<g>
	<g>
		<path d="M340.645,218.259c-14.134,0-25.091,6.555-25.091,24.17v27.14c0,17.615,10.958,24.169,25.091,24.169
			c14.133,0,25.194-6.555,25.194-24.169v-27.14C365.838,224.813,354.777,218.259,340.645,218.259z M349.862,269.569
			c0,7.066-3.482,10.241-9.217,10.241c-5.736,0-9.115-3.175-9.115-10.241v-27.14c0-7.066,3.379-10.241,9.115-10.241
			c5.735,0,9.217,3.175,9.217,10.241V269.569z"/>
	</g>
</g>
<g>
	<g>
		<path d="M420.424,218.259c-3.994,0-7.988,1.434-7.988,4.813v34.821l-16.591-31.646c-3.892-7.477-6.042-7.988-11.778-7.988
			c-3.994,0-7.989,1.536-7.989,4.916v65.034c0,3.277,3.994,4.916,7.989,4.916c3.994,0,7.988-1.639,7.988-4.916v-34.821l19.46,35.436
			c1.946,3.584,5.223,4.301,8.91,4.301c3.994,0,7.988-1.639,7.988-4.916v-65.136C428.413,219.692,424.418,218.259,420.424,218.259z"
			/>
	</g>
</g>
<g>
</g>
<g>
</g>
<g>
</g>
<g>
</g>
<g>
</g>
<g>
</g>
<g>
</g>
<g>
</g>
<g>
</g>
<g>
</g>
<g>
</g>
<g>
</g>
<g>
</g>
<g>
</g>
<g>
</g>
</svg>
