<?xml version="1.0" encoding="iso-8859-1"?>
<!-- Generator: Adobe Illustrator 19.0.0, SVG Export Plug-In . SVG Version: 6.00 Build 0)  -->
<svg version="1.1" id="Capa_1" xmlns="http://www.w3.org/2000/svg" xmlns:xlink="http://www.w3.org/1999/xlink" x="0px" y="0px"
	 viewBox="0 0 512 512" style="enable-background:new 0 0 512 512;" xml:space="preserve">
<g>
	<g>
		<path d="M488.5,496.75v-15.048c11.528-3.274,20-13.889,20-26.452v-30c0-15.164-12.337-27.5-27.5-27.5
			c-15.163,0-27.5,12.336-27.5,27.5v30c0,12.563,8.472,23.178,20,26.452v15.048h-50v-29h-15v-59h-40v-79h-30v-179h-15v-40h-15v-30
			h-30v-48h-15V0.25h-15v32.5h-15v48h-30v30h-15v40h-15v179h-30v79h-40v59h-15v29h-50v-15.048c11.528-3.274,20-13.889,20-26.452v-30
			c0-15.164-12.336-27.5-27.5-27.5s-27.5,12.336-27.5,27.5v30c0,12.563,8.472,23.178,20,26.452v15.048H0v15h512v-15H488.5z
			 M18.5,455.25v-30c0-6.893,5.607-12.5,12.5-12.5s12.5,5.607,12.5,12.5v30c0,6.893-5.607,12.5-12.5,12.5S18.5,462.143,18.5,455.25z
			 M368.5,423.75h25v44h-25V423.75z M338.5,344.75h15v35h-15V344.75z M353.5,394.75v73h-45v-73H353.5z M248.5,47.75h15v33h-15V47.75
			z M218.5,95.75h75v15h-15v230h-45v-230h-15V95.75z M308.5,125.75v25h-15v-25H308.5z M203.5,125.75h15v25h-15V125.75z
			 M188.5,165.75h30v190h75v-190h30v214h-30v88h-75v-88h-30V165.75z M158.5,344.75h15v35h-15V344.75z M158.5,394.75h45v73h-45
			V394.75z M118.5,423.75h25v44h-25V423.75z M408.5,496.75h-305v-14h305V496.75z M468.5,455.25v-30c0-6.893,5.607-12.5,12.5-12.5
			s12.5,5.607,12.5,12.5v30c0,6.893-5.607,12.5-12.5,12.5S468.5,462.143,468.5,455.25z"/>
	</g>
</g>
<g>
	<g>
		<path d="M158.717,47.823C154.67,33.629,141.465,23.25,126.25,23.25c-1.9,0-3.788,0.16-5.651,0.476
			C112.131,14.788,100.502,9.75,88,9.75c-16.267,0-31.021,8.673-38.987,22.509c-0.254-0.006-0.509-0.009-0.763-0.009
			C29.64,32.25,14.5,47.39,14.5,66s15.14,33.75,33.75,33.75h105c14.474,0,26.25-11.776,26.25-26.25
			C179.5,60.9,170.576,50.345,158.717,47.823z M153.249,84.75h-105C37.911,84.75,29.5,76.339,29.5,66s8.411-18.75,18.75-18.75
			c1.233,0,2.475,0.123,3.69,0.365l6.011,1.197l2.371-5.652C65.012,31.976,75.876,24.75,88,24.75
			c9.467,0,18.185,4.336,23.919,11.898l3.255,4.293l5.107-1.715c1.93-0.647,3.938-0.976,5.968-0.976
			c9.663,0,17.866,7.533,18.675,17.15l0.605,7.188l7.206-0.324c0.17-0.008,0.342-0.014,0.514-0.014c6.203,0,11.25,5.047,11.25,11.25
			S159.452,84.75,153.249,84.75z"/>
	</g>
</g>
<g>
	<g>
		<path d="M471.6,137.75c-1.893,0-3.776,0.173-5.637,0.517C458.9,130.346,448.795,125.75,438,125.75
			c-15.844,0-29.842,10.03-35.192,24.531c-11.579,2.405-20.308,12.687-20.308,24.969c0,14.061,11.439,25.5,25.5,25.5h63.6
			c17.369,0,31.5-14.131,31.5-31.5S488.969,137.75,471.6,137.75z M471.6,185.75H408c-5.79,0-10.5-4.71-10.5-10.5
			c0-5.746,4.64-10.429,10.37-10.499c0.155,0.01,0.312,0.02,0.469,0.025l6.351,0.218l1.257-6.229
			c2.108-10.439,11.383-18.015,22.053-18.015c7.607,0,14.646,3.809,18.829,10.189l3.303,5.036l5.631-2.136
			c1.904-0.723,3.868-1.089,5.837-1.089c9.098,0,16.5,7.402,16.5,16.5C488.1,178.348,480.698,185.75,471.6,185.75z"/>
	</g>
</g>
<g>
	<g>
		<path d="M90.255,146.37C85.447,134.148,73.496,125.75,60,125.75c-9.119,0-17.67,3.785-23.766,10.333
			c-1.4-0.222-2.814-0.333-4.234-0.333c-15.164,0-27.5,12.336-27.5,27.5s12.336,27.5,27.5,27.5h53c12.407,0,22.5-10.093,22.5-22.5
			C107.5,157.652,100.136,148.743,90.255,146.37z M85,175.749H32c-6.893,0-12.5-5.607-12.5-12.5S25.107,150.75,32,150.75
			c1.488,0,2.976,0.278,4.422,0.827l5.631,2.136l3.302-5.037c3.254-4.963,8.729-7.926,14.645-7.926
			c8.299,0,15.513,5.892,17.152,14.009l1.255,6.216l6.338-0.205c0.125-0.004,0.25-0.011,0.393-0.02
			c4.072,0.074,7.362,3.409,7.362,7.499C92.5,172.385,89.136,175.749,85,175.749z"/>
	</g>
</g>
<g>
	<g>
		<path d="M386,29.75c-23.435,0-42.5,19.065-42.5,42.5s19.065,42.5,42.5,42.5s42.5-19.065,42.5-42.5S409.435,29.75,386,29.75z
			 M386,99.75c-15.163,0-27.5-12.336-27.5-27.5s12.337-27.5,27.5-27.5c15.163,0,27.5,12.336,27.5,27.5S401.163,99.75,386,99.75z"/>
	</g>
</g>
<g>
	<g>
		<rect x="324.5" y="408.75" width="15" height="15"/>
	</g>
</g>
<g>
	<g>
		<rect x="324.5" y="438.75" width="15" height="15"/>
	</g>
</g>
<g>
	<g>
		<rect x="173.5" y="408.75" width="15" height="15"/>
	</g>
</g>
<g>
	<g>
		<rect x="173.5" y="438.75" width="15" height="15"/>
	</g>
</g>
<g>
	<g>
		<rect x="234.5" y="408.75" width="15" height="15"/>
	</g>
</g>
<g>
	<g>
		<rect x="234.5" y="438.75" width="15" height="15"/>
	</g>
</g>
<g>
	<g>
		<rect x="234.5" y="378.75" width="15" height="15"/>
	</g>
</g>
<g>
	<g>
		<rect x="264.5" y="408.75" width="15" height="15"/>
	</g>
</g>
<g>
	<g>
		<rect x="264.5" y="438.75" width="15" height="15"/>
	</g>
</g>
<g>
	<g>
		<rect x="264.5" y="378.75" width="15" height="15"/>
	</g>
</g>
<g>
	<g>
		<rect x="248.5" y="300.75" width="15" height="15"/>
	</g>
</g>
<g>
	<g>
		<rect x="248.5" y="120.75" width="15" height="15"/>
	</g>
</g>
<g>
	<g>
		<rect x="248.5" y="270.75" width="15" height="15"/>
	</g>
</g>
<g>
	<g>
		<rect x="248.5" y="210.75" width="15" height="15"/>
	</g>
</g>
<g>
	<g>
		<rect x="248.5" y="240.75" width="15" height="15"/>
	</g>
</g>
<g>
	<g>
		<rect x="248.5" y="180.75" width="15" height="15"/>
	</g>
</g>
<g>
	<g>
		<rect x="248.5" y="150.75" width="15" height="15"/>
	</g>
</g>
<g>
	<g>
		<rect x="118" y="53.75" width="15" height="15"/>
	</g>
</g>
<g>
	<g>
		<rect x="69" y="53.75" width="34" height="15"/>
	</g>
</g>
<g>
	<g>
		<rect x="430" y="154.75" width="15" height="15"/>
	</g>
</g>
<g>
	<g>
		<rect x="378.5" y="64.75" width="15" height="15"/>
	</g>
</g>
<g>
</g>
<g>
</g>
<g>
</g>
<g>
</g>
<g>
</g>
<g>
</g>
<g>
</g>
<g>
</g>
<g>
</g>
<g>
</g>
<g>
</g>
<g>
</g>
<g>
</g>
<g>
</g>
<g>
</g>
</svg>
