<?xml version="1.0" encoding="iso-8859-1"?>
<!-- Generator: Adobe Illustrator 19.0.0, SVG Export Plug-In . SVG Version: 6.00 Build 0)  -->
<svg version="1.1" id="Capa_1" xmlns="http://www.w3.org/2000/svg" xmlns:xlink="http://www.w3.org/1999/xlink" x="0px" y="0px"
	 viewBox="0 0 512 512" style="enable-background:new 0 0 512 512;" xml:space="preserve">
<g>
	<g>
		<path d="M504.396,294.922h-59.689V279.42h59.686c4.2,0,7.604-3.405,7.604-7.604c0-4.199-3.404-7.604-7.604-7.604h-25.857V195.83
			c6.714,6.216,13.982,11.832,21.771,16.795c1.266,0.807,2.682,1.192,4.079,1.192c2.511,0,4.969-1.244,6.42-3.518
			c2.257-3.541,1.215-8.243-2.327-10.499c-14.395-9.173-26.837-20.803-36.982-34.57c-17.489-23.701-26.749-51.853-26.791-81.421
			v-0.203c0-4.199-3.404-7.604-7.604-7.604h-35.791c-4.2,0-7.604,3.405-7.604,7.604c0,75.92-61.755,137.688-137.671,137.708
			c-0.013,0-0.026-0.002-0.04-0.002s-0.025,0.002-0.039,0.002c-75.914-0.022-137.667-61.789-137.667-137.708
			c0-4.199-3.404-7.604-7.604-7.604h-35.79c-4.2,0-7.604,3.405-7.604,7.604v0.203c-0.043,29.568-9.301,57.719-26.793,81.425
			c-10.142,13.762-22.583,25.391-36.98,34.566c-3.541,2.257-4.584,6.957-2.327,10.499c1.451,2.275,3.907,3.518,6.42,3.518
			c1.398,0,2.812-0.385,4.079-1.192c7.788-4.964,15.058-10.579,21.771-16.794v68.381H7.606c-4.2,0-7.604,3.405-7.604,7.604
			c0,4.199,3.404,7.604,7.604,7.604h59.686v15.502H7.604c-4.2,0-7.604,3.405-7.604,7.604s3.404,7.604,7.604,7.604h59.688v47.954
			h-2.361c-4.2,0-7.604,3.405-7.604,7.604v22.452c0,4.199,3.404,7.604,7.604,7.604s7.604-3.405,7.604-7.604v-14.848h40.519v28.714
			c0,4.199,3.404,7.604,7.604,7.604c4.2,0,7.604-3.405,7.604-7.604v-36.318c0-4.199-3.404-7.604-7.604-7.604h-2.366V310.13h275.417
			v47.954h-2.364c-4.2,0-7.604,3.405-7.604,7.604v36.318c0,4.199,3.404,7.604,7.604,7.604s7.604-3.405,7.604-7.604v-28.714h40.519
			v14.848c0,4.199,3.404,7.604,7.604,7.604s7.604-3.405,7.604-7.604v-22.452c0-4.199-3.404-7.604-7.604-7.604h-2.363V310.13h59.689
			c4.2,0,7.604-3.405,7.604-7.604S508.596,294.922,504.396,294.922z M444.708,150.21c4.067,8.374,8.922,16.417,14.55,24.045
			c1.321,1.792,2.681,3.549,4.072,5.277v84.68h-18.622V150.21z M103.084,358.079H82.5V197.838c0-4.199-3.404-7.604-7.604-7.604
			c-4.2,0-7.604,3.405-7.604,7.604v66.373H48.67v-84.679c1.39-1.727,2.749-3.483,4.07-5.274
			c5.629-7.628,10.485-15.672,14.553-24.048v22.279c0,4.199,3.404,7.604,7.604,7.604s7.604-3.405,7.604-7.604v-81.28h20.583V358.079
			z M337.927,212.668c7.828-4.986,15.169-10.669,21.947-16.953v68.496h-21.947V212.668z M300.77,229.83
			c7.583-2.326,14.915-5.225,21.948-8.65v43.032H300.77V229.83z M263.601,236.332c7.473-0.368,14.804-1.282,21.961-2.689v30.569
			h-21.961V236.332z M226.446,233.645c7.152,1.406,14.479,2.32,21.947,2.687v27.88h-21.947V233.645z M189.277,221.177
			c7.037,3.427,14.375,6.329,21.961,8.655v34.379h-21.961V221.177z M152.121,195.711c6.778,6.285,14.119,11.968,21.947,16.955
			v51.546h-21.947V195.711z M118.291,150.054c5.093,10.512,11.36,20.351,18.622,29.358v84.799h-18.622V150.054z M393.708,294.922
			H118.291V279.42h275.417V294.922z M393.708,264.212h-18.626v-84.794c7.262-9.009,13.532-18.85,18.626-29.363V264.212z
			 M429.499,358.079h-20.583V91.209h20.583V358.079z"/>
	</g>
</g>
<g>
	<g>
		<path d="M504.393,420.789c-13.258,0-19.574-4.124-26.887-8.9c-8.167-5.333-17.422-11.378-35.212-11.378
			c-17.789,0-27.045,6.043-35.209,11.373c-6.236,4.072-11.622,7.588-21.117,8.604c-1.818,0.199-3.76,0.299-5.773,0.299
			c-13.266,0-19.583-4.125-26.898-8.903c-8.165-5.332-17.418-11.375-35.201-11.375c-9.918,0-18.187,1.862-26.024,5.863
			c-3.74,1.909-5.225,6.489-3.316,10.23s6.492,5.224,10.229,3.316c3.831-1.956,9.467-4.2,19.111-4.2
			c13.257,0,19.573,4.124,26.886,8.9c8.167,5.333,17.422,11.378,35.213,11.378c2.563,0,5.061-0.131,7.409-0.387
			c13.113-1.404,20.913-6.497,27.795-10.99c7.314-4.775,13.63-8.9,26.895-8.9c13.265,0,19.582,4.125,26.897,8.903
			c8.165,5.332,17.418,11.375,35.202,11.375c4.2,0,7.604-3.405,7.604-7.604C511.997,424.194,508.593,420.789,504.393,420.789z"/>
	</g>
</g>
<g>
	<g>
		<path d="M282.469,421.849c-1.632-3.871-6.093-5.683-9.961-4.05c-4.837,2.041-10.084,2.991-16.511,2.991
			c-13.258,0-19.574-4.124-26.887-8.9c-8.167-5.333-17.422-11.378-35.212-11.378c-17.785,0-27.039,6.044-35.203,11.377
			c-7.312,4.776-13.626,8.901-26.887,8.901c-2.013,0-3.955-0.101-5.791-0.301c-9.485-1.015-14.873-4.532-21.112-8.606
			c-8.164-5.33-17.416-11.37-35.196-11.37c-17.784,0-27.038,6.043-35.202,11.375c-7.315,4.776-13.631,8.903-26.897,8.903
			c-4.2,0-7.604,3.405-7.604,7.604c0,4.199,3.404,7.604,7.604,7.604c17.791,0,27.047-6.045,35.212-11.378
			c7.313-4.775,13.627-8.9,26.887-8.9c13.255,0,19.571,4.122,26.883,8.897c6.884,4.494,14.687,9.589,27.79,10.991
			c2.365,0.259,4.864,0.389,7.427,0.389c17.785,0,27.039-6.044,35.203-11.377c7.312-4.776,13.626-8.901,26.887-8.901
			c13.265,0,19.582,4.125,26.897,8.903c8.165,5.332,17.418,11.375,35.202,11.375c8.409,0,15.743-1.37,22.422-4.187
			C282.287,430.178,284.101,425.718,282.469,421.849z"/>
	</g>
</g>
<g>
</g>
<g>
</g>
<g>
</g>
<g>
</g>
<g>
</g>
<g>
</g>
<g>
</g>
<g>
</g>
<g>
</g>
<g>
</g>
<g>
</g>
<g>
</g>
<g>
</g>
<g>
</g>
<g>
</g>
</svg>
