<?xml version="1.0" encoding="iso-8859-1"?>
<!-- Generator: Adobe Illustrator 19.0.0, SVG Export Plug-In . SVG Version: 6.00 Build 0)  -->
<svg version="1.1" id="Capa_1" xmlns="http://www.w3.org/2000/svg" xmlns:xlink="http://www.w3.org/1999/xlink" x="0px" y="0px"
	 viewBox="0 0 512 512" style="enable-background:new 0 0 512 512;" xml:space="preserve">
<g>
	<g>
		<path d="M119.542,267.2H98.029c-13.724,0-24.89-11.095-24.89-24.732c0-4.143-3.357-7.5-7.5-7.5c-4.143,0-7.5,3.357-7.5,7.5
			c0,21.908,17.895,39.732,39.891,39.732h21.512c4.143,0,7.5-3.357,7.5-7.5S123.685,267.2,119.542,267.2z"/>
	</g>
</g>
<g>
	<g>
		<path d="M190.017,322.708h-64.072c-21.162,0-38.379,17.147-38.379,38.226c0,4.143,3.357,7.5,7.5,7.5s7.5-3.358,7.5-7.5
			c0-12.807,10.487-23.226,23.379-23.226h64.072c4.143,0,7.5-3.357,7.5-7.5S194.16,322.708,190.017,322.708z"/>
	</g>
</g>
<g>
	<g>
		<path d="M251.127,322.708h-31.109c-4.143,0-7.5,3.357-7.5,7.5s3.357,7.5,7.5,7.5h31.109c4.143,0,7.5-3.357,7.5-7.5
			S255.269,322.708,251.127,322.708z"/>
	</g>
</g>
<g>
	<g>
		<path d="M198.392,176.977c-4.143,0-7.5,3.358-7.5,7.5c0,21.446-17.55,38.893-39.122,38.893c-4.143,0-7.5,3.357-7.5,7.5
			s3.357,7.5,7.5,7.5c29.843,0,54.122-24.176,54.122-53.893C205.892,180.335,202.535,176.977,198.392,176.977z"/>
	</g>
</g>
<g>
	<g>
		<path d="M184.567,63.596c-17.916-1.15-33.45,12.433-34.612,30.289c-0.269,4.134,2.864,7.702,6.997,7.972
			c0.166,0.011,0.331,0.016,0.495,0.016c3.92,0,7.218-3.046,7.477-7.013c0.624-9.608,9.004-16.905,18.679-16.295
			c4.137,0.277,7.7-2.868,7.966-7.002C191.836,67.429,188.701,63.863,184.567,63.596z"/>
	</g>
</g>
<g>
	<g>
		<path d="M159.344,356.104c-4.143,0-7.5,3.357-7.5,7.5s3.357,7.5,7.5,7.5c12.385,0,22.461,10.009,22.461,22.311
			c0,12.305-10.076,22.314-22.461,22.314c-4.143,0-7.5,3.357-7.5,7.5s3.357,7.5,7.5,7.5c20.656,0,37.461-16.738,37.461-37.314
			C196.805,372.842,180,356.104,159.344,356.104z"/>
	</g>
</g>
<g>
	<g>
		<path d="M236.1,179.493c-4.143,0-7.5,3.357-7.5,7.5s3.357,7.5,7.5,7.5c9.949,0,18.044,8.037,18.044,17.917
			c0,9.881-8.095,17.919-18.044,17.919c-4.143,0-7.5,3.357-7.5,7.5s3.357,7.5,7.5,7.5c18.221,0,33.044-14.768,33.044-32.919
			C269.144,194.26,254.321,179.493,236.1,179.493z"/>
	</g>
</g>
<g>
	<g>
		<path d="M103.981,131.807c-4.143,0-7.5,3.357-7.5,7.5s3.357,7.5,7.5,7.5c17.094,0,31,13.82,31,30.808
			c0,16.989-13.906,30.81-31,30.81c-4.143,0-7.5,3.357-7.5,7.5s3.357,7.5,7.5,7.5c25.364,0,46-20.55,46-45.81
			C149.981,152.356,129.345,131.807,103.981,131.807z"/>
	</g>
</g>
<g>
	<g>
		<path d="M456.562,131.467c-14.097,0-25.566,11.429-25.566,25.477c0,14.049,11.469,25.478,25.566,25.478
			c14.097,0,25.566-11.429,25.566-25.478C482.128,142.896,470.659,131.467,456.562,131.467z M456.563,167.423
			c-5.826,0-10.566-4.7-10.566-10.478c-0.001-5.777,4.739-10.477,10.566-10.477c5.826,0,10.566,4.7,10.566,10.477
			C467.129,162.722,462.389,167.423,456.563,167.423z"/>
	</g>
</g>
<g>
	<g>
		<path d="M481.622,323.418c-14.098,0-25.566,11.429-25.566,25.478s11.469,25.477,25.566,25.477s25.565-11.429,25.565-25.477
			C507.187,334.848,495.719,323.418,481.622,323.418z M481.622,359.373c-5.826,0-10.566-4.7-10.566-10.477
			c0-5.777,4.74-10.478,10.566-10.478s10.565,4.7,10.565,10.478C492.188,354.673,487.448,359.373,481.622,359.373z"/>
	</g>
</g>
<g>
	<g>
		<path d="M465.886,233.531c-4.326,0.001-8.402,1.081-11.978,2.98l-14.62-14.548c-2.938-2.922-7.685-2.909-10.606,0.026
			c-2.922,2.936-2.91,7.684,0.026,10.606l14.583,14.511c-1.893,3.556-2.971,7.605-2.971,11.902
			c0,14.049,11.469,25.478,25.566,25.478c14.098,0,25.566-11.429,25.566-25.478C491.452,244.96,479.983,233.531,465.886,233.531z
			 M465.887,269.487c-5.826,0-10.566-4.7-10.566-10.478c0-5.776,4.74-10.477,10.566-10.477c5.826,0,10.566,4.7,10.566,10.477
			C476.453,264.786,471.713,269.487,465.887,269.487z"/>
	</g>
</g>
<g>
	<g>
		<path d="M448.986,401.706c-14.098,0-25.566,11.429-25.566,25.478s11.469,25.478,25.566,25.478
			c14.098,0,25.566-11.429,25.566-25.478S463.084,401.706,448.986,401.706z M448.986,437.661c-5.826,0-10.566-4.7-10.566-10.478
			c0-5.777,4.74-10.478,10.566-10.478c5.826,0,10.566,4.7,10.566,10.478C459.553,432.961,454.813,437.661,448.986,437.661z"/>
	</g>
</g>
<g>
	<g>
		<path d="M361.231,140.945c4.767,0,10.455-2.348,13.834-5.71l28.974-28.832c2.912,1.151,6.08,1.791,9.397,1.791
			c14.098,0,25.566-11.429,25.566-25.478c0-14.048-11.469-25.476-25.566-25.476c-14.097,0-25.565,11.429-25.565,25.476
			c0,5.275,1.617,10.182,4.385,14.252L364.487,124.6c-0.587,0.563-2.445,1.331-3.256,1.345h-61.906V76.298h17.413
			c3.221,10.399,12.955,17.978,24.434,17.978c14.098,0,25.566-11.429,25.566-25.478c0-14.048-11.469-25.477-25.566-25.477
			c-11.479,0-21.213,7.578-24.434,17.977h-17.413v-1.136C299.325,26.988,272.22,0,238.902,0c-23.818,0-45.184,13.882-54.934,35.108
			c-1.499-0.106-2.994-0.16-4.477-0.16c-34.628,0-62.893,27.646-63.696,61.936c-2.99-0.426-6.014-0.641-9.051-0.641
			c-35.132,0-63.713,28.458-63.713,63.437c0,7.678,1.347,15.107,4.011,22.174C20.818,197.414,4.813,225.21,4.813,256
			c0,16.532,4.709,32.602,13.617,46.471c7.338,11.424,17.224,20.933,28.852,27.815c-2.794,7.241-4.251,14.995-4.251,22.781
			c0,15.442,5.638,30.323,15.875,41.902c2.743,3.103,7.483,3.395,10.587,0.651c3.104-2.744,3.395-7.483,0.651-10.587
			c-7.812-8.835-12.113-20.188-12.113-31.967c0-7.924,1.873-15.482,5.561-22.466c4.402-8.361,11.241-15.421,19.892-20.105
			c3.643-1.973,4.996-6.524,3.023-10.166c-1.972-3.644-6.525-4.999-10.166-3.023c-8.959,4.853-16.428,11.658-22.013,19.714
			C32.882,304.119,19.813,281.308,19.813,256c0-27.06,14.988-51.318,39.186-63.596c0,0,14.002-7.79,32.59-7.79
			c4.143,0,7.5-3.357,7.5-7.5s-3.357-7.5-7.5-7.5c-10.896,0-21.326,2.015-30.942,5.682c-1.724-5-2.614-10.225-2.614-15.615
			c0-26.709,21.852-48.437,48.713-48.437c5.049,0,10.044,0.773,14.846,2.298c2.461,0.781,5.15,0.242,7.119-1.428
			c1.97-1.67,2.942-4.234,2.573-6.79c-0.335-2.328-0.505-4.662-0.505-6.938c0-26.708,21.853-48.437,48.714-48.437
			c2.638,0,5.334,0.226,8.017,0.667c23.058,3.814,40.696,23.777,40.696,47.77c0,4.143,3.357,7.5,7.5,7.5s7.5-3.357,7.5-7.5
			c0-28.102-18.455-51.979-43.929-60.285C207.196,24.019,222.246,15,238.902,15c25.046,0,45.423,20.26,45.423,45.162v0.833H269.9
			c-4.143,0-7.5,3.357-7.5,7.5s3.357,7.5,7.5,7.5h14.425v49.949h-60.66c-13.725,0-24.891-11.094-24.891-24.73
			c0-4.143-3.357-7.5-7.5-7.5s-7.5,3.357-7.5,7.5c0,21.907,17.895,39.73,39.891,39.73h60.66V267.2H162.667
			c-4.143,0-7.5,3.357-7.5,7.5s3.357,7.5,7.5,7.5h121.658v102.976h-23.176c-21.162,0-38.378,17.147-38.378,38.225
			c0,4.143,3.357,7.5,7.5,7.5s7.5-3.357,7.5-7.5c0-12.806,10.487-23.225,23.378-23.225h23.176v51.662
			c0,1.178-0.06,2.342-0.149,3.497H269.9c-4.143,0-7.5,3.357-7.5,7.5s3.357,7.5,7.5,7.5h10.424
			C273.203,486.037,257.321,497,238.902,497c-16.544,0-31.539-8.926-39.498-22.873c9.059-2.959,17.396-7.933,24.42-14.709
			c2.981-2.876,3.066-7.624,0.19-10.604c-2.876-2.983-7.624-3.067-10.604-0.191c-7.162,6.91-16.115,11.371-25.783,12.983
			c-2.726,0.456-5.463,0.688-8.136,0.688c-26.861,0-48.714-21.729-48.714-48.438c0-0.683,0.041-1.392,0.074-2.094
			c6.054-2.464,11.741-5.836,16.813-10.07c3.18-2.654,3.605-7.384,0.95-10.564c-2.655-3.18-7.307-3.509-10.564-0.95
			C123,402,108.444,401.816,102.621,401.333c-4.14-0.351-7.752,2.726-8.096,6.853c-0.343,4.128,2.726,7.752,6.854,8.096
			c4.795,0.396,9.68,0.257,14.43-0.42c1.066,34.056,29.224,61.432,63.683,61.432c1.518,0,3.049-0.057,4.585-0.169
			C193.879,498.211,215.202,512,238.902,512c33.317,0,60.423-26.988,60.423-60.162v-16.574h39.758
			c0.814,0.014,2.672,0.781,3.257,1.343l17.881,17.793c-2.419,3.891-3.82,8.474-3.82,13.378c0,14.049,11.469,25.478,25.566,25.478
			c14.098,0,25.566-11.429,25.566-25.478S396.064,442.3,381.967,442.3c-3.707,0-7.228,0.797-10.412,2.217l-18.635-18.543
			c-3.379-3.362-9.067-5.71-13.834-5.71h-39.761v-40.092h65.2c3.221,10.399,12.955,17.978,24.435,17.978
			c14.098,0,25.566-11.429,25.566-25.478s-11.469-25.478-25.566-25.478c-11.479,0-21.214,7.578-24.435,17.978h-65.2v-50.24h78.022
			c3.221,10.399,12.955,17.978,24.435,17.978c14.098,0,25.566-11.429,25.566-25.478s-11.469-25.478-25.566-25.478
			c-11.48,0-21.214,7.578-24.435,17.978h-78.022v-54.589h18.578c3.222,10.398,12.956,17.977,24.435,17.977
			c14.098,0,25.566-11.429,25.566-25.477c0-14.049-11.469-25.478-25.566-25.478c-11.479,0-21.214,7.578-24.435,17.978h-18.578
			v-43.281h81.718c0.813,0.015,2.672,0.781,3.257,1.343l15.406,15.332c1.463,1.456,3.376,2.184,5.29,2.184
			c1.925,0,3.851-0.737,5.316-2.21c2.922-2.936,2.91-7.685-0.026-10.607l-15.406-15.332c-3.379-3.362-9.067-5.71-13.834-5.71
			h-81.721v-31.117H361.231z M413.436,72.239c5.826,0,10.566,4.7,10.566,10.476c0,5.777-4.74,10.478-10.566,10.478
			s-10.565-4.7-10.565-10.478C402.871,76.939,407.61,72.239,413.436,72.239z M341.172,58.321c5.826,0,10.566,4.7,10.566,10.477
			c0,5.777-4.74,10.478-10.566,10.478c-5.826,0-10.565-4.7-10.565-10.478C330.606,63.021,335.346,58.321,341.172,58.321z
			 M381.967,457.299c5.826,0,10.566,4.701,10.566,10.478c0,5.777-4.74,10.478-10.566,10.478c-5.826,0-10.566-4.7-10.566-10.478
			C371.401,462,376.141,457.299,381.967,457.299z M388.96,362.194c5.826,0,10.566,4.7,10.566,10.478
			c0,5.777-4.74,10.478-10.566,10.478s-10.566-4.7-10.566-10.478C378.394,366.895,383.134,362.194,388.96,362.194z M401.781,296.954
			c5.826,0,10.566,4.7,10.566,10.478c0,5.777-4.74,10.478-10.566,10.478c-5.826,0-10.566-4.7-10.566-10.478
			C391.215,301.654,395.955,296.954,401.781,296.954z M342.338,227.365c5.826,0,10.566,4.7,10.566,10.478
			c0,5.776-4.74,10.477-10.566,10.477c-5.826,0-10.566-4.7-10.566-10.477C331.772,232.065,336.512,227.365,342.338,227.365z"/>
	</g>
</g>
<g>
</g>
<g>
</g>
<g>
</g>
<g>
</g>
<g>
</g>
<g>
</g>
<g>
</g>
<g>
</g>
<g>
</g>
<g>
</g>
<g>
</g>
<g>
</g>
<g>
</g>
<g>
</g>
<g>
</g>
</svg>
