<?xml version="1.0" encoding="utf-8"?>
<!-- Generator: Adobe Illustrator 23.0.1, SVG Export Plug-In . SVG Version: 6.00 Build 0)  -->
<svg version="1.1" id="Capa_1" xmlns="http://www.w3.org/2000/svg" xmlns:xlink="http://www.w3.org/1999/xlink" x="0px" y="0px"
	 viewBox="0 0 512 512" style="enable-background:new 0 0 512 512;" xml:space="preserve">
<style type="text/css">
	.st0{fill:#FFFFFF;}
</style>
<g>
	<g>
		<path class="st0" d="M490.2,113.9c-13.9-24.7-29-29.2-59.6-31C399.9,80.9,322.8,80,256.1,80c-66.9,0-144,0.9-174.7,2.9
			c-30.6,1.8-45.7,6.3-59.7,31C7.4,138.6,0,181.1,0,255.9c0,0.1,0,0.1,0,0.1c0,0.1,0,0.1,0,0.1v0.1c0,74.5,7.4,117.3,21.7,141.7
			c14,24.7,29.1,29.2,59.7,31.3c30.7,1.8,107.8,2.8,174.7,2.8c66.8,0,143.9-1.1,174.6-2.8c30.7-2.1,45.8-6.6,59.6-31.3
			c14.4-24.4,21.7-67.2,21.7-141.7c0,0,0-0.1,0-0.2c0,0,0-0.1,0-0.1C512,181.1,504.7,138.6,490.2,113.9z M192,352V160l160,96
			L192,352z"/>
	</g>
</g>
</svg>
