<?xml version="1.0" encoding="UTF-8"?>
<svg xmlns="http://www.w3.org/2000/svg" xmlns:xlink="http://www.w3.org/1999/xlink">

    <defs>
      <path id="bab" d="M0 10h104v66H0z"/>
      <filter x="-28.4%" y="-41.7%" width="156.7%" height="189.4%" filterUnits="objectBoundingBox" id="baa">
        <feOffset dy="2" in="SourceAlpha" result="shadowOffsetOuter1"/>
        <feGaussianBlur stdDeviation="9.5" in="shadowOffsetOuter1" result="shadowBlurOuter1"/>
        <feColorMatrix values="0 0 0 0 0 0 0 0 0 0 0 0 0 0 0 0 0 0 0.102326766 0" in="shadowBlurOuter1"/>
      </filter>
    </defs>
    <g fill="none" fill-rule="evenodd">
      <g transform="translate(310)">
        <ellipse stroke="#D9DEE3" stroke-width="3" stroke-linecap="round" cx="59.635" cy="59.853" rx="59.635" ry="59.853"/>
        <path d="M81.093 33.987c-1.118.247-2.52 1.155-3.271 3.028-.866 2.146-1.303 5.374-1.538 8.697l1.84.367c1.056.204 6.323 1.557 6.352 8.271.026 6.723-5.228 8.12-6.233 8.323l-2.32.483c-.48 13.532-4.593 23.752-12.255 30.413-.315.273-.634.521-.95.774 8.035-.61 15.896-3.925 22.042-10.069 13.663-13.66 13.663-35.812 0-49.476-.202-.201-1.607-1.266-3.667-.811zM44.038 63.435l-2.188-.446c-1.056-.206-6.319-1.584-6.319-8.3 0-6.72 5.265-8.094 6.273-8.294l3.556-.725c1.806-8.442 5.49-15.123 10.983-19.898.313-.27.63-.52.948-.772-8.035.612-15.9 3.927-22.044 10.069-13.342 13.344-13.655 34.78-.939 48.5 1.762 1.67 7.1.834 8.343-2.617 1.125-4.047 1.345-10.696 1.387-17.517z" fill="#50E3C2"/>
        <path d="M39.483 94.789c.137.022 1.224.18 2.908.18 3.846 0 10.804-.826 16.732-5.976 6.818-5.928 10.182-15.726 10.004-29.108v-.756c0-.322.003-.626.003-.943l7.572-1.582c.899-.18.94-.892.937-1.78-.003-.885-.056-1.59-.955-1.763l-7.477-1.485c.34-14.162 2.108-22.547 10.735-22.662.974-.013 1.098-.774 1.169-1.746.066-.974.055-1.837-.91-1.986-.133-.022-1.22-.182-2.904-.182-3.843 0-10.805.825-16.732 5.973-5.247 4.564-8.427 11.449-9.543 20.483l-8.03 1.638c-.898.177-.947.883-.947 1.773 0 .885.05 1.593.948 1.77l7.608 1.549c-.01.641-.047 1.249-.04 1.906v.73c-.013 18.724-.748 30.1-10.817 30.235-.976.013-1.353.774-1.422 1.744-.066.976.196 1.839 1.16 1.988" fill="#236B5B"/>
      </g>
      <path d="M520.21 60.344V59s-.471.49 0 1.344M590.752 55.038v1.343c.082-.838 0-1.343 0-1.343" fill="#FFF"/>
      <path d="M555 114c-29.823 0-54-24.176-54-54 0-29.823 24.177-54 54-54s54 24.177 54 54c0 29.824-24.177 54-54 54z" fill="#6EC7E9"/>
      <path d="M551.086 64.415c17.144 11.42 39.834-1.848 39.666-6.718 0 0 1.596-6.844-8.236-10.244 13.278-19.2-39.946-18.865-40.884-3.779C518.732 46.236 521 57.53 521 57.53s4.538 12.596 30.085 6.886" fill="#FFF"/>
      <path d="M551.086 64.269c-25.547 5.71-30.085-6.886-30.085-6.886V74.85s1.176 15.786 29.917 9.572c11.429 8.397 37.817 3.023 39.834-6.885V57.55c.168 4.87-22.522 18.138-39.666 6.718" fill="#00498F"/>
      <g transform="translate(239 47)">
        <path d="M0 13h70" stroke-width="3" stroke="#D9DEE3" stroke-linecap="round"/>
        <path d="M60.902 12.853L47 1.1l3 12.28-3 11.225z" fill="#D9DEE3"/>
        <ellipse fill="#D9DEE3" cx="23.748" cy="12.883" rx="10.5" ry="10.443"/>
      </g>
      <path d="M430 60h70" stroke="#D9DEE3" stroke-width="3" stroke-linecap="round"/>
      <path d="M490.902 59.853L477 48.1l3 11.98-3 11.525z" fill="#D9DEE3"/>
      <ellipse cx="10.748" cy="10.883" rx="10.5" ry="10.443" transform="translate(443 49)" fill="#6EEDD8"/>
      <g transform="translate(19 22)">
        <use fill="#000" filter="url(#baa)" xlink:href="#bab"/>
        <use fill="#FFF" xlink:href="#bab"/>
        <rect fill="#7CC7FF" x="15" y="24" width="71" height="34" rx="2"/>
        <path d="M24 49.654h3.518v-6.7c0-2.597.818-3.66 2.726-3.66 1.66 0 2.255 1.038 2.255 3.14v7.22h3.518V41.79c0-3.165-.941-5.266-4.683-5.266-1.313 0-2.85.667-3.741 2.126h-.075V32H24v17.654zm17.146-7.764h5.724c-.322-1.78-1.09-2.72-2.8-2.72-2.28 0-2.85 1.731-2.924 2.72zm9.242 2.225h-9.242c.1 2.25 1.165 3.24 3.147 3.24 1.412 0 2.552-.866 2.775-1.657h3.097C49.175 48.739 47.068 50 44.17 50c-4.039 0-6.541-2.77-6.541-6.725 0-3.833 2.651-6.75 6.541-6.75 4.361 0 6.492 3.66 6.22 7.59zm1.933 5.539h3.519V32H52.32v17.654zm5.996 0h3.519V32h-3.519v17.654zm8.945-6.38c0 2.053.719 4.08 3.098 4.08 2.403 0 3.122-2.027 3.122-4.08 0-2.051-.719-4.104-3.122-4.104-2.38 0-3.098 2.053-3.098 4.105zm-3.518 0c0-4.079 2.601-6.75 6.616-6.75 4.038 0 6.64 2.671 6.64 6.75C77 47.33 74.398 50 70.36 50c-4.015 0-6.616-2.67-6.616-6.725z" fill="#FFF"/>
        <path d="M104 15V9.889C104 4.426 99.572 0 94.11 0H9.89C4.435 0 0 4.427 0 9.889V15v-4.778h104V15z" fill="#6EEDD8"/>
        <path d="M73.774 48.937l17.515 13.9s-7.456-.91-10.358.444c-2.901 1.353-7.768 8.008-7.768 8.008l.61-22.352z" fill="#586464"/>
        <path d="M78.464 58.562l5.072 10.876" stroke="#586464" stroke-width="7" stroke-linecap="square"/>
      </g>
      <g>
        <path d="M138.458 60.5h35.056" stroke="#D9DEE3" stroke-width="3" stroke-linecap="round"/>
        <path d="M137 76.471V44.758l16.523 15.857z" fill="#D9DEE3"/>
      </g>
      <g fill="#3D70B2">
        <path d="M178 45.823V89h57V45.823h-57zM174 28h65v65h-65V28z" fill-rule="nonzero"/>
        <text font-family="Helvetica Neue, HelveticaNeue, Arial" font-size="21" font-weight="bold" transform="translate(174 28)">
          <tspan x="15.71" y="45.403">API</tspan>
        </text>
      </g>
    </g>
    
</svg>
