<?xml version="1.0" encoding="UTF-8"?><svg xmlns="http://www.w3.org/2000/svg" xmlns:xlink="http://www.w3.org/1999/xlink"><symbol viewBox="-5 -5 70 70" id="Cloudant" xmlns="http://www.w3.org/2000/svg"><g fill="none" fill-rule="evenodd"><path d="M59.614 29.952c0 16.541-13.345 29.95-29.807 29.95C13.345 59.903 0 46.494 0 29.953 0 13.41 13.345 0 29.807 0 46.27 0 59.614 13.41 59.614 29.952" fill="#6EC7E9"/><path d="M27.007 32.472c9.103 6.286 21.151-1.017 21.062-3.698 0 0 .848-3.767-4.373-5.638 7.05-10.57-21.21-10.385-21.708-2.08-12.16 1.41-10.955 7.626-10.955 7.626s2.41 6.933 15.974 3.79" fill="#FFF"/><path d="M26.975 31.79C13.409 34.933 11 28 11 28v9.615s.625 8.689 15.885 5.268c6.069 4.622 20.08 1.664 21.15-3.79V28.092c.09 2.681-11.958 9.984-21.06 3.698" fill="#00498F"/></g></symbol><symbol viewBox="-5 -5 616 167" id="Cognitive_Data_Processing" xmlns="http://www.w3.org/2000/svg"><defs><linearGradient x1="50%" y1="0%" x2="50%" y2="100%" id="aba"><stop stop-color="#A272E6" offset="0%"/><stop stop-color="#AC6FE8" offset="100%"/></linearGradient></defs><g fill="none" fill-rule="evenodd"><path d="M119.458 93.5h35.056" stroke="#D9DEE3" stroke-width="3" stroke-linecap="round"/><path d="M118 109.471V77.758l16.523 15.857z" fill="#D9DEE3"/><path d="M160.133 93.482v-.83s-.294.302 0 .83M203.236 92.755v.83c.051-.518 0-.83 0-.83" fill="#FFF"/><g transform="translate(0 44)"><path fill="#6EEDD8" d="M37.748.147H90.09v52.437H37.748z"/><path d="M49.928 16.165h28.28M49.928 27.907h28.28M49.928 40.953h28.28" stroke="#006D5D" stroke-width="5" stroke-linecap="square"/><path fill="#6EEDD8" d="M0 24.145h52.342v52.437H0z"/><path fill="#006D5D" d="M8.774 41.269v27.674h37.547l-11.88-17.61-9.468 6.254z"/><ellipse fill="#006D5D" cx="37.318" cy="41.138" rx="5.331" ry="5.341"/><path fill="#6EEDD8" d="M48.796 45.835h52.342v52.437H48.796z"/><path fill="#006D5D" d="M88.718 73.002L66.425 88.54V57.465z"/></g><g transform="translate(216 80)"><path d="M0 13h70" stroke-width="3" stroke="#D9DEE3" stroke-linecap="round"/><path d="M60.902 12.853L47 1.1l3 12.28-3 11.225z" fill="#D9DEE3"/><ellipse fill="#D9DEE3" cx="23.748" cy="12.883" rx="10.5" ry="10.443"/></g><path d="M409 93h70" stroke="#D9DEE3" stroke-width="3" stroke-linecap="round"/><path d="M469.902 92.853L456 81.1l3 11.98-3 11.525z" fill="#D9DEE3"/><ellipse cx="10.748" cy="10.883" rx="10.5" ry="10.443" transform="translate(422 82)" fill="#6EEDD8"/><path d="M217.182 93.077c0 18.576-15.563 33.634-34.761 33.634s-34.76-15.058-34.76-33.634 15.562-33.634 34.76-33.634 34.76 15.058 34.76 33.634" fill="#6EC7E9"/><path d="M178.674 95.551c10.616 7.06 24.666-1.142 24.562-4.152 0 0 .988-4.23-5.1-6.332 8.222-11.87-24.735-11.662-25.316-2.336-14.18 1.583-12.775 8.564-12.775 8.564s2.81 7.786 18.63 4.256" fill="#FFF"/><path d="M178.674 95.461c-15.82 3.53-18.629-4.256-18.629-4.256V102s.729 9.758 18.525 5.917c7.077 5.19 23.417 1.869 24.666-4.256V91.309c.104 3.01-13.946 11.211-24.562 4.152" fill="#00498F"/><text font-family="IBMPlexSans, IBM Plex Sans" font-size="16" fill="#152935"><tspan x="457" y="27">IBM</tspan> <tspan x="457" y="47">Watson</tspan></text><g transform="translate(287 33)"><ellipse stroke="#D9DEE3" stroke-width="3" stroke-linecap="round" cx="59.635" cy="59.853" rx="59.635" ry="59.853"/><path d="M81.093 33.987c-1.118.247-2.52 1.155-3.271 3.028-.866 2.146-1.303 5.374-1.538 8.697l1.84.367c1.056.204 6.323 1.557 6.352 8.271.026 6.723-5.228 8.12-6.233 8.323l-2.32.483c-.48 13.532-4.593 23.752-12.255 30.413-.315.273-.634.521-.95.774 8.035-.61 15.896-3.925 22.042-10.069 13.663-13.66 13.663-35.812 0-49.476-.202-.201-1.607-1.266-3.667-.811zM44.038 63.435l-2.188-.446c-1.056-.206-6.319-1.584-6.319-8.3 0-6.72 5.265-8.094 6.273-8.294l3.556-.725c1.806-8.442 5.49-15.123 10.983-19.898.313-.27.63-.52.948-.772-8.035.612-15.9 3.927-22.044 10.069-13.342 13.344-13.655 34.78-.939 48.5 1.762 1.67 7.1.834 8.343-2.617 1.125-4.047 1.345-10.696 1.387-17.517z" fill="#50E3C2"/><path d="M39.483 94.789c.137.022 1.224.18 2.908.18 3.846 0 10.804-.826 16.732-5.976 6.818-5.928 10.182-15.726 10.004-29.108v-.756c0-.322.003-.626.003-.943l7.572-1.582c.899-.18.94-.892.937-1.78-.003-.885-.056-1.59-.955-1.763l-7.477-1.485c.34-14.162 2.108-22.547 10.735-22.662.974-.013 1.098-.774 1.169-1.746.066-.974.055-1.837-.91-1.986-.133-.022-1.22-.182-2.904-.182-3.843 0-10.805.825-16.732 5.973-5.247 4.564-8.427 11.449-9.543 20.483l-8.03 1.638c-.898.177-.947.883-.947 1.773 0 .885.05 1.593.948 1.77l7.608 1.549c-.01.641-.047 1.249-.04 1.906v.73c-.013 18.724-.748 30.1-10.817 30.235-.976.013-1.353.774-1.422 1.744-.066.976.196 1.839 1.16 1.988" fill="#236B5B"/></g><g transform="translate(385)"><circle fill="url(#aba)" cx="33.5" cy="33.5" r="33.5"/></g><g transform="translate(383 46)"><ellipse fill="#FFD800" cx="7.965" cy="8" rx="7.965" ry="8"/><path fill="#7E6912" d="M9.1 3.04H6.98v3.94H3.04V9.1h3.94v3.94H9.1V9.1h3.94V6.98H9.1z"/></g><g transform="translate(479 31)"><path fill="#FFE555" d="M37.748 27.757H90.09v52.437H37.748z"/><path d="M49.928 43.774h28.28M49.928 55.516h28.28M49.928 68.562h28.28" stroke="#735F00" stroke-width="5" stroke-linecap="square"/><path fill="#FFE555" d="M0 51.754h52.342v52.437H0z"/><path fill="#735F00" d="M8.774 68.878v27.674h37.547l-11.88-17.61-9.468 6.255z"/><ellipse fill="#735F00" cx="37.318" cy="68.747" rx="5.331" ry="5.341"/><path fill="#FFE555" d="M48.796 73.444h52.342v52.437H48.796z"/><path fill="#725E00" d="M88.718 100.611l-22.293 15.537V85.075z"/><path fill="#FFE555" d="M108.782 20.393l-4.1 12.175-12.174 4.1 12.185 4.131 4.13 12.186 4.1-12.176 12.176-4.1-12.186-4.13-4.13-12.186zM86.278.082l-2.952 8.766L74.56 11.8l8.773 2.974 2.974 8.774 2.952-8.767 8.767-2.952-8.774-2.974L86.278.082zM116.145 1.004l-2.706 8.035-8.035 2.706 8.042 2.727 2.726 8.042 2.706-8.036 8.036-2.706-8.043-2.726-2.726-8.042z"/></g></g></symbol><symbol viewBox="-5 -5 423 130" id="Conversational_Scenarios" xmlns="http://www.w3.org/2000/svg"><g fill="none" fill-rule="evenodd"><path d="M168.123 60.783V60s-.277.285 0 .783M200 60v.783c.049-.489 0-.783 0-.783" fill="#FFF"/><g transform="translate(293)"><ellipse stroke="#D9DEE3" stroke-width="3" stroke-linecap="round" cx="59.635" cy="59.853" rx="59.635" ry="59.853"/><path d="M81.093 33.987c-1.118.247-2.52 1.155-3.271 3.028-.866 2.146-1.303 5.374-1.538 8.697l1.84.367c1.056.204 6.323 1.557 6.352 8.271.026 6.723-5.228 8.12-6.233 8.323l-2.32.483c-.48 13.532-4.593 23.752-12.255 30.413-.315.273-.634.521-.95.774 8.035-.61 15.896-3.925 22.042-10.069 13.663-13.66 13.663-35.812 0-49.476-.202-.201-1.607-1.266-3.667-.811zM44.038 63.435l-2.188-.446c-1.056-.206-6.319-1.584-6.319-8.3 0-6.72 5.265-8.094 6.273-8.294l3.556-.725c1.806-8.442 5.49-15.123 10.983-19.898.313-.27.63-.52.948-.772-8.035.612-15.9 3.927-22.044 10.069-13.342 13.344-13.655 34.78-.939 48.5 1.762 1.67 7.1.834 8.343-2.617 1.125-4.047 1.345-10.696 1.387-17.517z" fill="#50E3C2"/><path d="M39.483 94.789c.137.022 1.224.18 2.908.18 3.846 0 10.804-.826 16.732-5.976 6.818-5.928 10.182-15.726 10.004-29.108v-.756c0-.322.003-.626.003-.943l7.572-1.582c.899-.18.94-.892.937-1.78-.003-.885-.056-1.59-.955-1.763l-7.477-1.485c.34-14.162 2.108-22.547 10.735-22.662.974-.013 1.098-.774 1.169-1.746.066-.974.055-1.837-.91-1.986-.133-.022-1.22-.182-2.904-.182-3.843 0-10.805.825-16.732 5.973-5.247 4.564-8.427 11.449-9.543 20.483l-8.03 1.638c-.898.177-.947.883-.947 1.773 0 .885.05 1.593.948 1.77l7.608 1.549c-.01.641-.047 1.249-.04 1.906v.73c-.013 18.724-.748 30.1-10.817 30.235-.976.013-1.353.774-1.422 1.744-.066.976.196 1.839 1.16 1.988" fill="#236B5B"/></g><path d="M119.458 60.5h35.056" stroke="#D9DEE3" stroke-width="3" stroke-linecap="round"/><path d="M118 76.471V44.758l16.523 15.857z" fill="#D9DEE3"/><g transform="translate(220 47)"><path d="M0 13h70" stroke-width="3" stroke="#D9DEE3" stroke-linecap="round"/><path d="M60.902 12.853L47 1.1l3 12.28-3 11.225z" fill="#D9DEE3"/><ellipse fill="#D9DEE3" cx="23.748" cy="12.883" rx="10.5" ry="10.443"/></g><g fill="#3D70B2"><path d="M159 45.823V89h57V45.823h-57zM155 28h65v65h-65V28z" fill-rule="nonzero"/><text font-family="Helvetica Neue, HelveticaNeue, Arial" font-size="21" font-weight="bold" transform="translate(155 28)"><tspan x="15.71" y="45.403">API</tspan></text></g><g fill-rule="nonzero"><path fill="#EEB700" d="M55 40H0v52l7.8-9.811H55z"/><path fill="#7FD3E2" d="M55 8H23v31l4.538-5.85H55z"/><path fill="#E90A6F" d="M28 65h55v52l-7.8-9.811H28z"/><path fill="#00B4A0" d="M61 34h32v31l-4.538-5.85H61z"/></g></g></symbol><symbol viewBox="-5 -5 176 148" id="Cost-Effective" xmlns="http://www.w3.org/2000/svg"><defs><ellipse id="ada" cx="16.365" cy="16.4" rx="16.365" ry="16.4"/></defs><g fill="none" fill-rule="evenodd"><path d="M48 67v49h0c0 5.523 4.477 10 10 10h52c5.523 0 10-4.477 10-10v-4.824" stroke="#D9DEE3" stroke-width="5" stroke-linecap="round"/><path d="M121 121c19.88 0 36-16.119 36-36 0-19.88-16.12-36-36-36-19.881 0-36 16.12-36 36 0 19.881 16.119 36 36 36" fill="#E9EEF2"/><path d="M101.375 84.498l5.84-5.888a2.737 2.737 0 0 0 .03-3.807 2.586 2.586 0 0 0-3.718-.03l-7.743 7.807a2.737 2.737 0 0 0 0 3.835l7.742 7.81a2.586 2.586 0 0 0 3.718-.028 2.737 2.737 0 0 0-.028-3.806l-5.84-5.893zM133.784 90.39a2.737 2.737 0 0 0-.028 3.807 2.586 2.586 0 0 0 3.717.03l7.743-7.807a2.737 2.737 0 0 0 0-3.835l-7.742-7.81a2.586 2.586 0 0 0-3.718.028 2.737 2.737 0 0 0 .028 3.806l5.84 5.893-5.84 5.888zM124.203 63.393l-12.61 40.63a2.694 2.694 0 0 0 1.8 3.374 2.73 2.73 0 0 0 3.404-1.79l12.61-40.63a2.694 2.694 0 0 0-1.8-3.374 2.73 2.73 0 0 0-3.404 1.79z" stroke="#CCD5DF" stroke-width=".3" fill="#8C9BA5" fill-rule="nonzero"/><g><path d="M43.462 99C66.36 99 84.923 80.42 84.923 57.5c0-22.918-18.564-41.5-41.46-41.5C20.564 16 2 34.583 2 57.5 2.001 80.42 20.565 99 43.462 99" fill="#7CC7FF"/><path d="M39.123 49.619l7.068 2.243C54.26 43.802 61.519 36.54 63.037 35c11.807 11.807 11.97 30.787.363 42.395-11.608 11.613-30.593 11.45-42.4-.357-.01.01 7.887-7.877 16.867-16.852l-2.26-7.1a4.96 4.96 0 0 1-4.755-1.292 4.954 4.954 0 0 1-.005-7.004c1.929-1.934 5.066-1.929 7 .005a4.955 4.955 0 0 1 1.276 4.824" fill="#1E3956"/></g><g fill="#CCD5DF"><path d="M142 67h11v-2.484h-6.67l6.23-7.032V55h-10.097v2.484h5.766L142 64.516zM156 60h9v-1.863h-5.457l5.097-5.274V51h-8.261v1.863h4.718L156 58.137z"/></g><g><g transform="translate(69.14 12.222)"><mask id="adb" fill="#fff"><use xlink:href="#ada"/></mask><use fill="#F5F7FA" xlink:href="#ada"/><ellipse stroke="#5AAAFA" stroke-width="8" cx="16.365" cy="16.4" rx="20.365" ry="20.4"/><path fill="#6EEDD8" mask="url(#adb)" d="M16.403-3.334l-.115 20.91h21.288l-5.02-15.293L18.07-3.96z"/><path stroke="#5AAAFA" stroke-width="4" mask="url(#adb)" d="M27.57 17.605H16.383l.066-14.359"/></g></g></g></symbol><symbol viewBox="-5 -5 589 130" id="Data_Processing" xmlns="http://www.w3.org/2000/svg"><g fill="none" fill-rule="evenodd"><path d="M167.13 60.83V60s-.293.302 0 .83M200 60v.83c.052-.518 0-.83 0-.83" fill="#FFF"/><g transform="translate(0 11)"><path fill="#6EEDD8" d="M37.748.147H90.09v52.437H37.748z"/><path d="M49.928 16.165h28.28M49.928 27.907h28.28M49.928 40.953h28.28" stroke="#006D5D" stroke-width="5" stroke-linecap="square"/><path fill="#6EEDD8" d="M0 24.145h52.342v52.437H0z"/><path fill="#006D5D" d="M8.774 41.269v27.674h37.547l-11.88-17.61-9.468 6.254z"/><ellipse fill="#006D5D" cx="37.318" cy="41.138" rx="5.331" ry="5.341"/><path fill="#6EEDD8" d="M48.796 45.835h52.342v52.437H48.796z"/><path fill="#006D5D" d="M88.718 73.002L66.425 88.54V57.465z"/></g><g transform="translate(477 9)"><path fill="#FFE555" d="M37.776.757h52.342v52.437H37.776z"/><path d="M49.956 16.774h28.28M49.956 28.516h28.28M49.956 41.562h28.28" stroke="#735F00" stroke-width="5" stroke-linecap="square"/><path fill="#FFE555" d="M.028 24.754H52.37v52.437H.028z"/><path fill="#735F00" d="M8.802 41.878v27.674H46.35l-11.88-17.61-9.467 6.255z"/><ellipse fill="#735F00" cx="37.346" cy="41.747" rx="5.331" ry="5.341"/><path fill="#FFE555" d="M48.824 46.444h52.342v52.437H48.824z"/><path fill="#725E00" d="M88.747 73.611L66.453 89.148V58.075z"/></g><g transform="translate(285)"><ellipse stroke="#D9DEE3" stroke-width="3" stroke-linecap="round" cx="60.132" cy="59.853" rx="60.132" ry="59.853"/><path d="M82.091 33.987c-1.133.247-2.554 1.155-3.317 3.028-.877 2.146-1.32 5.374-1.56 8.697l1.866.367c1.071.204 6.413 1.557 6.442 8.271.027 6.723-5.301 8.12-6.32 8.323l-2.354.483c-.486 13.532-4.657 23.752-12.427 30.413-.32.273-.643.521-.963.774 8.148-.61 16.12-3.925 22.352-10.069a34.641 34.641 0 0 0 0-49.476c-.205-.201-1.63-1.266-3.719-.811zM44.514 63.435l-2.218-.446c-1.071-.206-6.408-1.584-6.408-8.3 0-6.72 5.34-8.094 6.36-8.294l3.607-.725c1.832-8.442 5.567-15.123 11.138-19.898.317-.27.639-.52.96-.772-8.147.612-16.123 3.927-22.353 10.069-13.53 13.344-13.848 34.78-.952 48.5 1.787 1.67 7.199.834 8.46-2.617 1.141-4.047 1.364-10.696 1.406-17.517z" fill="#50E3C2"/><path d="M39.895 94.789c.14.022 1.242.18 2.95.18 3.899 0 10.955-.826 16.967-5.976 6.914-5.928 10.325-15.726 10.145-29.108v-.756l.002-.943 7.68-1.582c.911-.18.954-.892.95-1.78-.003-.885-.057-1.59-.968-1.763l-7.583-1.485c.344-14.162 2.138-22.547 10.886-22.662.987-.013 1.113-.774 1.185-1.746.068-.974.057-1.837-.922-1.986-.135-.022-1.238-.182-2.945-.182-3.897 0-10.958.825-16.968 5.973-5.32 4.564-8.545 11.449-9.677 20.483l-8.143 1.638c-.91.177-.96.883-.96 1.773 0 .885.05 1.593.96 1.77l7.716 1.549c-.01.641-.048 1.249-.04 1.906v.73c-.014 18.724-.759 30.1-10.97 30.235-.99.013-1.372.774-1.442 1.744-.067.976.198 1.839 1.177 1.988" fill="#236B5B"/></g><path d="M116.458 60.5h35.056" stroke="#D9DEE3" stroke-width="3" stroke-linecap="round"/><path d="M115 76.471V44.758l16.523 15.857z" fill="#D9DEE3"/><g transform="translate(216 47)"><path d="M0 13h70" stroke-width="3" stroke="#D9DEE3" stroke-linecap="round"/><path d="M60.902 12.853L47 1.1l3 12.28-3 11.225z" fill="#D9DEE3"/><ellipse fill="#D9DEE3" cx="23.748" cy="12.883" rx="10.5" ry="10.443"/></g><path d="M407 60h70" stroke="#D9DEE3" stroke-width="3" stroke-linecap="round"/><path d="M467.902 59.853L454 48.1l3 11.98-3 11.525z" fill="#D9DEE3"/><ellipse cx="10.748" cy="10.883" rx="10.5" ry="10.443" transform="translate(420 49)" fill="#6EEDD8"/><g><path d="M217.182 60.077c0 18.576-15.563 33.634-34.761 33.634s-34.76-15.058-34.76-33.634 15.562-33.634 34.76-33.634 34.76 15.058 34.76 33.634" fill="#6EC7E9"/><path d="M178.674 62.551c10.616 7.06 24.666-1.142 24.562-4.152 0 0 .988-4.23-5.1-6.332 8.222-11.87-24.735-11.662-25.316-2.336-14.18 1.583-12.775 8.564-12.775 8.564s2.81 7.786 18.63 4.256" fill="#FFF"/><path d="M178.674 62.461c-15.82 3.53-18.629-4.256-18.629-4.256V69s.729 9.758 18.525 5.917c7.077 5.19 23.417 1.869 24.666-4.256V58.309c.104 3.01-13.946 11.211-24.562 4.152" fill="#00498F"/></g></g></symbol><symbol viewBox="-5 -5 171 175" id="Event-Providers" xmlns="http://www.w3.org/2000/svg"><g fill="none" fill-rule="evenodd"><path d="M3.284 74.346v-.485s-.17.177 0 .485M28.265 73.922v.484c.03-.302 0-.484 0-.484" fill="#FFF"/><path d="M38 70.561c0 10.251-8.507 18.561-19 18.561s-19-8.31-19-18.56C0 60.31 8.507 52 19 52s19 8.31 19 18.561" fill="#F5F7FA"/><g fill="#3D70B2"><path d="M17.909 70.283c4.97 3.326 11.546-.538 11.497-1.957 0 0 .463-1.993-2.387-2.983 3.849-5.592-11.579-5.494-11.85-1.1-6.638.745-5.98 4.035-5.98 4.035s1.315 3.668 8.72 2.005"/><path d="M17.909 72.203c-7.405 1.663-8.72-2.005-8.72-2.005v5.086s.34 4.598 8.671 2.788c3.313 2.446 10.962.88 11.546-2.005V70.246c.049 1.42-6.528 5.283-11.497 1.957"/></g><g transform="translate(95 121)"><ellipse fill="#F5F7FA" cx="19" cy="18.975" rx="19" ry="18.975"/><g transform="translate(8 8)" stroke-width="1.2" stroke="#3D70B2"><rect x="6.6" y="6.6" width="8.8" height="8.8" rx="2"/><path d="M17.687 6.566h2.318c.966 0 1.748.776 1.748 1.748h0a1.75 1.75 0 0 1-1.748 1.749h-2.318M17.687 12.066h2.318c.966 0 1.748.776 1.748 1.748h0a1.75 1.75 0 0 1-1.748 1.749h-2.318M4.313 15.434H1.995a1.744 1.744 0 0 1-1.748-1.748h0a1.75 1.75 0 0 1 1.748-1.749h2.318M4.313 9.934H1.995A1.744 1.744 0 0 1 .247 8.186h0a1.75 1.75 0 0 1 1.748-1.749h2.318M6.566 4.313V1.995c0-.966.776-1.748 1.748-1.748h0a1.75 1.75 0 0 1 1.749 1.748v2.318M12.066 4.313V1.995c0-.966.776-1.748 1.748-1.748h0a1.75 1.75 0 0 1 1.749 1.748v2.318M15.434 17.687v2.318c0 .966-.776 1.748-1.748 1.748h0a1.75 1.75 0 0 1-1.749-1.748v-2.318M9.934 17.687v2.318c0 .966-.776 1.748-1.748 1.748h0a1.75 1.75 0 0 1-1.749-1.748v-2.318" stroke-linecap="round"/><circle cx="11" cy="11" r="1.9"/></g></g><g transform="translate(61 3)"><rect fill="#F5F7FA" width="38" height="37.95" rx="18.975"/><path d="M16.054 25.662c-.125.028-.208.11-.194.207.014.083.125.139.25.111.124-.028.207-.11.192-.194-.013-.083-.124-.137-.248-.124m-.788.11c-.124 0-.22.07-.22.153 0 .096.096.165.234.152.124 0 .221-.07.221-.152 0-.097-.11-.166-.235-.152m-.815-.138c-.11-.028-.235.014-.262.096-.028.083.055.18.18.208.11.041.234 0 .261-.083.029-.083-.054-.18-.179-.221m-.663-.387c-.097-.097-.221-.11-.276-.042-.07.055-.042.18.055.262.097.097.221.112.276.043.056-.056.028-.18-.055-.263m-.525-.58c-.055-.097-.166-.138-.235-.084-.069.042-.069.153 0 .25.07.096.18.138.235.096.07-.055.07-.166 0-.263m-.442-.58c-.07-.069-.166-.096-.221-.041-.056.041-.042.138.027.221.07.069.166.096.222.041.055-.04.041-.138-.028-.22m-.498-.415c-.083-.028-.152-.014-.18.027-.027.056.015.125.097.166.07.042.152.028.18-.028.028-.055-.013-.124-.097-.165m17.298-4.462c0 4.683-3.039 8.661-7.253 10.07-.539.098-.733-.234-.733-.51 0-.346.014-1.492.014-2.915 0-.995-.331-1.63-.718-1.962 2.362-.263 4.85-1.161 4.85-5.236 0-1.16-.415-2.1-1.092-2.847.11-.276.47-1.353-.11-2.817-.885-.277-2.916 1.09-2.916 1.09a10.002 10.002 0 0 0-5.305 0s-2.031-1.367-2.915-1.09c-.581 1.464-.221 2.541-.11 2.817a4.111 4.111 0 0 0-1.093 2.847c0 4.062 2.473 4.973 4.837 5.236-.305.276-.581.746-.677 1.423-.608.276-2.156.746-3.082-.885-.58-1.008-1.63-1.09-1.63-1.09-1.037-.015-.07.649-.07.649.691.317 1.175 1.546 1.175 1.546.622 1.893 3.578 1.258 3.578 1.258 0 .884.015 1.713.015 1.976 0 .276-.194.608-.733.51C11.44 27.873 8.4 23.895 8.4 19.212 8.4 13.353 13.152 8.6 19.01 8.6c5.859 0 10.611 4.753 10.611 10.61" fill="#3D70B2"/></g><g transform="translate(24 121)"><ellipse fill="#F5F7FA" cx="19" cy="18.975" rx="19" ry="18.975"/><path d="M23.282 14.43c-1.874-1.012-4.03-1.38-6.092-.828-.281.092-.469.46-.375.737.094.276.375.46.75.368.937-.276 1.968-.276 2.905-.092-1.5.736-3.187 2.485-4.593 4.786-.468.829-.937 1.749-1.218 2.67-.375-.369-.656-.737-.937-1.105-.75-1.197-.844-2.21-.47-2.946.47-.736 1.5-1.196 3-1.104.282 0 .563-.276.657-.552 0-.277-.282-.553-.563-.645-1.968-.184-3.374.46-4.124 1.657-.656 1.105-.469 2.577.469 4.05.374.644.937 1.197 1.5 1.841-.094.46-.188.92-.282 1.289v1.012a7.742 7.742 0 0 1-1.406-2.761c-.094-.276-.375-.46-.75-.46-.281.092-.469.368-.469.736.563 2.117 1.875 3.958 3.844 5.062 1.312.737 2.718 1.105 4.124 1.105 2.812 0 5.53-1.38 7.03-3.958 2.25-3.774.844-8.652-3-10.861zm-6.467 5.523c2.062-3.497 4.687-5.154 5.811-4.51 3.281 1.841 4.406 6.075 2.531 9.297-.937 1.565-4.5 1.38-7.78-.46-.75-.369-1.406-.92-1.968-1.381.468-.92.843-1.933 1.406-2.946zm-1.031 7.272c-.563-.276-.844-1.197-.656-2.485 0-.184.093-.368.093-.552l1.688 1.104c1.968 1.105 3.936 1.657 5.624 1.657h.562c-2.062 1.38-4.968 1.565-7.311.276zm-4.78-11.23L8.846 14.8c-.28-.184-.562-.092-.75.184-.187.276-.093.644.188.736l2.156 1.197c.094.092.187.092.281.092a.517.517 0 0 0 .469-.276c.187-.276.093-.645-.188-.737zm8.248-3.773c.281 0 .562-.277.562-.553V9.552c0-.276-.28-.552-.562-.552-.281 0-.563.276-.563.552v2.025c0 .368.282.645.563.645zm4.687 1.196c.093.092.187.092.28.092a.517.517 0 0 0 .47-.276l1.124-1.84c.188-.277.094-.645-.187-.737a.617.617 0 0 0-.844.184l-1.125 1.84c-.093.185 0 .553.282.737zm-9.374 0c-.094 0-.187.092-.281.092a.517.517 0 0 1-.469-.276l-1.124-1.84a.735.735 0 0 1 .28-.83.617.617 0 0 1 .844.185l1.125 1.84c0 .277-.094.645-.375.83zm15.841 1.565a.617.617 0 0 0-.843-.184l-2.156 1.196c-.281.185-.375.553-.188.829a.517.517 0 0 0 .469.276c.094 0 .187 0 .281-.092l2.156-1.197c.375-.184.469-.552.281-.828z" fill="#3D70B2"/></g><g stroke-linecap="round" stroke="#FDD600" stroke-width="2"><path d="M59.948 49.27l2.441 4.227M98.719 116.422l2.44 4.227M80.5 43.576v4.611M80.5 120.813v4.61M45.06 64.038l3.992 2.306M111.948 102.656l3.993 2.306"/><g><path d="M39.576 84.5h4.611M116.813 84.5h4.61"/></g><g><path d="M45.06 104.962l3.992-2.306M111.948 66.344l3.993-2.306"/></g><g><path d="M60.038 119.94l2.306-3.992M98.656 53.052l2.306-3.993"/></g></g><g transform="translate(123 52)"><rect fill="#F5F7FA" width="38" height="37.95" rx="18.975"/><path d="M18.708 7.673c0-.624.502-1.13 1.123-1.13.62 0 1.122.506 1.122 1.13 0 .624-.502 1.129-1.122 1.129-.62 0-1.123-.505-1.123-1.13m-6.276 4.148c-.437.44-1.152.44-1.59 0a1.137 1.137 0 0 1 0-1.599 1.123 1.123 0 0 1 1.59 0 1.137 1.137 0 0 1 0 1.599m7.99-.025v-1.758a2.439 2.439 0 0 0 1.831-2.364 2.433 2.433 0 0 0-2.422-2.436 2.433 2.433 0 0 0-2.423 2.436c0 1.14.78 2.097 1.832 2.364v1.758a7.49 7.49 0 0 0-4.267 1.753l-1.264-1.27a2.442 2.442 0 0 0-.36-2.977 2.416 2.416 0 0 0-3.428 0 2.448 2.448 0 0 0 0 3.445c.798.803 2.056.898 2.955.369l1.258 1.265a7.416 7.416 0 0 0-1.784 4.284h3.622a3.908 3.908 0 0 1 3.859-3.303 3.908 3.908 0 0 1 3.858 3.303h3.623c-.28-3.662-3.215-6.583-6.89-6.869" fill="#5596E6"/><path d="M8.426 20.375c-.62 0-1.123-.505-1.123-1.129s.502-1.129 1.123-1.129c.62 0 1.123.505 1.123 1.13 0 .623-.503 1.128-1.123 1.128m18.892-1.717h-3.623a3.895 3.895 0 0 1-3.859 4.474c-2.15 0-3.9-1.747-3.9-3.886 0-.196.018-.392.042-.582h-3.622l-.001.006h-1.577a2.422 2.422 0 0 0-2.352-1.854 2.429 2.429 0 0 0-2.423 2.436 2.434 2.434 0 0 0 2.423 2.442c1.134 0 2.086-.826 2.352-1.836h1.579c.313 3.843 3.544 6.862 7.48 6.862.023 0-.018 3.006 0 2.989 3.9-3.637 7.504-6.364 7.504-10.469 0-.196-.006-.392-.023-.582" fill="#323232"/></g><g><path d="M96.039 61.892c-.881.194-1.987.911-2.58 2.388-.683 1.692-1.027 4.239-1.213 6.86l1.45.289c.834.16 4.988 1.228 5.011 6.524.021 5.302-4.123 6.405-4.916 6.564l-1.83.382c-.378 10.673-3.623 18.733-9.665 23.987-.249.215-.5.411-.75.61 6.337-.48 12.538-3.095 17.385-7.94 10.777-10.776 10.777-28.248 0-39.024-.16-.16-1.267-.999-2.892-.64zM66.813 85.119l-1.726-.352c-.833-.163-4.984-1.25-4.984-6.547 0-5.3 4.153-6.384 4.947-6.541l2.806-.573c1.424-6.658 4.329-11.928 8.662-15.694.247-.213.497-.409.747-.609-6.336.483-12.54 3.098-17.386 7.942-10.524 10.525-10.77 27.432-.74 38.254 1.39 1.316 5.599.658 6.58-2.064.887-3.192 1.06-8.437 1.094-13.816z" fill="#50E3C2"/><path d="M63.22 109.848c.108.017.966.142 2.294.142 3.033 0 8.52-.651 13.197-4.713 5.377-4.676 8.03-12.404 7.89-22.958v-.597l.002-.744 5.973-1.248c.709-.141.742-.703.738-1.403-.001-.698-.043-1.255-.752-1.391l-5.898-1.171c.268-11.17 1.663-17.784 8.467-17.875.768-.01.866-.61.922-1.377.053-.768.044-1.449-.717-1.566-.105-.018-.963-.144-2.291-.144-3.031 0-8.523.651-13.197 4.711-4.139 3.6-6.646 9.03-7.527 16.156l-6.333 1.292c-.709.14-.747.696-.747 1.398 0 .698.038 1.257.747 1.397l6 1.221c-.006.506-.036.985-.03 1.503v.576c-.011 14.768-.59 23.74-8.532 23.847-.77.011-1.067.611-1.122 1.376-.052.77.154 1.45.916 1.568" fill="#236B5B"/></g></g></symbol><symbol viewBox="-5 -5 592 130" id="Event_stream_processing" xmlns="http://www.w3.org/2000/svg"><defs><rect id="aga" x="106" y="6" width="108" height="108" rx="54"/></defs><g fill="none" fill-rule="evenodd"><path d="M490.21 61.344V60s-.471.49 0 1.344M564 60v1.344c.083-.839 0-1.344 0-1.344" fill="#FFF"/><path d="M582 60c0 29.824-24.177 54-54 54s-54-24.176-54-54c0-29.823 24.177-54 54-54s54 24.177 54 54" fill="#6EC7E9"/><path d="M523.147 63.741c17.144 11.42 39.834-1.847 39.666-6.717 0 0 1.597-6.844-8.236-10.245 13.278-19.2-39.945-18.865-40.884-3.778-22.9 2.561-20.63 13.855-20.63 13.855s4.537 12.595 30.084 6.885" fill="#FFF"/><path d="M523.085 63.886C497.538 69.596 493 57 493 57v17.465s1.177 15.787 29.917 9.573c11.43 8.397 37.817 3.023 39.834-6.885V57.168c.168 4.87-22.522 18.137-39.666 6.718" fill="#00498F"/><g transform="translate(283)"><ellipse stroke="#D9DEE3" stroke-width="3" stroke-linecap="round" cx="59.635" cy="59.853" rx="59.635" ry="59.853"/><path d="M81.093 33.987c-1.118.247-2.52 1.155-3.271 3.028-.866 2.146-1.303 5.374-1.538 8.697l1.84.367c1.056.204 6.323 1.557 6.352 8.271.026 6.723-5.228 8.12-6.233 8.323l-2.32.483c-.48 13.532-4.593 23.752-12.255 30.413-.315.273-.634.521-.95.774 8.035-.61 15.896-3.925 22.042-10.069 13.663-13.66 13.663-35.812 0-49.476-.202-.201-1.607-1.266-3.667-.811zM44.038 63.435l-2.188-.446c-1.056-.206-6.319-1.584-6.319-8.3 0-6.72 5.265-8.094 6.273-8.294l3.556-.725c1.806-8.442 5.49-15.123 10.983-19.898.313-.27.63-.52.948-.772-8.035.612-15.9 3.927-22.044 10.069-13.342 13.344-13.655 34.78-.939 48.5 1.762 1.67 7.1.834 8.343-2.617 1.125-4.047 1.345-10.696 1.387-17.517z" fill="#50E3C2"/><path d="M39.483 94.789c.137.022 1.224.18 2.908.18 3.846 0 10.804-.826 16.732-5.976 6.818-5.928 10.182-15.726 10.004-29.108v-.756c0-.322.003-.626.003-.943l7.572-1.582c.899-.18.94-.892.937-1.78-.003-.885-.056-1.59-.955-1.763l-7.477-1.485c.34-14.162 2.108-22.547 10.735-22.662.974-.013 1.098-.774 1.169-1.746.066-.974.055-1.837-.91-1.986-.133-.022-1.22-.182-2.904-.182-3.843 0-10.805.825-16.732 5.973-5.247 4.564-8.427 11.449-9.543 20.483l-8.03 1.638c-.898.177-.947.883-.947 1.773 0 .885.05 1.593.948 1.77l7.608 1.549c-.01.641-.047 1.249-.04 1.906v.73c-.013 18.724-.748 30.1-10.817 30.235-.976.013-1.353.774-1.422 1.744-.066.976.196 1.839 1.16 1.988" fill="#236B5B"/></g><ellipse fill="#50E3C2" opacity=".6" cx="28.592" cy="62.454" rx="7.697" ry="7.714"/><ellipse fill="#7CC7FF" opacity=".6" cx="28.592" cy="86.687" rx="7.697" ry="7.714"/><ellipse fill="#7CC7FF" opacity=".403" cx="8.357" cy="48.55" rx="7.697" ry="7.714"/><ellipse fill="#7CC7FF" cx="48.96" cy="48.442" rx="7.697" ry="7.714"/><ellipse fill="#FFE039" opacity=".6" cx="28.592" cy="38.618" rx="7.697" ry="7.714"/><ellipse fill="#7CC7FF" opacity=".403" cx="8.357" cy="72.783" rx="7.697" ry="7.714"/><ellipse fill="#FFE039" cx="49.223" cy="72.783" rx="7.697" ry="7.714"/><use fill-opacity=".095" fill="#FFF" xlink:href="#aga"/><rect stroke="#D9DEE3" stroke-width="3" x="107.5" y="7.5" width="105" height="105" rx="52.5"/><g><path d="M159.582 29.484a3.15 3.15 0 0 1 3.144-3.161 3.15 3.15 0 0 1 3.143 3.16 3.15 3.15 0 0 1-3.143 3.161 3.15 3.15 0 0 1-3.144-3.16m-17.571 11.611a3.144 3.144 0 0 1-4.451 0 3.185 3.185 0 0 1 0-4.475 3.144 3.144 0 0 1 4.45 0c1.225 1.248 1.225 3.244 0 4.475m22.37-.068v-4.923a6.828 6.828 0 0 0 5.13-6.62c0-3.76-3.045-6.82-6.784-6.82-3.74 0-6.784 3.06-6.784 6.82a6.828 6.828 0 0 0 5.13 6.62v4.923a20.97 20.97 0 0 0-11.947 4.909l-3.54-3.56a6.837 6.837 0 0 0-1.01-8.334 6.765 6.765 0 0 0-9.596 0c-2.648 2.661-2.648 6.986 0 9.648 2.233 2.246 5.757 2.512 8.272 1.031l3.524 3.543a20.765 20.765 0 0 0-4.996 11.995h10.142c.795-5.224 5.345-9.25 10.805-9.25s10.01 4.026 10.804 9.25h10.143c-.786-10.253-9.002-18.434-19.293-19.232" fill="#5596E6"/><path d="M130.792 65.05a3.15 3.15 0 0 1-3.143-3.161 3.15 3.15 0 0 1 3.143-3.16 3.15 3.15 0 0 1 3.144 3.16 3.15 3.15 0 0 1-3.144 3.16m52.897-4.807h-10.142c.066.55.115 1.098.115 1.647 0 6.006-4.897 10.88-10.92 10.88-6.022 0-10.92-4.891-10.92-10.88 0-.549.05-1.098.116-1.63h-10.143v.016h-4.417c-.745-3.01-3.409-5.19-6.586-5.19-3.739 0-6.783 3.044-6.783 6.82 0 3.777 3.044 6.838 6.783 6.838 3.177 0 5.841-2.313 6.586-5.14h4.422c.875 10.759 9.923 19.213 20.942 19.213.066 0-.05 8.418 0 8.368 10.92-10.181 21.013-17.817 21.013-29.312 0-.548-.016-1.098-.066-1.63" fill="#323232"/></g><g><path d="M70.458 60.5h35.056" stroke="#D9DEE3" stroke-width="3" stroke-linecap="round"/><path d="M69 76.471V44.758l16.523 15.857z" fill="#D9DEE3"/></g><g transform="translate(213 47)"><path d="M0 13h70" stroke-width="3" stroke="#D9DEE3" stroke-linecap="round"/><path d="M60.902 12.853L47 1.1l3 12.28-3 11.225z" fill="#D9DEE3"/><ellipse fill="#D9DEE3" cx="23.748" cy="12.883" rx="10.5" ry="10.443"/></g><g><path d="M403 60h70" stroke="#D9DEE3" stroke-width="3" stroke-linecap="round"/><path d="M463.902 59.853L450 48.1l3 11.98-3 11.525z" fill="#D9DEE3"/><ellipse cx="10.748" cy="10.883" rx="10.5" ry="10.443" transform="translate(416 49)" fill="#6EEDD8"/></g></g></symbol><symbol viewBox="-5 -5 28 28" id="Functions-icon" xmlns="http://www.w3.org/2000/svg"><g fill-rule="nonzero" fill="#3D70B2"><path d="M11.007 17.378a.563.563 0 0 1-.19-1.109 7.103 7.103 0 0 0 3.864-2.002c2.706-2.722 2.823-7.095.289-9.957a.563.563 0 0 1 .842-.745c2.927 3.304 2.792 8.35-.333 11.495a8.228 8.228 0 0 1-4.472 2.318zM6.914.57a.562.562 0 1 1 .179 1.11 6.963 6.963 0 0 0-3.886 2.011C.54 6.411.425 10.78 2.922 13.636a.562.562 0 1 1-.847.74c-2.884-3.298-2.75-8.333.328-11.473A8.088 8.088 0 0 1 6.913.57z"/><path d="M5.273 16.875c.836 0 2.347-.186 3.635-1.345 1.482-1.335 2.212-3.54 2.174-6.552v-.17-.213l1.646-.356c.195-.04.204-.2.203-.4 0-.2-.012-.359-.207-.398l-1.625-.334c.074-3.188.458-5.075 2.332-5.101.212-.003.239-.174.254-.393.015-.22.012-.414-.197-.447a4.19 4.19 0 0 0-.631-.041c-.835 0-2.348.186-3.635 1.345-1.14 1.027-1.831 2.577-2.074 4.61l-1.744.369c-.195.04-.206.199-.206.399s.01.359.206.399l1.653.348c-.002.145-.01.281-.009.43v.164c-.003 4.214-.162 6.775-2.35 6.805-.212.003-.294.175-.309.393-.014.22.043.414.252.448.03.005.266.04.632.04zm-.095-7.526c-.883-.181-1.105-.752-1.105-1.501 0-.75.222-1.32 1.098-1.5l.983-.207C6.507 4.23 7.275 2.71 8.47 1.633 9.772.461 11.324 0 12.857 0a5.2 5.2 0 0 1 .808.055c.527.084.927.441 1.08.93.075.244.08.425.062.707-.02.285-.05.463-.168.7a1.327 1.327 0 0 1-1.192.739c-.715.01-1.07.725-1.19 3.066l.687.141c.884.177 1.11.75 1.112 1.495 0 .27-.013.43-.102.664a1.335 1.335 0 0 1-.989.842l-.76.164c-.05 3.043-.886 5.37-2.544 6.863C8.358 17.54 6.807 18 5.273 18a5.28 5.28 0 0 1-.809-.055c-.897-.143-1.247-.87-1.197-1.635.052-.761.514-1.428 1.416-1.44.902-.013 1.222-1.128 1.24-5.364l-.745-.157z"/></g></symbol><symbol viewBox="-5 -5 70 69" id="Github_event" xmlns="http://www.w3.org/2000/svg"><path d="M29.997 0C13.433 0 0 13.431 0 30 0 43.256 8.595 54.5 20.516 58.467c1.501.276 2.048-.65 2.048-1.446 0-.71-.026-2.598-.04-5.101-8.345 1.812-10.106-4.023-10.106-4.023-1.364-3.466-3.331-4.388-3.331-4.388-2.724-1.86.206-1.823.206-1.823 3.011.211 4.595 3.092 4.595 3.092 2.676 4.584 7.022 3.26 8.731 2.491.273-1.937 1.048-3.26 1.905-4.009-6.662-.757-13.665-3.331-13.665-14.827 0-3.275 1.169-5.954 3.088-8.05-.31-.759-1.339-3.81.295-7.94 0 0 2.517-.806 8.249 3.076 2.392-.667 4.96-.998 7.51-1.011 2.549.013 5.114.344 7.51 1.011 5.728-3.882 8.242-3.076 8.242-3.076 1.637 4.13.608 7.181.3 7.94 1.923 2.096 3.083 4.775 3.083 8.05 0 11.525-7.015 14.061-13.697 14.803 1.076.927 2.035 2.757 2.035 5.557 0 4.009-.036 7.245-.036 8.228 0 .803.541 1.737 2.062 1.444C51.412 54.488 60 43.252 60 30.001 60 13.43 46.567 0 29.997 0" fill="#151513" fill-rule="evenodd"/></symbol><symbol viewBox="-5 -5 456 130" id="IoT_Ready" xmlns="http://www.w3.org/2000/svg"><g fill="none" fill-rule="evenodd"><path d="M119.458 60.5h35.056" stroke="#D9DEE3" stroke-width="3" stroke-linecap="round"/><path d="M118 76.471V44.758l16.523 15.857z" fill="#D9DEE3"/><g transform="translate(326)"><ellipse stroke="#D9DEE3" stroke-width="3" stroke-linecap="round" cx="59.635" cy="59.853" rx="59.635" ry="59.853"/><path d="M81.093 33.987c-1.118.247-2.52 1.155-3.271 3.028-.866 2.146-1.303 5.374-1.538 8.697l1.84.367c1.056.204 6.323 1.557 6.352 8.271.026 6.723-5.228 8.12-6.233 8.323l-2.32.483c-.48 13.532-4.593 23.752-12.255 30.413-.315.273-.634.521-.95.774 8.035-.61 15.896-3.925 22.042-10.069 13.663-13.66 13.663-35.812 0-49.476-.202-.201-1.607-1.266-3.667-.811zM44.038 63.435l-2.188-.446c-1.056-.206-6.319-1.584-6.319-8.3 0-6.72 5.265-8.094 6.273-8.294l3.556-.725c1.806-8.442 5.49-15.123 10.983-19.898.313-.27.63-.52.948-.772-8.035.612-15.9 3.927-22.044 10.069-13.342 13.344-13.655 34.78-.939 48.5 1.762 1.67 7.1.834 8.343-2.617 1.125-4.047 1.345-10.696 1.387-17.517z" fill="#50E3C2"/><path d="M39.483 94.789c.137.022 1.224.18 2.908.18 3.846 0 10.804-.826 16.732-5.976 6.818-5.928 10.182-15.726 10.004-29.108v-.756c0-.322.003-.626.003-.943l7.572-1.582c.899-.18.94-.892.937-1.78-.003-.885-.056-1.59-.955-1.763l-7.477-1.485c.34-14.162 2.108-22.547 10.735-22.662.974-.013 1.098-.774 1.169-1.746.066-.974.055-1.837-.91-1.986-.133-.022-1.22-.182-2.904-.182-3.843 0-10.805.825-16.732 5.973-5.247 4.564-8.427 11.449-9.543 20.483l-8.03 1.638c-.898.177-.947.883-.947 1.773 0 .885.05 1.593.948 1.77l7.608 1.549c-.01.641-.047 1.249-.04 1.906v.73c-.013 18.724-.748 30.1-10.817 30.235-.976.013-1.353.774-1.422 1.744-.066.976.196 1.839 1.16 1.988" fill="#236B5B"/></g><path d="M167.123 60.783V60s-.277.285 0 .783" fill="#FFF"/><g transform="translate(2 15)"><rect stroke="#735F00" stroke-width="5" x="12.795" y="13.429" width="64.047" height="64.101" rx="7"/><rect fill="#8C7300" x="23.966" y="24.611" width="41.705" height="41.737" rx="7"/><path d="M89.337 28.176H79.36M89.337 45.276H79.36M89.337 61.664H79.36M11.194 29.19H1.218M11.194 45.578H1.218M11.194 62.678H1.218M61.714 11.26V1.284M44.627 11.26V1.284M27.54 11.26V1.284M61.714 90.348v-9.975M44.627 90.348v-9.975M27.54 90.348v-9.975" stroke="#BE9B00" stroke-width="5" stroke-linecap="round"/></g><circle fill="#A373E8" cx="49" cy="49" r="49" transform="translate(155 11)"/><g transform="translate(254 47)"><path d="M0 13h69.014" stroke-width="3" stroke="#D9DEE3" stroke-linecap="round"/><path d="M60.044 12.853L46.338 1.1l2.958 12.28-2.958 11.225z" fill="#D9DEE3"/><ellipse fill="#D9DEE3" cx="23.413" cy="12.883" rx="10.352" ry="10.443"/></g></g></symbol><symbol viewBox="-5 -5 63 70" id="MessageHub_event" xmlns="http://www.w3.org/2000/svg"><g fill-rule="nonzero" fill="none"><path d="M5.948 28.275A5.947 5.947 0 0 0 0 34.223c0 3.293 2.67 5.963 5.948 5.963 2.786 0 5.121-2.017 5.774-4.483h4.817v-2.901h-4.817a5.939 5.939 0 0 0-5.774-4.527zm2.757 5.934a2.755 2.755 0 0 1-2.757 2.756 2.755 2.755 0 0 1-2.756-2.756 2.755 2.755 0 0 1 2.756-2.757 2.755 2.755 0 0 1 2.757 2.757z" fill="#323232"/><path d="M18.033 9.923a5.954 5.954 0 0 0-8.415 0 5.954 5.954 0 0 0 0 8.415c1.959 1.958 5.05 2.19 7.254.899l3.38 3.38 2.046-2.045-3.38-3.38a5.939 5.939 0 0 0-.885-7.269zm-2.249 6.151a2.767 2.767 0 0 1-3.902 0 2.767 2.767 0 0 1 0-3.902 2.767 2.767 0 0 1 3.902 0 2.767 2.767 0 0 1 0 3.902zM39.896 5.948A5.956 5.956 0 0 0 33.948 0 5.956 5.956 0 0 0 28 5.948a5.96 5.96 0 0 0 4.497 5.774v4.817h2.901v-4.817a5.96 5.96 0 0 0 4.498-5.774zm-5.948 2.757a2.755 2.755 0 0 1-2.757-2.757 2.755 2.755 0 0 1 2.757-2.756 2.755 2.755 0 0 1 2.756 2.756 2.755 2.755 0 0 1-2.756 2.757z" fill="#5596E6"/><path d="M33.948 15.958c-9.691 0-17.642 7.414-18.367 16.829h8.893c.697-4.555 4.686-8.066 9.474-8.066 4.787 0 8.777 3.51 9.473 8.066h8.893c-.725-9.415-8.675-16.829-18.366-16.829z" fill="#5596E6"/><path d="M43.537 34.209c0 5.237-4.294 9.488-9.575 9.488-5.28 0-9.575-4.266-9.575-9.488 0-.479.044-.958.102-1.422h-8.893a15.32 15.32 0 0 0-.058 1.422c0 10.082 8.254 18.25 18.424 18.25.058 0-.043 7.341 0 7.297 9.575-8.878 18.425-15.537 18.425-25.562 0-.479-.015-.957-.058-1.422h-8.893c.058.48.101.958.101 1.437z" fill="#323232"/></g></symbol><symbol viewBox="-5 -5 68 70" id="MobilePush_event" xmlns="http://www.w3.org/2000/svg"><g fill-rule="nonzero" fill="none"><path fill="#AAF3E8" d="M3.613 47.177V8.165h49.685v39.012h-40.11z"/><path fill="#00B4A0" d="M49.684 11.794H0V59.88l7.046-9.073h42.638z"/><path fill="#FFF" d="M9.937 36.29h29.81v2.722H9.937zM9.937 29.032h29.81v2.722H9.937zM9.937 21.774h29.81v2.722H9.937z"/><ellipse fill="#FFF" cx="48.148" cy="10.252" rx="9.485" ry="9.526"/><ellipse fill="#5AAAFA" cx="48.148" cy="10.252" rx="7.588" ry="7.621"/></g></symbol><symbol viewBox="-5 -5 554 138" id="Mobile_Backend" xmlns="http://www.w3.org/2000/svg"><defs><path id="amb" d="M.152 13.351h67.392v89.598H.152z"/><filter x="-43.8%" y="-30.7%" width="187.5%" height="165.8%" filterUnits="objectBoundingBox" id="ama"><feOffset dy="2" in="SourceAlpha" result="shadowOffsetOuter1"/><feGaussianBlur stdDeviation="9.5" in="shadowOffsetOuter1" result="shadowBlurOuter1"/><feColorMatrix values="0 0 0 0 0 0 0 0 0 0 0 0 0 0 0 0 0 0 0.102326766 0" in="shadowBlurOuter1"/></filter></defs><g fill="none" fill-rule="evenodd"><path d="M110.458 65.5h35.056" stroke="#D9DEE3" stroke-width="3" stroke-linecap="round"/><path d="M109 81.471V49.758l16.523 15.857z" fill="#D9DEE3"/><g transform="translate(211 52)"><path d="M0 13h70" stroke-width="3" stroke="#D9DEE3" stroke-linecap="round"/><path d="M60.902 12.853L47 1.1l3 12.28-3 11.225z" fill="#D9DEE3"/><ellipse fill="#D9DEE3" cx="23.748" cy="12.883" rx="10.5" ry="10.443"/></g><path d="M402 65h70" stroke="#D9DEE3" stroke-width="3" stroke-linecap="round"/><path d="M462.902 64.853L449 53.1l3 11.98-3 11.525z" fill="#D9DEE3"/><ellipse cx="10.748" cy="10.883" rx="10.5" ry="10.443" transform="translate(415 54)" fill="#6EEDD8"/><path d="M131.123 65.783V65s-.277.285 0 .783M178 65v.783c.049-.489 0-.783 0-.783" fill="#FFF"/><g transform="translate(19 4)"><use fill="#000" filter="url(#ama)" xlink:href="#amb"/><use fill="#FFF" xlink:href="#amb"/><rect fill="#7CC7FF" x="10.281" y="38.481" width="47.525" height="40.052" rx="2"/><path d="M21.835 67.618h3.297V61.15h6.07v6.468h3.296V52.624h-3.297v5.754h-6.069v-5.754h-3.297v14.994zM39.77 52.624h-2.982v2.457h2.982v-2.457zm-2.982 14.994h2.982V56.76h-2.982v10.857zm5.145 0h3.297v-3.234h-3.297v3.234zm3.192-14.994h-3.108v4.032l.798 6.468h1.491l.82-6.468v-4.032z" fill="#FFF"/><path d="M67.545 113.609c0 4.334-3.47 7.847-7.748 7.847H7.9c-4.278 0-7.747-3.51-7.747-7.847v-12.3h67.393" fill="#6EEDD8"/><ellipse fill="#008571" cx="33.654" cy="112.303" rx="3.896" ry="3.927"/><path d="M.152 6.675A6.672 6.672 0 0 1 6.83 0h54.038a6.681 6.681 0 0 1 6.678 6.675v6.676H.152V6.675z" fill="#6EEDD8"/><rect fill="#008571" x="17.292" y="5.497" width="33.501" height="3.141" rx="1.571"/></g><g transform="translate(282 5)"><ellipse stroke="#D9DEE3" stroke-width="3" stroke-linecap="round" cx="59.635" cy="59.853" rx="59.635" ry="59.853"/><path d="M81.093 33.987c-1.118.247-2.52 1.155-3.271 3.028-.866 2.146-1.303 5.374-1.538 8.697l1.84.367c1.056.204 6.323 1.557 6.352 8.271.026 6.723-5.228 8.12-6.233 8.323l-2.32.483c-.48 13.532-4.593 23.752-12.255 30.413-.315.273-.634.521-.95.774 8.035-.61 15.896-3.925 22.042-10.069 13.663-13.66 13.663-35.812 0-49.476-.202-.201-1.607-1.266-3.667-.811zM44.038 63.435l-2.188-.446c-1.056-.206-6.319-1.584-6.319-8.3 0-6.72 5.265-8.094 6.273-8.294l3.556-.725c1.806-8.442 5.49-15.123 10.983-19.898.313-.27.63-.52.948-.772-8.035.612-15.9 3.927-22.044 10.069-13.342 13.344-13.655 34.78-.939 48.5 1.762 1.67 7.1.834 8.343-2.617 1.125-4.047 1.345-10.696 1.387-17.517z" fill="#50E3C2"/><path d="M39.483 94.789c.137.022 1.224.18 2.908.18 3.846 0 10.804-.826 16.732-5.976 6.818-5.928 10.182-15.726 10.004-29.108v-.756c0-.322.003-.626.003-.943l7.572-1.582c.899-.18.94-.892.937-1.78-.003-.885-.056-1.59-.955-1.763l-7.477-1.485c.34-14.162 2.108-22.547 10.735-22.662.974-.013 1.098-.774 1.169-1.746.066-.974.055-1.837-.91-1.986-.133-.022-1.22-.182-2.904-.182-3.843 0-10.805.825-16.732 5.973-5.247 4.564-8.427 11.449-9.543 20.483l-8.03 1.638c-.898.177-.947.883-.947 1.773 0 .885.05 1.593.948 1.77l7.608 1.549c-.01.641-.047 1.249-.04 1.906v.73c-.013 18.724-.748 30.1-10.817 30.235-.976.013-1.353.774-1.422 1.744-.066.976.196 1.839 1.16 1.988" fill="#236B5B"/></g><g fill="#3D70B2"><path d="M150 50.823V94h57V50.823h-57zM146 33h65v65h-65V33z" fill-rule="nonzero"/><text font-family="Helvetica Neue, HelveticaNeue, Arial" font-size="21" font-weight="bold" transform="translate(146 33)"><tspan x="15.71" y="45.403">API</tspan></text></g><path d="M490.174 65.152V64s-.391.42 0 1.152" fill="#FFF"/><g transform="translate(472 29)"><path d="M30.196 37.156c14.958 9.882 34.756-1.598 34.609-5.813 0 0 1.393-5.921-7.186-8.864C69.204 5.865 22.766 6.155 21.947 19.21c-19.98 2.217-18 11.99-18 11.99s3.958 10.898 26.25 5.957" fill="#FFF"/><path fill="#AAF3E8" fill-rule="nonzero" d="M4.54 56.957V9.044h61.463v47.913H16.386z"/><path fill="#00B4A0" fill-rule="nonzero" d="M61.463 13.566H0v59.056l8.717-11.143h52.746z"/><path fill="#FFF" fill-rule="nonzero" d="M12.324 43.283h36.878v3.343H12.324zM12.324 34.885h36.878v3.343H12.324zM12.324 25.841h36.878v3.343H12.324z"/><ellipse fill="#FFF" fill-rule="nonzero" cx="59.734" cy="11.7" rx="11.734" ry="11.7"/><ellipse fill="#5AAAFA" fill-rule="nonzero" cx="59.86" cy="11.823" rx="8.86" ry="8.834"/></g></g></symbol><symbol viewBox="-5 -5 485 274" id="Opening_Illustration" xmlns="http://www.w3.org/2000/svg"><g fill="none" fill-rule="evenodd"><g transform="rotate(-45 40.207 41.707)" fill="#70BEF9"><ellipse transform="rotate(45 56.111 56.743)" cx="56.111" cy="56.743" rx="14.465" ry="14.444"/><ellipse opacity=".521" transform="rotate(45 20.706 59.1)" cx="20.706" cy="59.1" rx="14.465" ry="14.444"/><ellipse opacity=".521" transform="rotate(45 58.471 21.387)" cx="58.471" cy="21.387" rx="14.465" ry="14.444"/><ellipse opacity=".199" transform="rotate(45 23.066 23.745)" cx="23.066" cy="23.745" rx="14.465" ry="14.444"/></g><path fill="#D1D9DF" d="M70 78V9l35.507 34.5z"/><path d="M151 43.5H94.4" stroke="#D1D9DF" stroke-width="10" stroke-linecap="round"/><g transform="translate(109 9)"><ellipse stroke="#D9DEE3" stroke-width="9" stroke-linecap="round" cx="121.315" cy="121.701" rx="121.315" ry="121.701"/><path d="M167.3 63.116c-2.471.545-5.57 2.555-7.233 6.696-1.914 4.744-2.88 11.882-3.4 19.232l4.067.81c2.335.45 13.983 3.444 14.046 18.29.06 14.866-11.559 17.957-13.781 18.403l-5.132 1.07c-1.06 29.923-10.156 52.521-27.097 67.25-.697.603-1.404 1.153-2.1 1.712 17.765-1.349 35.148-8.679 48.738-22.264 30.213-30.208 30.213-79.192 0-109.405-.446-.446-3.553-2.8-8.108-1.794zM85.362 128.234l-4.838-.986c-2.335-.456-13.973-3.503-13.973-18.354 0-14.861 11.643-17.898 13.87-18.34l7.865-1.604c3.993-18.669 12.138-33.441 24.286-44 .691-.598 1.393-1.148 2.095-1.707-17.766 1.354-35.159 8.684-48.744 22.265-29.504 29.508-30.196 76.908-2.077 107.247 3.897 3.691 15.698 1.845 18.45-5.786 2.487-8.949 2.972-23.653 3.066-38.735z" fill="#50E3C2"/><path d="M75.289 197.564c.304.05 2.708.398 6.432.398 8.502 0 23.888-1.825 36.998-13.213 15.077-13.11 22.514-34.775 22.122-64.365v-1.673c0-.711.005-1.383.005-2.085l16.745-3.498c1.987-.398 2.08-1.973 2.07-3.935-.005-1.958-.122-3.518-2.11-3.9l-16.533-3.283c.75-31.316 4.66-49.857 23.736-50.112 2.154-.03 2.429-1.713 2.586-3.861.147-2.154.122-4.063-2.012-4.392-.294-.049-2.698-.402-6.422-.402-8.498 0-23.894 1.825-36.998 13.208-11.604 10.092-18.634 25.316-21.102 45.294l-17.756 3.621c-1.987.393-2.095 1.953-2.095 3.92 0 1.958.108 3.523 2.095 3.915l16.824 3.425c-.02 1.418-.103 2.762-.089 4.214v1.615c-.029 41.403-1.653 66.558-23.918 66.857-2.158.03-2.992 1.712-3.144 3.856-.148 2.16.431 4.068 2.566 4.396" fill="#236B5B"/></g><path d="M142.5 67c12.978 0 23.5-10.522 23.5-23.5S155.479 20 142.5 20C129.524 20 119 30.522 119 43.5S129.524 67 142.5 67" fill="#7CC7FF"/><path d="M139.714 38.748l3.964 1.259c4.528-4.522 8.598-8.595 9.45-9.46 6.623 6.624 6.715 17.27.204 23.782-6.512 6.514-17.161 6.422-23.784-.2l9.461-9.454-1.267-3.982a2.783 2.783 0 0 1-2.667-.725 2.775 2.775 0 0 1 3.923-3.926 2.78 2.78 0 0 1 .716 2.706" fill="#1E3956"/><g><g fill="#6EEDD8"><path opacity=".569" d="M426.366 197.183l-11.4 5.495 1.616-12.723-8.663-9.327 12.4-2.369L426.366 167l6.048 11.26 12.4 2.368-8.663 9.327 1.616 12.723zM426.366 258.505l-11.4 5.495 1.616-12.723-8.663-9.327 12.4-2.369 6.047-11.26 6.048 11.26 12.4 2.369-8.663 9.327L437.767 264z"/><path opacity=".21" d="M396.18 228.402l-11.4 5.495 1.615-12.724-8.662-9.327 12.4-2.368 6.047-11.26 6.047 11.26 12.4 2.368-8.662 9.327 1.616 12.724z"/><path d="M456.553 228.402l-11.401 5.495 1.616-12.724-8.662-9.327 12.4-2.368 6.047-11.26 6.047 11.26 12.4 2.368-8.663 9.327 1.617 12.724z"/></g><path fill="#D1D9DF" d="M390.031 184.84v69.126l-35.776-34.564z"/><path d="M308.416 219.402h57.03" stroke="#D1D9DF" stroke-width="10" stroke-linecap="round"/><g><path d="M318.5 240.759c12.978 0 23.5-10.522 23.5-23.5s-10.522-23.5-23.5-23.5-23.5 10.522-23.5 23.5 10.522 23.5 23.5 23.5" fill="#6EEDD8"/><path d="M305.854 217.319l3.916-3.856a1.763 1.763 0 0 0-2.474-2.512l-5.19 5.111a1.763 1.763 0 0 0 0 2.512l5.19 5.114a1.762 1.762 0 1 0 2.474-2.511l-3.916-3.858zM326.928 221.175a1.762 1.762 0 1 0 2.473 2.512l5.19-5.111c.702-.69.702-1.821 0-2.512l-5.19-5.114a1.763 1.763 0 0 0-2.474 2.511l3.916 3.858-3.915 3.856zM320.889 203.49l-8.148 26.503a1.763 1.763 0 1 0 3.37 1.035l8.147-26.503a1.762 1.762 0 1 0-3.37-1.036z" stroke="#005448" stroke-width=".3" fill="#005448" fill-rule="nonzero"/></g></g></g></symbol><symbol viewBox="-5 -5 330 137" id="Periodic_Alarm" xmlns="http://www.w3.org/2000/svg"><g fill="none" fill-rule="evenodd"><g transform="translate(200 4)"><ellipse stroke="#D9DEE3" stroke-width="3" stroke-linecap="round" cx="59.635" cy="59.853" rx="59.635" ry="59.853"/><path d="M81.093 33.987c-1.118.247-2.52 1.155-3.271 3.028-.866 2.146-1.303 5.374-1.538 8.697l1.84.367c1.056.204 6.323 1.557 6.352 8.271.026 6.723-5.228 8.12-6.233 8.323l-2.32.483c-.48 13.532-4.593 23.752-12.255 30.413-.315.273-.634.521-.95.774 8.035-.61 15.896-3.925 22.042-10.069 13.663-13.66 13.663-35.812 0-49.476-.202-.201-1.607-1.266-3.667-.811zM44.038 63.435l-2.188-.446c-1.056-.206-6.319-1.584-6.319-8.3 0-6.72 5.265-8.094 6.273-8.294l3.556-.725c1.806-8.442 5.49-15.123 10.983-19.898.313-.27.63-.52.948-.772-8.035.612-15.9 3.927-22.044 10.069-13.342 13.344-13.655 34.78-.939 48.5 1.762 1.67 7.1.834 8.343-2.617 1.125-4.047 1.345-10.696 1.387-17.517z" fill="#50E3C2"/><path d="M39.483 94.789c.137.022 1.224.18 2.908.18 3.846 0 10.804-.826 16.732-5.976 6.818-5.928 10.182-15.726 10.004-29.108v-.756c0-.322.003-.626.003-.943l7.572-1.582c.899-.18.94-.892.937-1.78-.003-.885-.056-1.59-.955-1.763l-7.477-1.485c.34-14.162 2.108-22.547 10.735-22.662.974-.013 1.098-.774 1.169-1.746.066-.974.055-1.837-.91-1.986-.133-.022-1.22-.182-2.904-.182-3.843 0-10.805.825-16.732 5.973-5.247 4.564-8.427 11.449-9.543 20.483l-8.03 1.638c-.898.177-.947.883-.947 1.773 0 .885.05 1.593.948 1.77l7.608 1.549c-.01.641-.047 1.249-.04 1.906v.73c-.013 18.724-.748 30.1-10.817 30.235-.976.013-1.353.774-1.422 1.744-.066.976.196 1.839 1.16 1.988" fill="#236B5B"/></g><g><circle fill="#FFA573" cx="63.5" cy="63.5" r="63.5"/><path d="M46.844 19.16H77.56" stroke="#D74108" stroke-width="6" stroke-linecap="square"/><path d="M62.492 20.41v17.572" stroke="#D74108" stroke-width="8" stroke-linecap="square"/><ellipse fill="#FFF" cx="63.657" cy="65.314" rx="35.536" ry="35.832"/><path d="M62.884 66.524V49.287" stroke="#D74108" stroke-width="8" stroke-linecap="square"/><path d="M62.975 37.863v-2.939M62.975 96.827V93.89M96.701 66.59v-2.94M37.737 66.59v-2.94" stroke="#50E3C2" stroke-width="5" stroke-linecap="round"/><path d="M64.407 66.524h15.724" stroke="#D74108" stroke-width="8" stroke-linecap="square"/></g><g transform="translate(128 51)"><path d="M0 13h70" stroke-width="3" stroke="#D9DEE3" stroke-linecap="round"/><path d="M60.902 12.853L47 1.1l3 12.28-3 11.225z" fill="#D9DEE3"/><ellipse fill="#D9DEE3" cx="23.748" cy="12.883" rx="10.5" ry="10.443"/></g></g></symbol><symbol viewBox="-5 -5 70 70" id="Periodic_event" xmlns="http://www.w3.org/2000/svg"><g fill="none" fill-rule="evenodd"><circle fill="#FFA573" cx="30" cy="30" r="29.189"/><path d="M21.706 8.47h15.296M29.327 10.164v8.75" stroke="#D74108" stroke-width="3" stroke-linecap="square"/><ellipse fill="#FFF" cx="30.078" cy="32.525" rx="17.696" ry="17.844"/><path d="M29.576 33.128v-8.584M30.452 32.967h7.83" stroke="#D74108" stroke-width="3" stroke-linecap="square"/></g></symbol><symbol viewBox="-5 -5 62 62" id="Runtime-Docker" xmlns="http://www.w3.org/2000/svg"><path d="M26 52C11.642 52 0 40.358 0 26S11.642 0 26 0s26 11.642 26 26-11.642 26-26 26zm-9.316-22.013l-3.98-3.921 3.98-3.92a2.437 2.437 0 1 0-3.421-3.473L7.52 24.328a2.437 2.437 0 0 0 0 3.473l5.742 5.659a2.438 2.438 0 0 0 3.422-3.473zm18.298-7.842l3.98 3.922-3.98 3.918a2.438 2.438 0 0 0 3.421 3.474l5.743-5.655c.97-.955.97-2.518 0-3.473l-5.742-5.658a2.437 2.437 0 1 0-3.422 3.472zM29.516 10.73L18.378 39.314a2.438 2.438 0 1 0 4.542 1.77L34.058 12.5a2.437 2.437 0 1 0-4.542-1.77z" fill="#55CEFF" fill-rule="evenodd"/></symbol><symbol viewBox="-5 -5 62 62" id="Runtime-Go" xmlns="http://www.w3.org/2000/svg"><path d="M26 52C11.642 52 0 40.358 0 26S11.642 0 26 0s26 11.642 26 26-11.642 26-26 26zm-9.316-22.013l-3.98-3.921 3.98-3.92a2.437 2.437 0 1 0-3.421-3.473L7.52 24.328a2.437 2.437 0 0 0 0 3.473l5.742 5.659a2.438 2.438 0 0 0 3.422-3.473zm18.298-7.842l3.98 3.922-3.98 3.918a2.438 2.438 0 0 0 3.421 3.474l5.743-5.655c.97-.955.97-2.518 0-3.473l-5.742-5.658a2.437 2.437 0 1 0-3.422 3.472zM29.516 10.73L18.378 39.314a2.438 2.438 0 1 0 4.542 1.77L34.058 12.5a2.437 2.437 0 1 0-4.542-1.77z" fill="#00B5A0" fill-rule="evenodd"/></symbol><symbol viewBox="-5 -5 62 62" id="Runtime-Java" xmlns="http://www.w3.org/2000/svg"><path d="M26 52C11.642 52 0 40.358 0 26S11.642 0 26 0s26 11.642 26 26-11.642 26-26 26zm-9.316-22.013l-3.98-3.921 3.98-3.92a2.437 2.437 0 1 0-3.421-3.473L7.52 24.328a2.437 2.437 0 0 0 0 3.473l5.742 5.659a2.438 2.438 0 0 0 3.422-3.473zm18.298-7.842l3.98 3.922-3.98 3.918a2.438 2.438 0 0 0 3.421 3.474l5.743-5.655c.97-.955.97-2.518 0-3.473l-5.742-5.658a2.437 2.437 0 1 0-3.422 3.472zM29.516 10.73L18.378 39.314a2.438 2.438 0 1 0 4.542 1.77L34.058 12.5a2.437 2.437 0 1 0-4.542-1.77z" fill="#FF7955" fill-rule="evenodd"/></symbol><symbol viewBox="-5 -5 62 62" id="Runtime-Js" xmlns="http://www.w3.org/2000/svg"><path d="M26 52C11.642 52 0 40.358 0 26S11.642 0 26 0s26 11.642 26 26-11.642 26-26 26zm-9.316-22.013l-3.98-3.921 3.98-3.92a2.437 2.437 0 1 0-3.421-3.473L7.52 24.328a2.437 2.437 0 0 0 0 3.473l5.742 5.659a2.438 2.438 0 0 0 3.422-3.473zm18.298-7.842l3.98 3.922-3.98 3.918a2.438 2.438 0 0 0 3.421 3.474l5.743-5.655c.97-.955.97-2.518 0-3.473l-5.742-5.658a2.437 2.437 0 1 0-3.422 3.472zM29.516 10.73L18.378 39.314a2.438 2.438 0 1 0 4.542 1.77L34.058 12.5a2.437 2.437 0 1 0-4.542-1.77z" fill="#73E58B" fill-rule="evenodd"/></symbol><symbol viewBox="-5 -5 62 62" id="Runtime-Net" xmlns="http://www.w3.org/2000/svg"><path d="M26 52C11.642 52 0 40.358 0 26S11.642 0 26 0s26 11.642 26 26-11.642 26-26 26zm-9.316-22.013l-3.98-3.921 3.98-3.92a2.437 2.437 0 1 0-3.421-3.473L7.52 24.328a2.437 2.437 0 0 0 0 3.473l5.742 5.659a2.438 2.438 0 0 0 3.422-3.473zm18.298-7.842l3.98 3.922-3.98 3.918a2.438 2.438 0 0 0 3.421 3.474l5.743-5.655c.97-.955.97-2.518 0-3.473l-5.742-5.658a2.437 2.437 0 1 0-3.422 3.472zM29.516 10.73L18.378 39.314a2.438 2.438 0 1 0 4.542 1.77L34.058 12.5a2.437 2.437 0 1 0-4.542-1.77z" fill="#716BBA" fill-rule="evenodd"/></symbol><symbol viewBox="-5 -5 62 62" id="Runtime-PHP" xmlns="http://www.w3.org/2000/svg"><path d="M26 52C11.642 52 0 40.358 0 26S11.642 0 26 0s26 11.642 26 26-11.642 26-26 26zm-9.316-22.013l-3.98-3.921 3.98-3.92a2.437 2.437 0 1 0-3.421-3.473L7.52 24.328a2.437 2.437 0 0 0 0 3.473l5.742 5.659a2.438 2.438 0 0 0 3.422-3.473zm18.298-7.842l3.98 3.922-3.98 3.918a2.438 2.438 0 0 0 3.421 3.474l5.743-5.655c.97-.955.97-2.518 0-3.473l-5.742-5.658a2.437 2.437 0 1 0-3.422 3.472zM29.516 10.73L18.378 39.314a2.438 2.438 0 1 0 4.542 1.77L34.058 12.5a2.437 2.437 0 1 0-4.542-1.77z" fill="#CA61EB" fill-rule="evenodd"/></symbol><symbol viewBox="-5 -5 62 62" id="Runtime-Python" xmlns="http://www.w3.org/2000/svg"><path d="M26 52C11.642 52 0 40.358 0 26S11.642 0 26 0s26 11.642 26 26-11.642 26-26 26zm-9.316-22.013l-3.98-3.921 3.98-3.92a2.437 2.437 0 1 0-3.421-3.473L7.52 24.328a2.437 2.437 0 0 0 0 3.473l5.742 5.659a2.438 2.438 0 0 0 3.422-3.473zm18.298-7.842l3.98 3.922-3.98 3.918a2.438 2.438 0 0 0 3.421 3.474l5.743-5.655c.97-.955.97-2.518 0-3.473l-5.742-5.658a2.437 2.437 0 1 0-3.422 3.472zM29.516 10.73L18.378 39.314a2.438 2.438 0 1 0 4.542 1.77L34.058 12.5a2.437 2.437 0 1 0-4.542-1.77z" fill="#FFE555" fill-rule="evenodd"/></symbol><symbol viewBox="-5 -5 62 62" id="Runtime-Ruby" xmlns="http://www.w3.org/2000/svg"><path d="M26 52C11.642 52 0 40.358 0 26S11.642 0 26 0s26 11.642 26 26-11.642 26-26 26zm-9.316-22.013l-3.98-3.921 3.98-3.92a2.437 2.437 0 1 0-3.421-3.473L7.52 24.328a2.437 2.437 0 0 0 0 3.473l5.742 5.659a2.438 2.438 0 0 0 3.422-3.473zm18.298-7.842l3.98 3.922-3.98 3.918a2.438 2.438 0 0 0 3.421 3.474l5.743-5.655c.97-.955.97-2.518 0-3.473l-5.742-5.658a2.437 2.437 0 1 0-3.422 3.472zM29.516 10.73L18.378 39.314a2.438 2.438 0 1 0 4.542 1.77L34.058 12.5a2.437 2.437 0 1 0-4.542-1.77z" fill="#CC342D" fill-rule="evenodd"/></symbol><symbol viewBox="-5 -5 62 62" id="Runtime-Swift" xmlns="http://www.w3.org/2000/svg"><path d="M26 52C11.642 52 0 40.358 0 26S11.642 0 26 0s26 11.642 26 26-11.642 26-26 26zm-9.316-22.013l-3.98-3.921 3.98-3.92a2.437 2.437 0 1 0-3.421-3.473L7.52 24.328a2.437 2.437 0 0 0 0 3.473l5.742 5.659a2.438 2.438 0 0 0 3.422-3.473zm18.298-7.842l3.98 3.922-3.98 3.918a2.438 2.438 0 0 0 3.421 3.474l5.743-5.655c.97-.955.97-2.518 0-3.473l-5.742-5.658a2.437 2.437 0 1 0-3.422 3.472zM29.516 10.73L18.378 39.314a2.438 2.438 0 1 0 4.542 1.77L34.058 12.5a2.437 2.437 0 1 0-4.542-1.77z" fill="#FFA573" fill-rule="evenodd"/></symbol><symbol viewBox="-5 -5 229 175" id="Scale" xmlns="http://www.w3.org/2000/svg"><g fill="none" fill-rule="evenodd"><g transform="translate(64.11 14)"><path d="M41.13 68.358h81.205M133.004 18.616l-60.254.164v27.656H50.714M131.224 117.424l-58.672-.277V89.605H51.225" stroke="#D9DEE3" stroke-width="5" stroke-linecap="round"/><ellipse fill="#7CC7FF" cx="95.083" cy="18.026" rx="13.75" ry="13.799"/><ellipse fill="#50E3C2" cx="95.083" cy="115.874" rx="13.75" ry="13.799"/><ellipse fill="#FFE039" cx="94.126" cy="67.909" rx="13.75" ry="13.799"/><path d="M136 86c9.94 0 18-8.06 18-18s-8.06-18-18-18-18 8.06-18 18 8.06 18 18 18" fill="#6EEDD8"/><path d="M126.314 68.046l2.999-2.953a1.35 1.35 0 1 0-1.894-1.924l-3.976 3.915a1.35 1.35 0 0 0 0 1.923l3.975 3.918A1.35 1.35 0 1 0 129.313 71l-3-2.955zM142.455 71a1.35 1.35 0 0 0 1.895 1.924l3.975-3.915a1.35 1.35 0 0 0 0-1.924l-3.975-3.917a1.35 1.35 0 1 0-1.895 1.923l3 2.956-3 2.953zM137.83 57.453l-6.241 20.3a1.35 1.35 0 0 0 2.58.794l6.241-20.3a1.35 1.35 0 0 0-2.58-.794z" stroke="#005448" stroke-width=".3" fill="#005448" fill-rule="nonzero"/><g><path d="M136 36c9.94 0 18-8.06 18-18s-8.06-18-18-18-18 8.06-18 18 8.06 18 18 18" fill="#6EEDD8"/><path d="M126.314 18.046l2.999-2.953a1.35 1.35 0 1 0-1.894-1.924l-3.976 3.915a1.35 1.35 0 0 0 0 1.923l3.975 3.918A1.35 1.35 0 1 0 129.313 21l-3-2.955zM142.455 21a1.35 1.35 0 0 0 1.895 1.924l3.975-3.915a1.35 1.35 0 0 0 0-1.924l-3.975-3.917a1.35 1.35 0 1 0-1.895 1.923l3 2.956-3 2.953zM137.83 7.453l-6.241 20.3a1.35 1.35 0 0 0 2.58.794l6.241-20.3a1.35 1.35 0 0 0-2.58-.794z" stroke="#005448" stroke-width=".3" fill="#005448" fill-rule="nonzero"/></g><g><path d="M136 135c9.94 0 18-8.06 18-18s-8.06-18-18-18-18 8.06-18 18 8.06 18 18 18" fill="#6EEDD8"/><path d="M126.314 117.046l2.999-2.953a1.35 1.35 0 1 0-1.894-1.924l-3.976 3.915a1.35 1.35 0 0 0 0 1.923l3.975 3.918a1.35 1.35 0 1 0 1.895-1.924l-3-2.955zM142.455 120a1.35 1.35 0 0 0 1.895 1.924l3.975-3.915a1.35 1.35 0 0 0 0-1.924l-3.975-3.917a1.35 1.35 0 1 0-1.895 1.923l3 2.956-3 2.953zM137.83 106.453l-6.241 20.3a1.35 1.35 0 0 0 2.58.794l6.241-20.3a1.35 1.35 0 0 0-2.58-.794z" stroke="#005448" stroke-width=".3" fill="#005448" fill-rule="nonzero"/></g><path d="M.94 67.776h34.464" stroke="#D9DEE3" stroke-width="5" stroke-linecap="round"/></g><g transform="translate(0 53.72)"><ellipse fill="#FFE039" opacity=".6" cx="26.685" cy="7.805" rx="7.767" ry="7.805"/><ellipse fill="#50E3C2" opacity=".6" cx="26.685" cy="26.798" rx="7.767" ry="7.805"/><ellipse fill="#7CC7FF" opacity=".6" cx="26.685" cy="45.79" rx="7.767" ry="7.805"/><ellipse fill="#7CC7FF" opacity=".403" cx="7.767" cy="17.03" rx="7.767" ry="7.805"/><ellipse fill="#7CC7FF" cx="44.522" cy="17.03" rx="7.767" ry="7.805"/><ellipse fill="#7CC7FF" opacity=".403" cx="7.767" cy="36.565" rx="7.767" ry="7.805"/><ellipse fill="#FFE039" cx="44.522" cy="36.565" rx="7.767" ry="7.805"/><path fill="#CCD5DF" d="M58 40.002V16l12.487 12.001z"/></g><g><path d="M106.975 109.345c14.896 0 26.974-12.166 26.974-27.172S121.871 55 106.975 55C92.078 55 80 67.167 80 82.173c0 15.006 12.078 27.172 26.975 27.172" fill="#7CC7FF"/><path d="M103.727 76.46l4.573 1.45c5.222-5.215 9.918-9.914 10.9-10.91 7.64 7.64 7.746 19.921.235 27.432-7.51 7.514-19.795 7.409-27.435-.231l10.914-10.904-1.462-4.594a3.21 3.21 0 0 1-3.077-.836 3.201 3.201 0 0 1 4.525-4.529 3.206 3.206 0 0 1 .827 3.121" fill="#1E3956"/></g></g></symbol><symbol viewBox="-5 -5 619 130" id="Serverless_Backend" xmlns="http://www.w3.org/2000/svg"><defs><path id="bab" d="M0 10h104v66H0z"/><filter x="-28.4%" y="-41.7%" width="156.7%" height="189.4%" filterUnits="objectBoundingBox" id="baa"><feOffset dy="2" in="SourceAlpha" result="shadowOffsetOuter1"/><feGaussianBlur stdDeviation="9.5" in="shadowOffsetOuter1" result="shadowBlurOuter1"/><feColorMatrix values="0 0 0 0 0 0 0 0 0 0 0 0 0 0 0 0 0 0 0.102326766 0" in="shadowBlurOuter1"/></filter></defs><g fill="none" fill-rule="evenodd"><g transform="translate(310)"><ellipse stroke="#D9DEE3" stroke-width="3" stroke-linecap="round" cx="59.635" cy="59.853" rx="59.635" ry="59.853"/><path d="M81.093 33.987c-1.118.247-2.52 1.155-3.271 3.028-.866 2.146-1.303 5.374-1.538 8.697l1.84.367c1.056.204 6.323 1.557 6.352 8.271.026 6.723-5.228 8.12-6.233 8.323l-2.32.483c-.48 13.532-4.593 23.752-12.255 30.413-.315.273-.634.521-.95.774 8.035-.61 15.896-3.925 22.042-10.069 13.663-13.66 13.663-35.812 0-49.476-.202-.201-1.607-1.266-3.667-.811zM44.038 63.435l-2.188-.446c-1.056-.206-6.319-1.584-6.319-8.3 0-6.72 5.265-8.094 6.273-8.294l3.556-.725c1.806-8.442 5.49-15.123 10.983-19.898.313-.27.63-.52.948-.772-8.035.612-15.9 3.927-22.044 10.069-13.342 13.344-13.655 34.78-.939 48.5 1.762 1.67 7.1.834 8.343-2.617 1.125-4.047 1.345-10.696 1.387-17.517z" fill="#50E3C2"/><path d="M39.483 94.789c.137.022 1.224.18 2.908.18 3.846 0 10.804-.826 16.732-5.976 6.818-5.928 10.182-15.726 10.004-29.108v-.756c0-.322.003-.626.003-.943l7.572-1.582c.899-.18.94-.892.937-1.78-.003-.885-.056-1.59-.955-1.763l-7.477-1.485c.34-14.162 2.108-22.547 10.735-22.662.974-.013 1.098-.774 1.169-1.746.066-.974.055-1.837-.91-1.986-.133-.022-1.22-.182-2.904-.182-3.843 0-10.805.825-16.732 5.973-5.247 4.564-8.427 11.449-9.543 20.483l-8.03 1.638c-.898.177-.947.883-.947 1.773 0 .885.05 1.593.948 1.77l7.608 1.549c-.01.641-.047 1.249-.04 1.906v.73c-.013 18.724-.748 30.1-10.817 30.235-.976.013-1.353.774-1.422 1.744-.066.976.196 1.839 1.16 1.988" fill="#236B5B"/></g><path d="M520.21 60.344V59s-.471.49 0 1.344M590.752 55.038v1.343c.082-.838 0-1.343 0-1.343" fill="#FFF"/><path d="M555 114c-29.823 0-54-24.176-54-54 0-29.823 24.177-54 54-54s54 24.177 54 54c0 29.824-24.177 54-54 54z" fill="#6EC7E9"/><path d="M551.086 64.415c17.144 11.42 39.834-1.848 39.666-6.718 0 0 1.596-6.844-8.236-10.244 13.278-19.2-39.946-18.865-40.884-3.779C518.732 46.236 521 57.53 521 57.53s4.538 12.596 30.085 6.886" fill="#FFF"/><path d="M551.086 64.269c-25.547 5.71-30.085-6.886-30.085-6.886V74.85s1.176 15.786 29.917 9.572c11.429 8.397 37.817 3.023 39.834-6.885V57.55c.168 4.87-22.522 18.138-39.666 6.718" fill="#00498F"/><g transform="translate(239 47)"><path d="M0 13h70" stroke-width="3" stroke="#D9DEE3" stroke-linecap="round"/><path d="M60.902 12.853L47 1.1l3 12.28-3 11.225z" fill="#D9DEE3"/><ellipse fill="#D9DEE3" cx="23.748" cy="12.883" rx="10.5" ry="10.443"/></g><path d="M430 60h70" stroke="#D9DEE3" stroke-width="3" stroke-linecap="round"/><path d="M490.902 59.853L477 48.1l3 11.98-3 11.525z" fill="#D9DEE3"/><ellipse cx="10.748" cy="10.883" rx="10.5" ry="10.443" transform="translate(443 49)" fill="#6EEDD8"/><g transform="translate(19 22)"><use fill="#000" filter="url(#baa)" xlink:href="#bab"/><use fill="#FFF" xlink:href="#bab"/><rect fill="#7CC7FF" x="15" y="24" width="71" height="34" rx="2"/><path d="M24 49.654h3.518v-6.7c0-2.597.818-3.66 2.726-3.66 1.66 0 2.255 1.038 2.255 3.14v7.22h3.518V41.79c0-3.165-.941-5.266-4.683-5.266-1.313 0-2.85.667-3.741 2.126h-.075V32H24v17.654zm17.146-7.764h5.724c-.322-1.78-1.09-2.72-2.8-2.72-2.28 0-2.85 1.731-2.924 2.72zm9.242 2.225h-9.242c.1 2.25 1.165 3.24 3.147 3.24 1.412 0 2.552-.866 2.775-1.657h3.097C49.175 48.739 47.068 50 44.17 50c-4.039 0-6.541-2.77-6.541-6.725 0-3.833 2.651-6.75 6.541-6.75 4.361 0 6.492 3.66 6.22 7.59zm1.933 5.539h3.519V32H52.32v17.654zm5.996 0h3.519V32h-3.519v17.654zm8.945-6.38c0 2.053.719 4.08 3.098 4.08 2.403 0 3.122-2.027 3.122-4.08 0-2.051-.719-4.104-3.122-4.104-2.38 0-3.098 2.053-3.098 4.105zm-3.518 0c0-4.079 2.601-6.75 6.616-6.75 4.038 0 6.64 2.671 6.64 6.75C77 47.33 74.398 50 70.36 50c-4.015 0-6.616-2.67-6.616-6.725z" fill="#FFF"/><path d="M104 15V9.889C104 4.426 99.572 0 94.11 0H9.89C4.435 0 0 4.427 0 9.889V15v-4.778h104V15z" fill="#6EEDD8"/><path d="M73.774 48.937l17.515 13.9s-7.456-.91-10.358.444c-2.901 1.353-7.768 8.008-7.768 8.008l.61-22.352z" fill="#586464"/><path d="M78.464 58.562l5.072 10.876" stroke="#586464" stroke-width="7" stroke-linecap="square"/></g><g><path d="M138.458 60.5h35.056" stroke="#D9DEE3" stroke-width="3" stroke-linecap="round"/><path d="M137 76.471V44.758l16.523 15.857z" fill="#D9DEE3"/></g><g fill="#3D70B2"><path d="M178 45.823V89h57V45.823h-57zM174 28h65v65h-65V28z" fill-rule="nonzero"/><text font-family="Helvetica Neue, HelveticaNeue, Arial" font-size="21" font-weight="bold" transform="translate(174 28)"><tspan x="15.71" y="45.403">API</tspan></text></g></g></symbol><symbol viewBox="-5 -5 32 32" id="hide-key" xmlns="http://www.w3.org/2000/svg"><defs><path id="bba" d="M9.571-1.896h3v21.935h-3z"/></defs><g fill="none" fill-rule="evenodd"><g transform="translate(0 4)" fill-rule="nonzero" fill="#3D70B2"><path d="M11 0C6.064 0 2.308 3.058 0 7c2.308 3.942 6.064 7 11 7s8.693-3.058 11-7c-2.307-3.942-6.065-7-11-7zm0 12c-4.31 0-7.009-2.713-8.624-5C3.991 4.713 6.69 2 11 2c4.311 0 7.01 2.713 8.624 5-1.614 2.287-4.313 5-8.624 5z"/><circle cx="11" cy="7" r="4"/></g><g transform="rotate(45 8.657 10.071)"><use fill="#3D70B2" xlink:href="#bba"/><path stroke="#FFF" d="M9.071-2.396h4v22.935h-4z"/></g></g></symbol><symbol viewBox="-5 -5 32 24" id="show-key" xmlns="http://www.w3.org/2000/svg"><g fill-rule="nonzero" fill="#3D70B2"><path d="M11 0C6.064 0 2.308 3.058 0 7c2.308 3.942 6.064 7 11 7s8.693-3.058 11-7c-2.307-3.942-6.065-7-11-7zm0 12c-4.31 0-7.009-2.713-8.624-5C3.991 4.713 6.69 2 11 2c4.311 0 7.01 2.713 8.624 5-1.614 2.287-4.313 5-8.624 5z"/><circle cx="11" cy="7" r="4"/></g></symbol></svg>