<?xml version="1.0" encoding="utf-8"?>
<!-- Generator: Adobe Illustrator 19.0.1, SVG Export Plug-In . SVG Version: 6.00 Build 0)  -->
<svg version="1.1" id="Layer_1" xmlns="http://www.w3.org/2000/svg" xmlns:xlink="http://www.w3.org/1999/xlink" x="0px" y="0px"
	 viewBox="-830 338 320 224" style="enable-background:new -830 338 320 224;" xml:space="preserve">
<style type="text/css">
	.st0{fill:#FFFFFF;}
</style>
<g>
	<g>
		<path class="st0" d="M-814,370h288c8.8,0,16-7.2,16-16s-7.2-16-16-16h-288c-8.8,0-16,7.2-16,16S-822.8,370-814,370z M-526,402
			h-288c-8.8,0-16,7.2-16,16s7.2,16,16,16h288c8.8,0,16-7.2,16-16S-517.2,402-526,402z M-526,466h-288c-8.8,0-16,7.2-16,16
			s7.2,16,16,16h288c8.8,0,16-7.2,16-16S-517.2,466-526,466z M-526,530h-288c-8.8,0-16,7.2-16,16s7.2,16,16,16h288
			c8.8,0,16-7.2,16-16S-517.2,530-526,530z"/>
	</g>
</g>
</svg>
