<?xml version="1.0" encoding="utf-8"?>
<!-- Generator: Adobe Illustrator 19.0.1, SVG Export Plug-In . SVG Version: 6.00 Build 0)  -->
<svg version="1.1" id="Layer_1" xmlns="http://www.w3.org/2000/svg" xmlns:xlink="http://www.w3.org/1999/xlink" x="0px" y="0px"
	 viewBox="-926 210 512 512" style="enable-background:new -926 210 512 512;" xml:space="preserve">
<style type="text/css">
	.st0{fill:#FFFFFF;}
</style>
<g>
	<g>
		<path class="st0" d="M-718,274c8.8,0,16-7.2,16-16v-32c0-8.8-7.2-16-16-16s-16,7.2-16,16v32C-734,266.8-726.8,274-718,274z
			 M-593.6,316.2l22.6-22.6c6.2-6.2,6.2-16.4,0-22.6s-16.4-6.2-22.6,0l-22.6,22.6c-6.2,6.2-6.2,16.4,0,22.6
			C-609.9,322.4-599.8,322.4-593.6,316.2z M-910,434h32c8.8,0,16-7.2,16-16s-7.2-16-16-16h-32c-8.8,0-16,7.2-16,16
			S-918.8,434-910,434z M-574,418c0,8.8,7.2,16,16,16h32c8.8,0,16-7.2,16-16s-7.2-16-16-16h-32C-566.8,402-574,409.2-574,418z
			 M-842.5,316.2c6.3,6.2,16.4,6.2,22.6,0c6.3-6.2,6.3-16.4,0-22.6l-22.6-22.6c-6.2-6.2-16.4-6.2-22.6,0c-6.2,6.2-6.2,16.4,0,22.6
			L-842.5,316.2z M-526,466c-5.3,0-10.6,0.4-15.8,1.1c-16.8-22.9-39.1-40.3-64.5-51.5C-607.5,355-657.1,306-718,306
			c-61.8,0-112,50.2-112,112c0,17.4,4.3,33.8,11.5,48.4C-878.1,468.9-926,517.8-926,578c0,61.8,50.2,112,112,112
			c13.7,0,27.1-2.5,39.7-7.3c29,25.2,65.8,39.3,104.3,39.3s75.3-14.1,104.3-39.3c12.6,4.8,26,7.3,39.7,7.3c61.8,0,112-50.2,112-112
			S-464.2,466-526,466z M-670,402c-45.9,0-88.5,19.8-118.4,53.2c-5.9-11.2-9.6-23.7-9.6-37.2c0-44.2,35.8-80,80-80
			c39.8,0,72.6,29.2,78.7,67.2C-649.3,403.2-659.5,402-670,402z"/>
	</g>
</g>
</svg>
