<?xml version="1.0" encoding="utf-8"?>
<!-- Generator: Adobe Illustrator 18.1.1, SVG Export Plug-In . SVG Version: 6.00 Build 0)  -->
<svg version="1.1" id="Capa_1" xmlns="http://www.w3.org/2000/svg" xmlns:xlink="http://www.w3.org/1999/xlink" x="0px" y="0px"
	 viewBox="-49.1 301.2 612.1 535.5" enable-background="new -49.1 301.2 612.1 535.5" xml:space="preserve">
<g>
	<path fill="#A3B2A1" d="M535.3,340.9c-20.3-5.9-41.5,6-47.3,26.3l-3,10.5H128.1l-5.4-43c-2.4-19.1-18.6-33.5-38-33.5h-95.6
		c-21.2,0-38.2,17.1-38.2,38.2s17.1,38.2,38.2,38.2H51l34.1,272.5c2.4,19.1,18.6,33.5,38,33.5h325.1c17.1,0,32-11.4,36.8-27.7
		l76.5-267.8C567.3,367.9,555.6,346.8,535.3,340.9z M257,530.8v-38.2h76.5v38.2H257z M333.5,569v38.2H257V569H333.5z M257,454.2V416
		h76.5v38.2H257z M132.9,416h85.8v38.2h-81L132.9,416z M142.5,492.5h76.3v38.2h-71.5L142.5,492.5z M152.1,569h66.7v38.2h-61.9
		L152.1,569z M419.4,607.2h-47.7V569h58.6L419.4,607.2z M441.2,530.8h-69.4v-38.2h80.4L441.2,530.8z M463.1,454.2h-91.3V416h102.3
		L463.1,454.2z M104,779.4c0,31.7,25.7,57.4,57.4,57.4s57.4-25.7,57.4-57.4l0,0c0-31.7-25.7-57.4-57.4-57.4S104,747.7,104,779.4z
		 M333.5,779.4c0,31.7,25.7,57.4,57.4,57.4s57.4-25.7,57.4-57.4l0,0c0-31.7-25.7-57.4-57.4-57.4S333.5,747.7,333.5,779.4z"/>
</g>
</svg>
