<?xml version="1.0" encoding="utf-8"?>
<!-- Generator: Adobe Illustrator 18.0.0, SVG Export Plug-In . SVG Version: 6.00 Build 0)  -->
<!DOCTYPE svg PUBLIC "-//W3C//DTD SVG 1.1//EN" "http://www.w3.org/Graphics/SVG/1.1/DTD/svg11.dtd">
<svg version="1.1" id="Layer_1" xmlns="http://www.w3.org/2000/svg" xmlns:xlink="http://www.w3.org/1999/xlink" x="0px" y="0px"
	 viewBox="0 0 270 270" enable-background="new 0 0 270 270" xml:space="preserve">
<radialGradient id="SVGID_1_" cx="-124.7735" cy="-270.7139" r="264.5765" gradientTransform="matrix(0.9407 0 0 0.9407 166.2097 303.2051)" gradientUnits="userSpaceOnUse">
	<stop  offset="0" style="stop-color:#9DD5F6"/>
	<stop  offset="7.110000e-02" style="stop-color:#98D3F5"/>
	<stop  offset="0.1575" style="stop-color:#89CEF3"/>
	<stop  offset="0.2516" style="stop-color:#70C6EF"/>
	<stop  offset="0.3514" style="stop-color:#4EBBEA"/>
	<stop  offset="0.4546" style="stop-color:#23ADE3"/>
	<stop  offset="0.5" style="stop-color:#0DA6E0"/>
	<stop  offset="1" style="stop-color:#2E77BC"/>
</radialGradient>
<path fill="url(#SVGID_1_)" d="M267.3,2H2v266.2h265.2v-87.9c1-1.5,1.6-3.5,1.6-5.8c0-2.7-0.6-4.4-1.6-5.8"/>
<path fill="#FFFFFF" d="M25.9,117.2l-5.1-12.4l-5.1,12.4 M138.3,112.3c-1,0.7-2.3,0.7-3.7,0.7h-9v-7h9.2c1.3,0,2.6,0.1,3.6,0.6
	s1.6,1.4,1.6,2.7C139.9,110.7,139.3,111.8,138.3,112.3z M202.9,117.2l-5.2-12.4l-5.2,12.4H202.9z M82.5,130.7h-7.6v-24.5l-10.8,24.5
	h-6.6l-10.8-24.5v24.5H31.5l-2.8-7H13.1l-2.9,7H2.1l13.4-31.2h11.1L39.3,129V99.5h12.1l9.8,21.2l8.9-21.2h12.4V130.7L82.5,130.7z
	 M113,130.7H88.1V99.5H113v6.5H95.6v5.6h17v6.4h-17v6.2H113V130.7z M148.1,107.9c0,5-3.3,7.5-5.3,8.3c1.6,0.7,3,1.7,3.7,2.6
	c1,1.5,1.2,2.9,1.2,5.7v6.1h-7.5v-4c0-1.9,0.2-4.6-1.2-6.1c-1.1-1.1-2.7-1.3-5.5-1.3h-8v11.4h-7.4V99.5h17.1c3.8,0,6.6,0.1,9,1.5
	S148.1,104.4,148.1,107.9z M160,130.7h-7.6V99.5h7.6V130.7z M248.3,130.7h-10.5l-14.1-23.4v23.4h-15.1l-2.9-7h-15.5l-2.8,7h-8.7
	c-3.7,0-8.2-0.8-10.8-3.5s-4-6.2-4-11.9c0-4.6,0.8-8.8,4-12.2c2.4-2.4,6.2-3.7,11.3-3.7h7.2v6.7h-7.1c-2.7,0-4.2,0.4-5.7,1.9
	c-1.3,1.3-2.2,3.8-2.2,7.1c0,3.4,0.7,5.7,2.1,7.3c1.1,1.2,3.2,1.6,5.2,1.6h3.4l10.5-24.6h11.2l12.6,29.5V99.4h11.4l13.1,21.7V99.4
	h7.6L248.3,130.7L248.3,130.7z M2,136.8h12.7l2.9-7H24l2.8,7h25v-5.3l2.3,5.4h13l2.3-5.4v5.4h62.3v-11.4h1.2c0.8,0,1.1,0.1,1.1,1.5
	v9.9h32.2v-2.6c2.6,1.4,6.7,2.6,11.9,2.6h13.5l2.9-7h6.4l2.8,7h26.2v-6.6l4,6.6h20.9V93.3h-20.7v5.2l-2.9-5.2h-21.1v5.2l-2.6-5.2
	h-28.7c-4.8,0-9,0.7-12.4,2.5v-2.5h-19.8v2.5c-2.2-1.9-5.2-2.5-8.5-2.5H65.7l-4.9,11.2l-5-11.2H33v5.2l-2.5-5.2H11L2,114L2,136.8
	L2,136.8z"/>
<path fill="#FFFFFF" d="M267.3,159.9h-13.5c-1.3,0-2.3,0.1-3,0.6c-0.8,0.5-1.1,1.2-1.1,2.3c0,1.2,0.7,2,1.6,2.4
	c0.8,0.3,1.6,0.4,2.9,0.4l4,0.1c4,0.1,6.8,0.8,8.5,2.5c0.3,0.3,0.5,0.5,0.7,0.8 M267.3,180.4c-1.8,2.6-5.4,4-10.2,4h-14.4v-6.7h14.4
	c1.4,0,2.4-0.2,3-0.8c0.6-0.5,0.8-1.2,0.8-2.1c0-0.9-0.4-1.6-0.9-2.1c-0.6-0.5-1.3-0.7-2.6-0.7c-7-0.3-15.7,0.2-15.7-9.7
	c0-4.5,2.9-9.3,10.7-9.3h14.9v-6.2h-13.8c-4.1,0-7.1,1-9.3,2.5v-2.5h-20.4c-3.3,0-7.1,0.8-8.9,2.5v-2.5h-36.4v2.5
	c-2.9-2.1-7.8-2.5-10.1-2.5h-24.1v2.5c-2.3-2.3-7.4-2.5-10.5-2.5h-26.9l-6.1,6.7l-5.7-6.7H54.8v43.6h39.4l6.3-6.8l6,6.8h24.3v-10.3
	h2.4c3.2,0.1,7.1-0.1,10.3-1.5v11.8h20V179h0.9c1.2,0,1.3,0.1,1.3,1.3v10.1h60.9c3.9,0,7.9-1,10.2-2.8v2.8h19.3c4,0,7.9-0.6,10.9-2
	v-8.1H267.3z M237.6,167.9c1.4,1.5,2.3,3.4,2.3,6.6c0,6.7-4.2,9.9-11.7,9.9h-14.5v-6.7H228c1.4,0,2.4-0.2,3-0.8
	c0.5-0.5,0.8-1.2,0.8-2.1c0-0.9-0.4-1.6-0.9-2.1c-0.6-0.5-1.3-0.7-2.6-0.7c-7-0.3-15.7,0.2-15.7-9.7c0-4.5,2.8-9.3,10.6-9.3h15v6.7
	h-13.6c-1.3,0-2.3,0.1-3,0.6c-0.8,0.5-1.1,1.2-1.1,2.3c0,1.2,0.7,2,1.6,2.4c0.8,0.3,1.6,0.4,2.9,0.4l4,0.1
	C233,165.5,235.9,166.2,237.6,167.9z M170.3,166c-1,0.6-2.3,0.7-3.7,0.7h-9v-7h9.2c1.3,0,2.6,0,3.6,0.6c0.9,0.5,1.5,1.5,1.5,2.8
	C171.8,164.4,171.2,165.4,170.3,166z M174.7,169.8c1.7,0.7,3,1.7,3.7,2.6c1,1.5,1.2,2.9,1.2,5.7v6.2h-7.5v-3.9
	c0-1.9,0.2-4.6-1.2-6.1c-1.1-1.1-2.7-1.4-5.5-1.4h-8v11.4h-7.5v-31.2h17.2c3.8,0,6.5,0.2,8.9,1.5c2.4,1.4,3.9,3.4,3.9,7
	C180.1,166.5,176.7,169.1,174.7,169.8z M184.2,153.2h24.8v6.5h-17.5v5.6h17v6.4h-17v6.2h17.5v6.5h-24.8V153.2z M133.9,167.6h-9.6
	v-7.9h9.7c2.7,0,4.5,1.1,4.5,3.9C138.5,166.2,136.7,167.6,133.9,167.6z M116.9,181.5l-11.5-12.7l11.5-12.3V181.5z M87.2,177.8H69
	v-6.2h16.4v-6.4H69v-5.6h18.7l8.2,9.1L87.2,177.8z M146.5,163.4c0,8.7-6.5,10.4-13,10.4h-9.3v10.4h-14.5l-9.2-10.3L91,184.3H61.5
	v-31.2h30l9.2,10.3l9.5-10.3h23.8C139.9,153.2,146.5,154.8,146.5,163.4z"/>
</svg>
