<?xml version="1.0" encoding="utf-8"?>
<!-- Generator: Adobe Illustrator 18.1.0, SVG Export Plug-In . SVG Version: 6.00 Build 0)  -->
<!DOCTYPE svg PUBLIC "-//W3C//DTD SVG 1.1//EN" "http://www.w3.org/Graphics/SVG/1.1/DTD/svg11.dtd">
<svg version="1.1" id="Layer_1" xmlns="http://www.w3.org/2000/svg" xmlns:xlink="http://www.w3.org/1999/xlink" x="0px" y="0px"
	 viewBox="0 0 251.8 255.7" enable-background="new 0 0 251.8 255.7" xml:space="preserve">
<g id="bp">
	<path fill-rule="evenodd" clip-rule="evenodd" fill="#00A651" d="M125.9,127.9L125.9,127.9L125.9,127.9L125.9,127.9L125.9,127.9
		L125.9,127.9L125.9,127.9L125.9,127.9L125.9,127.9L125.9,127.9L125.9,127.9L125.9,127.9L125.9,127.9L125.9,127.9L125.9,127.9
		L125.9,127.9L125.9,127.9L125.9,127.9L125.9,127.9L125.9,127.9L125.9,127.9L125.9,127.9L125.9,127.9L125.9,127.9L125.9,127.9
		L125.9,127.9L125.9,127.9L125.9,127.9L125.9,127.9L125.9,127.9L125.9,127.9L125.9,127.9L125.9,127.9L125.9,127.9L125.9,127.9
		L125.9,127.9L125.9,127.9L125.9,127.9L125.9,127.9L125.9,127.9L125.9,127.9L125.9,127.9L125.9,127.9L125.9,127.9L125.9,127.9
		L125.9,127.9L125.9,127.9L125.9,127.9L125.9,127.9L125.9,127.9L125.9,127.9L125.9,127.9L125.9,127.9L125.9,127.9z M76.3,41.9
		c0.7-13.4,3.3-25.5,5.9-34.1c7.6,4.9,17.4,12.5,26.5,22.3c5.2-12.3,11.8-22.9,17.2-30.1c5.4,7.2,12,17.7,17.2,30.1
		c9.1-9.8,18.9-17.4,26.5-22.3c2.6,8.6,5.2,20.8,5.9,34.1c11.9-6.1,23.7-9.9,32.5-11.9c-0.5,9-2.2,21.3-6.1,34.1
		c13.3-1.6,25.7-1.2,34.6-0.1c-3.5,8.3-9.3,19.3-17.4,30c13.1,3,24.6,7.7,32.6,11.8c-6.1,6.6-15.4,14.9-26.6,22.2
		c11.2,7.3,20.5,15.6,26.6,22.2c-8,4.1-19.5,8.8-32.6,11.8c8.1,10.7,13.9,21.7,17.4,30c-9,1.1-21.3,1.6-34.6-0.1
		c3.9,12.8,5.6,25.1,6.1,34.1c-8.8-2-20.6-5.8-32.5-11.9c-0.7,13.4-3.3,25.5-5.9,34.1c-7.6-4.9-17.3-12.5-26.5-22.3
		c-5.2,12.3-11.8,22.9-17.2,30.1c-5.4-7.2-12-17.7-17.2-30.1c-9.1,9.8-18.9,17.4-26.5,22.3c-2.6-8.6-5.2-20.8-5.9-34.1
		c-11.9,6.1-23.7,9.9-32.5,11.9c0.5-9,2.2-21.3,6.1-34.1c-13.3,1.6-25.7,1.2-34.6,0.1c3.5-8.3,9.3-19.3,17.4-30
		c-13.1-3-24.6-7.7-32.6-11.8c6.1-6.6,15.4-14.9,26.6-22.2C15.4,120.6,6.1,112.3,0,105.7c8-4.1,19.5-8.8,32.6-11.8
		c-8.1-10.7-13.9-21.7-17.4-30c9-1.1,21.3-1.6,34.6,0.1c-3.9-12.8-5.6-25.1-6.1-34.1C52.5,31.9,64.3,35.8,76.3,41.9L76.3,41.9z
		 M125.9,127.9L125.9,127.9L125.9,127.9L125.9,127.9z"/>
	<path fill-rule="evenodd" clip-rule="evenodd" fill="#A6CE39" d="M125.9,127.9L125.9,127.9L125.9,127.9L125.9,127.9L125.9,127.9
		L125.9,127.9L125.9,127.9L125.9,127.9L125.9,127.9L125.9,127.9L125.9,127.9L125.9,127.9L125.9,127.9L125.9,127.9L125.9,127.9
		L125.9,127.9L125.9,127.9L125.9,127.9L125.9,127.9L125.9,127.9L125.9,127.9L125.9,127.9L125.9,127.9L125.9,127.9L125.9,127.9
		L125.9,127.9L125.9,127.9L125.9,127.9L125.9,127.9L125.9,127.9L125.9,127.9L125.9,127.9L125.9,127.9L125.9,127.9L125.9,127.9
		L125.9,127.9L125.9,127.9L125.9,127.9z M52.8,140.7c-9.5-3.2-18.4-7.8-26.2-12.9c7.9-5.1,16.7-9.7,26.2-12.9
		c-7.8-6.2-14.6-13.6-20.2-21.1c9.1-2.1,19-3.4,29.1-3.1C56.4,82.2,52.6,73,49.8,64c9.3,1.1,19,3.3,28.4,7c-2-9.8-2.4-19.8-2-29.2
		c8.3,4.3,16.8,9.6,24.3,16.3c1.5-9.9,4.5-19.4,8.1-28.1c6.4,6.9,12.5,14.8,17.2,23.6c4.8-8.8,10.9-16.7,17.2-23.6
		c3.7,8.6,6.6,18.1,8.1,28.1c7.5-6.6,15.9-12,24.3-16.3c0.5,9.4,0,19.3-1.9,29.2c9.3-3.7,19.1-5.8,28.4-7c-2.7,9-6.6,18.2-11.8,26.7
		c10-0.3,19.9,1,29,3.1c-5.6,7.5-12.4,14.8-20.2,21.1c9.5,3.2,18.4,7.8,26.2,12.9c-7.9,5.1-16.7,9.7-26.2,12.9
		c7.8,6.2,14.6,13.6,20.2,21.1c-9.1,2.1-19,3.4-29,3.1c5.2,8.6,9.1,17.8,11.8,26.7c-9.3-1.1-19-3.3-28.4-7c2,9.8,2.4,19.8,1.9,29.2
		c-8.3-4.3-16.8-9.6-24.3-16.3c-1.5,9.9-4.5,19.4-8.1,28.1c-6.4-6.9-12.5-14.8-17.2-23.6c-4.8,8.8-10.9,16.7-17.2,23.6
		c-3.7-8.6-6.6-18.1-8.1-28.1c-7.5,6.6-15.9,12-24.3,16.3c-0.5-9.4,0-19.3,2-29.2c-9.3,3.7-19.1,5.8-28.4,7
		c2.7-9,6.6-18.2,11.8-26.7c-10,0.3-19.9-1-29-3.1C38.2,154.3,45,147,52.8,140.7L52.8,140.7z"/>
	<path fill-rule="evenodd" clip-rule="evenodd" fill="#FFDA00" d="M125.9,127.9L125.9,127.9L125.9,127.9L125.9,127.9L125.9,127.9z
		 M125.9,127.9L125.9,127.9L125.9,127.9L125.9,127.9L125.9,127.9L125.9,127.9L125.9,127.9L125.9,127.9L125.9,127.9L125.9,127.9
		L125.9,127.9L125.9,127.9L125.9,127.9z M125.9,127.9L125.9,127.9L125.9,127.9L125.9,127.9L125.9,127.9L125.9,127.9L125.9,127.9
		L125.9,127.9L125.9,127.9L125.9,127.9L125.9,127.9L125.9,127.9L125.9,127.9L125.9,127.9L125.9,127.9L125.9,127.9L125.9,127.9
		L125.9,127.9L125.9,127.9L125.9,127.9L125.9,127.9z M125.9,127.9L125.9,127.9L125.9,127.9L125.9,127.9z M117.1,77.8
		c1.6-8.6,4.8-16.7,8.8-24.2c4.1,7.5,7.2,15.6,8.8,24.2c4.5-7.5,10.2-14.1,16.6-19.7c1.3,8.4,1.4,17.1,0,25.7
		c6.8-5.6,14.4-9.7,22.3-12.9c-1.7,8.3-4.5,16.5-8.8,24.2c8.3-2.9,16.9-4.2,25.4-4.4c-4.4,7.2-9.9,14-16.5,19.7
		c8.8,0.1,17.3,1.8,25.3,4.5c-6.6,5.3-14.1,9.8-22.3,12.9c8.2,3.1,15.6,7.6,22.3,12.9c-8.1,2.7-16.6,4.4-25.3,4.5
		c6.7,5.7,12.1,12.5,16.5,19.7c-8.5-0.2-17.1-1.5-25.4-4.4c4.3,7.6,7.1,15.9,8.8,24.2c-7.9-3.1-15.5-7.3-22.3-12.9
		c1.4,8.7,1.2,17.3,0,25.7c-6.4-5.6-12.1-12.2-16.6-19.7c-1.6,8.6-4.8,16.7-8.8,24.2c-4.1-7.5-7.2-15.6-8.8-24.2
		c-4.5,7.5-10.2,14.1-16.6,19.7c-1.3-8.4-1.4-17.1,0-25.7c-6.8,5.6-14.4,9.7-22.3,12.9c1.7-8.3,4.5-16.5,8.8-24.2
		c-8.3,2.9-16.9,4.2-25.4,4.4c4.4-7.2,9.9-14,16.5-19.7c-8.8-0.1-17.3-1.8-25.3-4.5c6.6-5.3,14.1-9.8,22.3-12.9
		c-8.2-3.1-15.6-7.6-22.3-12.9c8.1-2.7,16.6-4.4,25.3-4.5c-6.7-5.7-12.1-12.5-16.5-19.7c8.5,0.2,17.1,1.5,25.4,4.4
		c-4.3-7.6-7.1-15.9-8.8-24.2c7.9,3.1,15.5,7.3,22.3,12.9c-1.4-8.7-1.2-17.3,0-25.7C106.9,63.7,112.6,70.3,117.1,77.8L117.1,77.8z
		 M125.9,127.9L125.9,127.9L125.9,127.9z"/>
	<path fill-rule="evenodd" clip-rule="evenodd" fill="#FFFFFF" d="M117,103.3c-1.6-8.9-1.4-17.4,0.1-25.5c4.2,7.1,7.3,15,8.8,23.9
		c1.5-8.9,4.6-16.9,8.8-23.9c1.5,8.1,1.7,16.6,0.1,25.5c4.5-7.9,10.1-14.3,16.5-19.5c-1.3,8.1-4.1,16.2-8.6,24
		c6.9-5.8,14.4-9.9,22.1-12.7c-4,7.2-9.4,13.8-16.3,19.6c8.5-3.1,16.9-4.4,25.1-4.3c-6.2,5.4-13.5,9.8-22,12.8
		c9,0,17.4,1.6,25.1,4.5c-7.7,2.9-16.1,4.6-25.1,4.5c8.5,3.1,15.8,7.5,22,12.8c-8.2,0.1-16.7-1.2-25.1-4.3
		c7,5.8,12.3,12.4,16.3,19.6c-7.8-2.7-15.2-6.8-22.1-12.7c4.6,7.8,7.3,15.9,8.6,24c-6.4-5.2-12-11.6-16.5-19.5
		c1.6,8.9,1.4,17.4-0.1,25.5c-4.2-7.1-7.3-15-8.8-23.9c-1.5,8.9-4.6,16.9-8.8,23.9c-1.5-8.1-1.7-16.6-0.1-25.5
		c-4.5,7.9-10.1,14.3-16.5,19.5c1.3-8.1,4.1-16.2,8.6-24c-6.9,5.8-14.4,9.9-22.1,12.7c4-7.2,9.4-13.8,16.3-19.6
		c-8.5,3.1-16.9,4.4-25.1,4.3c6.2-5.4,13.5-9.8,22-12.8c-9,0-17.4-1.6-25.1-4.5c7.7-2.9,16.1-4.6,25.1-4.5
		c-8.5-3.1-15.8-7.5-22-12.8c8.2-0.1,16.7,1.2,25.1,4.3C96.4,109,91,102.4,87,95.2c7.8,2.7,15.2,6.8,22.1,12.7
		c-4.6-7.8-7.3-15.9-8.6-24C106.9,89.1,112.5,95.5,117,103.3L117,103.3z"/>
</g>
</svg>
