<?xml version="1.0" encoding="utf-8"?>
<!-- Generator: Adobe Illustrator 18.0.0, SVG Export Plug-In . SVG Version: 6.00 Build 0)  -->
<!DOCTYPE svg PUBLIC "-//W3C//DTD SVG 1.1//EN" "http://www.w3.org/Graphics/SVG/1.1/DTD/svg11.dtd">
<svg version="1.1" id="Layer_1" xmlns="http://www.w3.org/2000/svg" xmlns:xlink="http://www.w3.org/1999/xlink" x="0px" y="0px"
	 viewBox="0 0 65 76.2" enable-background="new 0 0 65 76.2" xml:space="preserve">
<path id="border" fill="#3B6E8F" stroke="#FFFFFF" stroke-width="2" stroke-miterlimit="10" d="M64,32.5c0,14.3-9.6,26.4-22.7,30.2
	l-8.8,11.8l-8.8-11.8C10.6,58.9,1,46.8,1,32.5C1,15.1,15.1,1,32.5,1C49.9,1,64,15.1,64,32.5z"/>
<circle id="center" fill="#FFFFFF" cx="32.5" cy="32.5" r="29"/>
<g id="shell">
	<path fill-rule="evenodd" clip-rule="evenodd" fill="#ED1C24" d="M16.1,16c8.4-8.9,23.9-9.9,33.6,0.7c4.3,5.4,6.5,11.8,5.5,19.6
		l-7.4,5.5l-0.9,8.6l-11.7,0.1c-1.7,1.6-3.6,1.6-5,0l-11.8,0l-1-8.6L10,36.5C8.6,28,11.4,21.5,16.1,16L16.1,16z M51.2,34.5l-7.1,5.2
		l-0.7,6.7l-8.7,0.1c-1.3,1.7-2.9,1.6-4,0l-8.8,0l-0.7-6.5l-7.3-5.6c-0.5-2-0.3-4,0.5-6.2l11.6,11.8c0.4,0.2,0.5,0,0.4-0.3L14.9,26
		c0-1.7,1.1-3.4,2.7-5l10.3,17.6c0.4,0.5,0.7,0.4,0.4-0.2L19,19.1c1.2-1.9,2.9-2.9,4.7-3.5L30,37.7c0.2,0.5,0.6,0.4,0.5-0.2l-4.6-23
		c0.8-0.6,1.8-1.1,3.1-1.3c0.6-0.1,1.4-0.1,2.3,0l1.1,24.4c0,0.8,0.4,0.6,0.4,0l0.8-24.4c0.7,0,1.4-0.1,2.2,0
		c1.3,0.1,2.5,0.5,3.3,1.2l-4.3,23.1c0,0.3,0.3,0.3,0.4,0.1l6.3-22.1c2.5,1.2,4.1,2.4,4.6,3.5l-9,19.3c-0.2,0.4,0.2,0.7,0.4,0.4
		l10.1-17.8c1.4,1.4,2.5,2.9,2.9,4.8l-11,13.9c-0.5,0.6-0.2,0.8,0.2,0.2l11.2-11.4C51.5,30,51.8,32,51.2,34.5L51.2,34.5z"/>
	<path fill-rule="evenodd" clip-rule="evenodd" fill="#FFF200" d="M51.2,34.5l-7.1,5.2l-0.7,6.7l-8.7,0.1c-1.3,1.7-2.9,1.6-4,0
		l-8.8,0l-0.7-6.5l-7.3-5.6c-0.5-2-0.3-4,0.5-6.2l11.6,11.8c0.4,0.2,0.5,0,0.4-0.3L14.9,26c0-1.7,1.1-3.4,2.7-5l10.3,17.6
		c0.4,0.5,0.7,0.4,0.4-0.2L19,19.1c1.2-1.9,2.9-2.9,4.7-3.5L30,37.7c0.2,0.5,0.6,0.4,0.5-0.2l-4.6-23c0.8-0.6,1.8-1.1,3.1-1.3
		c0.6-0.1,1.4-0.1,2.3,0l1.1,24.4c0,0.8,0.4,0.6,0.4,0l0.8-24.4c0.7,0,1.4-0.1,2.2,0c1.3,0.1,2.5,0.5,3.3,1.2l-4.3,23.1
		c0,0.3,0.3,0.3,0.4,0.1l6.3-22.1c2.5,1.2,4.1,2.4,4.6,3.5l-9,19.3c-0.2,0.4,0.2,0.7,0.4,0.4l10.1-17.8c1.4,1.4,2.5,2.9,2.9,4.8
		l-11,13.9c-0.5,0.6-0.2,0.8,0.2,0.2l11.2-11.4C51.5,30,51.8,32,51.2,34.5L51.2,34.5z"/>
</g>
</svg>
