<?xml version="1.0" encoding="utf-8"?>
<!-- Generator: Adobe Illustrator 18.0.0, SVG Export Plug-In . SVG Version: 6.00 Build 0)  -->
<!DOCTYPE svg PUBLIC "-//W3C//DTD SVG 1.1//EN" "http://www.w3.org/Graphics/SVG/1.1/DTD/svg11.dtd">
<svg version="1.1" id="Layer_1" xmlns="http://www.w3.org/2000/svg" xmlns:xlink="http://www.w3.org/1999/xlink" x="0px" y="0px"
	 viewBox="0 0 65 76.2" enable-background="new 0 0 65 76.2" xml:space="preserve">
<path id="border" fill="#3B6E8F" stroke="#FFFFFF" stroke-width="2" stroke-miterlimit="10" d="M64,32.5c0,14.3-9.6,26.4-22.7,30.2
	l-8.8,11.8l-8.8-11.8C10.6,58.9,1,46.8,1,32.5C1,15.1,15.1,1,32.5,1C49.9,1,64,15.1,64,32.5z"/>
<circle id="center" fill="#FFFFFF" cx="32.5" cy="32.5" r="29"/>
<g id="exxon">
	
		<polygon fill-rule="evenodd" clip-rule="evenodd" fill="#FFFFFF" stroke="#006BB6" stroke-width="1.4605" stroke-miterlimit="2.6131" points="
		10.3,20.5 54.7,20.5 54.7,44.5 10.3,44.5 10.3,20.5 	"/>
	<polygon fill-rule="evenodd" clip-rule="evenodd" fill="#006BB6" points="11.6,37.8 53.4,37.8 53.4,43.2 11.6,43.2 11.6,37.8 	"/>
	<path fill-rule="evenodd" clip-rule="evenodd" fill="#ED1C2E" d="M38.5,30.4c-1.6,0-2.3-1.1-2.3-2.8c0-1.1,0.5-2.5,2.3-2.5
		c1.5,0,2.1,1.4,2.1,2.4C40.5,29.2,39.8,30.4,38.5,30.4L38.5,30.4z M33.6,27.8c0,2.8,2.1,4.7,4.8,4.7c2.8,0,4.7-2,4.7-4.7
		c0-2.6-2-4.6-4.8-4.6C35.7,23.1,33.6,25,33.6,27.8L33.6,27.8z"/>
	<path fill-rule="evenodd" clip-rule="evenodd" fill="#ED1C2E" d="M20.2,26.8c0,0-4.3,0-4.3,0s-0.1,0-0.1-0.1c0-0.1,0-1.1,0-1.2
		c0-0.1,0.1-0.1,0.1-0.1h2.4c0,0,1.3,0,1.9,0.1c0,0,0.1,0,0.1,0c0,0,0-2.1,0-2.1s0,0,0,0c0,0-7.1,0-7.1,0c0,0,0,0,0,0
		c0.1,0.1,0.2,0.6,0.2,1.4c0,0,0,5.8,0,5.8c0,0.8-0.1,1.5-0.2,1.5c0,0,0,0,0,0c0,0,7.1,0,7.1,0c0,0,0,0,0,0s0-2,0-2c0,0,0,0-0.1,0
		c-0.5,0.1-1.9,0.1-1.9,0.1h-2.4c0,0-0.1,0-0.1-0.1c0-0.1,0-1.1,0-1.2c0-0.1,0.1-0.1,0.1-0.1s4.3,0,4.3,0c0,0,0,0,0,0L20.2,26.8
		C20.2,26.8,20.2,26.8,20.2,26.8L20.2,26.8z"/>
	<path fill-rule="evenodd" clip-rule="evenodd" fill="#ED1C2E" d="M51.8,32.1c0,0,0-6.5,0-7.3c0-1.2,0.1-1.3,0.1-1.4c0,0,0,0,0,0
		c0,0-0.1,0-0.1,0h-2.2c0,0-0.1,0-0.1,0c0,0,0,0,0,0c0.1,0.1,0.2,0.3,0.2,1.4c0,0.6,0,3.3,0,3.5c0,0,0,0,0,0l-3-4.8c0,0,0,0,0,0
		c0,0,0,0,0,0c-0.1,0-2.7,0-2.7,0c0,0,0,0,0,0c0.1,0.1,0.1,0.1,0.1,1.7v5.4c0,1.2,0,1.4-0.1,1.5c0,0,0,0,0,0c0,0,0.1,0,0.1,0h2.1
		c0,0,0.1,0,0.1,0c0,0,0,0,0,0c-0.1-0.1-0.1-0.5-0.1-1.5c0,0,0-3.2,0-3.4c0,0,0,0,0,0l3.1,4.9c0,0,0,0,0,0c0,0,0,0,0,0L51.8,32.1
		C51.8,32.1,51.8,32.1,51.8,32.1C51.8,32.1,51.8,32.1,51.8,32.1L51.8,32.1z"/>
	<path fill-rule="evenodd" clip-rule="evenodd" fill="#ED1C2E" d="M36.5,36.1C36.5,36.1,36.5,36.1,36.5,36.1
		C36.5,36.1,36.4,36.1,36.5,36.1c-0.7-0.7-1-0.9-1.5-1.4c0,0-4.8-5-4.9-5c0,0,0,0,0-0.1c0,0,3.5-5.1,3.7-5.3c0-0.1,0.4-0.5,0.4-0.6
		c0.1-0.2,0.2-0.2,0.2-0.3c0,0,0,0,0,0c0,0,0,0-0.1,0h-2.6c0,0,0,0,0,0c0,0,0,0,0,0L28.6,28c0,0,0,0-0.1,0l-1.3-1.4c0,0,0,0,0,0
		c0,0,2.9-4.1,2.9-4.1c0.2-0.3,0.4-0.5,0.5-0.6c0,0,0,0,0.1-0.1c0,0,0,0,0,0c0,0,0,0,0,0c0,0-2.5,0-2.6,0c0,0,0,0,0,0c0,0,0,0,0,0
		c-0.1,0.1-2.2,3.2-2.2,3.2c0,0,0,0-0.1,0c0,0-1.6-1.6-1.6-1.6s0,0,0,0c0,0,0,0,0,0s-3.5,0-3.5,0c0,0,0,0,0,0c0,0,0,0,0,0
		c0,0,0,0,0,0c0,0,0,0,0,0c0.1,0.1,0.1,0.1,0.2,0.2c0.4,0.4,1.2,1.2,1.2,1.2l2.2,2.3c0,0,0,0,0,0c0,0,0,0,0,0c0,0,0,0.1-0.1,0.1
		c-0.2,0.3-2.5,3.6-2.5,3.6s-0.5,0.6-0.6,0.8c-0.3,0.3-0.4,0.4-0.4,0.4c0,0,0,0,0,0c0,0,0,0,0,0c0,0,0,0,0,0c0,0,2.5,0,2.6,0
		c0,0,0,0,0,0c0,0,0,0,0,0c0.1-0.1,2.3-3.4,2.4-3.4c0-0.1,0-0.1,0.1,0l1.3,1.3c0,0,0,0,0,0.1c0,0-2.1,3-2.7,3.9
		c-0.1,0.1-0.5,0.6-0.7,0.9c0,0,0,0,0,0c0,0,0,0,0,0c0,0,2.6,0,2.7,0c0,0,0,0,0,0c0,0,0,0,0,0c0.1-0.1,2.2-3.2,2.2-3.2
		c0.1-0.1,0.1-0.1,0.1,0c0,0,4.3,4.4,4.3,4.4c0,0,0,0,0,0c0,0,0,0,0,0L36.5,36.1C36.5,36.1,36.5,36.1,36.5,36.1L36.5,36.1z"/>
</g>
</svg>
