<?xml version="1.0" encoding="utf-8"?>
<!-- Generator: Adobe Illustrator 18.0.0, SVG Export Plug-In . SVG Version: 6.00 Build 0)  -->
<!DOCTYPE svg PUBLIC "-//W3C//DTD SVG 1.1//EN" "http://www.w3.org/Graphics/SVG/1.1/DTD/svg11.dtd">
<svg version="1.1" id="Layer_1" xmlns="http://www.w3.org/2000/svg" xmlns:xlink="http://www.w3.org/1999/xlink" x="0px" y="0px"
	 viewBox="0 0 65 76.2" enable-background="new 0 0 65 76.2" xml:space="preserve">
<path id="border" fill="#3B6E8F" stroke="#FFFFFF" stroke-width="2" stroke-miterlimit="10" d="M64,32.5c0,14.3-9.6,26.4-22.7,30.2
	l-8.8,11.8l-8.8-11.8C10.6,58.9,1,46.8,1,32.5C1,15.1,15.1,1,32.5,1C49.9,1,64,15.1,64,32.5z"/>
<circle id="center" fill="#FFFFFF" cx="32.5" cy="32.5" r="29"/>
<g id="costco">
	<path fill-rule="evenodd" clip-rule="evenodd" fill="#204390" d="M34.8,38.5c0.2,0,0.3,0,0.5-0.1c0.2-0.1,0.3-0.2,0.4-0.4
		c0.1-0.2,0.1-0.3,0-0.5c-0.1-0.2-0.2-0.3-0.4-0.3c-0.4-0.1-0.8,0.1-1,0.4C34.2,38,34.4,38.5,34.8,38.5L34.8,38.5L34.8,38.5z
		 M34.8,39.6c0.9,0,2-0.5,2.3-1.4c0,0,0,0,0,0c0,0,0,0,0,0c-0.1,0.5-0.2,0.9-0.3,1.4c0.9,0,1.8,0,2.6,0c0.1-0.4,0.1-0.7,0.2-1.1
		c-0.4,0-0.8,0-1.2,0c0.1-0.8,0.3-1.5,0.4-2.2c-0.5,0-1,0-1.4,0c-0.1,0.5-0.2,0.9-0.3,1.4c0,0,0,0.1,0,0c0,0,0,0,0,0
		c0-1.1-1.1-1.5-2-1.5c-0.9,0.1-1.9,0.5-2.3,1.4c0,0,0,0,0,0c0.1-0.5,0.2-0.9,0.3-1.4c-0.5,0-0.9,0-1.4,0c-0.1,0.4-0.1,0.7-0.2,1.1
		c-0.3,0-0.6,0-0.9,0c0.1-0.4,0.1-0.7,0.2-1.1c-0.9,0-1.8,0-2.8,0c-0.3,0.6-0.6,1.3-0.9,1.9c0,0-0.1,0-0.1,0
		c-0.1-0.6-0.1-1.3-0.2-1.9c-0.4,0-0.7,0-1.1,0c-0.3,0.7-0.7,1.3-0.9,2c0,0,0,0,0,0c0-0.7-0.1-1.3-0.1-2c-0.5,0-1,0-1.5,0
		c0.3,1.1,0.5,2.2,0.8,3.3c0.4,0,0.8,0,1.2,0c0.3-0.6,0.6-1.1,0.8-1.8c0,0,0-0.1,0-0.1c0,0,0,0,0,0c0,0.6,0.1,1.2,0.1,1.8
		c0.4,0,0.8,0,1.3,0c0.6-1,1.2-2,1.8-3c0,0,0,0,0,0c-0.2,1-0.4,2-0.6,3c0.5,0,0.9,0,1.4,0c0.1-0.4,0.1-0.8,0.2-1.2
		c0.3,0,0.6,0,0.9,0c-0.1,0.4-0.1,0.8-0.2,1.1c0.5,0,0.9,0,1.4,0c0.1-0.4,0.2-0.8,0.2-1.2c0,0,0-0.1,0-0.1c0,0,0-0.1,0-0.1
		c0,0,0,0,0,0C32.8,39.2,34,39.6,34.8,39.6L34.8,39.6L34.8,39.6z"/>
	<path fill-rule="evenodd" clip-rule="evenodd" fill="#204390" d="M47.7,38.4c0.2,0,0.3,0,0.5,0c0-0.3-0.1-0.6-0.1-1
		c0,0-0.1-0.1-0.1,0C47.9,37.7,47.8,38,47.7,38.4C47.6,38.3,47.6,38.4,47.7,38.4L47.7,38.4L47.7,38.4z M45.7,39.1
		C45.7,39,45.7,39,45.7,39.1C45.7,39,45.7,39.1,45.7,39.1c-0.1,0.2-0.2,0.3-0.2,0.5c0.5,0,1,0,1.5,0c0.1-0.1,0.1-0.3,0.2-0.4
		c0.4,0,0.7,0,1.1,0c0,0.1,0,0.3,0.1,0.4c1.4,0,2.7,0,4,0c0.1-0.4,0.1-0.7,0.2-1.1c-0.4,0-0.8,0-1.2,0c0.1-0.8,0.3-1.5,0.4-2.2
		c-0.5,0-0.9,0-1.4,0c-0.2,1-0.4,2-0.6,2.9c0,0,0,0.1,0,0c0,0,0,0,0,0c-0.2-1-0.5-2-0.7-2.9c-0.5,0-1.1,0-1.6,0
		C47,37,46.5,37.7,46,38.5c0,0-0.1,0,0,0c0.1-0.4-0.1-0.8-0.4-0.9c-0.2-0.1-0.3-0.1-0.5-0.1c-0.2,0-0.4,0-0.5-0.2
		c0.1-0.3,0.4-0.2,0.6-0.2c0.2,0,0.4,0.1,0.6,0.2c0.2-0.3,0.4-0.5,0.5-0.8c-0.8-0.4-1.8-0.4-2.6,0.1c-0.4,0.3-0.7,0.8-0.5,1.3
		c0.1,0.2,0.4,0.3,0.6,0.4c0.2,0.1,0.4,0.1,0.6,0.1c0,0,0.1,0,0.1,0c0,0,0.1,0,0.1,0.1c0,0.3-0.4,0.3-0.6,0.3
		c-0.2,0-0.5-0.2-0.7-0.3c-0.2,0.3-0.3,0.5-0.5,0.8c0,0-0.1,0,0,0c0-0.2,0.1-0.3,0.1-0.5c-0.4,0-0.8,0-1.3,0c0-0.1,0-0.2,0.1-0.3
		c0.4,0,0.7,0,1.1,0c0-0.3,0.1-0.6,0.2-0.8c-0.4,0-0.7,0-1.1,0c0-0.1,0-0.2,0.1-0.3c0.4,0,0.8,0,1.2,0c0-0.3,0.1-0.6,0.2-0.9
		c-0.9,0-1.8,0-2.7,0c-0.2,1.1-0.4,2.2-0.6,3.3c0.9,0,1.8,0,2.7,0c0-0.1,0-0.1,0-0.2c0,0,0-0.1,0-0.1c0,0,0,0,0.1,0
		C43.6,39.7,44.8,39.7,45.7,39.1L45.7,39.1L45.7,39.1z"/>
	<path fill-rule="evenodd" clip-rule="evenodd" fill="#204390" d="M8.6,39.5c5.1,0,10.1,0,15.2,0c0,0,0.1,0,0-0.1
		c-0.1-0.3-0.1-0.5-0.2-0.8c-5,0-10.1,0-15.1,0C8.5,39,8.5,39.2,8.6,39.5C8.5,39.5,8.5,39.5,8.6,39.5L8.6,39.5L8.6,39.5z"/>
	<path fill-rule="evenodd" clip-rule="evenodd" fill="#204390" d="M52.7,39.5c0.9,0,1.8,0,2.6,0c0-0.3,0.1-0.6,0.2-0.9
		c-0.4,0-0.8,0-1.2,0c0,0-0.1,0-0.1-0.1c0-0.1,0-0.2,0.1-0.3c0.4,0,0.7,0,1.1,0c0.1-0.3,0.1-0.6,0.2-0.8c-0.4,0-0.7,0-1.1,0
		c0-0.1,0-0.2,0.1-0.3c0.4,0,0.8,0,1.2,0c0.1-0.3,0.1-0.6,0.2-0.9c-0.9,0-1.8,0-2.7,0C53,37.3,52.8,38.4,52.7,39.5
		C52.6,39.5,52.6,39.5,52.7,39.5L52.7,39.5L52.7,39.5z"/>
	<path fill-rule="evenodd" clip-rule="evenodd" fill="#204390" d="M8.6,38.3c5,0,9.9,0,14.9,0c0,0,0.1,0,0.1-0.1
		c-0.1-0.3-0.1-0.5-0.2-0.8c-4.9,0-9.9,0-14.8,0C8.5,37.8,8.5,38,8.6,38.3C8.5,38.3,8.5,38.3,8.6,38.3L8.6,38.3L8.6,38.3z"/>
	<path fill-rule="evenodd" clip-rule="evenodd" fill="#204390" d="M8.6,37.1c4.9,0,9.7,0,14.6,0c0,0,0.1,0,0.1,0c0,0,0,0,0,0
		c-0.1-0.3-0.1-0.5-0.2-0.8c-4.8,0-9.7,0-14.5,0C8.5,36.5,8.5,36.8,8.6,37.1C8.5,37.1,8.5,37.1,8.6,37.1L8.6,37.1L8.6,37.1z"/>
	<path fill-rule="evenodd" clip-rule="evenodd" fill="#BE2028" d="M21.5,33c0.4,0,0.8-0.1,1.2-0.2c0.4-0.2,0.7-0.5,0.9-1
		c0.1-0.4,0.1-0.8-0.1-1.1c-0.2-0.3-0.7-0.5-1.1-0.5c-0.4,0-0.8,0-1.2,0.2c-0.4,0.2-0.8,0.6-0.9,1c-0.1,0.4-0.1,0.8,0.1,1.2
		C20.6,32.9,21.1,33,21.5,33L21.5,33L21.5,33z M22,35.3c1.2-0.1,2.3-0.5,3.2-1.2c1-0.7,1.6-1.8,1.7-3.1c0,0,0,0,0,0s0,0,0,0
		c0.1,0.7,0.7,1.1,1.3,1.3c0.6,0.2,1.2,0.2,1.7,0.3c0,0,0,0,0,0c0,0,0,0,0.1,0.1c0,0,0,0.1,0.1,0.1c0,0,0,0,0,0c0,0,0,0,0,0
		c0,0.3-0.4,0.4-0.6,0.5c-0.3,0-0.6,0-0.8,0c-0.6-0.1-1.1-0.4-1.5-0.7c-0.3,0.3-0.5,0.7-0.7,1.1c-0.2,0.3-0.5,0.7-0.7,1
		c2,0.8,4.4,1,6.3-0.1c0.5-0.3,0.9-0.7,1.2-1.3c0.2-0.5,0.3-1.1,0.1-1.6c-0.3-0.6-0.9-0.8-1.5-1c-0.5-0.1-1.1-0.2-1.6-0.3
		c-0.1,0-0.1-0.1-0.1-0.1c0,0,0,0,0,0c0-0.3,0.3-0.4,0.5-0.5c0.2,0,0.5,0,0.7,0c0.5,0.1,0.9,0.3,1.4,0.5c0.4-0.6,0.8-1.3,1.2-1.9
		c-1.2-0.7-2.7-0.8-4-0.5c-1.5,0.3-3,1.3-3.2,2.9c0,0,0,0,0,0c0-1.3-1-2.3-2.1-2.7c-1-0.4-2.2-0.4-3.2-0.3c-1.1,0.2-2.2,0.6-3.1,1.3
		c-0.9,0.7-1.5,1.8-1.5,3c0,0.6,0.1,1.1,0.5,1.6c0.4,0.5,0.9,0.9,1.5,1.1C19.8,35.4,20.9,35.4,22,35.3L22,35.3L22,35.3z"/>
	<path fill-rule="evenodd" clip-rule="evenodd" fill="#BE2028" d="M44.1,35.4c0.7,0,1.4-0.1,2.1-0.3c0.1-0.5,0.2-0.9,0.3-1.4
		c0.1-0.5,0.2-0.9,0.3-1.4c-0.6,0.4-1.3,0.7-2,0.7c-0.4,0-0.8-0.1-1.1-0.4c-0.3-0.2-0.5-0.6-0.4-1c0.2-0.8,0.9-1.3,1.7-1.5
		c0.8-0.1,1.6,0.2,2.1,0.7c0.2-0.9,0.3-1.8,0.4-2.7c0,0,0,0,0-0.1c0,0,0,0,0,0c-1.4-0.4-2.9-0.4-4.3,0.1c-1.5,0.6-2.8,1.7-3.2,3.2
		c-0.2,0.7-0.1,1.5,0.2,2.1c0.4,0.7,1,1.2,1.7,1.5C42.7,35.3,43.4,35.4,44.1,35.4L44.1,35.4L44.1,35.4z"/>
	<path fill-rule="evenodd" clip-rule="evenodd" fill="#BE2028" d="M51.7,33c0.4,0,0.8-0.1,1.2-0.2c0.4-0.2,0.7-0.5,0.8-0.9
		c0.1-0.4,0.2-0.8-0.1-1.2c-0.2-0.4-0.7-0.5-1.1-0.5c-0.4,0-0.8,0-1.1,0.2c-0.4,0.2-0.7,0.5-0.9,0.9c-0.2,0.4-0.2,0.8,0,1.2
		C50.8,32.9,51.2,33,51.7,33L51.7,33L51.7,33z M51.2,35.4c2.3,0.1,4.9-0.9,5.8-3.3c0.1-0.3,0.1-0.5,0.2-0.8c0-0.3,0-0.6,0-0.8
		c-0.1-0.6-0.4-1.2-0.9-1.6c-0.9-0.8-2-1.1-3.1-1.1c-1.1,0-2.3,0.2-3.3,0.7c-1.1,0.5-2.1,1.4-2.5,2.6c0,0.1-0.1,0.3-0.1,0.4
		c0,0.1-0.1,0.3-0.1,0.4c0,0.3,0,0.6,0,0.8c0.1,0.6,0.4,1.1,0.8,1.6C48.8,35.1,50,35.3,51.2,35.4L51.2,35.4L51.2,35.4z"/>
	<path fill-rule="evenodd" clip-rule="evenodd" fill="#BE2028" d="M37.2,35.3c0.3-1,0.6-2.1,1-3.1c0.2-0.5,0.3-1,0.5-1.6
		c0-0.1,0-0.1,0.1-0.2c0,0,0-0.1,0-0.1c0,0,0.1,0,0.1,0c0.1,0,0.3,0,0.4,0c0.3,0,0.5,0,0.8,0c0.1,0,0.3,0,0.4,0c0,0,0.1,0,0.1,0
		c0,0,0-0.1,0-0.1c0-0.1,0-0.1,0.1-0.2c0.1-0.3,0.2-0.5,0.2-0.8c0.1-0.3,0.2-0.5,0.2-0.8c0-0.1,0.1-0.2,0.1-0.4c0-0.1,0.1-0.2,0-0.1
		c-0.1,0-0.1,0-0.2,0c-1.1,0-2.1,0-3.1,0c-1.1,0-2.1,0-3.2,0c-0.1,0-0.1,0-0.2,0c0,0-0.1,0-0.1,0c0,0,0,0.1,0,0.1
		c0,0.1-0.1,0.3-0.1,0.4c-0.1,0.3-0.2,0.5-0.2,0.8c-0.1,0.3-0.2,0.5-0.2,0.8c0,0.1,0,0.1-0.1,0.2c0,0,0,0.1,0,0.1c0,0,0.1,0,0.1,0
		c0.1,0,0.3,0,0.4,0c0.3,0,0.5,0,0.8,0c0.1,0,0.3,0,0.4,0c0,0,0.1,0,0.1,0c0,0,0,0.1,0,0.1c0,0.1,0,0.1-0.1,0.2
		c-0.2,0.5-0.3,1-0.5,1.6c-0.3,1.1-0.7,2.1-1,3.2C35,35.3,36.1,35.3,37.2,35.3L37.2,35.3L37.2,35.3z"/>
	<path fill-rule="evenodd" clip-rule="evenodd" fill="#BE2028" d="M13.5,35.2c0.9,0,1.7-0.1,2.6-0.3c0.1-0.6,0.3-1.1,0.4-1.7
		c0.1-0.6,0.3-1.1,0.4-1.7c-0.4,0.3-0.8,0.5-1.3,0.6c-0.4,0.1-0.9,0.2-1.4,0.2c-0.5,0-0.9-0.2-1.3-0.5c-0.4-0.3-0.6-0.8-0.5-1.2
		c0.1-0.5,0.4-0.9,0.9-1.2c0.4-0.3,0.8-0.4,1.3-0.5c1-0.1,1.9,0.2,2.6,0.9c0.2-1.1,0.4-2.2,0.5-3.3c0,0,0-0.1,0-0.1
		c-1.7-0.5-3.6-0.5-5.2,0.1c-0.9,0.3-1.8,0.8-2.5,1.5c-0.7,0.7-1.3,1.5-1.6,2.5c-0.2,0.9-0.2,1.8,0.3,2.6c0.5,0.9,1.3,1.5,2.3,1.8
		C11.7,35.2,12.6,35.3,13.5,35.2L13.5,35.2L13.5,35.2z"/>
</g>
</svg>
