<?xml version="1.0" encoding="utf-8"?>
<!-- Generator: Adobe Illustrator 18.0.0, SVG Export Plug-In . SVG Version: 6.00 Build 0)  -->
<!DOCTYPE svg PUBLIC "-//W3C//DTD SVG 1.1//EN" "http://www.w3.org/Graphics/SVG/1.1/DTD/svg11.dtd">
<svg version="1.1" id="Layer_1" xmlns="http://www.w3.org/2000/svg" xmlns:xlink="http://www.w3.org/1999/xlink" x="0px" y="0px"
	 viewBox="0 0 65 76.2" enable-background="new 0 0 65 76.2" xml:space="preserve">
<path id="border" fill="#3B6E8F" stroke="#FFFFFF" stroke-width="2" stroke-miterlimit="10" d="M64,32.5c0,14.3-9.6,26.4-22.7,30.2
	l-8.8,11.8l-8.8-11.8C10.6,58.9,1,46.8,1,32.5C1,15.1,15.1,1,32.5,1C49.9,1,64,15.1,64,32.5z"/>
<circle id="center" fill="#FFFFFF" cx="32.5" cy="32.5" r="29"/>
<g id="valero">
	<path fill="#00728F" d="M55.3,27.4C46,29.2,41.4,31.9,34,37.5c-1.8,1.3-4.5,2.4-6.2,1.9c-0.6-0.2-1.1-0.7-1.3-1.4
		c-0.4-1.5,0.6-3.1,1.6-4.7c1.2-1.9,2.5-3.9,1.4-5.8c-0.6-1-1.5-1.6-2.8-1.8c-5.4-0.8-15,5.6-18,8.2c-0.3,0.3-0.4,0.7-0.1,0.8
		c0.8,0.1,1.4,0.1,1.7-0.1c3.5-3.2,11.7-8.1,16.1-7.5c0.9,0.1,1.5,0.5,1.8,1.1c0.7,1.2-0.3,2.7-1.4,4.4c-1.1,1.8-2.4,3.7-1.8,5.8
		c0.3,1.2,1.1,2,2.2,2.3c2.3,0.7,5.5-0.6,7.5-2.1c7.4-5.6,11.5-8.3,20.6-9.7c0.3,0,0.9-0.6,1.1-1.3C56.7,27.1,55.7,27.3,55.3,27.4"
		/>
	<path fill="none" stroke="#00728F" stroke-width="1.0706" d="M55.3,27.4C46,29.2,41.4,31.9,34,37.5c-1.8,1.3-4.5,2.4-6.2,1.9
		c-0.6-0.2-1.1-0.7-1.3-1.4c-0.4-1.5,0.6-3.1,1.6-4.7c1.2-1.9,2.5-3.9,1.4-5.8c-0.6-1-1.5-1.6-2.8-1.8c-5.4-0.8-15,5.6-18,8.2
		c-0.3,0.3-0.4,0.7-0.1,0.8c0.8,0.1,1.4,0.1,1.7-0.1c3.5-3.2,11.7-8.1,16.1-7.5c0.9,0.1,1.5,0.5,1.8,1.1c0.7,1.2-0.3,2.7-1.4,4.4
		c-1.1,1.8-2.4,3.7-1.8,5.8c0.3,1.2,1.1,2,2.2,2.3c2.3,0.7,5.5-0.6,7.5-2.1c7.4-5.6,11.5-8.3,20.6-9.7c0.3,0,0.9-0.6,1.1-1.3
		C56.7,27.1,55.7,27.3,55.3,27.4z"/>
	<polyline fill="#00728F" points="14.7,21.7 24.9,21.7 30,37.3 35.1,21.7 45.3,21.7 33.9,47.6 26.1,47.6 14.7,21.7 	"/>
	<path fill="#FDB827" d="M26.4,26.1L26.4,26.1c1,0.1,1.6,0.5,1.9,1.2c0.7,1.2-0.3,2.7-1.4,4.4c-1.1,1.8-2.4,3.8-1.8,5.8
		c0.3,1.2,1.1,2,2.2,2.3c2.3,0.7,5.5-0.6,7.5-2.1c7.4-5.6,11.5-8.3,20.6-9.7c0.3,0,0.9-0.6,1.1-1.3c0.2-0.5-0.8-0.3-1.2-0.2
		C46,28.2,41.4,31,34,36.6c-1.8,1.3-4.5,2.4-6.2,1.9c-0.6-0.2-1.1-0.7-1.3-1.4c-0.4-1.5,0.6-3.1,1.6-4.7c1.2-1.9,2.5-3.9,1.4-5.8
		c-0.6-1-1.5-1.6-2.8-1.8c-0.3,0-0.5-0.1-0.8-0.1"/>
	<path fill="none" stroke="#FDB827" stroke-width="1.0706" d="M26.4,26.1L26.4,26.1c1,0.1,1.6,0.5,1.9,1.2c0.7,1.2-0.3,2.7-1.4,4.4
		c-1.1,1.8-2.4,3.8-1.8,5.8c0.3,1.2,1.1,2,2.2,2.3c2.3,0.7,5.5-0.6,7.5-2.1c7.4-5.6,11.5-8.3,20.6-9.7c0.3,0,0.9-0.6,1.1-1.3
		c0.2-0.5-0.8-0.3-1.2-0.2C46,28.2,41.4,31,34,36.6c-1.8,1.3-4.5,2.4-6.2,1.9c-0.6-0.2-1.1-0.7-1.3-1.4c-0.4-1.5,0.6-3.1,1.6-4.7
		c1.2-1.9,2.5-3.9,1.4-5.8c-0.6-1-1.5-1.6-2.8-1.8c-0.3,0-0.5-0.1-0.8-0.1"/>
	<path fill="#FDB827" d="M17.1,27.3c-3.6,1.9-6.9,4.2-8.4,5.6c-0.3,0.3-0.4,0.7-0.1,0.8c0.8,0.1,1.4,0.1,1.7-0.1
		c1.7-1.5,4.4-3.5,7.3-5"/>
	<path fill="none" stroke="#FDB827" stroke-width="1.0706" d="M17.1,27.3c-3.6,1.9-6.9,4.2-8.4,5.6c-0.3,0.3-0.4,0.7-0.1,0.8
		c0.8,0.1,1.4,0.1,1.7-0.1c1.7-1.5,4.4-3.5,7.3-5"/>
</g>
</svg>
