<?xml version="1.0" encoding="utf-8"?>
<!-- Generator: Adobe Illustrator 18.0.0, SVG Export Plug-In . SVG Version: 6.00 Build 0)  -->
<!DOCTYPE svg PUBLIC "-//W3C//DTD SVG 1.1//EN" "http://www.w3.org/Graphics/SVG/1.1/DTD/svg11.dtd">
<svg version="1.1" id="Layer_1" xmlns="http://www.w3.org/2000/svg" xmlns:xlink="http://www.w3.org/1999/xlink" x="0px" y="0px"
	 viewBox="0 0 65 76.2" enable-background="new 0 0 65 76.2" xml:space="preserve">
<path id="border" fill="#3B6E8F" stroke="#FFFFFF" stroke-width="2" stroke-miterlimit="10" d="M64,32.5c0,14.3-9.6,26.4-22.7,30.2
	l-8.8,11.8l-8.8-11.8C10.6,58.9,1,46.8,1,32.5C1,15.1,15.1,1,32.5,1C49.9,1,64,15.1,64,32.5z"/>
<circle id="center" fill="#FFFFFF" cx="32.5" cy="32.5" r="29"/>
<g id="circle_k">
	<polygon fill-rule="evenodd" clip-rule="evenodd" fill="#E92A35" points="14.9,49.6 49.9,49.6 49.9,14.7 14.9,14.7 14.9,49.6 	"/>
	<path fill-rule="evenodd" clip-rule="evenodd" fill="#FFFFFF" stroke="#00558F" stroke-miterlimit="2.6131" d="M40.7,26.5
		c1.2-1.7,0.9-3.8-0.7-5c-1.6-1.2-3.7-0.9-4.9,0.7l-4.2,5.6v-3.6c0-2-1.6-3.5-3.5-3.5c-2,0-3.6,1.5-3.6,3.5v15.9
		c0,2,1.6,3.5,3.6,3.5c2,0,3.5-1.5,3.5-3.5v-4.7l8.5,9.5c-2,1.1-4.4,1.8-6.9,1.8c-8,0-14.5-6.5-14.5-14.5c0-8,6.5-14.5,14.5-14.5
		c8,0,14.5,6.5,14.5,14.5c0,3-0.9,5.7-2.3,8l-7.6-8.5L40.7,26.5L40.7,26.5z"/>
</g>
</svg>
