<?xml version="1.0" encoding="utf-8"?>
<!-- Generator: Adobe Illustrator 18.0.0, SVG Export Plug-In . SVG Version: 6.00 Build 0)  -->
<!DOCTYPE svg PUBLIC "-//W3C//DTD SVG 1.1//EN" "http://www.w3.org/Graphics/SVG/1.1/DTD/svg11.dtd">
<svg version="1.1" id="Layer_1" xmlns="http://www.w3.org/2000/svg" xmlns:xlink="http://www.w3.org/1999/xlink" x="0px" y="0px"
	 viewBox="0 0 65 76.2" enable-background="new 0 0 65 76.2" xml:space="preserve">
<path id="border" fill="#3B6E8F" stroke="#FFFFFF" stroke-width="2" stroke-miterlimit="10" d="M64,32.5c0,14.3-9.6,26.4-22.7,30.2
	l-8.8,11.8l-8.8-11.8C10.6,58.9,1,46.8,1,32.5C1,15.1,15.1,1,32.5,1C49.9,1,64,15.1,64,32.5z"/>
<circle id="center" fill="#FFFFFF" cx="32.5" cy="32.5" r="29"/>
<g id="arco">
	<path fill-rule="evenodd" clip-rule="evenodd" fill="#FFFFFF" stroke="#22418C" d="M55.9,38.5c0,0.7-0.5,1.2-1.1,1.2H10.2
		c-0.6,0-1.1-0.6-1.1-1.2V26.9c0-0.7,0.5-1.2,1.1-1.2h44.5c0.6,0,1.1,0.6,1.1,1.2V38.5z"/>
	<path fill-rule="evenodd" clip-rule="evenodd" fill="#22418C" d="M55.1,37.9c0,0.6-0.5,1.1-1.1,1.1H11c-0.6,0-1.1-0.5-1.1-1.1V27.6
		c0-0.6,0.5-1.1,1.1-1.1h43c0.6,0,1.1,0.5,1.1,1.1V37.9z"/>
	<g>
		<path fill="#FFFFFF" d="M29.2,33.9c-0.3,0.6-0.8,0.9-1.3,0.9c-0.9,0-1.6-0.8-1.6-2c0-1.2,0.7-2,1.6-2c0.7,0,1.2,0.5,1.5,1.2l1.3,0
			c-0.3-1.3-1.4-2.3-2.8-2.3c-1.7,0-2.9,1.4-2.9,3.2c0,1.8,1.2,3.2,2.9,3.2c1.3,0,2.3-0.9,2.7-2.1L29.2,33.9L29.2,33.9z"/>
		<path fill="#FFFFFF" d="M34.1,29.6c-1.7,0-2.9,1.4-2.9,3.2c0,1.8,1.2,3.2,2.9,3.2s2.9-1.4,2.9-3.2C37,31,35.8,29.6,34.1,29.6
			L34.1,29.6z M34.1,34.8c-0.9,0-1.6-0.9-1.6-2c0-1.2,0.7-2,1.6-2s1.6,0.8,1.6,2C35.7,34,35,34.8,34.1,34.8L34.1,34.8z"/>
		<path fill="#FFFFFF" d="M17,29.9h-1.6l-2.1,6h1.4l0.4-1.2h2.3l0.4,1.2H19L17,29.9L17,29.9z M15.4,33.7l0.8-2.4l0.8,2.4H15.4
			L15.4,33.7z"/>
		<path fill="#FFFFFF" d="M24.2,34.3c-0.1-0.9-0.6-1-0.9-1.2c0.2-0.1,1-0.5,1-1.6c0-1.3-1-1.7-1.7-1.7h-3.1v6h1.3v-2.2h1.4
			c0.5,0,0.7,0.6,0.7,0.8l0.1,1.2c0,0.1,0.1,0.2,0.2,0.2h1L24.2,34.3L24.2,34.3z M22.3,32.6h-1.4V31h1.3c0.2,0,1,0,1,0.8
			C23.2,32.3,22.7,32.6,22.3,32.6L22.3,32.6z"/>
	</g>
	<g>
		<path fill-rule="evenodd" clip-rule="evenodd" fill="#ED1E24" d="M43.5,32.4l3.8-3.8v2.3c0,1-0.4,1.6-1.5,1.6H43.5L43.5,32.4z"/>
		<path fill-rule="evenodd" clip-rule="evenodd" fill="#ED1E24" d="M51.6,32.4l-3.8-3.8v2.3c0,1,0.4,1.6,1.5,1.6H51.6L51.6,32.4z"/>
		<path fill-rule="evenodd" clip-rule="evenodd" fill="#ED1E24" d="M43.5,32.9l3.8,3.8v-2.3c0-1-0.4-1.6-1.5-1.6H43.5L43.5,32.9z"/>
		<path fill-rule="evenodd" clip-rule="evenodd" fill="#ED1E24" d="M51.6,32.9l-3.8,3.8v-2.3c0-1,0.4-1.6,1.5-1.6H51.6L51.6,32.9z"
			/>
		<g>
			
				<ellipse fill-rule="evenodd" clip-rule="evenodd" fill="none" stroke="#ED1E24" stroke-width="0.3" cx="49" cy="36.3" rx="0.3" ry="0.3"/>
			<text transform="matrix(1 0 0 1 48.8549 36.5132)" fill="#ED1E24" font-family="'ArialMT'" font-size="0.4696">R</text>
		</g>
	</g>
</g>
</svg>
