<?xml version="1.0" encoding="utf-8"?>
<!-- Generator: Adobe Illustrator 18.0.0, SVG Export Plug-In . SVG Version: 6.00 Build 0)  -->
<!DOCTYPE svg PUBLIC "-//W3C//DTD SVG 1.1//EN" "http://www.w3.org/Graphics/SVG/1.1/DTD/svg11.dtd">
<svg version="1.1" id="Layer_1" xmlns="http://www.w3.org/2000/svg" xmlns:xlink="http://www.w3.org/1999/xlink" x="0px" y="0px"
	 viewBox="0 0 300 300" enable-background="new 0 0 300 300" xml:space="preserve">
<g>
	<polygon fill-rule="evenodd" clip-rule="evenodd" fill="#007BB3" points="298.2,242.7 298.2,57.3 2,57.3 2,242.7 298.2,242.7 	"/>
	<polygon fill-rule="evenodd" clip-rule="evenodd" fill="#FFFFFF" points="5.5,239.2 5.5,60.8 294.8,60.8 294.8,239.2 5.5,239.2 	
		"/>
	<polygon fill-rule="evenodd" clip-rule="evenodd" fill="#007BB3" points="285.6,108.1 285.6,69.4 14.1,69.4 14.1,108.1 
		285.6,108.1 	"/>
	<polygon fill-rule="evenodd" clip-rule="evenodd" fill="#F1C14B" points="285.6,230.4 285.6,191.7 14.1,191.7 14.1,230.4 
		285.6,230.4 	"/>
	<polygon fill-rule="evenodd" clip-rule="evenodd" fill="#007BB3" points="107,180.6 125.6,119.4 142.1,119.4 123.6,180.6 
		107,180.6 	"/>
	<path fill-rule="evenodd" clip-rule="evenodd" fill="#007BB3" d="M99.6,119.4l-14.9,25.9c-3.8,6.8-6,10.2-7.1,14.5h-0.2
		c0.3-5.4-0.5-12.1-0.6-15.9l-1.6-24.6H47.3L47,121c7.2,0,11.4,3.6,12.6,11l5.4,48.6h17.2l34.7-61.2H99.6L99.6,119.4z"/>
	<path fill-rule="evenodd" clip-rule="evenodd" fill="#007BB3" d="M228.4,180.6l-0.5-9.1l-20.7,0l-4.2,9.1h-18l32.6-61.1h22.1
		l5.5,61.1H228.4L228.4,180.6z M226.5,144.5c-0.2-4.5-0.3-10.7,0-14.4h-0.2c-1,3-5.3,12.2-7.2,16.7l-6.2,13.4h14.5L226.5,144.5
		L226.5,144.5z"/>
	<path fill-rule="evenodd" clip-rule="evenodd" fill="#007BB3" d="M159.5,182.3c-11.7,0-19.5-3.7-25-7l7.9-12.1c5,2.8,8.9,6,17.9,6
		c2.9,0,5.7-0.8,7.2-3.5c2.3-4-0.5-6.1-7-9.8l-3.2-2.1c-9.6-6.5-13.7-12.8-9.2-23.6c2.9-6.9,10.5-12.2,23.1-12.2
		c8.7,0,16.8,3.8,21.5,7.4l-9.1,10.6c-4.6-3.7-8.5-5.6-12.8-5.6c-3.5,0-6.2,1.3-7.1,3.2c-1.7,3.4,0.6,5.7,5.6,8.9l3.8,2.4
		c11.6,7.3,14.4,15,11.5,22.2C179.6,179.5,169.8,182.3,159.5,182.3L159.5,182.3z"/>
</g>
</svg>
