<?xml version="1.0" encoding="utf-8"?>
<!-- Generator: Adobe Illustrator 18.1.0, SVG Export Plug-In . SVG Version: 6.00 Build 0)  -->
<!DOCTYPE svg PUBLIC "-//W3C//DTD SVG 1.1//EN" "http://www.w3.org/Graphics/SVG/1.1/DTD/svg11.dtd">
<svg version="1.1" id="Layer_1" xmlns="http://www.w3.org/2000/svg" xmlns:xlink="http://www.w3.org/1999/xlink" x="0px" y="0px"
	 viewBox="0 0 127.5 143.1" enable-background="new 0 0 127.5 143.1" xml:space="preserve">
<path fill-rule="evenodd" clip-rule="evenodd" fill="#FDBB30" d="M63.8,48.2c3.3,0,6.1-1.7,6.5-4l3.3-37.5C73.6,3,69.2,0,63.8,0
	C58.3,0,54,3,54,6.7l3.3,37.5C57.7,46.4,60.4,48.2,63.8,48.2L63.8,48.2L63.8,48.2z"/>
<path fill-rule="evenodd" clip-rule="evenodd" fill="#FDBB30" d="M43.5,59.9c1.7-2.9,1.5-6.2-0.2-7.6L12.5,30.7
	c-3.2-1.8-8,0.4-10.7,5.1c-2.7,4.7-2.3,10,0.9,11.8l34.1,15.9C38.9,64.3,41.8,62.8,43.5,59.9L43.5,59.9L43.5,59.9z"/>
<path fill-rule="evenodd" clip-rule="evenodd" fill="#FDBB30" d="M84,59.9c1.7,2.9,4.6,4.4,6.7,3.6l34.1-15.9
	c3.2-1.9,3.7-7.1,0.9-11.8c-2.7-4.7-7.5-7-10.7-5.1L84.2,52.3C82.5,53.7,82.4,57,84,59.9L84,59.9L84,59.9z"/>
<path fill-rule="evenodd" clip-rule="evenodd" fill="#FDBB30" d="M63.8,95c3.3,0,6.1,1.7,6.5,4l3.3,37.5c0,3.7-4.3,6.7-9.8,6.7
	c-5.4,0-9.8-3-9.8-6.7L57.3,99C57.7,96.7,60.4,95,63.8,95L63.8,95L63.8,95z"/>
<path fill-rule="evenodd" clip-rule="evenodd" fill="#FDBB30" d="M84,83.3c1.7-2.9,4.6-4.4,6.7-3.6l34.1,15.9
	c3.2,1.9,3.7,7.1,0.9,11.8c-2.7,4.7-7.5,7-10.7,5.1L84.2,90.9C82.5,89.4,82.4,86.2,84,83.3L84,83.3L84,83.3z"/>
<path fill-rule="evenodd" clip-rule="evenodd" fill="#FDBB30" d="M43.5,83.3c1.7,2.9,1.5,6.2-0.2,7.6l-30.8,21.6
	c-3.2,1.8-8-0.4-10.7-5.1c-2.7-4.7-2.3-10,0.9-11.9l34.1-15.9C38.9,78.9,41.8,80.4,43.5,83.3L43.5,83.3L43.5,83.3z"/>
</svg>
