<svg id="Layer_1" data-name="Layer 1" xmlns="http://www.w3.org/2000/svg" viewBox="0 0 408.04 164.74"><defs><style>.cls-1{fill:#4c83c3;}</style></defs><title>ibm</title><polygon class="cls-1" points="408.04 11.72 340.11 11.72 344.3 0.01 408.04 0.01 408.04 11.72"/><path class="cls-1" d="M227,0H290l4.13,11.74s-67.17,0-67.17,0S227,0,227,0Z"/><path class="cls-1" d="M176.89,0A45.34,45.34,0,0,1,204,11.74s-114.31,0-114.31,0V0Z"/><rect class="cls-1" x="0.01" y="0.01" width="79.41" height="11.71"/><path class="cls-1" d="M39.71,5.86"/><path class="cls-1" d="M408,33.69H332.33S336.46,22,336.44,22H408Z"/><polygon class="cls-1" points="301.97 33.7 226.97 33.7 226.97 22.04 297.86 22.04 301.97 33.7"/><path class="cls-1" d="M212.92,22c1.51,3.85,3.29,7.14,3.29,11.65H89.73V22Z"/><rect class="cls-1" x="0.01" y="22.03" width="79.41" height="11.65"/><path class="cls-1" d="M39.71,27.86"/><polygon class="cls-1" points="324.59 55.72 328.75 44.01 385.59 44.03 385.59 55.69 324.59 55.72"/><polygon class="cls-1" points="305.61 44.01 309.75 55.72 249.33 55.72 249.33 44.01 305.61 44.01"/><path class="cls-1" d="M217.21,44a38.21,38.21,0,0,1-1.67,11.71H180.91V44Z"/><rect class="cls-1" x="22.14" y="44.06" width="34.13" height="11.65"/><path class="cls-1" d="M39.21,49.89"/><rect class="cls-1" x="112.71" y="44" width="34.07" height="11.71"/><path class="cls-1" d="M129.74,49.86"/><path class="cls-1" d="M282.89,68.36s0,8.86,0,8.88H249.33V65.59h64l4,10.87s3.83-10.89,3.84-10.87h64.46V77.24h-33.4s0-8.88,0-8.88l-3.09,8.88-63.08,0Z"/><path class="cls-1" d="M112.71,65.59h97.81a43.94,43.94,0,0,1-9.7,11.66s-88.11,0-88.11,0S112.71,65.6,112.71,65.59Z"/><rect class="cls-1" x="22.14" y="65.58" width="34.13" height="11.66"/><path class="cls-1" d="M39.21,71.41"/><rect class="cls-1" x="352.17" y="87.56" width="33.4" height="11.65"/><path class="cls-1" d="M368.87,93.38"/><path class="cls-1" d="M282.89,87.56H249.33V99.21H282.9S282.94,87.56,282.89,87.56Z"/><path class="cls-1" d="M345.42,87.56c-.15,0-3.91,11.65-4.07,11.65l-47.58,0s-4.18-11.69-4.19-11.67Z"/><path class="cls-1" d="M112.7,87.56h87.95a57.53,57.53,0,0,1,10.49,11.66H112.7Z"/><path class="cls-1" d="M56.27,99.21V87.56H22.2s0,11.65,0,11.65Z"/><rect class="cls-1" x="352.17" y="109.53" width="33.4" height="11.66"/><path class="cls-1" d="M368.87,115.36"/><rect class="cls-1" x="249.33" y="109.53" width="33.56" height="11.65"/><path class="cls-1" d="M266.11,115.36"/><path class="cls-1" d="M333.54,121.25c0-.06,4.12-11.72,4.18-11.71H297.28c-.07,0,4.14,11.66,4.14,11.66S333.53,121.29,333.54,121.25Z"/><path class="cls-1" d="M112.7,121.19s0-11.65,0-11.66h34.58s0,11.66,0,11.66S112.7,121.17,112.7,121.19Z"/><path class="cls-1" d="M216,109.53c1.67,3.51,1.84,7.69,2.17,11.71H181.52V109.53Z"/><rect class="cls-1" x="22.2" y="109.53" width="34.07" height="11.65"/><path class="cls-1" d="M39.23,115.35"/><rect class="cls-1" x="352.17" y="131.05" width="55.87" height="11.66"/><path class="cls-1" d="M380.1,136.88"/><rect class="cls-1" x="226.97" y="131.05" width="55.92" height="11.66"/><path class="cls-1" d="M254.93,136.88"/><polygon class="cls-1" points="326.02 142.71 308.96 142.71 304.87 131.05 329.97 131.05 326.02 142.71"/><path class="cls-1" d="M0,131.05v11.66H79.36s0-11.65,0-11.65Z"/><path class="cls-1" d="M216.7,131.05c-.84,3.85-1.6,8.53-4.41,11.66H89.73V131.05Z"/><polygon class="cls-1" points="318.29 164.71 316.72 164.71 312.73 153.03 322.38 153.03 318.29 164.71"/><rect class="cls-1" x="352.17" y="153.03" width="55.87" height="11.71"/><path class="cls-1" d="M380.1,158.88"/><path class="cls-1" d="M89.71,164.71V153h115a43.51,43.51,0,0,1-29.63,11.68l-85.33,0"/><rect class="cls-1" x="226.97" y="153.03" width="55.92" height="11.71"/><path class="cls-1" d="M254.93,158.88"/><path class="cls-1" d="M79.36,153.08s0,11.63,0,11.63-79.33,0-79.35,0S0,153,0,153,79.32,153.12,79.36,153.08Z"/></svg>