<?xml version="1.0" encoding="utf-8"?>
<!-- Generator: Adobe Illustrator 18.1.1, SVG Export Plug-In . SVG Version: 6.00 Build 0)  -->
<svg version="1.1" id="Capa_1" xmlns="http://www.w3.org/2000/svg" xmlns:xlink="http://www.w3.org/1999/xlink" x="0px" y="0px"
	 viewBox="0 90 612 612" enable-background="new 0 90 612 612" xml:space="preserve">
<g>
	<path fill="#A3B2A1" d="M420.8,396l172.2-172.3c25.3-25.3,25.3-66.6,0-91.9l-23-23c-25.3-25.3-66.6-25.3-91.9,0L306,281.2
		L133.8,109c-25.2-25.3-66.6-25.3-91.8,0l-23,23c-25.2,25.3-25.2,66.6,0,91.9L191.2,396L18.9,568.3c-25.2,25.3-25.2,66.6,0,91.8
		l23,23c25.3,25.3,66.6,25.3,91.8,0L306,510.9l172.2,172.2c25.3,25.3,66.6,25.3,91.9,0l23-23c25.3-25.3,25.3-66.6,0-91.8L420.8,396z
		"/>
</g>
</svg>
