<?xml version="1.0" encoding="utf-8"?>
<!-- Generator: Adobe Illustrator 18.1.1, SVG Export Plug-In . SVG Version: 6.00 Build 0)  -->
<svg version="1.1" id="Layer_1" xmlns="http://www.w3.org/2000/svg" xmlns:xlink="http://www.w3.org/1999/xlink" x="0px" y="0px"
	 viewBox="0 0 199.7 202.7" enable-background="new 0 0 199.7 202.7" xml:space="preserve">
<g>
	<path fill="#FFFFFF" d="M98.1,0c11.3,0,22.7,0,34,0c8.8,0,10.6,1.7,10.6,10.4c0,12.3,0,24.7,0,37c0,7.1,2.1,9.2,9.3,9.2
		c12.7,0,25.3,0,38,0c7.3,0,9.6,2.3,9.7,9.6c0.1,23.3,0.1,46.6,0,70c0,7.3-2.3,9.5-9.6,9.5c-12.5,0-25,0-37.5,0
		c-7.8,0-9.8,2.1-9.9,9.8c0,12.3,0,24.7,0,37c0,8.1-2,10.2-10.1,10.2c-23.2,0-46.3,0-69.5,0c-7.5,0-9.9-2.4-9.9-9.8
		c0-12.7,0-25.3,0-38c0-6.8-2.1-9-8.9-9.1c-11.7-0.1-23.3,0-35-0.1c-7.2,0-9.3-2.1-9.3-9.2c0-23.5,0-47,0-70.5
		c0-7.1,2.3-9.4,9.7-9.4c11.2-0.1,22.3,0,33.5,0c8.3,0,10-1.7,10.1-9.9c0-12.5,0-25,0-37.5c0-6.8,2.5-9.2,9.3-9.2
		C74.4,0,86.3,0,98.1,0z M128.3,14.2c-2.4,0-3.9,0-5.4,0c-17.3,0-34.6,0.1-52,0c-3.9,0-3.2,2.6-3.2,4.8c0,15.7-0.1,31.3,0,47
		c0,3.9-1.2,5.2-5.2,5.2c-14.5-0.2-29,0.1-43.5-0.2c-4-0.1-5.1,1.2-5,5.1c0.2,16.8,0.2,33.6,0,50.5c-0.1,4,1.2,5.2,5.1,5.1
		c14.3-0.2,28.7,0.1,43-0.2c4.5-0.1,5.7,1.5,5.6,5.8c-0.2,15.3,0,30.6-0.1,46c0,3.8,1,5.2,5,5.1c17-0.2,34-0.1,51-0.1
		c1.4,0,2.9-0.2,4.6-0.4c0-2.3,0-4.1,0-5.9c0-15,0.1-30-0.1-45c-0.1-4.1,1.2-5.5,5.4-5.5c15.5,0.2,31-0.1,46.5,0.2
		c4.2,0.1,5.4-1.3,5.3-5.4c-0.2-16.7-0.1-33.3-0.1-50c0-1.6-0.2-3.2-0.3-5.2c-2.2,0-4,0-5.8,0c-15.2,0-30.3-0.1-45.5,0.1
		c-4.2,0.1-5.5-1.3-5.4-5.5c0.2-13.5,0.1-27,0.1-40.5C128.3,21.7,128.3,18.3,128.3,14.2z"/>
</g>
</svg>
