<?xml version="1.0" encoding="iso-8859-1"?>
<!-- Generator: Adobe Illustrator 16.0.0, SVG Export Plug-In . SVG Version: 6.00 Build 0)  -->
<!DOCTYPE svg PUBLIC "-//W3C//DTD SVG 1.1//EN" "http://www.w3.org/Graphics/SVG/1.1/DTD/svg11.dtd">
<svg version="1.1" id="Capa_1" xmlns="http://www.w3.org/2000/svg" xmlns:xlink="http://www.w3.org/1999/xlink" x="0px" y="0px"
	 width="920.001px" height="920.001px" viewBox="0 0 920.001 920.001" style="enable-background:new 0 0 920.001 920.001;"
	 xml:space="preserve">
<g>
	<g>
		<path d="M39.451,803.101C39.451,803.001,39.451,803.001,39.451,803.101C39.451,803.001,39.451,803.001,39.451,803.101
			L39.451,803.101z"/>
		<path d="M795.951,690.601C795.951,690.501,795.951,690.501,795.951,690.601C795.951,690.501,795.951,690.501,795.951,690.601
			c9.9-17.3,15.5-37.199,15.5-58.5c0-64.3-51.7-116.399-115.8-117l0,0c10.8-26.3,10.8-50.3,10.8-50.3
			c0-160.8-109.2-191.2-158.9-196.7c-8.1-0.9-13.8,7.7-9.8,14.8c4.7,8.3,7.7,19.8,3.7,34.3c-10,35.8-48.7,30.8-67.4,30.8h-139
			c-64.399,0-116.6,52.2-116.6,116.6v0.301c0,17.899,4,35.1,11.2,50.1h-3.8c-64.6,0-117.4,52.4-117.4,117l0,0
			c0,21.3,5.9,41.3,15.9,58.5c0,0,0,0,0.2,0c-0.2,0-0.2,0-0.2,0c-48.9,14-84.9,59.1-84.9,112.5c0,64.6,52.7,117,117.4,117h606.9
			c64.601,0,116.8-52.3,116.8-117C880.451,749.601,844.851,704.601,795.951,690.601z"/>
		<path d="M335.651,304.301c10.399-2.5,21.2-8.6,29.2-14.9c36.699-28.6,47.399-80.1,32.8-123c-12.101-35.4-36.4-64.8-51.601-98.6
			c-2.699-6-5.1-12-6.8-18c-4.5-14.9-4.399-31-3.1-46.4v-0.1c0.2-2.2-2-3.9-4.101-3.1l0,0c-33.199,11.5-52,45.5-54.3,79.1
			c-2.2,31.8,8.601,62.6,23.3,90.3c14.4,27.2,30.301,51.2,33.5,82.9c1.5,14.6-1.3,38.8-2.6,48.4
			C331.75,303.001,333.651,304.701,335.651,304.301z"/>
		<path d="M137.75,420.901c10.4-2.5,21.2-8.601,29.2-14.9c36.7-28.6,47.4-80.1,32.8-123c-12.1-35.4-36.4-64.8-51.6-98.6
			c-2.7-6-5.1-12-6.8-18c-4.5-14.9-4.4-31-3.1-46.4v-0.1c0.2-2.2-2-3.9-4.1-3.1l0,0c-33.2,11.5-52,45.5-54.3,79.1
			c-2.2,31.8,8.6,62.6,23.3,90.3c14.4,27.2,30.3,51.2,33.5,82.899c1.5,14.601-1.3,38.801-2.6,48.4
			C133.851,419.701,135.75,421.401,137.75,420.901z"/>
	</g>
</g>
<g>
</g>
<g>
</g>
<g>
</g>
<g>
</g>
<g>
</g>
<g>
</g>
<g>
</g>
<g>
</g>
<g>
</g>
<g>
</g>
<g>
</g>
<g>
</g>
<g>
</g>
<g>
</g>
<g>
</g>
</svg>
