<?xml version="1.0" ?><!DOCTYPE svg  PUBLIC '-//W3C//DTD SVG 1.1//EN'  'http://www.w3.org/Graphics/SVG/1.1/DTD/svg11.dtd'><svg enable-background="new 0 0 32.268 11.012" height="11.012px" id="Capa_1" version="1.1" viewBox="0 0 32.268 11.012" width="32.268px" xml:space="preserve" xmlns="http://www.w3.org/2000/svg" xmlns:xlink="http://www.w3.org/1999/xlink"><path d="M32.086,0.515c0.419,1.046,0.04,1.83-0.402,2.751c-0.202,0.419-0.538,0.748-0.671,1.142  c-0.152,0.449-0.18,0.993-0.269,1.477c-0.254,1.369-0.514,2.865-1.409,3.689c-0.743,0.683-2.583,1.234-3.893,1.342  c-4.701,0.38-6.647-1.959-7.781-5.166c-0.342-0.967-0.468-1.982-1.744-1.879c-1.022,0.083-1.068,0.916-1.477,2.146  c-0.88,2.659-2.523,4.704-5.903,4.964c-1.987,0.153-4.418-0.252-5.435-1.207C2.159,8.886,1.821,7.093,1.493,5.48  c-0.12-0.588-0.257-0.84-0.537-1.273C0.825,4.001,0.725,3.829,0.621,3.602C0.25,2.783-0.256,1.937,0.151,0.783  C4.495,0.085,8.373,0.096,12.294,0.85c1.251,0.24,2.521,0.641,3.758,0.671c1.443,0.035,3.188-0.521,4.562-0.805  C24.208-0.024,28.145-0.346,32.086,0.515z"/></svg>