<?xml version="1.0" encoding="utf-8"?>
<!-- Generator: Adobe Illustrator 19.1.0, SVG Export Plug-In . SVG Version: 6.00 Build 0)  -->
<svg version="1.1" id="Capa_1" xmlns="http://www.w3.org/2000/svg" xmlns:xlink="http://www.w3.org/1999/xlink" x="0px" y="0px"
	 viewBox="-582.9 142.3 310 205" style="enable-background:new -582.9 142.3 310 205;" xml:space="preserve">
<style type="text/css">
	.st0{fill:#F36E21;}
</style>
<path class="st0" d="M-582.9,142.3v205h310v-205H-582.9z M-307.8,227.5c-1.6,3.2-4.2,5.8-5.2,8.8c-1.2,3.5-1.4,7.7-2.1,11.4
	c-2,10.6-4,22.1-10.9,28.5c-5.7,5.3-20,9.5-30.1,10.4c-36.3,2.9-51.3-15.1-60.1-39.9c-2.6-7.5-3.6-15.3-13.5-14.5
	c-7.9,0.6-8.2,7.1-11.4,16.6c-6.8,20.5-19.5,36.3-45.6,38.3c-15.3,1.2-34.1-1.9-42-9.3c-7.3-6.8-9.9-20.7-12.4-33.1
	c-0.9-4.5-2-6.5-4.2-9.8c-1-1.6-1.8-2.9-2.6-4.7c-2.9-6.3-6.8-12.9-3.6-21.8c33.5-5.4,63.5-5.3,93.8,0.5c9.7,1.8,19.5,4.9,29,5.2
	c11.1,0.3,24.6-4,35.2-6.2c27.8-5.7,58.2-8.2,88.6-1.5C-301.5,214.3-304.4,220.4-307.8,227.5z"/>
</svg>
