<?xml version="1.0" encoding="utf-8"?>
<!-- Generator: Adobe Illustrator 19.1.0, SVG Export Plug-In . SVG Version: 6.00 Build 0)  -->
<svg version="1.1" id="Layer_1" xmlns="http://www.w3.org/2000/svg" xmlns:xlink="http://www.w3.org/1999/xlink" x="0px" y="0px"
	 viewBox="-281 373 48 48" style="enable-background:new -281 373 48 48;" xml:space="preserve">
<style type="text/css">
	.st0{fill:#FFFFFF;}
</style>
<path class="st0" d="M-238,414h-38c-2.2,0-4-1.8-4-4v-22c0-2.2,1.8-4,4-4h1l0,0c0-1.1,0.9-2,2-2h2c1.1,0,2,0.9,2,2h2
	c0,0,1.1-0.1,2-1l2-2c0,0,0.8-1,2-1h8c1.3,0,2,1,2,1l2,2c0.9,0.9,2,1,2,1h9c2.2,0,4,1.8,4,4v22C-234,412.2-235.8,414-238,414z
	 M-236,388c0-1.1-0.9-2-2-2l-9.2,0c-0.3,0-1.9-0.3-3.2-1.6l-2.1-2.1l-0.1-0.2c0,0-0.2-0.1-0.4-0.1h-8c-0.2,0-0.4,0.2-0.4,0.2
	l-0.1,0.1l-2.1,2.1c-1.3,1.3-2.9,1.5-3.2,1.6l-4.2,0c0,0,0,0-0.1,0h-2c0,0,0,0,0,0l-3,0c-1.1,0-2,0.9-2,2v22c0,1.1,0.9,2,2,2h38
	c1.1,0,2-0.9,2-2V388z M-257,410c-6.1,0-11-4.9-11-11s4.9-11,11-11c6.1,0,11,4.9,11,11S-250.9,410-257,410z M-257,390c-5,0-9,4-9,9
	s4,9,9,9s9-4,9-9S-252,390-257,390z M-257,404c-2.8,0-5-2.2-5-5s2.2-5,5-5s5,2.2,5,5S-254.2,404-257,404z M-257,396
	c-1.7,0-3,1.3-3,3c0,1.7,1.3,3,3,3c1.7,0,3-1.3,3-3C-254,397.3-255.3,396-257,396z M-271,392h-4c-0.6,0-1-0.4-1-1v-2
	c0-0.6,0.4-1,1-1h4c0.6,0,1,0.4,1,1v2C-270,391.6-270.4,392-271,392z"/>
</svg>
