<?xml version="1.0" encoding="utf-8"?>
<!-- Generator: Adobe Illustrator 19.0.1, SVG Export Plug-In . SVG Version: 6.00 Build 0)  -->
<svg version="1.1" id="Layer_1" xmlns="http://www.w3.org/2000/svg" xmlns:xlink="http://www.w3.org/1999/xlink" x="0px" y="0px"
	 viewBox="-925.9 248.9 512 473.2" style="enable-background:new -925.9 248.9 512 473.2;" xml:space="preserve">
<style type="text/css">
	.st0{fill:#FFFFFF;}
</style>
<path class="st0" d="M-490.9,472.2c4.9-3.6,9.8-7.2,14.2-11.6c13.2-13.2,23.3-29.3,29.8-47.9c2.1-5.8,0.6-12.3-3.8-16.6
	c-4.4-4.4-10.8-5.9-16.6-3.8c-35.4,12.5-73.7,4-99.9-22.2c-26.2-26.2-34.8-64.5-22.2-99.9c2-5.8,0.6-12.3-3.8-16.6
	c-4.3-4.3-10.8-5.8-16.6-3.8c-18.5,6.6-34.6,16.6-47.8,29.8c-33.5,33.5-44,81-32.5,123.8c-43.2,5.5-82.1,28.5-108,63.8
	c-5.2-0.8-10.5-1.1-15.8-1.1c-61.8,0-112,50.2-112,112s50.2,112,112,112c13.7,0,27.1-2.5,39.7-7.3c29,25.3,65.8,39.3,104.3,39.3
	s75.3-14.1,104.3-39.3c12.6,4.8,26,7.3,39.7,7.3c61.8,0,112-50.2,112-112C-414,528.6-446.4,487-490.9,472.2z M-635.1,302.2
	c2.5-2.6,5.3-5,8.1-7.2c-2.2,36,10.7,71.4,37.1,97.7c26.4,26.4,61.8,39.3,97.8,37.1c-13.8,17.6-32.8,28.5-53.1,33.2
	c-27.4-34.8-67.6-56.6-112-60.2C-669.4,368.8-662.2,329.3-635.1,302.2z"/>
</svg>
