<svg id="Layer_1" data-name="Layer 1" xmlns="http://www.w3.org/2000/svg" viewBox="0 0 253.14 106.23"><defs><style>.cls-1{fill:#66c5b5;}</style></defs><title>hdc</title><path class="cls-1" d="M158.06,290c0-15.46,0-28.21,0-41,0-4.11.88-7.94,4.15-10.83a13.12,13.12,0,0,1,14.28-2.61,12.5,12.5,0,0,1,8.16,10.54c.58,4.1.07,8.21,0,12.32,0,1.24,0,2.48,0,3.72,0,.67.19.81.85.61a43.61,43.61,0,0,1,14.82-1.5A36.33,36.33,0,0,1,223,270.17a42.78,42.78,0,0,1,12,16.07,33.18,33.18,0,0,1,2.47,11.64c.37,9.07.22,18.15.18,27.22A20.42,20.42,0,0,1,237,331a13.12,13.12,0,0,1-16.08,9.06c-4.82-1.28-9.42-6.27-9.66-11.55-.28-6.19-.14-12.38,0-18.57.1-4.58.19-9.19-.9-13.7s-5.47-8-10.07-8.72c-5.52-.82-9.78,1.08-13.14,5.35a11.48,11.48,0,0,0-2.45,6.4,164.69,164.69,0,0,0,.1,18.05,73.46,73.46,0,0,1-.5,13.75,11.29,11.29,0,0,1-9.72,9.26c-5.59.75-10.39-.62-13.87-5.31a11.88,11.88,0,0,1-2.43-6.65C157.77,314.69,158.24,301,158.06,290Z" transform="translate(-158.03 -234.49)"/><path class="cls-1" d="M330.77,274.27c0,8.76.14,17.52,0,26.28-.23,11.69-4.51,21.72-13.15,29.7a37.4,37.4,0,0,1-21.71,10A38.67,38.67,0,0,1,272,335.75a45.47,45.47,0,0,1-11.16-9.16,38.62,38.62,0,0,1-8.53-16.15,38,38,0,0,1-1-9.14c-.33-10.72,3.62-19.78,10.7-27.62a41.66,41.66,0,0,1,14.52-9.95c1.21-.54,1.24-.51,1.24.79q0,13.44-.05,26.88c0,3.39.05,6.79,0,10.19s1.67,6.19,4,8.54a12.44,12.44,0,0,0,11,3.79c5.78-.89,9.89-4.4,11.36-10.56.58-2.41.32-4.84.31-7.27-.05-11,0-22.07-.13-33.11,0-4.15-.27-8.31-.1-12.46.1-2.58.1-5.15,1.07-7.66a12.94,12.94,0,0,1,11.19-8.3c5.81-.38,10,2.17,12.84,7.07a13.25,13.25,0,0,1,1.44,6.73c0,8.63,0,17.27,0,25.91Z" transform="translate(-158.03 -234.49)"/><path class="cls-1" d="M389.75,314c4.83.08,8.15-.2,11.44.47,4,.82,9.74,5.58,9.87,11.76.1,5-2,8.85-5.71,12a9.73,9.73,0,0,1-5.76,2.14c-8.06.51-16.16.73-24.12-.91a36.77,36.77,0,0,1-15.6-7.51,38.63,38.63,0,0,1-14.64-24.75c-1.93-11.64.93-21.95,8.31-31.12a39.31,39.31,0,0,1,18.7-13,51.53,51.53,0,0,1,14.89-2.11,75.49,75.49,0,0,1,12.67.29,12.5,12.5,0,0,1,10.64,9c2.28,6.79-.93,13.54-7.5,16.41a13.05,13.05,0,0,1-4.44.93,65.05,65.05,0,0,1-8.26-.07,29.31,29.31,0,0,0-10.22.84,12,12,0,0,0-8.51,13.74c1.06,6,5.07,10.47,10.55,11.63C385.1,314.33,388.2,313.93,389.75,314Z" transform="translate(-158.03 -234.49)"/></svg>