<?xml version="1.0" encoding="utf-8"?>
<!-- Generator: Adobe Illustrator 20.0.0, SVG Export Plug-In . SVG Version: 6.00 Build 0)  -->
<svg version="1.1" id="Layer_1" xmlns="http://www.w3.org/2000/svg" xmlns:xlink="http://www.w3.org/1999/xlink" x="0px" y="0px"
	 viewBox="0 0 551.8 222.8" style="enable-background:new 0 0 551.8 222.8;" xml:space="preserve">
<style type="text/css">
	.Arched_x0020_Green{fill:url(#SVGID_1_);stroke:#FFFFFF;stroke-width:0.25;stroke-miterlimit:1;}
	.st0{fill:#000000;}
</style>
<linearGradient id="SVGID_1_" gradientUnits="userSpaceOnUse" x1="-54.2766" y1="599.8883" x2="-53.5695" y2="599.1812">
	<stop  offset="0" style="stop-color:#20AC4B"/>
	<stop  offset="0.9831" style="stop-color:#19361A"/>
</linearGradient>
<g>
	<polygon class="st0" points="551.8,15.8 459.9,15.8 465.6,0 551.8,0 	"/>
	<path class="st0" d="M306.9,0l85.3,0l5.6,15.9c0,0-90.8,0-90.8,0C307,15.9,306.9,0,306.9,0z"/>
	<path class="st0" d="M239.2,0c14.1,1.4,26.3,6.4,36.7,15.9c0,0-154.6,0-154.6,0c0,0,0-15.9,0-15.9L239.2,0z"/>
	<g>
		<rect x="0" y="0" class="st0" width="107.4" height="15.8"/>
		<path class="st0" d="M53.7,7.9"/>
	</g>
	<path class="st0" d="M551.8,45.6H449.4c0,0,5.6-15.8,5.6-15.8h96.8V45.6z"/>
	<polygon class="st0" points="408.4,45.6 306.9,45.6 306.9,29.8 402.8,29.8 	"/>
	<path class="st0" d="M287.9,29.8c2,5.2,4.4,9.7,4.4,15.8h-171V29.8H287.9z"/>
	<g>
		<rect x="0" y="29.8" class="st0" width="107.4" height="15.8"/>
		<path class="st0" d="M53.7,37.7"/>
	</g>
	<polygon class="st0" points="438.9,75.3 444.6,59.5 521.4,59.5 521.4,75.3 	"/>
	<polygon class="st0" points="413.3,59.5 418.9,75.3 337.2,75.3 337.2,59.5 	"/>
	<path class="st0" d="M293.7,59.5c0,5.4-0.7,11.1-2.3,15.8h-46.8V59.5H293.7z"/>
	<g>
		<rect x="29.9" y="59.6" class="st0" width="46.2" height="15.8"/>
		<path class="st0" d="M53,67.5"/>
	</g>
	<g>
		<rect x="152.4" y="59.5" class="st0" width="46.1" height="15.8"/>
		<path class="st0" d="M175.5,67.4"/>
	</g>
	<path class="st0" d="M382.6,92.4c0,0,0,12,0,12h-45.4V88.7h86.5l5.4,14.7c0,0,5.2-14.7,5.2-14.7h87.2v15.8h-45.2c0,0,0-12,0-12
		l-4.2,12l-85.3,0L382.6,92.4z"/>
	<path class="st0" d="M152.4,88.7h132.3v0c-2.9,5.3-8.1,11.7-13.1,15.8c0,0-119.2,0-119.2,0C152.4,104.4,152.4,88.7,152.4,88.7z"/>
	<g>
		<rect x="29.9" y="88.7" class="st0" width="46.2" height="15.8"/>
		<path class="st0" d="M53,96.6"/>
	</g>
	<g>
		<rect x="476.2" y="118.4" class="st0" width="45.2" height="15.8"/>
		<path class="st0" d="M498.8,126.3"/>
	</g>
	<path class="st0" d="M382.6,118.4h-45.4v15.8c0,0,45.4,0,45.4,0C382.6,134.2,382.6,118.4,382.6,118.4z"/>
	<path class="st0" d="M467.1,118.4c-0.2,0-5.3,15.8-5.5,15.8l-64.3,0c-0.1,0-5.7-15.8-5.7-15.8H467.1z"/>
	<path class="st0" d="M152.4,118.4h118.9c5.4,4.5,10.3,10.1,14.2,15.8c0.2,0-133.1,0-133.1,0C152.4,134.2,152.4,118.4,152.4,118.4z"
		/>
	<path class="st0" d="M76.1,134.2v-15.8H30c0,0,0,15.8,0,15.8C30,134.2,76.1,134.2,76.1,134.2z"/>
	<g>
		<rect x="476.2" y="148.1" class="st0" width="45.2" height="15.8"/>
		<path class="st0" d="M498.8,156"/>
	</g>
	<g>
		<rect x="337.2" y="148.1" class="st0" width="45.4" height="15.8"/>
		<path class="st0" d="M359.9,156"/>
	</g>
	<path class="st0" d="M451.1,164c0-0.1,5.6-15.9,5.7-15.8H402c-0.1,0,5.6,15.8,5.6,15.8S451,164,451.1,164z"/>
	<path class="st0" d="M152.4,163.9c0,0.1,0-15.8,0-15.8h46.8c0,0,0,15.8,0,15.8C199.1,163.9,152.4,163.9,152.4,163.9z"/>
	<path class="st0" d="M292.1,148.1c2.3,4.7,2.5,10.4,2.9,15.8h-49.5v-15.8H292.1z"/>
	<g>
		<rect x="30" y="148.1" class="st0" width="46.1" height="15.8"/>
		<path class="st0" d="M53.1,156"/>
	</g>
	<g>
		<rect x="476.2" y="177.2" class="st0" width="75.5" height="15.8"/>
		<path class="st0" d="M514,185.1"/>
	</g>
	<g>
		<rect x="306.9" y="177.2" class="st0" width="75.6" height="15.8"/>
		<path class="st0" d="M344.7,185.1"/>
	</g>
	<polygon class="st0" points="440.9,193 417.8,193 412.3,177.2 446.2,177.2 	"/>
	<path class="st0" d="M0,177.2V193h107.3c0,0,0-15.8,0-15.8C107.4,177.2-0.1,177.2,0,177.2z"/>
	<path class="st0" d="M293.1,177.2c-1.1,5.2-2.2,11.5-6,15.8l-1.4,0H121.3v-15.8H293.1z"/>
	<polygon class="st0" points="430.4,222.7 428.3,222.7 422.9,206.9 436,206.9 	"/>
	<g>
		<rect x="476.2" y="206.9" class="st0" width="75.5" height="15.8"/>
		<path class="st0" d="M514,214.9"/>
	</g>
	<path class="st0" d="M121.3,222.7V207c0,0,155,0,155.5,0c-10.4,10-24.7,15.6-40.1,15.8L121.3,222.7"/>
	<g>
		<rect x="306.9" y="206.9" class="st0" width="75.6" height="15.8"/>
		<path class="st0" d="M344.7,214.9"/>
	</g>
	<path class="st0" d="M107.3,207c0,0,0,15.7,0,15.7c0,0-107.3,0.1-107.3,0c0,0,0-15.8,0-15.8S107.3,207.1,107.3,207z"/>
</g>
</svg>