<?xml version="1.0" encoding="utf-8"?>
<!-- Generator: Adobe Illustrator 18.1.1, SVG Export Plug-In . SVG Version: 6.00 Build 0)  -->
<svg version="1.1" id="Capa_1" xmlns="http://www.w3.org/2000/svg" xmlns:xlink="http://www.w3.org/1999/xlink" x="0px" y="0px"
	 viewBox="10.2 90 591.6 612" enable-background="new 10.2 90 591.6 612" xml:space="preserve">
<g id="EQ__x2F__Equalizer__x2F__Mixer">
	<path fill="#FFFFFF" d="M153,294h-20.4V120.6c0-16.9-13.7-30.6-30.6-30.6s-30.6,13.7-30.6,30.6V294H51c-22.5,0-40.8,18.3-40.8,40.8
		v40.8c0,22.5,18.3,40.8,40.8,40.8h20.4v255c0,16.9,13.7,30.6,30.6,30.6c16.9,0,30.6-13.7,30.6-30.6v-255H153
		c22.5,0,40.8-18.3,40.8-40.8v-40.8C193.8,312.3,175.5,294,153,294z M357,477.6h-20.4v-357c0-16.9-13.7-30.6-30.6-30.6
		c-16.9,0-30.6,13.7-30.6,30.6v357H255c-22.5,0-40.8,18.3-40.8,40.8v40.8c0,22.5,18.3,40.8,40.8,40.8h20.4v71.4
		c0,16.9,13.7,30.6,30.6,30.6c16.9,0,30.6-13.7,30.6-30.6V600H357c22.5,0,40.8-18.3,40.8-40.8v-40.8
		C397.8,495.9,379.5,477.6,357,477.6z M561,151.2h-20.4v-30.6c0-16.9-13.7-30.6-30.6-30.6c-16.9,0-30.6,13.7-30.6,30.6v30.6H459
		c-22.5,0-40.8,18.3-40.8,40.8v40.8c0,22.5,18.3,40.8,40.8,40.8h20.4v397.8c0,16.9,13.7,30.6,30.6,30.6c16.9,0,30.6-13.7,30.6-30.6
		V273.6H561c22.5,0,40.8-18.3,40.8-40.8V192C601.8,169.5,583.5,151.2,561,151.2z"/>
</g>
</svg>
