<?xml version="1.0" encoding="utf-8"?>
<!-- Generator: Adobe Illustrator 18.1.1, SVG Export Plug-In . SVG Version: 6.00 Build 0)  -->
<svg version="1.1" id="Layer_1" xmlns="http://www.w3.org/2000/svg" xmlns:xlink="http://www.w3.org/1999/xlink" x="0px" y="0px"
	 viewBox="0 0 141.2 144.6" enable-background="new 0 0 141.2 144.6" xml:space="preserve">
<g id="Layer_x0020_1">
	<g id="_148220104">
		<polygon id="_24510480" fill="#0093DD" points="141.2,144.6 0,144.6 0,113 141.2,113 		"/>
		<g>
			<g>
				<g>
					<path id="_24509072" fill="#0093DD" d="M70.6,13c29,0,54.8,14.3,70.6,36.2V0H0v49.2C15.8,27.3,41.6,13,70.6,13L70.6,13z"/>
					<path id="_24503008" fill="#0093DD" d="M70.6,16.5c-29.4,0-55.3,15-70.6,37.8v55.3h141.1V54.3C125.9,31.5,100,16.5,70.6,16.5
						L70.6,16.5z"/>
					<path id="_24502744" fill="#FFFFFF" d="M70.6,16.5c29.4,0,55.3,15,70.6,37.8v-5.1C125.3,27.3,99.6,13,70.6,13
						C41.6,13,15.8,27.3,0,49.2v5.1C15.2,31.5,41.2,16.5,70.6,16.5L70.6,16.5z"/>
				</g>
				<g>
					<path id="_24502000" fill="#FFFFFF" d="M13.9,74.5c-0.3,0.6-0.5,1.1-0.7,1.6c-5.7,1.7-9.5,0.2-9.7,0.1c-0.6-0.2-1.2,0-1.5,0.6
						c-0.2,0.6,0,1.2,0.6,1.5c0.3,0.1,4.2,1.7,10.1,0.3c0,0.1,0,0.2,0,0.2c0,1.7,0.7,2.8,1.6,3.4c2.5,1.7,8.2,0.2,16.3-8.1
						c-0.5,1.5-1,3.1-1.3,4.8c0,0.1,0,0.1,0,0.2c0,0.5,0.3,0.9,0.7,1.1c0.9,0.4,1.4-0.4,1.8-1l1.1-1.7c1-1.5,3.2-4.8,4.7-6.5
						c-0.2,1-0.4,2-0.4,3c0,1.4,0.3,2.6,1.4,3.3c0.9,0.5,2.4,0.7,5.7-1.2c0.3,0.7,0.8,1.1,1.1,1.3c2.1,1,6-1.1,10-5
						c-0.5,1.2-1,2.3-1.1,2.7c0,0.1,0,0.2,0,0.3c0,0.5,0.3,0.9,0.7,1.1c0.9,0.4,1.5-0.4,1.9-1l1.2-1.8c1-1.5,3.4-5,4.8-6.5
						c0.4,1,1.2,2.3,2.5,3c-0.4,0.9-0.6,1.6-0.6,2.3c0,0.8,0.3,1.4,0.9,1.8c1,0.7,2.6,0.3,4.3-0.6c-5.3,5.2-7.7,10.5-7.8,12.8
						c0,0,0,0.1,0,0.1c0,1.3,0.6,1.8,1,2c0.8,0.4,1.8,0.2,2.9-0.7c4-3.2,6.9-10.7,8.4-15.2c2-1.6,4.3-3.2,7-4.6
						c-0.9,1.5-1.4,3-1.4,4.1c0,0.4,0.1,0.8,0.2,1.1c0.3,0.8,1,1.3,1.8,1.4c1.8,0.2,4.4-1.7,7.4-5.4c-0.3,0.7-0.5,1.4-0.8,2.1
						c-8.3,6.5-12,13.5-12.5,17.3c0,0.3-0.1,0.6-0.1,0.9c0,1.5,0.6,2.2,1.2,2.5c0.6,0.4,1.7,0.5,3.3-0.7c1.8-1.3,6-7.9,10-18.7
						c5.4-4.1,12.8-8.1,22.6-10.8c0.5-0.1,0.8-0.6,0.8-1.1c0-0.1,0-0.2,0-0.3c-0.2-0.6-0.8-0.9-1.4-0.8c-8.6,2.4-15.4,5.7-20.7,9.3
						c0.6-1.9,1.3-3.9,1.9-6c0-0.1,0-0.2,0-0.3c0-0.4-0.2-0.8-0.7-1c-0.5-0.2-1.1,0-1.4,0.4c-5.5,8.7-8.7,10.3-9.4,10.3
						c0-0.1-0.1-0.2-0.1-0.3c0-1,0.8-3.5,3.6-6.4c0.2-0.2,0.3-0.5,0.3-0.8c0-0.2-0.1-0.4-0.2-0.6c-0.3-0.4-0.9-0.6-1.3-0.4
						c-3.5,1.5-6.5,3.2-9.1,5.1c0-0.1,0.1-0.2,0.1-0.2c0-0.1,0-0.2,0-0.3c0-0.4-0.2-0.8-0.6-1c0,0,0,0-0.1,0c0.8-0.6,1.6-1.3,2.4-2
						c0.9-0.8,1.1-1.6,1.1-2.1c0-0.2,0-0.4-0.1-0.6c-0.3-0.8-1-1.3-2-1.4c-2.5-0.3-6.4,1.8-9.8,6.9c-1.2-0.6-1.7-2.2-1.9-2.9
						l-0.1-0.3c-0.1-0.5-0.6-0.8-1.1-0.8c-0.8,0-1.6,0.5-2.8,2c0,0,0-0.1,0.1-0.1c0.1-0.2,0.1-0.3,0.1-0.5c0-0.4-0.2-0.7-0.5-1
						c-0.5-0.3-1.1-0.2-1.5,0.3c-6.2,8.4-11.6,10.7-12.5,10.3c0,0,0-0.1,0-0.2c0-0.1,0-0.2,0-0.4c1.4-1,3-2.3,5-4
						c1.8-1.6,2.2-2.8,2.2-3.7c0-0.4-0.1-0.7-0.2-0.9c-0.4-0.9-1.3-1.3-2.3-1.2c-2.3,0.2-5.2,2.9-6.6,8.4c-3.6,2.5-4.6,2.1-4.7,2
						c-0.5-0.3-0.5-1.8,0.1-4.6c0.2-1.2,0.4-1.8,0.1-2.3c-0.3-0.5-0.7-0.8-1.3-0.8c-1.2-0.1-2.5,1.2-5.2,5.1
						c1.1-2.6,2.2-4.4,2.2-4.4c0.1-0.2,0.2-0.4,0.2-0.6c0-0.3-0.2-0.7-0.5-0.9c-0.5-0.3-1.1-0.2-1.5,0.2
						c-9.8,11.9-16.4,14.4-18.3,13.2c-0.4-0.3-0.6-0.8-0.6-1.5c0-0.3,0-0.6,0.1-1c3.7-1.3,7.9-3.8,12.4-8.4c2.6-2.7,4.1-5.2,4.1-7.2
						c0-0.4-0.1-0.8-0.2-1.2c-0.4-1-1.3-1.6-2.5-1.7C25.3,59.3,19.3,63.9,13.9,74.5L13.9,74.5z M28.7,61.7c0.4,0,0.5,0.2,0.5,0.3
						c0,0.1,0.1,0.2,0.1,0.4c0,1-0.8,3-3.4,5.6c-3.5,3.6-6.7,5.8-9.7,7.1C21.3,65.1,26.5,61.6,28.7,61.7L28.7,61.7z M50.6,67.5
						c0.4-0.2,0.6-0.2,0.8-0.2c-0.1,0.3-0.3,0.9-1.4,1.9c-0.8,0.7-1.6,1.3-2.2,1.9C48.9,68.6,50.1,67.8,50.6,67.5L50.6,67.5z
						 M75.3,63.7c0.4-0.1,0.7-0.1,0.9-0.1c-0.1,0.1-0.1,0.2-0.2,0.3c-2.6,2.4-4.8,3.9-6.6,4.5C72.1,64.7,74.5,63.9,75.3,63.7
						L75.3,63.7z M71.9,69.6c-2.2,1.9-4.1,2.8-4.8,2.8c0-0.2,0.1-0.7,0.5-1.6C68.9,70.9,70.4,70.5,71.9,69.6L71.9,69.6z M71.1,75.8
						c-1.5,3.9-3.7,8.3-6.2,10.3c-0.1,0.1-0.2,0.2-0.3,0.2C64.6,84.7,66.6,80.4,71.1,75.8L71.1,75.8z M78.4,89.6
						c0-0.5,0.1-1.3,0.5-2.5c1-2.9,3.6-7.1,8.1-11.3c-3.4,8.2-6.6,13-7.8,13.9c-0.4,0.3-0.7,0.4-0.8,0.5
						C78.5,90,78.4,89.9,78.4,89.6L78.4,89.6z"/>
					<path id="_24501840" fill="#FFFFFF" d="M110.3,36.9c-0.7,0-1.3,0.4-1.6,1.1c0,0-6.1,15.7-6.8,17.5c-1.9,0.1-18.6,1-18.6,1
						c-0.9,0-1.6,0.8-1.6,1.7c0,0,0,0.1,0,0.1c0,0.9,0.8,1.6,1.8,1.6l19.7-1c0.7,0,1.2-0.4,1.5-1.1c0,0,3.7-9.6,5.6-14.5
						c1.9,4.9,5.6,14.4,5.6,14.4c0.2,0.6,0.8,1,1.5,1.1c0,0,10.2,0.6,15.4,0.9c-4,3.3-11.9,9.9-11.9,9.9c-0.4,0.3-0.6,0.8-0.6,1.3
						c0,0.1,0,0.3,0.1,0.4c0,0,2.5,9.9,3.8,14.9c-4.4-2.8-12.9-8.3-12.9-8.3c-0.5-0.4-1.3-0.4-1.8,0c0,0-8.6,5.5-13.1,8.3
						c1.4-4.9,3.8-13.8,3.8-13.8c0-0.1,0.1-0.3,0.1-0.4c0-0.7-0.5-1.4-1.2-1.6c-0.9-0.2-1.8,0.3-2.1,1.2l-5,17.9
						c-0.2,0.7,0.1,1.4,0.6,1.8c0.6,0.4,1.3,0.4,1.9,0.1c0,0,14.2-9.1,15.8-10.1c1.6,1,15.6,10.1,15.6,10.1c0.6,0.4,1.3,0.4,1.9,0
						c0.4-0.3,0.7-0.8,0.7-1.4c0-0.1,0-0.3-0.1-0.4c0,0-4.2-16.2-4.6-18c1.4-1.2,14.3-11.9,14.3-11.9c0.4-0.3,0.6-0.8,0.6-1.3
						c0-0.2,0-0.4-0.1-0.5c-0.2-0.6-0.8-1.1-1.5-1.1c0,0-16.6-1-18.5-1.1c-0.7-1.8-6.8-17.4-6.8-17.4
						C111.6,37.3,111,36.9,110.3,36.9L110.3,36.9z"/>
				</g>
			</g>
		</g>
		<g>
			<polygon id="_24499296" fill="#FFFFFF" points="6.1,137.6 6.1,120 15.2,120 15.2,121.9 8.3,121.9 8.3,127.6 14.7,127.6 
				14.7,129.6 8.3,129.6 8.3,135.7 15.3,135.7 15.3,137.6 			"/>
			<polygon id="_24498632" fill="#FFFFFF" points="30.2,120 30.2,137.6 27.2,137.6 20.2,122.3 20.2,122.3 20.2,137.6 18.1,137.6 
				18.1,120 21.3,120 28.2,135.1 28.2,135.1 28.2,120 			"/>
			<polygon id="_148225832" fill="#FFFFFF" points="33.4,137.6 33.4,120 42.5,120 42.5,121.9 35.6,121.9 35.6,127.6 42,127.6 
				42,129.6 35.6,129.6 35.6,135.7 42.6,135.7 42.6,137.6 			"/>
			<path id="_148224968" fill="#FFFFFF" d="M47.6,121.9H51c1.7,0,2.4,1.4,2.4,2.7c0,1.5-0.8,2.9-2.4,2.9h-3.4V121.9L47.6,121.9z
				 M50.2,129.5c0.8,0,2.5,0.1,2.7,2.2c0.2,2.3,0.1,4.6,0.7,5.9h2.3c-0.3-1.1-0.6-3.9-0.6-4.6c-0.1-3.5-0.9-4.2-2.9-4.5v0
				c2.1-0.4,3.2-2,3.2-4c0-2.2-1.1-4.4-4.2-4.4h-6.1v17.7h2.2v-8.1H50.2L50.2,129.5z"/>
			<path id="_148224128" fill="#FFFFFF" d="M66.5,124.7c0-2.1-0.9-3.2-3.1-3.2c-0.7,0-3.2,0.1-3.2,3.8v6c0,3.9,1.1,4.8,3.2,4.8
				c1.6,0,2.7-0.4,3.2-0.8v-5.3h-3.3v-2h5.5v8.6c-1.4,0.8-3.1,1.3-5.4,1.3c-3.7,0-5.5-1.9-5.5-6.8v-5.8c0-3.5,1.8-5.8,5.5-5.8
				c3.8,0,5.6,1.4,5.5,5.1H66.5L66.5,124.7z"/>
			<polygon id="_148223496" fill="#FFFFFF" points="79.6,120 81.9,120 77,130.9 77,137.6 74.8,137.6 74.8,130.9 70,120 72.6,120 
				76,128.5 			"/>
			<path id="_148223112" fill="#FFFFFF" d="M89.5,132.4v0.5c0,2.4,1.5,3.2,3,3.2c1.8,0,3.2-0.8,3.2-2.9c0-3.9-7.9-3.5-7.9-8.8
				c0-3.1,2.2-4.8,5.2-4.8c3.2,0,5,1.6,4.9,5.2h-2.3c0-1.9-0.6-3.2-2.7-3.2c-1.3,0-2.7,0.7-2.7,2.6c0,3.9,7.9,3.3,7.9,8.9
				c0,3.7-2.6,4.9-5.5,4.9c-5.2,0-5.2-3.9-5.2-5.6H89.5L89.5,132.4z"/>
			<polygon id="_148222488" fill="#FFFFFF" points="110.4,120 110.4,121.9 105.8,121.9 105.8,137.6 103.5,137.6 103.5,121.9 
				98.9,121.9 98.9,120 			"/>
			<path id="_148222104" fill="#FFFFFF" d="M118.4,131.5h-5.6l2.8-9.4h0L118.4,131.5L118.4,131.5z M108.6,137.6h2.3l1.3-4.2h6.8
				l1.3,4.2h2.5L117,120h-2.9L108.6,137.6L108.6,137.6z"/>
			<path id="_148220648" fill="#FFFFFF" d="M126.7,121.9h3.4c1.7,0,2.4,1.4,2.4,2.7c0,1.5-0.8,2.9-2.4,2.9h-3.4V121.9L126.7,121.9z
				 M129.4,129.5c0.8,0,2.5,0.1,2.7,2.2c0.2,2.3,0,4.6,0.7,5.9h2.3c-0.3-1.1-0.6-3.9-0.6-4.6c-0.1-3.5-0.9-4.2-2.9-4.5v0
				c2.1-0.4,3.2-2,3.2-4c0-2.2-1.1-4.4-4.2-4.4h-6.1v17.7h2.3v-8.1H129.4L129.4,129.5z"/>
		</g>
	</g>
</g>
</svg>
