<?xml version="1.0" encoding="utf-8"?>
<!-- Generator: Adobe Illustrator 18.1.1, SVG Export Plug-In . SVG Version: 6.00 Build 0)  -->
<svg version="1.1" id="Capa_1" xmlns="http://www.w3.org/2000/svg" xmlns:xlink="http://www.w3.org/1999/xlink" x="0px" y="0px"
	 viewBox="-66 157.4 478.6 478.6" enable-background="new -66 157.4 478.6 478.6" xml:space="preserve">
<g>
	<path fill="#FFFFFF" d="M173.3,200.1C41.3,200.1-66,307.5-66,439.4c0,54.8,19.1,108.4,53.7,150.9l2.4,2.9h366.5l2.4-2.9
		c34.6-42.5,53.7-96.1,53.7-150.9C412.6,307.5,305.2,200.1,173.3,200.1z M348.9,577.4H-2.3c-30.8-39.2-47.8-88-47.8-137.9
		C-50.1,316.2,50.1,216,173.3,216c123.2,0,223.4,100.2,223.4,223.4C396.7,489.4,379.7,538.2,348.9,577.4z M93.7,522.4h159.2v33.6
		H93.7V522.4z M373.3,437.3c0,34.9-9.2,69.3-26.5,99.5l-8.3-4.8c16.5-28.8,25.3-61.5,25.3-94.7c0-105-85.5-190.5-190.5-190.5
		c-105,0-190.5,85.4-190.5,190.5c0,34,9.1,67.4,26.4,96.6l-8.2,4.9c-18.1-30.7-27.7-65.8-27.7-101.5c0-110.3,89.7-200,200-200
		C283.6,237.3,373.3,327,373.3,437.3z M8.2,443.6c0,29.5,7.9,58.5,22.8,83.8l-8.2,4.8C7,505.5-1.4,474.8-1.4,443.6
		c0-96.3,78.4-174.7,174.7-174.7v9.6C82.2,278.5,8.2,352.6,8.2,443.6z M348,443.6c0,30.5-8,60.5-23.2,86.9l-8.3-4.8
		c14.3-24.9,21.9-53.3,21.9-82.1H348z M284.9,300.2l-6.1-3.8c-1.8-1.1-4.3-0.7-5.6,1l-95.7,118.8c-15.7,0.8-29.9,9.1-38.1,22.6
		c-13.7,22.3-6.6,51.7,15.8,65.3c22.3,13.7,51.7,6.6,65.3-15.7c8.2-13.4,9.2-29.7,2.9-44l63.2-138.8
		C287.5,303.7,286.8,301.4,284.9,300.2z M178.9,482.1c-9.7,0-17.5-7.8-17.5-17.5c0-9.7,7.8-17.5,17.5-17.5c9.7,0,17.5,7.8,17.5,17.5
		C196.4,474.3,188.5,482.1,178.9,482.1z"/>
</g>
</svg>
