<?xml version="1.0" encoding="utf-8"?>
<!-- Generator: Adobe Illustrator 18.1.1, SVG Export Plug-In . SVG Version: 6.00 Build 0)  -->
<svg version="1.1" id="Capa_1" xmlns="http://www.w3.org/2000/svg" xmlns:xlink="http://www.w3.org/1999/xlink" x="0px" y="0px"
	 viewBox="-272 363.9 66.1 66.1" enable-background="new -272 363.9 66.1 66.1" xml:space="preserve">
<g>
	<g>
		<path fill="#655F5F" d="M-238.9,430c-18.2,0-33.1-14.8-33.1-33.1c0-18.2,14.8-33.1,33.1-33.1s33.1,14.8,33.1,33.1
			C-205.9,415.2-220.7,430-238.9,430z M-238.9,367.9c-16,0-29.1,13-29.1,29.1c0,16,13,29.1,29.1,29.1c16,0,29.1-13,29.1-29.1
			C-209.9,380.9-222.9,367.9-238.9,367.9z"/>
		<circle fill="#655F5F" cx="-246.7" cy="389.5" r="4.3"/>
		<circle fill="#655F5F" cx="-230.4" cy="389.5" r="4.3"/>
		<path fill="#655F5F" d="M-238.6,412.3c-9.2,0-15-6.1-15.1-6.2l2.9-2.7c0.4,0.5,10.6,11.1,25.6-0.2l2.4,3.2
			C-228.6,410.8-234,412.3-238.6,412.3z"/>
	</g>
</g>
</svg>
