<?xml version="1.0" encoding="utf-8"?>
<!-- Generator: Adobe Illustrator 18.1.1, SVG Export Plug-In . SVG Version: 6.00 Build 0)  -->
<svg version="1.1" id="Capa_1" xmlns="http://www.w3.org/2000/svg" xmlns:xlink="http://www.w3.org/1999/xlink" x="0px" y="0px"
	 viewBox="-282 374 46 46" enable-background="new -282 374 46 46" xml:space="preserve">
<g>
	<g>
		<path fill="#59BEE8" d="M-242.7,380.7c-9-9-23.5-9-32.5,0c-9,9-9,23.5,0,32.5c9,9,23.5,9,32.5,0
			C-233.8,404.3-233.8,389.7-242.7,380.7z M-256,407c0,1.7-1.3,3-3,3c-1.7,0-3-1.3-3-3v-12c0-1.7,1.3-3,3-3c1.7,0,3,1.3,3,3V407z
			 M-259.1,389.9c-1.7,0-2.9-1.2-2.8-2.7c0-1.6,1.1-2.8,2.9-2.8c1.8,0,2.9,1.2,2.9,2.8C-256.1,388.6-257.3,389.9-259.1,389.9z"/>
	</g>
</g>
</svg>
